<svg width="24" height="24" viewBox="0 0 24 24" fill="none" xmlns="http://www.w3.org/2000/svg">
<g clip-path="url(#clip0_6835_3760)">
<path d="M20.2249 0.263733H4.0624C2.28128 0.263733 0.837402 1.70761 0.837402 3.48873V19.6512C0.837402 21.4324 2.28128 22.8762 4.0624 22.8762H20.2249C22.006 22.8762 23.4499 21.4324 23.4499 19.6512V3.48873C23.4499 1.70761 22.006 0.263733 20.2249 0.263733Z" fill="#35675B"/>
<path d="M23.4499 3.48873V5.06123C23.4499 3.27873 22.0074 1.83623 20.2249 1.83623H4.0624C2.2824 1.83623 0.837402 3.27873 0.837402 5.06123V3.48873C0.837402 1.70623 2.2824 0.263733 4.0624 0.263733H20.2249C22.0074 0.263733 23.4499 1.70623 23.4499 3.48873Z" fill="#265649"/>
<path d="M0.837402 20.1962V18.6237C0.837402 20.4062 2.2799 21.8487 4.0624 21.8487H20.2249C22.0049 21.8487 23.4499 20.4062 23.4499 18.6237V20.1962C23.4499 21.9787 22.0049 23.4212 20.2249 23.4212H4.0624C2.2799 23.4212 0.837402 21.9787 0.837402 20.1962Z" fill="#81B7A8"/>
<path d="M18.7773 2.07874H5.50982C3.98966 2.07874 2.75732 3.31107 2.75732 4.83124V18.0987C2.75732 19.6189 3.98966 20.8512 5.50982 20.8512H18.7773C20.2975 20.8512 21.5298 19.6189 21.5298 18.0987V4.83124C21.5298 3.31107 20.2975 2.07874 18.7773 2.07874Z" fill="black"/>
<path d="M17.7374 4.92374V13.8162C17.7374 14.2037 17.5499 14.5662 17.2349 14.7812L12.1424 18.2762L7.04986 14.7812C6.73736 14.5662 6.54736 14.2037 6.54736 13.8162V4.92374L8.96236 5.50374C11.0524 6.00624 13.2274 6.00624 15.3199 5.50374L17.7349 4.92374H17.7374Z" fill="#00FFFF" stroke="#0C0C0C" stroke-width="0.0575" stroke-linecap="round" stroke-linejoin="round"/>
<g style="mix-blend-mode:multiply">
<path d="M7.44756 14.2062C7.32256 14.1212 7.24756 13.9737 7.24756 13.8137V5.80875L8.80256 6.18125C9.89756 6.44375 11.0201 6.57625 12.1451 6.57625C13.2676 6.57625 14.3926 6.44375 15.4851 6.18125L17.0401 5.80875V13.8162C17.0401 13.9762 16.9651 14.1212 16.8401 14.2087L12.1426 17.4337L7.44506 14.2087L7.44756 14.2062Z" fill="#AFAFAF"/>
<path d="M7.44756 14.2062C7.32256 14.1212 7.24756 13.9737 7.24756 13.8137V5.80875L8.80256 6.18125C9.89756 6.44375 11.0201 6.57625 12.1451 6.57625C13.2676 6.57625 14.3926 6.44375 15.4851 6.18125L17.0401 5.80875V13.8162C17.0401 13.9762 16.9651 14.1212 16.8401 14.2087L12.1426 17.4337L7.44506 14.2087L7.44756 14.2062Z" stroke="#0C0C0C" stroke-width="0.115" stroke-linecap="round" stroke-linejoin="round"/>
</g>
<path d="M12.1451 5.88123L12.1426 18.2762" stroke="#0C0C0C" stroke-width="0.0575" stroke-linecap="round" stroke-linejoin="round"/>
<path d="M9.1748 13.2562C9.0948 13.2012 9.0498 13.1087 9.0498 13.0087V7.94623L10.0323 8.18123C10.7248 8.34623 11.4348 8.43123 12.1448 8.43123C12.8548 8.43123 13.5648 8.34623 14.2573 8.18123L15.2398 7.94373V13.0062C15.2398 13.1062 15.1923 13.1987 15.1148 13.2537L12.1448 15.2912L9.1748 13.2537V13.2562Z" fill="#00FFFF" stroke="#0C0C0C" stroke-width="0.0575" stroke-linecap="round" stroke-linejoin="round"/>
<path d="M9.63723 12.9812C9.56973 12.9362 9.53223 12.8562 9.53223 12.7712V8.49872L10.3622 8.69872C10.9472 8.83872 11.5472 8.91122 12.1447 8.91122C12.7447 8.91122 13.3447 8.84122 13.9272 8.69872L14.7572 8.49872V12.7712C14.7572 12.8562 14.7172 12.9337 14.6497 12.9812L12.1422 14.7012L9.63473 12.9812H9.63723Z" fill="black"/>
<path d="M15.3223 5.50374C13.2323 6.00624 11.0573 6.00624 8.9648 5.50374L6.5498 4.92374V13.8162C6.5498 14.2037 6.7373 14.5662 7.0523 14.7812L12.1448 18.2762L17.2373 14.7812C17.5498 14.5662 17.7398 14.2037 17.7398 13.8162V4.92374L15.3248 5.50374H15.3223Z" stroke="black" stroke-width="0.3525" stroke-miterlimit="10"/>
<path d="M13.6626 12.8662H10.9276V12.5612H10.6226V10.1312H10.9276V9.82623H13.6626V10.4337H11.8401V12.2562H13.6626V12.8637V12.8662Z" fill="#00FFFF"/>
</g>
<defs>
<clipPath id="clip0_6835_3760">
<rect width="22.6125" height="23.1575" fill="white" transform="translate(0.837402 0.263733)"/>
</clipPath>
</defs>
</svg>
