<svg width="23" height="24" viewBox="0 0 23 24" fill="none" xmlns="http://www.w3.org/2000/svg">
<g clip-path="url(#clip0_6835_3664)">
<path d="M19.3875 0.263733H3.225C1.44388 0.263733 0 1.70761 0 3.48873V19.6512C0 21.4324 1.44388 22.8762 3.225 22.8762H19.3875C21.1686 22.8762 22.6125 21.4324 22.6125 19.6512V3.48873C22.6125 1.70761 21.1686 0.263733 19.3875 0.263733Z" fill="#35675B"/>
<path d="M22.6125 3.48873V5.06123C22.6125 3.27873 21.17 1.83623 19.3875 1.83623H3.225C1.445 1.83623 0 3.27873 0 5.06123V3.48873C0 1.70623 1.445 0.263733 3.225 0.263733H19.3875C21.17 0.263733 22.6125 1.70623 22.6125 3.48873Z" fill="#265649"/>
<path d="M0 20.1962V18.6237C0 20.4062 1.4425 21.8487 3.225 21.8487H19.3875C21.1675 21.8487 22.6125 20.4062 22.6125 18.6237V20.1962C22.6125 21.9787 21.1675 23.4212 19.3875 23.4212H3.225C1.4425 23.4212 0 21.9787 0 20.1962Z" fill="#81B7A8"/>
<path d="M17.9399 1.97372H4.67242C3.15226 1.97372 1.91992 3.20606 1.91992 4.72622V17.9937C1.91992 19.5139 3.15226 20.7462 4.67242 20.7462H17.9399C19.4601 20.7462 20.6924 19.5139 20.6924 17.9937V4.72622C20.6924 3.20606 19.4601 1.97372 17.9399 1.97372Z" fill="black"/>
<path d="M15.8924 8.06372H6.72238C6.11901 8.06372 5.62988 8.55285 5.62988 9.15622V14.0687C5.62988 14.6721 6.11901 15.1612 6.72238 15.1612H15.8924C16.4958 15.1612 16.9849 14.6721 16.9849 14.0687V9.15622C16.9849 8.55285 16.4958 8.06372 15.8924 8.06372Z" fill="#00FFFF" stroke="#0C0C0C" stroke-width="0.305" stroke-miterlimit="10"/>
<path d="M8.86512 8.90375H7.09262C6.83166 8.90375 6.62012 9.11529 6.62012 9.37625V13.8487C6.62012 14.1097 6.83166 14.3212 7.09262 14.3212H8.86512C9.12607 14.3212 9.33762 14.1097 9.33762 13.8487V9.37625C9.33762 9.11529 9.12607 8.90375 8.86512 8.90375Z" fill="black"/>
<path d="M12.1923 8.90375H10.4198C10.1588 8.90375 9.94727 9.11529 9.94727 9.37625V13.8487C9.94727 14.1097 10.1588 14.3212 10.4198 14.3212H12.1923C12.4532 14.3212 12.6648 14.1097 12.6648 13.8487V9.37625C12.6648 9.11529 12.4532 8.90375 12.1923 8.90375Z" fill="black"/>
<path d="M15.5199 8.90375H13.7474C13.4864 8.90375 13.2749 9.11529 13.2749 9.37625V13.8487C13.2749 14.1097 13.4864 14.3212 13.7474 14.3212H15.5199C15.7809 14.3212 15.9924 14.1097 15.9924 13.8487V9.37625C15.9924 9.11529 15.7809 8.90375 15.5199 8.90375Z" fill="black"/>
<path d="M8.63238 9.28873H7.32488C7.11363 9.28873 6.94238 9.45998 6.94238 9.67123V13.5512C6.94238 13.7625 7.11363 13.9337 7.32488 13.9337H8.63238C8.84363 13.9337 9.01488 13.7625 9.01488 13.5512V9.67123C9.01488 9.45998 8.84363 9.28873 8.63238 9.28873Z" fill="#4DC7F6"/>
<path d="M11.96 9.28873H10.6525C10.4413 9.28873 10.27 9.45998 10.27 9.67123V13.5512C10.27 13.7625 10.4413 13.9337 10.6525 13.9337H11.96C12.1713 13.9337 12.3425 13.7625 12.3425 13.5512V9.67123C12.3425 9.45998 12.1713 9.28873 11.96 9.28873Z" fill="#4DC7F6"/>
<path d="M15.2877 9.28873H13.9802C13.7689 9.28873 13.5977 9.45998 13.5977 9.67123V13.5512C13.5977 13.7625 13.7689 13.9337 13.9802 13.9337H15.2877C15.4989 13.9337 15.6702 13.7625 15.6702 13.5512V9.67123C15.6702 9.45998 15.4989 9.28873 15.2877 9.28873Z" fill="#4DC7F6"/>
<path d="M16.4052 5.91622H15.5502V5.06122H14.6377V5.91622H13.7827V6.82872H14.6377V7.68372H15.5502V6.82872H16.4052V5.91622Z" fill="#00FFFF" stroke="#0C0C0C" stroke-width="0.25" stroke-miterlimit="10"/>
</g>
<defs>
<clipPath id="clip0_6835_3664">
<rect width="22.6125" height="23.1575" fill="white" transform="translate(0 0.263733)"/>
</clipPath>
</defs>
</svg>
