<svg width="41" height="44" viewBox="0 0 41 44" fill="none" xmlns="http://www.w3.org/2000/svg">
<g clip-path="url(#clip0_6865_3001)">
<path d="M35.7844 36.0252C35.9399 35.8397 36.092 35.6491 36.2408 35.4586C36.2475 35.4502 36.2541 35.4419 36.2608 35.4318C36.5567 35.049 36.8392 34.6545 37.1083 34.25C37.12 34.2316 37.1334 34.2132 37.1451 34.1931C37.4059 33.7953 37.655 33.3891 37.8873 32.9712C37.9007 32.9478 37.9141 32.9244 37.9274 32.901C38.0428 32.692 38.1565 32.4814 38.2634 32.2691C38.2651 32.2641 38.2668 32.2607 38.2701 32.2557C38.3754 32.0485 38.4774 31.8378 38.576 31.6255C38.5861 31.6021 38.5978 31.5787 38.6078 31.557C38.7047 31.3447 38.8 31.1291 38.8903 30.9134C38.9003 30.8883 38.912 30.8616 38.9221 30.8365C39.0073 30.6276 39.0909 30.4169 39.1695 30.2046C39.1745 30.1913 39.1795 30.1779 39.1845 30.1629C39.2647 29.9439 39.3416 29.7232 39.4152 29.5009C39.4269 29.4641 39.4403 29.4257 39.452 29.3889C39.5957 28.9442 39.7244 28.4929 39.8364 28.0365C39.8465 27.9931 39.8582 27.9513 39.8682 27.9078C39.9217 27.6822 39.9735 27.4565 40.0186 27.2275C40.0237 27.2024 40.0287 27.1773 40.0337 27.1523C40.0755 26.9416 40.1139 26.7293 40.149 26.517C40.1557 26.4752 40.1641 26.4335 40.1691 26.3917C40.2042 26.1643 40.2376 25.9353 40.2644 25.7063C40.2694 25.6628 40.2744 25.6177 40.2794 25.5742C40.3045 25.3619 40.3246 25.1496 40.3429 24.9357C40.3463 24.9039 40.348 24.8738 40.3513 24.8437C40.3697 24.6114 40.3831 24.3774 40.3931 24.1417C40.3948 24.0898 40.3964 24.038 40.3998 23.9845C40.4081 23.7455 40.4148 23.5048 40.4148 23.264C40.4148 23.0885 40.4131 22.9147 40.4081 22.7392C40.4081 22.7241 40.4081 22.7107 40.4081 22.6957C40.4031 22.5352 40.3981 22.3747 40.3897 22.2143C40.3897 22.2093 40.3897 22.2042 40.3897 22.1975C40.3847 22.0922 40.3764 21.9869 40.3697 21.8816C40.4014 21.4253 40.4182 20.9656 40.4182 20.5025C40.4148 9.50154 31.4984 0.585083 20.4991 0.585083C9.49975 0.585083 0.584961 9.50154 0.584961 20.4992C0.584961 20.9639 0.601677 21.4236 0.633438 21.8783C0.601677 22.3346 0.584961 22.7943 0.584961 23.2574C0.584961 34.2567 9.50142 43.1715 20.4991 43.1715C23.6618 43.1715 26.6523 42.4326 29.3069 41.1204C29.3119 41.1187 29.3152 41.1154 29.3202 41.1137C29.7666 40.893 30.2045 40.654 30.6325 40.4016C30.6391 40.3982 30.6458 40.3932 30.6525 40.3899C31.0805 40.1358 31.5 39.865 31.9062 39.5808C31.9079 39.5808 31.9096 39.5791 31.9113 39.5775C32.1152 39.4337 32.3175 39.2866 32.5164 39.1361L32.5197 39.1328C32.9142 38.8336 33.297 38.5193 33.6681 38.1934C33.6765 38.185 33.6865 38.1766 33.6949 38.1683C34.0593 37.8457 34.4103 37.5113 34.7497 37.162C34.7597 37.1519 34.7697 37.1402 34.7814 37.1302C35.1208 36.7808 35.4484 36.4181 35.761 36.0453C35.7677 36.037 35.7744 36.0303 35.7811 36.0219L35.7844 36.0252Z" stroke="#0F2149" stroke-width="1.17014" stroke-miterlimit="10"/>
<path d="M20.4991 43.1731C31.4973 43.1731 40.4131 34.2573 40.4131 23.259C40.4131 12.2608 31.4973 3.34492 20.4991 3.34492C9.5008 3.34492 0.584961 12.2608 0.584961 23.259C0.584961 34.2573 9.5008 43.1731 20.4991 43.1731Z" fill="#155584" stroke="#16282B" stroke-width="0.085253" stroke-miterlimit="10"/>
<path d="M20.499 40.2361C29.8752 40.2361 37.4761 32.6352 37.4761 23.259C37.4761 13.8828 29.8752 6.28197 20.499 6.28197C11.1229 6.28197 3.52197 13.8828 3.52197 23.259C3.52197 32.6352 11.1229 40.2361 20.499 40.2361Z" fill="#1E5D6B"/>
<path d="M20.4991 40.4133C31.4973 40.4133 40.4131 31.4974 40.4131 20.4992C40.4131 9.50093 31.4973 0.585083 20.4991 0.585083C9.5008 0.585083 0.584961 9.50093 0.584961 20.4992C0.584961 31.4974 9.5008 40.4133 20.4991 40.4133Z" fill="#00BAEB" stroke="#16282B" stroke-width="0.085253" stroke-miterlimit="10"/>
<path d="M32.505 32.5031C39.1347 25.8734 39.1347 15.1249 32.505 8.49519L8.49707 32.5031C15.1267 39.1328 25.8753 39.1328 32.505 32.5031Z" fill="#4271D6"/>
<path d="M32.5051 8.4952C25.8754 1.86553 15.1268 1.86553 8.49716 8.4952C1.86748 15.1249 1.86748 25.8734 8.49716 32.5031L32.5051 8.4952Z" fill="#7191E4"/>
<path d="M32.505 32.5031C39.1347 25.8734 39.1347 15.1249 32.505 8.49519L8.49707 32.5031C15.1267 39.1328 25.8753 39.1328 32.505 32.5031Z" fill="#214789"/>
<path d="M32.5051 8.4952C25.8754 1.86553 15.1268 1.86553 8.49716 8.4952C1.86748 15.1249 1.86748 25.8734 8.49716 32.5031L32.5051 8.4952Z" fill="#214789"/>
<path d="M20.501 37.4779C29.8771 37.4779 37.478 29.877 37.478 20.5008C37.478 11.1247 29.8771 3.52379 20.501 3.52379C11.1248 3.52379 3.52393 11.1247 3.52393 20.5008C3.52393 29.877 11.1248 37.4779 20.501 37.4779Z" stroke="#0F2149" stroke-width="0.501488" stroke-miterlimit="10"/>
<g style="mix-blend-mode:multiply">
<path d="M29.4807 15.9206L30.0106 15.6698L30.6876 10.7569L24.4441 8.68242L18.4095 11.0143L11.4372 12.6659L11.6896 15.9791L5.19531 17.8697L5.76199 25.6628L13.6521 27.9279L15.098 26.9433L15.2284 28.7486L23.1185 31.012L30.1661 26.2128L35.0623 23.585L35.8045 17.8697L29.4807 15.9206Z" fill="#FCD2B4"/>
<path d="M29.4807 15.9206L30.0106 15.6698L30.6876 10.7569L24.4441 8.68242L18.4095 11.0143L11.4372 12.6659L11.6896 15.9791L5.19531 17.8697L5.76199 25.6628L13.6521 27.9279L15.098 26.9433L15.2284 28.7486L23.1185 31.012L30.1661 26.2128L35.0623 23.585L35.8045 17.8697L29.4807 15.9206Z" stroke="#1A1A1A" stroke-width="1.03307" stroke-miterlimit="10"/>
</g>
<path d="M5.19531 17.8697L14.2238 20.4992L13.6521 27.9279L5.76199 25.6628L5.19531 17.8697Z" fill="#FFB171" stroke="black" stroke-width="0.172178" stroke-linecap="round" stroke-linejoin="round"/>
<path d="M13.6523 27.9279L20.6999 23.127L25.5944 20.4992L26.3383 14.7839L14.224 20.4992L13.6523 27.9279Z" fill="#E88725" stroke="black" stroke-width="0.172178" stroke-linecap="round" stroke-linejoin="round"/>
<path d="M5.19531 17.8697L12.8514 15.6414L19.481 12.6693L26.3381 14.7839L14.2238 20.4992L5.19531 17.8697Z" fill="#FFC28E" stroke="black" stroke-width="0.172178" stroke-linecap="round" stroke-linejoin="round"/>
<g style="mix-blend-mode:multiply">
<path d="M6.39571 19.9275L7.02425 25.1279L12.7379 26.843V21.3567L7.65278 19.9275L8.22447 24.2135L10.7954 24.7284L11.195 22.2142L9.70888 21.6994L9.56679 22.5569C9.56679 22.5569 10.3374 22.8428 10.2806 22.8996C10.2237 22.9564 9.70888 23.7572 9.70888 23.7572L8.90817 23.1855L8.50865 20.7282L11.994 21.8716L11.5945 25.4137L7.59427 24.7284L7.02257 19.9291H6.39404L6.39571 19.9275Z" fill="#FCD2B4"/>
</g>
<path d="M13.1577 15.6013L21.8385 16.7614L26.0326 14.7839L19.4865 12.7645L13.1577 15.6013Z" fill="#FCD2B4"/>
<g style="mix-blend-mode:multiply">
<path d="M13.6523 27.9279L14.224 20.4992L19.9945 18.8977L26.0324 15.8136L25.6379 20.1732L19.9945 22.3647L13.6523 27.9279Z" fill="#FCD2B4"/>
</g>
<path d="M14.6621 20.9555L23.6906 23.585L23.1189 31.012L15.2288 28.7486L14.6621 20.9555Z" fill="#FFB171" stroke="black" stroke-width="0.172178" stroke-linecap="round" stroke-linejoin="round"/>
<path d="M23.1187 31.012L30.1662 26.2128L35.0624 23.585L35.8046 17.8697L23.6903 23.585L23.1187 31.012Z" fill="#E88725" stroke="black" stroke-width="0.172178" stroke-linecap="round" stroke-linejoin="round"/>
<path d="M14.6621 20.9555L22.3182 18.7272L28.9478 15.7551L35.8048 17.8697L23.6906 23.585L14.6621 20.9555Z" fill="#FFC28E" stroke="black" stroke-width="0.172178" stroke-linecap="round" stroke-linejoin="round"/>
<g style="mix-blend-mode:multiply">
<path d="M15.862 23.0133L16.4906 28.2137L22.2042 29.9288V24.4425L17.1191 23.0133L17.6908 27.2994L20.2617 27.8142L20.6613 25.3001L19.1752 24.7852L19.0331 25.6428C19.0331 25.6428 19.8037 25.9286 19.7469 25.9855C19.69 26.0423 19.1752 26.843 19.1752 26.843L18.3745 26.2713L17.975 23.814L21.4603 24.9574L21.0608 28.4996L17.0606 27.8142L16.4889 23.015H15.8604L15.862 23.0133Z" fill="#FCD2B4"/>
</g>
<path d="M22.6235 18.6871L31.3043 19.8472L35.5001 17.8697L28.9523 15.8504L22.6235 18.6871Z" fill="#FCD2B4"/>
<g style="mix-blend-mode:multiply">
<path d="M23.1187 31.012L23.6903 23.585L29.4608 21.9836L35.5004 18.8978L35.1042 23.259L29.4608 25.4505L23.1187 31.012Z" fill="#FCD2B4"/>
</g>
<path d="M11.4375 12.6659L19.6586 15.262L19.137 21.6643L11.954 19.4243L11.4375 12.6659Z" fill="#FFB171" stroke="black" stroke-width="0.158805" stroke-linecap="round" stroke-linejoin="round"/>
<path d="M19.1367 21.6643L25.5541 17.7677L30.0123 15.6698L30.6877 10.7569L19.6583 15.2619L19.1367 21.6643Z" fill="#E88725" stroke="black" stroke-width="0.158805" stroke-linecap="round" stroke-linejoin="round"/>
<path d="M11.4375 12.6659L18.4099 11.0143L24.4444 8.68242L30.688 10.7569L19.6586 15.2619L11.4375 12.6659Z" fill="#FFC28E" stroke="black" stroke-width="0.158805" stroke-linecap="round" stroke-linejoin="round"/>
<g style="mix-blend-mode:multiply">
<path d="M12.5308 14.488L13.1025 19.0064L18.3046 20.6931V15.9507L13.6742 14.5331L14.194 18.2592L16.536 18.7958L16.9004 16.636L15.548 16.1379L15.4177 16.8734C15.4177 16.8734 16.1197 17.1476 16.0679 17.196C16.0161 17.2445 15.548 17.9165 15.548 17.9165L14.8192 17.3933L14.4548 15.2553L17.6292 16.3686L17.2648 19.4176L13.6223 18.6821L13.1025 14.5114L12.5308 14.4897V14.488Z" fill="#FCD2B4"/>
</g>
<path d="M18.687 10.991L26.5905 12.3048L30.4101 10.7452L24.4491 8.76434L18.687 10.991Z" fill="#FCD2B4"/>
<g style="mix-blend-mode:multiply">
<path d="M19.1367 21.6643L19.6583 15.262L24.9122 14.0868L30.4102 11.6345L30.0508 15.3907L24.9122 17.084L19.1367 21.6643Z" fill="#FCD2B4"/>
</g>
</g>
<defs>
<clipPath id="clip0_6865_3001">
<rect width="41" height="43.7582" fill="white"/>
</clipPath>
</defs>
</svg>
