<svg width="24" height="24" viewBox="0 0 24 24" fill="none" xmlns="http://www.w3.org/2000/svg">
<g clip-path="url(#clip0_6835_3995)">
<path d="M20.0623 0H3.8998C2.11869 0 0.674805 1.44388 0.674805 3.225V19.3875C0.674805 21.1686 2.11869 22.6125 3.8998 22.6125H20.0623C21.8434 22.6125 23.2873 21.1686 23.2873 19.3875V3.225C23.2873 1.44388 21.8434 0 20.0623 0Z" fill="#35675B"/>
<path d="M23.2873 3.225V4.7975C23.2873 3.015 21.8448 1.5725 20.0623 1.5725H3.8998C2.1198 1.5725 0.674805 3.015 0.674805 4.7975V3.225C0.674805 1.4425 2.1198 0 3.8998 0H20.0623C21.8448 0 23.2873 1.4425 23.2873 3.225Z" fill="#265649"/>
<path d="M0.674805 19.9325V18.36C0.674805 20.1425 2.1173 21.585 3.8998 21.585H20.0623C21.8423 21.585 23.2873 20.1425 23.2873 18.36V19.9325C23.2873 21.715 21.8423 23.1575 20.0623 23.1575H3.8998C2.1173 23.1575 0.674805 21.715 0.674805 19.9325Z" fill="#81B7A8"/>
<path d="M18.6147 1.92001H5.34723C3.82706 1.92001 2.59473 3.15235 2.59473 4.67251V17.94C2.59473 19.4602 3.82706 20.6925 5.34723 20.6925H18.6147C20.1349 20.6925 21.3672 19.4602 21.3672 17.94V4.67251C21.3672 3.15235 20.1349 1.92001 18.6147 1.92001Z" fill="black"/>
<path d="M10.9822 6.785H13.8372L12.5172 10.4375H14.8372L10.6347 16.255L12.0097 11.67H9.99219L10.9822 6.785Z" fill="#00FFFF"/>
<path d="M11.9822 17.695C15.5099 17.695 18.3697 14.8352 18.3697 11.3075C18.3697 7.77979 15.5099 4.92001 11.9822 4.92001C8.45451 4.92001 5.59473 7.77979 5.59473 11.3075C5.59473 14.8352 8.45451 17.695 11.9822 17.695Z" stroke="#00FFFF" stroke-width="0.3525" stroke-miterlimit="10"/>
</g>
<defs>
<clipPath id="clip0_6835_3995">
<rect width="22.6125" height="23.1575" fill="white" transform="translate(0.674805)"/>
</clipPath>
</defs>
</svg>
