<svg width="42" height="45" viewBox="0 0 42 45" fill="none" xmlns="http://www.w3.org/2000/svg">
<g clip-path="url(#clip0_6855_3105)">
<path d="M36.3921 36.6367C36.5502 36.448 36.7049 36.2542 36.8562 36.0604C36.863 36.0519 36.8698 36.0434 36.8766 36.0332C37.1775 35.6439 37.4648 35.2427 37.7385 34.8313C37.7504 34.8126 37.764 34.7939 37.7759 34.7735C38.0411 34.3689 38.2944 33.9558 38.5307 33.5308C38.5443 33.507 38.5579 33.4832 38.5715 33.4594C38.6888 33.2469 38.8044 33.0327 38.9132 32.8168C38.9149 32.8117 38.9166 32.8083 38.92 32.8032C39.0271 32.5924 39.1308 32.3782 39.2311 32.1623C39.2413 32.1385 39.2532 32.1147 39.2634 32.0926C39.362 31.8767 39.4589 31.6574 39.5507 31.4381C39.5609 31.4126 39.5728 31.3854 39.583 31.3599C39.6697 31.1474 39.7547 30.9332 39.8346 30.7173C39.8397 30.7037 39.8448 30.6901 39.8499 30.6748C39.9315 30.4521 40.0097 30.2277 40.0845 30.0016C40.0964 29.9642 40.11 29.9251 40.1219 29.8877C40.2681 29.4355 40.399 28.9765 40.5129 28.5124C40.5231 28.4682 40.535 28.4257 40.5452 28.3815C40.5996 28.152 40.6523 27.9225 40.6982 27.6896C40.7033 27.6641 40.7084 27.6386 40.7135 27.6131C40.756 27.3989 40.7951 27.183 40.8308 26.9671C40.8376 26.9246 40.8461 26.8821 40.8512 26.8396C40.8869 26.6084 40.9209 26.3755 40.9481 26.1426C40.9532 26.0984 40.9583 26.0525 40.9634 26.0083C40.9889 25.7924 41.0093 25.5765 41.028 25.3589C41.0314 25.3266 41.0331 25.296 41.0365 25.2654C41.0552 25.0291 41.0688 24.7911 41.079 24.5514C41.0807 24.4987 41.0824 24.446 41.0858 24.3916C41.0943 24.1485 41.1011 23.9037 41.1011 23.6589C41.1011 23.4804 41.0994 23.3036 41.0943 23.1251C41.0943 23.1098 41.0943 23.0962 41.0943 23.0809C41.0892 22.9177 41.0841 22.7545 41.0756 22.5913C41.0756 22.5862 41.0756 22.5811 41.0756 22.5743C41.0705 22.4672 41.062 22.3601 41.0552 22.253C41.0875 21.7889 41.1045 21.3214 41.1045 20.8505C41.1011 9.6628 32.0333 0.595001 20.8473 0.595001C9.66131 0.595001 0.595215 9.6628 0.595215 20.8471C0.595215 21.3197 0.612215 21.7872 0.644515 22.2496C0.612215 22.7137 0.595215 23.1812 0.595215 23.6521C0.595215 34.8381 9.66301 43.9042 20.8473 43.9042C24.0637 43.9042 27.105 43.1528 29.8046 41.8183C29.8097 41.8166 29.8131 41.8132 29.8182 41.8115C30.2721 41.5871 30.7175 41.344 31.1527 41.0873C31.1595 41.0839 31.1663 41.0788 31.1731 41.0754C31.6083 40.817 32.035 40.5416 32.4481 40.2526C32.4498 40.2526 32.4515 40.2509 32.4532 40.2492C32.6606 40.103 32.8663 39.9534 33.0686 39.8004L33.072 39.797C33.4732 39.4927 33.8625 39.1731 34.2399 38.8416C34.2484 38.8331 34.2586 38.8246 34.2671 38.8161C34.6377 38.488 34.9947 38.148 35.3398 37.7927C35.35 37.7825 35.3602 37.7706 35.3721 37.7604C35.7172 37.4051 36.0504 37.0362 36.3683 36.6571C36.3751 36.6486 36.3819 36.6418 36.3887 36.6333L36.3921 36.6367Z" stroke="#0F2149" stroke-width="1.19" stroke-miterlimit="10"/>
<path d="M20.8473 43.9059C32.0322 43.9059 41.0994 34.8387 41.0994 23.6538C41.0994 12.4689 32.0322 3.4017 20.8473 3.4017C9.66239 3.4017 0.595215 12.4689 0.595215 23.6538C0.595215 34.8387 9.66239 43.9059 20.8473 43.9059Z" fill="#155584" stroke="#16282B" stroke-width="0.0867" stroke-miterlimit="10"/>
<path d="M20.8472 40.919C30.3825 40.919 38.1124 33.1891 38.1124 23.6538C38.1124 14.1185 30.3825 6.38861 20.8472 6.38861C11.3119 6.38861 3.58203 14.1185 3.58203 23.6538C3.58203 33.1891 11.3119 40.919 20.8472 40.919Z" fill="#1E5D6B"/>
<path d="M20.8473 41.0992C32.0322 41.0992 41.0994 32.032 41.0994 20.8471C41.0994 9.66217 32.0322 0.595001 20.8473 0.595001C9.66239 0.595001 0.595215 9.66217 0.595215 20.8471C0.595215 32.032 9.66239 41.0992 20.8473 41.0992Z" fill="#00BAEB" stroke="#16282B" stroke-width="0.0867" stroke-miterlimit="10"/>
<path d="M33.0565 33.0548C39.7987 26.3126 39.7987 15.3816 33.0565 8.6394L8.64111 33.0548C15.3833 39.797 26.3143 39.797 33.0565 33.0548Z" fill="#4271D6"/>
<path d="M33.0565 8.63941C26.3143 1.89721 15.3833 1.89721 8.64112 8.63941C1.89892 15.3816 1.89892 26.3126 8.64112 33.0548L33.0565 8.63941Z" fill="#7191E4"/>
<path d="M33.0565 33.0548C39.7987 26.3126 39.7987 15.3816 33.0565 8.6394L8.64111 33.0548C15.3833 39.797 26.3143 39.797 33.0565 33.0548Z" fill="#214789"/>
<path d="M33.0565 8.63941C26.3143 1.89721 15.3833 1.89721 8.64112 8.63941C1.89892 15.3816 1.89892 26.3126 8.64112 33.0548L33.0565 8.63941Z" fill="#214789"/>
<path d="M20.8487 38.114C30.384 38.114 38.1139 30.3841 38.1139 20.8488C38.1139 11.3135 30.384 3.58359 20.8487 3.58359C11.3134 3.58359 3.5835 11.3135 3.5835 20.8488C3.5835 30.3841 11.3134 38.114 20.8487 38.114Z" stroke="#0F2149" stroke-width="0.51" stroke-miterlimit="10"/>
<path d="M24.815 16.4033C24.8218 16.1704 16.9338 14.3004 16.9338 14.3004L6.33936 18.7119L6.52806 20.2929L8.34876 21.0834C8.66326 21.2194 8.86726 21.5305 8.86726 21.8739V24.1536L6.52976 25.0818V26.4758L13.6936 28.5651L24.288 24.1536V22.5862L21.9233 21.3384L21.891 19.0281C23.5485 18.3311 24.8167 17.7973 24.8167 17.7973V16.4033H24.815Z" stroke="black" stroke-width="0.6936" stroke-miterlimit="10"/>
<path d="M16.9338 14.3004L24.815 16.4033V17.7973C24.815 17.7973 21.993 17.1003 21.9216 17.7973C21.8485 18.4943 21.9216 21.3384 21.9216 21.3384L24.2863 22.5862V24.1536L17.1225 22.0643V20.6703L19.46 20.757V17.4607C19.46 17.1173 19.256 16.8079 18.9415 16.6702L17.1208 15.8797L16.9321 14.2987L16.9338 14.3004Z" fill="#1A1A1A"/>
<path d="M11.3271 25.7482L21.9215 21.3367L21.8892 19.0264L14.2205 22.2088L11.3271 21.4829V25.7482Z" fill="#808080"/>
<path d="M6.3391 18.7119L14.2203 20.8148V22.2088C14.2203 22.2088 11.3983 21.5118 11.3269 22.2088C11.2555 22.9058 11.3269 25.7499 11.3269 25.7499L13.6916 26.9977V28.5651L6.5278 26.4758V25.0818L8.8653 25.1685V21.8722C8.8653 21.5288 8.6613 21.2194 8.3468 21.0817L6.5261 20.2912L6.3374 18.7102L6.3391 18.7119Z" fill="#CCCCCC"/>
<path d="M6.33936 18.7119L16.9338 14.3004C16.9338 14.3004 24.8218 16.1721 24.815 16.4033C24.8082 16.6345 14.2206 20.8148 14.2206 20.8148L6.33936 18.7119Z" fill="#E6E6E6"/>
<path d="M14.2203 20.8148C14.2203 20.8148 13.9653 22.2666 14.2203 22.2088C14.4753 22.151 24.8147 17.7973 24.8147 17.7973V16.4033L14.2203 20.8148Z" fill="#999999"/>
<path d="M6.52783 25.0818L8.86533 24.1519V25.1685L6.52783 25.0818Z" fill="#999999"/>
<path d="M11.3271 25.7482L21.9215 21.3367L24.2862 22.5845L13.6918 26.9977L11.3271 25.7482Z" fill="#E6E6E6"/>
<path d="M13.6919 26.9977V27.2289V28.5651L24.2863 24.1519V22.5845L13.6919 26.9977Z" fill="#999999"/>
<path d="M9.93823 17.2125L22.4332 17.3944L18.5147 19.0264L7.21143 18.3481L9.93823 17.2125Z" fill="white"/>
<path d="M13.6919 15.6502L20.684 15.2167L16.9338 14.3004L13.6919 15.6502Z" fill="white"/>
<path d="M14.2207 24.5446L19.3037 24.6602L21.41 23.783L15.9003 23.8442L14.2207 24.5446Z" fill="white"/>
<path d="M11.7062 19.1862C12.354 19.1862 12.8792 18.9739 12.8792 18.7119C12.8792 18.45 12.354 18.2376 11.7062 18.2376C11.0584 18.2376 10.5332 18.45 10.5332 18.7119C10.5332 18.9739 11.0584 19.1862 11.7062 19.1862Z" fill="#999999"/>
<path d="M18.5402 16.5988C19.188 16.5988 19.7132 16.3865 19.7132 16.1245C19.7132 15.8626 19.188 15.6502 18.5402 15.6502C17.8924 15.6502 17.3672 15.8626 17.3672 16.1245C17.3672 16.3865 17.8924 16.5988 18.5402 16.5988Z" fill="#999999"/>
<path d="M35.2544 19.6316C35.2612 19.3987 27.3732 17.5287 27.3732 17.5287L16.7788 21.9402L16.9675 23.5212L18.7882 24.3117C19.1027 24.4477 19.3067 24.7588 19.3067 25.1022V27.3819L16.9692 28.3101V29.7041L24.133 31.7934L34.7274 27.3819V25.8145L32.3627 24.5667L32.3304 22.2564C33.9879 21.5594 35.2561 21.0256 35.2561 21.0256V19.6316H35.2544Z" stroke="black" stroke-width="0.6936" stroke-miterlimit="10"/>
<path d="M27.3733 17.5287L35.2545 19.6316V21.0256C35.2545 21.0256 32.4325 20.3286 32.3611 21.0256C32.2897 21.7226 32.3611 24.5667 32.3611 24.5667L34.7258 25.8145V27.3819L27.562 25.2926V23.8986L29.8995 23.9853V20.689C29.8995 20.3456 29.6955 20.0362 29.381 19.8985L27.5603 19.108L27.3716 17.527L27.3733 17.5287Z" fill="#1A1A1A"/>
<path d="M21.7666 28.9782L32.361 24.565L32.3287 22.2547L24.66 25.4371L21.7666 24.7112V28.9782Z" fill="#808080"/>
<path d="M16.779 21.9402L24.6602 24.0431V25.4371C24.6602 25.4371 21.8382 24.7401 21.7668 25.4371C21.6954 26.1341 21.7668 28.9782 21.7668 28.9782L24.1315 30.226V31.7934L16.9677 29.7041V28.3101L19.3052 28.3968V25.1005C19.3052 24.7571 19.1012 24.4477 18.7867 24.31L16.966 23.5195L16.7773 21.9385L16.779 21.9402Z" fill="#CCCCCC"/>
<path d="M16.7788 21.9402L27.3732 17.5287C27.3732 17.5287 35.2612 19.4004 35.2544 19.6316C35.2476 19.8628 24.66 24.0431 24.66 24.0431L16.7788 21.9402Z" fill="#E6E6E6"/>
<path d="M24.6602 24.0431C24.6602 24.0431 24.4052 25.4949 24.6602 25.4371C24.9152 25.3793 35.2546 21.0256 35.2546 21.0256V19.6316L24.6602 24.0431Z" fill="#999999"/>
<path d="M16.9678 28.3101L19.307 27.3819V28.3968L16.9678 28.3101Z" fill="#999999"/>
<path d="M21.7666 28.9782L32.361 24.565L34.7257 25.8145L24.1313 30.226L21.7666 28.9782Z" fill="#E6E6E6"/>
<path d="M24.1313 30.226V30.4572V31.7934L34.7257 27.3819V25.8145L24.1313 30.226Z" fill="#999999"/>
<path d="M20.3777 20.4408L32.8727 20.6227L28.9559 22.2547L17.6509 21.5764L20.3777 20.4408Z" fill="white"/>
<path d="M24.1313 18.8785L31.1251 18.445L27.3732 17.5287L24.1313 18.8785Z" fill="white"/>
<path d="M24.6602 27.7729L29.7432 27.8885L31.8495 27.0113L26.3398 27.0725L24.6602 27.7729Z" fill="white"/>
<path d="M22.1457 22.4145C22.7935 22.4145 23.3187 22.2022 23.3187 21.9402C23.3187 21.6783 22.7935 21.4659 22.1457 21.4659C21.4978 21.4659 20.9727 21.6783 20.9727 21.9402C20.9727 22.2022 21.4978 22.4145 22.1457 22.4145Z" fill="#999999"/>
<path d="M28.9801 19.8271C29.628 19.8271 30.1531 19.6148 30.1531 19.3528C30.1531 19.0909 29.628 18.8785 28.9801 18.8785C28.3323 18.8785 27.8071 19.0909 27.8071 19.3528C27.8071 19.6148 28.3323 19.8271 28.9801 19.8271Z" fill="#999999"/>
<path d="M29.6753 11.2285C29.6821 11.0228 22.2497 8.91309 22.2497 8.91309L12.269 12.2468L12.4475 13.6646L14.1628 14.4704C14.4586 14.6098 14.6507 14.8971 14.6507 15.2031V17.2329L12.4475 17.9282V19.1692L19.1965 21.4319L29.1772 18.0982V16.7025L26.9485 15.4581L26.9179 13.3994C28.4802 12.8724 29.6753 12.4678 29.6753 12.4678V11.2268V11.2285Z" stroke="black" stroke-width="0.646" stroke-miterlimit="10"/>
<path d="M22.2495 8.91309L29.6751 11.2285V12.4695C29.6751 12.4695 27.018 11.6909 26.9483 12.3063C26.8803 12.9217 26.9483 15.4598 26.9483 15.4598L29.177 16.7042V18.0999L22.428 15.8372V14.5962L24.6312 14.8053V11.8711C24.6312 11.5651 24.4391 11.2778 24.1433 11.1384L22.428 10.3326L22.2495 8.91479V8.91309Z" fill="#1A1A1A"/>
<path d="M16.9692 18.7935L26.9482 15.4598L26.9176 13.3994L19.696 15.8032L16.9692 14.994V18.7935Z" fill="#808080"/>
<path d="M12.2705 12.2468L19.6961 14.5622V15.8032C19.6961 15.8032 17.039 15.0246 16.9693 15.64C16.8996 16.2554 16.9693 18.7935 16.9693 18.7935L19.198 20.0379V21.4336L12.449 19.1709V17.9299L14.6522 18.139V15.2048C14.6522 14.8988 14.4601 14.6115 14.1643 14.4721L12.449 13.6663L12.2705 12.2485V12.2468Z" fill="#CCCCCC"/>
<path d="M12.2705 12.2468L22.2512 8.91309C22.2512 8.91309 29.6819 11.0211 29.6768 11.2285C29.6717 11.4359 19.6961 14.5622 19.6961 14.5622L12.2705 12.2468Z" fill="#E6E6E6"/>
<path d="M19.6964 14.5622C19.6964 14.5622 19.4567 15.8406 19.6964 15.8032C19.9361 15.7658 29.6771 12.4695 29.6771 12.4695V11.2285L19.6964 14.5622Z" fill="#999999"/>
<path d="M12.4492 17.9299L14.6507 17.2329V18.1373L12.4492 17.9299Z" fill="#999999"/>
<path d="M16.9692 18.7935L26.9482 15.4598L29.1769 16.7042L19.1962 20.0362L16.9692 18.7935Z" fill="#E6E6E6"/>
<path d="M19.1963 20.0362V20.2436V21.4319L29.177 18.0982V16.7042L19.1963 20.0362Z" fill="#999999"/>
<path d="M15.6605 11.1146L27.4313 11.9782L23.7406 13.2107L13.0918 11.9731L15.6605 11.1146Z" fill="white"/>
<path d="M19.1963 9.93309L25.7838 9.93989L22.2495 8.91309L19.1963 9.93309Z" fill="white"/>
<path d="M19.6963 17.8823L24.4818 18.2716L26.4674 17.6086L21.2773 17.3536L19.6963 17.8823Z" fill="white"/>
<path d="M18.4293 12.6235C18.4455 12.3912 17.9643 12.1685 17.3546 12.1259C16.7449 12.0834 16.2374 12.2372 16.2212 12.4695C16.205 12.7018 16.6862 12.9246 17.2959 12.9671C17.9056 13.0096 18.4131 12.8558 18.4293 12.6235Z" fill="#999999"/>
<path d="M24.8677 10.7053C24.8839 10.473 24.4028 10.2502 23.7931 10.2077C23.1833 10.1652 22.6759 10.319 22.6597 10.5513C22.6435 10.7835 23.1247 11.0063 23.7344 11.0488C24.3441 11.0914 24.8515 10.9375 24.8677 10.7053Z" fill="#999999"/>
</g>
<defs>
<clipPath id="clip0_6855_3105">
<rect width="41.6959" height="44.5009" fill="white"/>
</clipPath>
</defs>
</svg>
