<svg width="23" height="24" viewBox="0 0 23 24" fill="none" xmlns="http://www.w3.org/2000/svg">
<g clip-path="url(#clip0_6835_3786)">
<path d="M19.45 0.263733H3.2875C1.50638 0.263733 0.0625 1.70761 0.0625 3.48873V19.6512C0.0625 21.4324 1.50638 22.8762 3.2875 22.8762H19.45C21.2311 22.8762 22.675 21.4324 22.675 19.6512V3.48873C22.675 1.70761 21.2311 0.263733 19.45 0.263733Z" fill="#35675B"/>
<path d="M22.675 3.48873V5.06123C22.675 3.27873 21.2325 1.83623 19.45 1.83623H3.2875C1.5075 1.83623 0.0625 3.27873 0.0625 5.06123V3.48873C0.0625 1.70623 1.5075 0.263733 3.2875 0.263733H19.45C21.2325 0.263733 22.675 1.70623 22.675 3.48873Z" fill="#265649"/>
<path d="M0.0625 20.1962V18.6237C0.0625 20.4062 1.505 21.8487 3.2875 21.8487H19.45C21.23 21.8487 22.675 20.4062 22.675 18.6237V20.1962C22.675 21.9787 21.23 23.4212 19.45 23.4212H3.2875C1.505 23.4212 0.0625 21.9787 0.0625 20.1962Z" fill="#81B7A8"/>
<path d="M18.0024 2.14874H4.73492C3.21476 2.14874 1.98242 3.38108 1.98242 4.90124V18.1687C1.98242 19.6889 3.21476 20.9212 4.73492 20.9212H18.0024C19.5226 20.9212 20.7549 19.6889 20.7549 18.1687V4.90124C20.7549 3.38108 19.5226 2.14874 18.0024 2.14874Z" fill="black"/>
<path d="M11.8651 11.5362C11.6976 11.5362 11.6151 11.3312 11.7351 11.2162L14.2601 8.80125C14.5676 8.50875 15.0051 8.33875 15.4651 8.33875C16.3601 8.33875 17.0851 8.96125 17.0851 9.73125V10.1462C17.0851 10.9137 16.3601 11.5387 15.4651 11.5387H11.8651V11.5362Z" fill="#00FFFF" stroke="#0C0C0C" stroke-width="0.2025" stroke-linecap="round" stroke-linejoin="round"/>
<path d="M11.8651 11.5362C11.6976 11.5362 11.6151 11.7412 11.7351 11.8562L14.2601 14.2712C14.5676 14.5637 15.0051 14.7337 15.4651 14.7337C16.3601 14.7337 17.0851 14.1112 17.0851 13.3412V12.9262C17.0851 12.1587 16.3601 11.5337 15.4651 11.5337H11.8651V11.5362Z" fill="#00FFFF" stroke="#0C0C0C" stroke-width="0.2025" stroke-linecap="round" stroke-linejoin="round"/>
<path d="M10.9373 11.5362C11.1048 11.5362 11.1873 11.7412 11.0673 11.8562L8.54228 14.2712C8.23478 14.5637 7.79729 14.7337 7.33729 14.7337C6.44229 14.7337 5.71729 14.1112 5.71729 13.3412V12.9262C5.71729 12.1587 6.44229 11.5337 7.33729 11.5337H10.9373V11.5362Z" fill="#00FFFF" stroke="#0C0C0C" stroke-width="0.2025" stroke-linecap="round" stroke-linejoin="round"/>
<path d="M10.9373 11.5362C11.1048 11.5362 11.1873 11.3312 11.0673 11.2162L8.54228 8.80125C8.23478 8.50875 7.79729 8.33875 7.33729 8.33875C6.44229 8.33875 5.71729 8.96125 5.71729 9.73125V10.1462C5.71729 10.9137 6.44229 11.5387 7.33729 11.5387H10.9373V11.5362Z" fill="#00FFFF" stroke="#0C0C0C" stroke-width="0.2025" stroke-linecap="round" stroke-linejoin="round"/>
<path d="M11.4024 11.9987C11.4024 11.8312 11.6074 11.7487 11.7224 11.8687L14.1374 14.3937C14.4299 14.7012 14.5999 15.1387 14.5999 15.5987C14.5999 16.4937 13.9774 17.2187 13.2074 17.2187H12.7924C12.0249 17.2187 11.3999 16.4937 11.3999 15.5987V11.9987H11.4024Z" fill="#00FFFF" stroke="#0C0C0C" stroke-width="0.2025" stroke-linecap="round" stroke-linejoin="round"/>
<path d="M11.4026 11.9987C11.4026 11.8312 11.1976 11.7487 11.0826 11.8687L8.66758 14.3937C8.37508 14.7012 8.20508 15.1387 8.20508 15.5987C8.20508 16.4937 8.82758 17.2187 9.59758 17.2187H10.0126C10.7801 17.2187 11.4051 16.4937 11.4051 15.5987V11.9987H11.4026Z" fill="#00FFFF" stroke="#0C0C0C" stroke-width="0.2025" stroke-linecap="round" stroke-linejoin="round"/>
<path d="M11.4026 11.0712C11.4026 11.2387 11.1976 11.3212 11.0826 11.2012L8.66758 8.67623C8.37508 8.36873 8.20508 7.93123 8.20508 7.47123C8.20508 6.57623 8.82758 5.85123 9.59758 5.85123H10.0126C10.7801 5.85123 11.4051 6.57623 11.4051 7.47123V11.0712H11.4026Z" fill="#00FFFF" stroke="#0C0C0C" stroke-width="0.2025" stroke-linecap="round" stroke-linejoin="round"/>
<path d="M11.4024 11.0712C11.4024 11.2387 11.6074 11.3212 11.7224 11.2012L14.1374 8.67623C14.4299 8.36873 14.5999 7.93123 14.5999 7.47123C14.5999 6.57623 13.9774 5.85123 13.2074 5.85123H12.7924C12.0249 5.85123 11.3999 6.57623 11.3999 7.47123V11.0712H11.4024Z" fill="#00FFFF" stroke="#0C0C0C" stroke-width="0.2025" stroke-linecap="round" stroke-linejoin="round"/>
</g>
<defs>
<clipPath id="clip0_6835_3786">
<rect width="22.6125" height="23.1575" fill="white" transform="translate(0.0625 0.263733)"/>
</clipPath>
</defs>
</svg>
