<svg width="24" height="24" viewBox="0 0 24 24" fill="none" xmlns="http://www.w3.org/2000/svg">
<g clip-path="url(#clip0_6835_3772)">
<path d="M19.8377 0.263733H3.6752C1.89408 0.263733 0.450195 1.70761 0.450195 3.48873V19.6512C0.450195 21.4324 1.89408 22.8762 3.6752 22.8762H19.8377C21.6188 22.8762 23.0627 21.4324 23.0627 19.6512V3.48873C23.0627 1.70761 21.6188 0.263733 19.8377 0.263733Z" fill="#35675B"/>
<path d="M23.0627 3.48873V5.06123C23.0627 3.27873 21.6202 1.83623 19.8377 1.83623H3.6752C1.8952 1.83623 0.450195 3.27873 0.450195 5.06123V3.48873C0.450195 1.70623 1.8952 0.263733 3.6752 0.263733H19.8377C21.6202 0.263733 23.0627 1.70623 23.0627 3.48873Z" fill="#265649"/>
<path d="M0.450195 20.1962V18.6237C0.450195 20.4062 1.8927 21.8487 3.6752 21.8487H19.8377C21.6177 21.8487 23.0627 20.4062 23.0627 18.6237V20.1962C23.0627 21.9787 21.6177 23.4212 19.8377 23.4212H3.6752C1.8927 23.4212 0.450195 21.9787 0.450195 20.1962Z" fill="#81B7A8"/>
<path d="M18.3901 2.11374H5.12262C3.60245 2.11374 2.37012 3.34608 2.37012 4.86624V18.1337C2.37012 19.6539 3.60245 20.8862 5.12262 20.8862H18.3901C19.9103 20.8862 21.1426 19.6539 21.1426 18.1337V4.86624C21.1426 3.34608 19.9103 2.11374 18.3901 2.11374Z" fill="black"/>
<path d="M9.31033 16.1362L7.43283 16.2262C7.33283 16.2312 7.28533 16.3537 7.35783 16.4237L7.71533 16.7812L6.57033 17.9262C6.49283 18.0037 6.49283 18.1262 6.57033 18.2037L6.97283 18.6062L7.37533 19.0087C7.45283 19.0862 7.57533 19.0862 7.65283 19.0087L8.79783 17.8637L9.15533 18.2212C9.22533 18.2912 9.34783 18.2462 9.35283 18.1462L9.44283 16.2687C9.44533 16.1937 9.38533 16.1312 9.31033 16.1362Z" fill="#00FFFF" stroke="#0C0C0C" stroke-width="0.0875" stroke-miterlimit="10"/>
<path d="M14.0677 15.9912L14.1577 17.8687C14.1627 17.9687 14.2852 18.0162 14.3552 17.9437L14.7127 17.5862L15.8577 18.7312C15.9352 18.8087 16.0577 18.8087 16.1352 18.7312L16.5377 18.3287L16.9402 17.9262C17.0177 17.8487 17.0177 17.7262 16.9402 17.6487L15.7952 16.5037L16.1527 16.1462C16.2227 16.0762 16.1777 15.9537 16.0777 15.9487L14.2002 15.8587C14.1252 15.8562 14.0627 15.9162 14.0677 15.9912Z" fill="#00FFFF" stroke="#0C0C0C" stroke-width="0.0875" stroke-miterlimit="10"/>
<path d="M11.6952 12.6762L10.4327 14.0687C10.3652 14.1437 10.4177 14.2612 10.5177 14.2612H11.0227V15.8787C11.0227 15.9862 11.1102 16.0762 11.2202 16.0762H12.3602C12.4677 16.0762 12.5577 15.9887 12.5577 15.8787V14.2612H13.0627C13.1627 14.2612 13.2152 14.1412 13.1477 14.0687L11.8852 12.6762C11.8352 12.6212 11.7477 12.6212 11.6977 12.6762H11.6952Z" fill="#00FFFF" stroke="#0C0C0C" stroke-width="0.0875" stroke-miterlimit="10"/>
<path d="M16.6353 14.6462H14.0778V9.66373C14.0778 8.40123 13.0503 7.37623 11.7903 7.37623C10.5303 7.37623 9.50281 8.40373 9.50281 9.66373V14.6462H6.94531V9.66373C6.94531 6.99123 9.11781 4.81873 11.7903 4.81873C14.4628 4.81873 16.6353 6.99123 16.6353 9.66373V14.6462Z" fill="#00FFFF" stroke="#0C0C0C" stroke-width="0.105" stroke-miterlimit="10"/>
<path d="M9.50281 12.3312H6.94531V14.6462H9.50281V12.3312Z" fill="white" stroke="#0C0C0C" stroke-width="0.105" stroke-miterlimit="10"/>
<path d="M16.6351 12.3312H14.0776V14.6462H16.6351V12.3312Z" fill="white" stroke="#0C0C0C" stroke-width="0.105" stroke-miterlimit="10"/>
</g>
<defs>
<clipPath id="clip0_6835_3772">
<rect width="22.6125" height="23.1575" fill="white" transform="translate(0.450195 0.263733)"/>
</clipPath>
</defs>
</svg>
