<svg width="23" height="24" viewBox="0 0 23 24" fill="none" xmlns="http://www.w3.org/2000/svg">
<g clip-path="url(#clip0_6835_3756)">
<path d="M19.6126 0.263733H3.4501C1.66898 0.263733 0.225098 1.70761 0.225098 3.48873V19.6512C0.225098 21.4324 1.66898 22.8762 3.4501 22.8762H19.6126C21.3937 22.8762 22.8376 21.4324 22.8376 19.6512V3.48873C22.8376 1.70761 21.3937 0.263733 19.6126 0.263733Z" fill="#35675B"/>
<path d="M22.8376 3.48873V5.06123C22.8376 3.27873 21.3951 1.83623 19.6126 1.83623H3.4501C1.6701 1.83623 0.225098 3.27873 0.225098 5.06123V3.48873C0.225098 1.70623 1.6701 0.263733 3.4501 0.263733H19.6126C21.3951 0.263733 22.8376 1.70623 22.8376 3.48873Z" fill="#265649"/>
<path d="M0.225098 20.1962V18.6237C0.225098 20.4062 1.6676 21.8487 3.4501 21.8487H19.6126C21.3926 21.8487 22.8376 20.4062 22.8376 18.6237V20.1962C22.8376 21.9787 21.3926 23.4212 19.6126 23.4212H3.4501C1.6676 23.4212 0.225098 21.9787 0.225098 20.1962Z" fill="#81B7A8"/>
<path d="M18.165 2.04373H4.89752C3.37736 2.04373 2.14502 3.27607 2.14502 4.79623V18.0637C2.14502 19.5839 3.37736 20.8162 4.89752 20.8162H18.165C19.6852 20.8162 20.9175 19.5839 20.9175 18.0637V4.79623C20.9175 3.27607 19.6852 2.04373 18.165 2.04373Z" fill="black"/>
<path d="M16.8878 11.3812C16.8878 14.1987 14.7153 16.5062 11.9553 16.7212C11.9503 16.7212 11.9428 16.7212 11.9378 16.7212C11.8053 16.7312 11.6703 16.7362 11.5328 16.7362C11.3953 16.7362 11.2628 16.7312 11.1278 16.7212C11.1203 16.7212 11.1153 16.7212 11.1078 16.7212C9.48029 16.5937 8.06029 15.7412 7.16529 14.4862C6.54279 13.6112 6.17529 12.5387 6.17529 11.3837C6.17529 10.8862 6.24279 10.4037 6.37029 9.94625C6.44779 9.66875 6.54529 9.40125 6.66529 9.14625C6.73029 9.00125 6.80279 8.86125 6.88279 8.72375C7.80529 7.11375 9.54279 6.02875 11.5328 6.02875C13.6903 6.02875 15.5528 7.30625 16.4003 9.14375C16.5203 9.40125 16.6178 9.66875 16.6953 9.94625C16.8228 10.4037 16.8903 10.8862 16.8903 11.3837L16.8878 11.3812Z" fill="#0C0C0C" stroke="#00FFFF" stroke-width="0.94" stroke-miterlimit="10"/>
<path d="M11.9549 13.0762V16.8187C11.8149 16.8287 11.6749 16.8337 11.5324 16.8337C11.3899 16.8337 11.2499 16.8287 11.1099 16.8187V13.0762H11.9549Z" fill="#00FFFF"/>
<path d="M6.66512 9.14124L8.96762 10.3487L9.80012 10.7837L9.40762 11.5337L8.86262 11.2487L6.37012 9.94374L6.66512 9.14124Z" fill="#00FFFF"/>
<path d="M16.6928 9.94374L14.2003 11.2487L13.6528 11.5337L13.2603 10.7837L14.0928 10.3487L16.3978 9.14124C16.5178 9.39874 16.6153 9.66624 16.6928 9.94374Z" fill="#00FFFF"/>
<path d="M11.5326 10.2912H9.20511C8.83011 10.2912 8.58511 10.6862 8.75011 11.0212L9.55011 12.6437C9.63511 12.8162 9.81011 12.9262 10.0051 12.9262H13.0576C13.2501 12.9262 13.4251 12.8162 13.5126 12.6437L14.3126 11.0212C14.4776 10.6837 14.2351 10.2912 13.8576 10.2912H11.5301H11.5326Z" fill="#0C0C0C" stroke="#00FFFF" stroke-width="0.5725" stroke-miterlimit="10"/>
</g>
<defs>
<clipPath id="clip0_6835_3756">
<rect width="22.6125" height="23.1575" fill="white" transform="translate(0.225098 0.263733)"/>
</clipPath>
</defs>
</svg>
