<svg width="42" height="45" viewBox="0 0 42 45" fill="none" xmlns="http://www.w3.org/2000/svg">
<g clip-path="url(#clip0_6855_3245)">
<path d="M36.3921 36.6367C36.5502 36.448 36.7049 36.2542 36.8562 36.0604C36.863 36.0519 36.8698 36.0434 36.8766 36.0332C37.1775 35.6439 37.4648 35.2427 37.7385 34.8313C37.7504 34.8126 37.764 34.7939 37.7759 34.7735C38.0411 34.3689 38.2944 33.9558 38.5307 33.5308C38.5443 33.507 38.5579 33.4832 38.5715 33.4594C38.6888 33.2469 38.8044 33.0327 38.9132 32.8168C38.9149 32.8117 38.9166 32.8083 38.92 32.8032C39.0271 32.5924 39.1308 32.3782 39.2311 32.1623C39.2413 32.1385 39.2532 32.1147 39.2634 32.0926C39.362 31.8767 39.4589 31.6574 39.5507 31.4381C39.5609 31.4126 39.5728 31.3854 39.583 31.3599C39.6697 31.1474 39.7547 30.9332 39.8346 30.7173C39.8397 30.7037 39.8448 30.6901 39.8499 30.6748C39.9315 30.4521 40.0097 30.2277 40.0845 30.0016C40.0964 29.9642 40.11 29.9251 40.1219 29.8877C40.2681 29.4355 40.399 28.9765 40.5129 28.5124C40.5231 28.4682 40.535 28.4257 40.5452 28.3815C40.5996 28.152 40.6523 27.9225 40.6982 27.6896C40.7033 27.6641 40.7084 27.6386 40.7135 27.6131C40.756 27.3989 40.7951 27.183 40.8308 26.9671C40.8376 26.9246 40.8461 26.8821 40.8512 26.8396C40.8869 26.6084 40.9209 26.3755 40.9481 26.1426C40.9532 26.0984 40.9583 26.0525 40.9634 26.0083C40.9889 25.7924 41.0093 25.5765 41.028 25.3589C41.0314 25.3266 41.0331 25.296 41.0365 25.2654C41.0552 25.0291 41.0688 24.7911 41.079 24.5514C41.0807 24.4987 41.0824 24.446 41.0858 24.3916C41.0943 24.1485 41.1011 23.9037 41.1011 23.6589C41.1011 23.4804 41.0994 23.3036 41.0943 23.1251C41.0943 23.1098 41.0943 23.0962 41.0943 23.0809C41.0892 22.9177 41.0841 22.7545 41.0756 22.5913C41.0756 22.5862 41.0756 22.5811 41.0756 22.5743C41.0705 22.4672 41.062 22.3601 41.0552 22.253C41.0875 21.7889 41.1045 21.3214 41.1045 20.8505C41.1011 9.6628 32.0333 0.595001 20.8473 0.595001C9.66131 0.595001 0.595215 9.6628 0.595215 20.8471C0.595215 21.3197 0.612215 21.7872 0.644515 22.2496C0.612215 22.7137 0.595215 23.1812 0.595215 23.6521C0.595215 34.8381 9.66301 43.9042 20.8473 43.9042C24.0637 43.9042 27.105 43.1528 29.8046 41.8183C29.8097 41.8166 29.8131 41.8132 29.8182 41.8115C30.2721 41.5871 30.7175 41.344 31.1527 41.0873C31.1595 41.0839 31.1663 41.0788 31.1731 41.0754C31.6083 40.817 32.035 40.5416 32.4481 40.2526C32.4498 40.2526 32.4515 40.2509 32.4532 40.2492C32.6606 40.103 32.8663 39.9534 33.0686 39.8004L33.072 39.797C33.4732 39.4927 33.8625 39.1731 34.2399 38.8416C34.2484 38.8331 34.2586 38.8246 34.2671 38.8161C34.6377 38.488 34.9947 38.148 35.3398 37.7927C35.35 37.7825 35.3602 37.7706 35.3721 37.7604C35.7172 37.4051 36.0504 37.0362 36.3683 36.6571C36.3751 36.6486 36.3819 36.6418 36.3887 36.6333L36.3921 36.6367Z" stroke="#0F2149" stroke-width="1.19" stroke-miterlimit="10"/>
<path d="M20.8473 43.9059C32.0322 43.9059 41.0994 34.8387 41.0994 23.6538C41.0994 12.4689 32.0322 3.4017 20.8473 3.4017C9.66239 3.4017 0.595215 12.4689 0.595215 23.6538C0.595215 34.8387 9.66239 43.9059 20.8473 43.9059Z" fill="#155584" stroke="#16282B" stroke-width="0.0867" stroke-miterlimit="10"/>
<path d="M20.8472 40.919C30.3825 40.919 38.1124 33.1891 38.1124 23.6538C38.1124 14.1185 30.3825 6.3886 20.8472 6.3886C11.3119 6.3886 3.58203 14.1185 3.58203 23.6538C3.58203 33.1891 11.3119 40.919 20.8472 40.919Z" fill="#1E5D6B"/>
<path d="M20.8473 41.0992C32.0322 41.0992 41.0994 32.032 41.0994 20.8471C41.0994 9.66217 32.0322 0.595001 20.8473 0.595001C9.66239 0.595001 0.595215 9.66217 0.595215 20.8471C0.595215 32.032 9.66239 41.0992 20.8473 41.0992Z" fill="#00BAEB" stroke="#16282B" stroke-width="0.0867" stroke-miterlimit="10"/>
<path d="M33.0565 33.0548C39.7987 26.3126 39.7987 15.3816 33.0565 8.6394L8.64111 33.0548C15.3833 39.797 26.3143 39.797 33.0565 33.0548Z" fill="#4271D6"/>
<path d="M33.0565 8.6394C26.3143 1.8972 15.3833 1.8972 8.64112 8.6394C1.89892 15.3816 1.89892 26.3126 8.64112 33.0548L33.0565 8.6394Z" fill="#7191E4"/>
<path d="M33.0565 33.0548C39.7987 26.3126 39.7987 15.3816 33.0565 8.6394L8.64111 33.0548C15.3833 39.797 26.3143 39.797 33.0565 33.0548Z" fill="#214789"/>
<path d="M33.0565 8.6394C26.3143 1.8972 15.3833 1.8972 8.64112 8.6394C1.89892 15.3816 1.89892 26.3126 8.64112 33.0548L33.0565 8.6394Z" fill="#214789"/>
<path d="M20.8487 38.114C30.384 38.114 38.1139 30.3841 38.1139 20.8488C38.1139 11.3135 30.384 3.5836 20.8487 3.5836C11.3134 3.5836 3.5835 11.3135 3.5835 20.8488C3.5835 30.3841 11.3134 38.114 20.8487 38.114Z" stroke="#0F2149" stroke-width="0.51" stroke-miterlimit="10"/>
<path d="M35.129 18.0183L34.8825 17.1105L31.0813 15.0042L27.3753 14.4721L25.9082 15.3187L25.9371 15.0909L25.5801 13.7683L25.4356 13.2379L23.2154 12.0071L23.0692 11.9867L22.8482 11.4512L18.8158 9.90421H15.0758L8.87253 14.7271L7.98513 19.4684L11.2236 20.5734L7.60093 22.474L5.95703 26.9824L11.5007 30.0781L18.6373 29.4338L22.1971 27.7049L22.6408 25.0121L22.5643 24.6789L24.7964 25.8094L31.9041 24.871L35.3976 22.9959L35.7427 20.2878L35.1307 18.0234L35.129 18.0183ZM19.0504 20.0702L20.1707 19.7557L19.9021 20.587L19.0504 20.0702Z" fill="#5E5E5E" stroke="black" stroke-width="2.04" stroke-miterlimit="10"/>
<path d="M24.0992 14.4704V17.204L13.9485 21.4999L7.98486 19.465L8.87226 14.7237L15.0756 9.9008H18.8156L22.848 11.4478L23.2067 12.3131L24.0992 14.4704Z" fill="#999999"/>
<path d="M23.2065 12.3131L17.6458 14.7237L13.6644 16.4492L8.87207 14.7237L15.0754 9.9008H18.8154L22.8478 11.4478L23.2065 12.3131Z" fill="#E2E2E2"/>
<path d="M24.0992 14.4704L17.646 14.7237L18.8156 9.9008L22.848 11.4478L23.2067 12.3131L24.0992 14.4704Z" fill="#808080"/>
<path d="M13.6646 16.4492L13.9485 21.4999L20.8726 19.5585L24.0992 17.204V14.4704L17.646 14.7237L13.6646 16.4492Z" fill="#666666"/>
<path d="M17.646 14.7237L20.8726 19.5585L24.0992 17.204V14.4704L17.646 14.7237Z" fill="#5E5E5E"/>
<path d="M35.7406 20.2827L35.3955 22.9925L24.7943 25.8043L19.1401 22.9398L20.6191 18.3668L27.3749 14.4704L31.0809 15.0025L34.8821 17.1105L35.1286 18.0183L35.7406 20.2827Z" fill="#999999"/>
<path d="M35.1286 18.0183L29.3146 19.6163L25.1513 20.7587L20.6191 18.3668L27.3749 14.4704L31.0809 15.0025L34.8821 17.1105L35.1286 18.0183Z" fill="#B3B3B3"/>
<path d="M35.7409 20.2827L29.3149 19.6163L31.0812 15.0025L34.8824 17.1105L35.1289 18.0183L35.7409 20.2827Z" fill="#808080"/>
<path d="M25.1514 20.7587L24.7944 25.8043L31.9004 24.8659L35.3956 22.9925L35.7407 20.2827L29.3147 19.6163L25.1514 20.7587Z" fill="#666666"/>
<path d="M29.3149 19.6163L31.9006 24.8659L35.3958 22.9925L35.7409 20.2827L29.3149 19.6163Z" fill="#5E5E5E"/>
<path d="M25.9388 15.0875L25.7365 16.6702L19.5451 18.3124L16.2437 16.6396L17.1073 13.9689L21.053 11.6926L23.2171 12.0037L25.4373 13.2345L25.5818 13.7649L25.9388 15.0875Z" fill="#999999"/>
<path d="M25.5814 13.7649L22.1848 14.6982L19.7521 15.3663L17.1069 13.9689L21.0526 11.6926L23.2167 12.0037L25.4369 13.2345L25.5814 13.7649Z" fill="#E2E2E2"/>
<path d="M25.9387 15.0875L22.1851 14.6982L23.217 12.0037L25.4372 13.2345L25.5817 13.7649L25.9387 15.0875Z" fill="#808080"/>
<path d="M19.7523 15.3663L19.5449 18.3124L23.6963 17.765L25.7363 16.6702L25.9386 15.0875L22.185 14.6982L19.7523 15.3663Z" fill="#666666"/>
<path d="M22.1851 14.6982L23.6964 17.765L25.7364 16.6702L25.9387 15.0875L22.1851 14.6982Z" fill="#5E5E5E"/>
<path d="M22.6389 25.007L22.1952 27.6998L11.5005 30.073L5.95508 26.9773L7.60068 22.4706L14.4925 18.8547L18.1764 19.5381L21.8977 21.8008L22.1119 22.7188L22.6389 25.007Z" fill="#999999"/>
<path d="M22.1118 22.7188L16.2434 24.0754L12.041 25.0461L7.60059 22.4706L14.4924 18.8547L18.1763 19.5381L21.8976 21.8008L22.1118 22.7188Z" fill="#EDEEEF"/>
<path d="M22.6391 25.007L16.2437 24.0754L18.1766 19.5381L21.8979 21.8008L22.1121 22.7188L22.6391 25.007Z" fill="#808080"/>
<path d="M12.0411 25.0461L11.5005 30.073L18.6354 29.4287L22.1952 27.6998L22.6389 25.007L16.2435 24.0754L12.0411 25.0461Z" fill="#666666"/>
<path d="M16.2437 24.0754L18.6356 29.4287L22.1954 27.6998L22.6391 25.007L16.2437 24.0754Z" fill="#5E5E5E"/>
<path d="M10.9853 22.5386C11.2698 22.5386 11.5004 22.4069 11.5004 22.2445C11.5004 22.0821 11.2698 21.9504 10.9853 21.9504C10.7008 21.9504 10.4702 22.0821 10.4702 22.2445C10.4702 22.4069 10.7008 22.5386 10.9853 22.5386Z" fill="#999999"/>
<path d="M13.5219 23.0044C13.8064 23.0044 14.037 22.8727 14.037 22.7103C14.037 22.5479 13.8064 22.4162 13.5219 22.4162C13.2375 22.4162 13.0068 22.5479 13.0068 22.7103C13.0068 22.8727 13.2375 23.0044 13.5219 23.0044Z" fill="#999999"/>
<path d="M24.6689 19.0944C24.9534 19.0944 25.184 18.9627 25.184 18.8003C25.184 18.6379 24.9534 18.5062 24.6689 18.5062C24.3844 18.5062 24.1538 18.6379 24.1538 18.8003C24.1538 18.9627 24.3844 19.0944 24.6689 19.0944Z" fill="#5E5E5E"/>
<path d="M27.207 15.9545C27.4915 15.9545 27.7221 15.8228 27.7221 15.6604C27.7221 15.498 27.4915 15.3663 27.207 15.3663C26.9225 15.3663 26.6919 15.498 26.6919 15.6604C26.6919 15.8228 26.9225 15.9545 27.207 15.9545Z" fill="#5E5E5E"/>
</g>
<defs>
<clipPath id="clip0_6855_3245">
<rect width="41.6959" height="44.5009" fill="white"/>
</clipPath>
</defs>
</svg>
