<svg width="24" height="24" viewBox="0 0 24 24" fill="none" xmlns="http://www.w3.org/2000/svg">
<g clip-path="url(#clip0_6835_3759)">
<path d="M19.9998 0.263733H3.8373C2.05619 0.263733 0.612305 1.70761 0.612305 3.48873V19.6512C0.612305 21.4324 2.05619 22.8762 3.8373 22.8762H19.9998C21.7809 22.8762 23.2248 21.4324 23.2248 19.6512V3.48873C23.2248 1.70761 21.7809 0.263733 19.9998 0.263733Z" fill="#35675B"/>
<path d="M23.2248 3.48873V5.06123C23.2248 3.27873 21.7823 1.83623 19.9998 1.83623H3.8373C2.0573 1.83623 0.612305 3.27873 0.612305 5.06123V3.48873C0.612305 1.70623 2.0573 0.263733 3.8373 0.263733H19.9998C21.7823 0.263733 23.2248 1.70623 23.2248 3.48873Z" fill="#265649"/>
<path d="M0.612305 20.1962V18.6237C0.612305 20.4062 2.0548 21.8487 3.8373 21.8487H19.9998C21.7798 21.8487 23.2248 20.4062 23.2248 18.6237V20.1962C23.2248 21.9787 21.7798 23.4212 19.9998 23.4212H3.8373C2.0548 23.4212 0.612305 21.9787 0.612305 20.1962Z" fill="#81B7A8"/>
<path d="M18.5522 2.00873H5.28473C3.76456 2.00873 2.53223 3.24106 2.53223 4.76123V18.0287C2.53223 19.5489 3.76456 20.7812 5.28473 20.7812H18.5522C20.0724 20.7812 21.3047 19.5489 21.3047 18.0287V4.76123C21.3047 3.24106 20.0724 2.00873 18.5522 2.00873Z" fill="black"/>
<path d="M18.5547 11.395C18.5547 7.89143 15.7145 5.05124 12.2109 5.05124C8.70738 5.05124 5.86719 7.89143 5.86719 11.395C5.86719 14.8985 8.70738 17.7387 12.2109 17.7387C15.7145 17.7387 18.5547 14.8985 18.5547 11.395Z" fill="#0C0C0C" stroke="#00FFFF" stroke-width="0.3525" stroke-miterlimit="10"/>
<path d="M15.8646 11.3962C15.8646 9.37902 14.2293 7.74374 12.2121 7.74374C10.1949 7.74374 8.55957 9.37902 8.55957 11.3962C8.55957 13.4135 10.1949 15.0487 12.2121 15.0487C14.2293 15.0487 15.8646 13.4135 15.8646 11.3962Z" fill="#0C0C0C" stroke="#00FFFF" stroke-width="0.3525" stroke-miterlimit="10"/>
<path d="M13.4522 11.3937C13.4522 10.7089 12.897 10.1537 12.2122 10.1537C11.5273 10.1537 10.9722 10.7089 10.9722 11.3937C10.9722 12.0786 11.5273 12.6337 12.2122 12.6337C12.897 12.6337 13.4522 12.0786 13.4522 11.3937Z" fill="#0C0C0C" stroke="#00FFFF" stroke-width="0.3525" stroke-miterlimit="10"/>
<path opacity="0.56" d="M16.8425 7.05874L12.2125 11.3937L7.58252 7.05874C7.58252 7.05874 9.29752 5.05124 12.2125 5.05124C15.1275 5.05124 16.8425 7.05874 16.8425 7.05874Z" fill="#00FFFF"/>
<path d="M12.8425 6.98373H12.84C12.4217 6.98373 12.0825 7.32288 12.0825 7.74123V7.74373C12.0825 8.16209 12.4217 8.50123 12.84 8.50123H12.8425C13.2609 8.50123 13.6 8.16209 13.6 7.74373V7.74123C13.6 7.32288 13.2609 6.98373 12.8425 6.98373Z" fill="#0C0C0C" stroke="#00FFFF" stroke-width="0.215" stroke-miterlimit="10"/>
</g>
<defs>
<clipPath id="clip0_6835_3759">
<rect width="22.6125" height="23.1575" fill="white" transform="translate(0.612305 0.263733)"/>
</clipPath>
</defs>
</svg>
