<svg width="21" height="15" viewBox="0 0 21 15" fill="none" xmlns="http://www.w3.org/2000/svg">
<g clip-path="url(#clip0_6928_3148)">
<path d="M18.6674 0.816815C16.9071 0.693854 15.1492 0.549563 13.3977 0.383942C9.89201 1.90715 6.31234 3.34254 2.65989 4.68507C1.96353 5.40025 1.25964 6.11167 0.549478 6.81932C0.493016 8.02008 0.436555 9.22083 0.381348 10.4216C0.90456 11.3977 1.43655 12.3727 1.97482 13.345C3.71761 13.7428 5.46792 14.1205 7.22702 14.4768C11.0225 12.7905 14.7302 11.0063 18.3475 9.133C19.0915 8.24091 19.8255 7.34505 20.5507 6.44668C20.5758 5.35006 20.5997 4.25345 20.621 3.15809C19.9635 2.38143 19.3123 1.60101 18.6674 0.819324V0.816815Z" fill="#8C4210" stroke="black" stroke-width="0.752823" stroke-miterlimit="10"/>
<path d="M2.65989 4.68384C1.96353 5.39902 1.25964 6.11044 0.549478 6.81809C0.493016 8.01884 0.436555 9.2196 0.381348 10.4204C0.90456 11.3965 1.43655 12.3714 1.97482 13.3438C3.71761 13.7416 5.46792 14.1192 7.22702 14.4756C7.92589 13.8507 8.61974 13.2234 9.30858 12.5922C9.52438 11.2585 9.73643 9.92474 9.94471 8.58973C9.1831 7.69764 8.43154 6.80178 7.69001 5.90216C6.00494 5.51571 4.3274 5.11044 2.65989 4.68509V4.68384Z" fill="#FFC99C" stroke="black" stroke-width="0.126725" stroke-linecap="round" stroke-linejoin="round"/>
<path d="M13.3978 0.383942C12.8507 0.769136 12.2999 1.15182 11.7466 1.53325C11.7529 2.73526 11.7591 3.93727 11.7654 5.13927C12.325 6.08658 12.8909 7.03262 13.4655 7.97616C15.0841 8.38018 16.7102 8.76537 18.3476 9.133C19.0916 8.24091 19.8256 7.34505 20.5508 6.44668C20.5759 5.35006 20.5998 4.25345 20.6211 3.15809C19.9636 2.38143 19.3125 1.60101 18.6675 0.819324C16.9072 0.696363 15.1493 0.552072 13.3978 0.386451V0.383942Z" fill="#FFB171" stroke="black" stroke-width="0.126725" stroke-linecap="round" stroke-linejoin="round"/>
<path d="M9.37762 12.1606C13.1969 10.3513 16.9222 8.44418 20.5508 6.44543C19.8255 7.34506 19.0915 8.24092 18.3475 9.13176C14.7302 11.005 11.0225 12.788 7.22705 14.4755C7.95102 13.7077 8.66871 12.936 9.37762 12.1606Z" fill="#9E4508" stroke="black" stroke-width="0.126725" stroke-linecap="round" stroke-linejoin="round"/>
<path d="M9.37744 12.1606C9.56941 10.9699 9.75887 9.78042 9.94457 8.5897C13.5907 6.86825 17.1516 5.0552 20.6209 3.15683C20.5983 4.25344 20.5744 5.35005 20.5506 6.44541C16.9232 8.44416 13.198 10.3526 9.37744 12.1606Z" fill="#D36E2A" stroke="black" stroke-width="0.126725" stroke-linecap="round" stroke-linejoin="round"/>
<path d="M7.68875 5.90215C8.43154 6.80177 9.18311 7.69763 9.94346 8.58973C13.5896 6.86827 17.1505 5.05522 20.6197 3.15686C19.9623 2.38019 19.3111 1.59977 18.6662 0.818085C15.094 2.60604 11.4328 4.30366 7.6875 5.9034L7.68875 5.90215Z" fill="#F29E61" stroke="black" stroke-width="0.126725" stroke-linecap="round" stroke-linejoin="round"/>
<path d="M2.65995 4.68382C6.31239 3.34254 9.89332 1.90715 13.3977 0.383942C15.1505 0.550817 16.9071 0.695109 18.6675 0.816815C15.0953 2.60477 11.4341 4.30239 7.6888 5.90213C6.00374 5.51569 4.32619 5.11042 2.65869 4.68507L2.65995 4.68382Z" fill="#D39367" stroke="black" stroke-width="0.126725" stroke-linecap="round" stroke-linejoin="round"/>
<path d="M7.05414 6.2798C5.68902 6.00125 4.32892 5.71016 2.97509 5.40652C2.42553 5.89711 1.8722 6.38645 1.31512 6.87327C1.26493 8.03137 1.21474 9.18821 1.16455 10.3463C1.55476 11.212 1.95 12.0778 2.35025 12.941C3.78563 13.2735 5.22603 13.591 6.67271 13.8959C7.36781 13.1568 8.05539 12.4153 8.7367 11.67C8.81951 10.6412 8.89981 9.61355 8.98011 8.58469C8.33143 7.81932 7.68902 7.05144 7.05288 6.28105L7.05414 6.2798ZM7.99517 11.271C7.45062 11.8632 6.90106 12.4542 6.34774 13.0439C5.19843 12.7992 4.05163 12.5458 2.90985 12.2836C2.5899 11.5947 2.27246 10.9059 1.95878 10.2158C1.99517 9.29235 2.03281 8.36763 2.06919 7.44417C2.51336 7.05395 2.95501 6.66248 3.39542 6.26976C4.48074 6.51067 5.56982 6.74279 6.66267 6.96612C7.17082 7.58218 7.68274 8.19699 8.19843 8.80928C8.13193 9.62986 8.06418 10.4504 7.99517 11.271Z" fill="#D36E2A"/>
<path d="M6.33147 7.53827C5.46823 7.3601 4.6075 7.17691 3.74803 6.98996C3.40048 7.29987 3.05292 7.60978 2.70286 7.91719C2.67651 8.64492 2.64891 9.3739 2.62256 10.1016C2.87099 10.6449 3.12193 11.1869 3.37413 11.7302C4.2725 11.9348 5.17337 12.1343 6.07676 12.3275C6.51214 11.8645 6.94502 11.399 7.37538 10.9335C7.43059 10.2873 7.4858 9.6399 7.541 8.99372C7.13448 8.50941 6.73172 8.02509 6.33147 7.53827ZM6.76309 10.5997C6.4469 10.941 6.12946 11.2811 5.81076 11.6211C5.15079 11.478 4.49081 11.3325 3.83335 11.1832C3.64765 10.7854 3.46321 10.3877 3.27877 9.98996C3.29634 9.45546 3.31516 8.92095 3.33272 8.38645C3.58994 8.15934 3.84464 7.93224 4.1006 7.70389C4.73297 7.84065 5.3666 7.9749 6.00148 8.10665C6.29508 8.46424 6.59119 8.82057 6.88856 9.17691C6.84715 9.65119 6.80449 10.1255 6.76309 10.5997Z" fill="#D36E2A"/>
<path d="M3.98603 8.71771C3.97473 9.07907 3.96344 9.44042 3.95215 9.80178C4.06005 10.0904 4.16796 10.3789 4.27586 10.6675C4.61714 10.7403 4.95842 10.8118 5.30096 10.8833C5.51049 10.7077 5.71877 10.532 5.92705 10.3551C5.93458 10.0289 5.94086 9.7014 5.94838 9.37518C5.83044 9.12925 5.7125 8.88333 5.59581 8.63741C5.29343 8.596 4.98979 8.55334 4.68741 8.50943C4.45403 8.57969 4.22066 8.6487 3.98603 8.71897V8.71771Z" fill="#D36E2A"/>
<path d="M5.29248 5.24089C5.30377 5.2547 9.76049 3.51066 9.42673 3.803C9.10804 4.11291 6.20967 5.50438 6.2034 5.49811C5.89976 5.41279 5.59612 5.32747 5.29248 5.24089Z" fill="#D36E2A"/>
<path d="M17.103 0.801761C17.3501 0.816818 17.5973 0.833129 17.8445 0.846931C17.8558 0.858223 13.7818 2.85069 13.6839 2.70013C13.6061 2.5709 17.1117 0.80929 17.103 0.800507V0.801761Z" fill="#D36E2A"/>
<path d="M13.7867 1.09914C13.7992 1.11169 9.61228 3.30366 10.3061 3.16188C11.0213 3.03891 14.6211 1.19199 14.6123 1.18321C14.6123 1.18321 14.4818 0.908425 13.7867 1.09914Z" fill="#D36E2A"/>
<path d="M8.31836 6.54957C8.52037 6.76789 8.72237 6.98495 8.92564 7.20202C8.94069 7.21958 13.9068 4.99248 13.4363 4.92724C12.9921 4.89336 8.3284 6.56337 8.31836 6.54957Z" fill="#D36E2A"/>
<path d="M9.95364 9.12924C9.89969 9.42535 9.84573 9.72021 9.79053 10.0163C9.7968 10.0251 13.2899 8.66375 13.0063 8.51946C12.7328 8.38897 9.95615 9.13426 9.95364 9.12924Z" fill="#AF5214"/>
<path d="M20.483 4.98495C20.4767 5.27479 20.4717 5.56337 20.4654 5.85321C20.4755 5.86325 16.5621 7.67128 16.6474 7.40779C16.7528 7.16438 20.4943 4.99374 20.483 4.98495Z" fill="#AF5214"/>
<path d="M9.08768 12.6035C8.88944 12.8206 8.6912 13.0364 8.4917 13.2522C8.49546 13.256 11.0388 12.0427 10.7389 12.0251C10.444 12.0126 9.08768 12.6048 9.08768 12.6035Z" fill="#8C4210"/>
<path d="M19.6061 2.10037L20.1795 2.78293C20.1795 2.78293 16.379 4.75407 16.6463 4.37892C16.9135 4.00376 19.6061 2.10037 19.6061 2.10037Z" fill="#D36E2A"/>
</g>
<defs>
<clipPath id="clip0_6928_3148">
<rect width="21" height="14.8683" fill="white"/>
</clipPath>
</defs>
</svg>
