<svg width="82" height="82" viewBox="0 0 82 82" fill="none" xmlns="http://www.w3.org/2000/svg">
<g clip-path="url(#clip0_6559_1943)">
<path opacity="0.4" d="M0 64.8686L0 17.1314C0 7.67 7.67 0 17.1314 0L64.8686 0C74.33 0 82 7.67 82 17.1314V64.8686C82 74.33 74.33 82 64.8686 82H17.1314C7.67 82 0 74.33 0 64.8686Z" fill="#F2F2F2"/>
<g opacity="0.3">
<path d="M40.7378 16.9516C38.9242 18.7802 38.9242 21.7178 40.7378 23.5464L55.561 38.3696C57.0149 39.8235 57.0149 42.1766 55.561 43.6155L40.7378 58.4387C38.9242 60.2673 38.9242 63.2049 40.7378 65.0335C42.5513 66.862 45.504 66.862 47.3326 65.0335L68.196 44.17C69.9496 42.4164 69.9496 39.5687 68.196 37.8151L47.3326 16.9516C45.519 15.138 42.5663 15.138 40.7378 16.9516Z" fill="#F2F2F2"/>
<path d="M12.4849 41.0075V40.9925C12.4849 38.1698 14.7731 35.8815 17.5958 35.8815H61.1213C63.944 35.8815 66.2323 38.1698 66.2323 40.9925V41.0075C66.2323 43.8302 63.944 46.1184 61.1213 46.1184H17.5958C14.7731 46.1184 12.4849 43.8302 12.4849 41.0075Z" fill="#F2F2F2"/>
<path d="M40.7378 16.9516C38.9242 18.7802 38.9242 21.7178 40.7378 23.5464L55.561 38.3696C57.0149 39.8235 57.0149 42.1766 55.561 43.6155L40.7378 58.4387C38.9242 60.2673 38.9242 63.2049 40.7378 65.0335C42.5513 66.862 45.504 66.862 47.3326 65.0335L68.196 44.17C69.9496 42.4164 69.9496 39.5687 68.196 37.8151L47.3326 16.9516C45.519 15.138 42.5663 15.138 40.7378 16.9516Z" fill="#F2F2F2"/>
</g>
</g>
<defs>
<clipPath id="clip0_6559_1943">
<rect width="82" height="82" fill="white" transform="matrix(-1 0 0 1 82 0)"/>
</clipPath>
</defs>
</svg>
