<svg width="82" height="82" viewBox="0 0 82 82" fill="none" xmlns="http://www.w3.org/2000/svg">
<g clip-path="url(#clip0_6559_1115)">
<path opacity="0.4" d="M82 64.8686V17.1314C82 7.67 74.33 0 64.8686 0L17.1314 0C7.67 0 0 7.67 0 17.1314V64.8686C0 74.33 7.67 82 17.1314 82H64.8686C74.33 82 82 74.33 82 64.8686Z" fill="#F2F2F2"/>
<g opacity="0.3">
<path d="M41.2622 16.9516C43.0758 18.7802 43.0758 21.7178 41.2622 23.5464L26.439 38.3696C24.9851 39.8235 24.9851 42.1766 26.439 43.6155L41.2622 58.4387C43.0758 60.2673 43.0758 63.2049 41.2622 65.0335C39.4486 66.862 36.496 66.862 34.6674 65.0335L13.804 44.17C12.0504 42.4164 12.0504 39.5687 13.804 37.8151L34.6674 16.9516C36.481 15.138 39.4337 15.138 41.2622 16.9516Z" fill="#F2F2F2"/>
<path d="M69.5151 41.0075V40.9925C69.5151 38.1698 67.2269 35.8815 64.4042 35.8815H20.8787C18.056 35.8815 15.7677 38.1698 15.7677 40.9925V41.0075C15.7677 43.8302 18.056 46.1184 20.8787 46.1184H64.4042C67.2269 46.1184 69.5151 43.8302 69.5151 41.0075Z" fill="#F2F2F2"/>
<path d="M41.2622 16.9516C43.0758 18.7802 43.0758 21.7178 41.2622 23.5464L26.439 38.3696C24.9851 39.8235 24.9851 42.1766 26.439 43.6155L41.2622 58.4387C43.0758 60.2673 43.0758 63.2049 41.2622 65.0335C39.4486 66.862 36.496 66.862 34.6674 65.0335L13.804 44.17C12.0504 42.4164 12.0504 39.5687 13.804 37.8151L34.6674 16.9516C36.481 15.138 39.4337 15.138 41.2622 16.9516Z" fill="#F2F2F2"/>
</g>
</g>
<defs>
<clipPath id="clip0_6559_1115">
<rect width="82" height="82" fill="white"/>
</clipPath>
</defs>
</svg>
