<svg width="61" height="22" viewBox="0 0 61 22" fill="none" xmlns="http://www.w3.org/2000/svg">
<g clip-path="url(#clip0_6872_3410)">
<path d="M56.995 0.625H3.625C1.975 0.625 0.625 1.975 0.625 3.625V17.5625C0.625 19.2125 1.975 20.5625 3.625 20.5625H56.995C58.645 20.5625 59.995 19.2125 59.995 17.5625V3.625C59.995 1.975 58.645 0.625 56.995 0.625Z" stroke="#1A202D" stroke-width="1.25" stroke-miterlimit="10"/>
<path d="M56.995 2.4675H3.625C1.96815 2.4675 0.625 3.81064 0.625 5.4675V17.5625C0.625 19.2194 1.96815 20.5625 3.625 20.5625H56.995C58.6519 20.5625 59.995 19.2194 59.995 17.5625V5.4675C59.995 3.81064 58.6519 2.4675 56.995 2.4675Z" fill="#684FAF"/>
<path d="M56.995 0.625H3.625C1.96815 0.625 0.625 1.96815 0.625 3.625V15.72C0.625 17.3769 1.96815 18.72 3.625 18.72H56.995C58.6519 18.72 59.995 17.3769 59.995 15.72V3.625C59.995 1.96815 58.6519 0.625 56.995 0.625Z" fill="#A2A0FC"/>
<path d="M58.9976 4.4225V10.4925H1.62256V4.4225C1.62256 2.8625 2.91006 1.5875 4.48506 1.5875H56.1326C57.7076 1.5875 58.9951 2.8625 58.9951 4.4225H58.9976Z" fill="#C7BFFF"/>
<path d="M58.0191 4.05878C58.2725 3.61994 57.9457 2.95695 57.2892 2.57795C56.6328 2.19894 55.8952 2.24744 55.6419 2.68628C55.3885 3.12511 55.7153 3.7881 56.3717 4.16711C57.0282 4.54611 57.7657 4.49761 58.0191 4.05878Z" fill="#FDFDFD"/>
<path d="M2.77492 3.385C3.28164 3.385 3.69242 2.97422 3.69242 2.4675C3.69242 1.96078 3.28164 1.55 2.77492 1.55C2.2682 1.55 1.85742 1.96078 1.85742 2.4675C1.85742 2.97422 2.2682 3.385 2.77492 3.385Z" fill="#FDFDFD"/>
<path d="M58.9976 15.5575V15.9175C58.9976 16.94 58.1701 17.77 57.1476 17.77H3.47256C2.45256 17.77 1.62256 16.94 1.62256 15.9175V15.5575C1.62256 16.58 2.45256 17.41 3.47256 17.41H57.1476C58.1701 17.41 58.9976 16.58 58.9976 15.5575Z" fill="#96A7D3"/>
<path d="M22.1775 8.6475H20.7575C20.7375 8.5025 20.7 8.37 20.64 8.2525C20.5825 8.135 20.5025 8.035 20.4075 7.9525C20.31 7.87 20.1975 7.805 20.065 7.76C19.9325 7.715 19.7875 7.6925 19.63 7.6925C19.3475 7.6925 19.105 7.7625 18.9 7.9C18.6975 8.0375 18.54 8.2375 18.43 8.5C18.32 8.7625 18.2675 9.0775 18.2675 9.45C18.2675 9.8225 18.3225 10.16 18.4325 10.42C18.5425 10.68 18.7 10.8775 18.9025 11.0075C19.105 11.14 19.3425 11.205 19.62 11.205C19.775 11.205 19.9175 11.185 20.045 11.145C20.1725 11.105 20.285 11.0475 20.3825 10.97C20.48 10.8925 20.56 10.8 20.625 10.69C20.6875 10.58 20.7325 10.455 20.7575 10.3125L22.1775 10.32C22.1525 10.5775 22.0775 10.8325 21.955 11.0825C21.8325 11.3325 21.66 11.56 21.445 11.765C21.23 11.97 20.965 12.135 20.6575 12.255C20.3475 12.375 19.9925 12.4375 19.5925 12.4375C19.065 12.4375 18.595 12.3225 18.18 12.09C17.765 11.8575 17.435 11.52 17.195 11.075C16.955 10.63 16.835 10.0875 16.835 9.45C16.835 8.8125 16.9575 8.2675 17.2025 7.8225C17.4475 7.3775 17.7775 7.04 18.195 6.8075C18.6125 6.5775 19.0775 6.46 19.595 6.46C19.9475 6.46 20.2725 6.5075 20.5725 6.605C20.8725 6.7025 21.135 6.845 21.3625 7.03C21.59 7.2175 21.775 7.445 21.9175 7.715C22.06 7.985 22.1475 8.295 22.1825 8.645L22.1775 8.6475Z" stroke="#42210B" stroke-width="1.75" stroke-linecap="round" stroke-linejoin="round"/>
<path d="M24.2074 12.43C23.9299 12.43 23.6824 12.3825 23.4674 12.29C23.2524 12.1975 23.0824 12.055 22.9599 11.865C22.8374 11.675 22.7749 11.435 22.7749 11.1475C22.7749 10.905 22.8174 10.7 22.9024 10.535C22.9874 10.37 23.1049 10.2325 23.2549 10.13C23.4049 10.025 23.5774 9.9475 23.7724 9.8925C23.9674 9.8375 24.1749 9.8025 24.3974 9.7825C24.6449 9.76 24.8449 9.735 24.9974 9.71C25.1499 9.685 25.2599 9.6475 25.3274 9.6C25.3974 9.5525 25.4324 9.4825 25.4324 9.395V9.38C25.4324 9.235 25.3824 9.1225 25.2824 9.0425C25.1824 8.9625 25.0474 8.9225 24.8774 8.9225C24.6949 8.9225 24.5449 8.9625 24.4349 9.0425C24.3224 9.1225 24.2524 9.2325 24.2224 9.3725L22.9424 9.3275C22.9799 9.0625 23.0774 8.825 23.2374 8.615C23.3949 8.405 23.6124 8.24 23.8899 8.12C24.1674 8 24.4999 7.94 24.8924 7.94C25.1699 7.94 25.4274 7.9725 25.6624 8.0375C25.8974 8.1025 26.1024 8.1975 26.2749 8.3225C26.4499 8.4475 26.5849 8.5975 26.6799 8.7775C26.7749 8.9575 26.8224 9.1625 26.8224 9.395V12.36H25.5149V11.7525H25.4799C25.4024 11.9 25.3024 12.025 25.1824 12.1275C25.0624 12.23 24.9199 12.3075 24.7599 12.3575C24.5974 12.4075 24.4149 12.435 24.2124 12.435L24.2074 12.43ZM24.6374 11.5225C24.7874 11.5225 24.9224 11.4925 25.0424 11.4325C25.1624 11.3725 25.2599 11.2875 25.3299 11.18C25.4024 11.0725 25.4374 10.9475 25.4374 10.8075V10.3925C25.3974 10.4125 25.3499 10.4325 25.2949 10.45C25.2399 10.4675 25.1774 10.4825 25.1124 10.4975C25.0449 10.5125 24.9774 10.525 24.9074 10.5375C24.8374 10.55 24.7699 10.56 24.7049 10.5675C24.5749 10.5875 24.4624 10.62 24.3724 10.665C24.2799 10.7075 24.2099 10.765 24.1624 10.835C24.1149 10.905 24.0899 10.985 24.0899 11.08C24.0899 11.225 24.1424 11.335 24.2449 11.41C24.3474 11.485 24.4799 11.5225 24.6374 11.5225Z" stroke="#42210B" stroke-width="1.75" stroke-linecap="round" stroke-linejoin="round"/>
<path d="M29.0526 9.8675V12.355H27.6626V7.9925H28.9826V8.7925H29.0301C29.1276 8.525 29.2926 8.315 29.5251 8.1625C29.7576 8.01 30.0351 7.935 30.3576 7.935C30.6801 7.935 30.9301 8.0025 31.1576 8.14C31.3851 8.2775 31.5601 8.4675 31.6851 8.715C31.8101 8.9625 31.8726 9.2475 31.8701 9.575V12.355H30.4801V9.8475C30.4801 9.605 30.4201 9.415 30.2976 9.28C30.1751 9.145 30.0026 9.075 29.7826 9.075C29.6376 9.075 29.5076 9.1075 29.3976 9.17C29.2876 9.2325 29.2026 9.325 29.1426 9.44C29.0826 9.555 29.0526 9.7 29.0501 9.865L29.0526 9.8675Z" stroke="#42210B" stroke-width="1.75" stroke-linecap="round" stroke-linejoin="round"/>
<path d="M34.7724 12.44C34.3124 12.44 33.9174 12.345 33.5899 12.155C33.2624 11.965 33.0099 11.7025 32.8324 11.3625C32.6574 11.025 32.5674 10.6325 32.5674 10.1875C32.5674 9.7425 32.6549 9.3475 32.8324 9.01C33.0099 8.6725 33.2624 8.4075 33.5899 8.22C33.9174 8.03 34.3099 7.935 34.7674 7.935C35.1699 7.935 35.5224 8.0075 35.8224 8.155C36.1224 8.3025 36.3574 8.5075 36.5274 8.7725C36.6974 9.0375 36.7874 9.35 36.7949 9.7075H35.4974C35.4699 9.485 35.3949 9.31 35.2724 9.1825C35.1474 9.055 34.9874 8.9925 34.7874 8.9925C34.6274 8.9925 34.4849 9.0375 34.3649 9.1275C34.2449 9.2175 34.1499 9.35 34.0824 9.525C34.0149 9.7 33.9824 9.9175 33.9824 10.175C33.9824 10.4325 34.0149 10.65 34.0824 10.8275C34.1499 11.005 34.2449 11.1375 34.3649 11.2275C34.4849 11.3175 34.6274 11.3625 34.7874 11.3625C34.9174 11.3625 35.0299 11.335 35.1299 11.28C35.2299 11.225 35.3124 11.145 35.3749 11.0375C35.4399 10.93 35.4799 10.8 35.4974 10.6475H36.7949C36.7824 11.0075 36.6924 11.3225 36.5274 11.59C36.3624 11.86 36.1299 12.0675 35.8324 12.2175C35.5349 12.365 35.1799 12.44 34.7724 12.44Z" stroke="#42210B" stroke-width="1.75" stroke-linecap="round" stroke-linejoin="round"/>
<path d="M39.5527 12.44C39.0952 12.44 38.7027 12.35 38.3727 12.1675C38.0427 11.9875 37.7877 11.7275 37.6102 11.3925C37.4327 11.0575 37.3452 10.6575 37.3452 10.1925C37.3452 9.7275 37.4352 9.3475 37.6127 9.01C37.7902 8.6725 38.0427 8.4075 38.3652 8.22C38.6902 8.0325 39.0702 7.9375 39.5102 7.9375C39.8202 7.9375 40.1052 7.985 40.3627 8.0825C40.6202 8.18 40.8427 8.3225 41.0302 8.5125C41.2177 8.7025 41.3627 8.935 41.4677 9.2125C41.5727 9.49 41.6227 9.8075 41.6227 10.165V10.5125H37.8302V9.705H40.3302C40.3302 9.5575 40.2927 9.425 40.2252 9.31C40.1577 9.195 40.0627 9.105 39.9452 9.04C39.8277 8.975 39.6902 8.9425 39.5377 8.9425C39.3852 8.9425 39.2427 8.9775 39.1202 9.045C38.9977 9.115 38.9002 9.2075 38.8277 9.325C38.7552 9.4425 38.7177 9.5775 38.7152 9.7275V10.5475C38.7152 10.725 38.7502 10.8825 38.8202 11.015C38.8902 11.1475 38.9902 11.2525 39.1177 11.325C39.2452 11.3975 39.4002 11.435 39.5777 11.435C39.7002 11.435 39.8127 11.4175 39.9127 11.385C40.0127 11.35 40.1002 11.3 40.1702 11.235C40.2427 11.1675 40.2952 11.0875 40.3327 10.99L41.6077 11.0275C41.5552 11.3125 41.4377 11.5625 41.2602 11.7725C41.0802 11.985 40.8477 12.1475 40.5577 12.265C40.2677 12.3825 39.9327 12.44 39.5527 12.44Z" stroke="#42210B" stroke-width="1.75" stroke-linecap="round" stroke-linejoin="round"/>
<path d="M43.725 6.5375V12.355H42.335V6.5375H43.725Z" stroke="#42210B" stroke-width="1.75" stroke-linecap="round" stroke-linejoin="round"/>
<path d="M22.1775 8.6475H20.7575C20.7375 8.5025 20.7 8.37 20.64 8.2525C20.5825 8.135 20.5025 8.035 20.4075 7.9525C20.31 7.87 20.1975 7.805 20.065 7.76C19.9325 7.715 19.7875 7.6925 19.63 7.6925C19.3475 7.6925 19.105 7.7625 18.9 7.9C18.6975 8.0375 18.54 8.2375 18.43 8.5C18.32 8.7625 18.2675 9.0775 18.2675 9.45C18.2675 9.8225 18.3225 10.16 18.4325 10.42C18.5425 10.68 18.7 10.8775 18.9025 11.0075C19.105 11.14 19.3425 11.205 19.62 11.205C19.775 11.205 19.9175 11.185 20.045 11.145C20.1725 11.105 20.285 11.0475 20.3825 10.97C20.48 10.8925 20.56 10.8 20.625 10.69C20.6875 10.58 20.7325 10.455 20.7575 10.3125L22.1775 10.32C22.1525 10.5775 22.0775 10.8325 21.955 11.0825C21.8325 11.3325 21.66 11.56 21.445 11.765C21.23 11.97 20.965 12.135 20.6575 12.255C20.3475 12.375 19.9925 12.4375 19.5925 12.4375C19.065 12.4375 18.595 12.3225 18.18 12.09C17.765 11.8575 17.435 11.52 17.195 11.075C16.955 10.63 16.835 10.0875 16.835 9.45C16.835 8.8125 16.9575 8.2675 17.2025 7.8225C17.4475 7.3775 17.7775 7.04 18.195 6.8075C18.6125 6.5775 19.0775 6.46 19.595 6.46C19.9475 6.46 20.2725 6.5075 20.5725 6.605C20.8725 6.7025 21.135 6.845 21.3625 7.03C21.59 7.2175 21.775 7.445 21.9175 7.715C22.06 7.985 22.1475 8.295 22.1825 8.645L22.1775 8.6475Z" fill="white"/>
<path d="M24.2074 12.43C23.9299 12.43 23.6824 12.3825 23.4674 12.29C23.2524 12.1975 23.0824 12.055 22.9599 11.865C22.8374 11.675 22.7749 11.435 22.7749 11.1475C22.7749 10.905 22.8174 10.7 22.9024 10.535C22.9874 10.37 23.1049 10.2325 23.2549 10.13C23.4049 10.025 23.5774 9.9475 23.7724 9.8925C23.9674 9.8375 24.1749 9.8025 24.3974 9.7825C24.6449 9.76 24.8449 9.735 24.9974 9.71C25.1499 9.685 25.2599 9.6475 25.3274 9.6C25.3974 9.5525 25.4324 9.4825 25.4324 9.395V9.38C25.4324 9.235 25.3824 9.1225 25.2824 9.0425C25.1824 8.9625 25.0474 8.9225 24.8774 8.9225C24.6949 8.9225 24.5449 8.9625 24.4349 9.0425C24.3224 9.1225 24.2524 9.2325 24.2224 9.3725L22.9424 9.3275C22.9799 9.0625 23.0774 8.825 23.2374 8.615C23.3949 8.405 23.6124 8.24 23.8899 8.12C24.1674 8 24.4999 7.94 24.8924 7.94C25.1699 7.94 25.4274 7.9725 25.6624 8.0375C25.8974 8.1025 26.1024 8.1975 26.2749 8.3225C26.4499 8.4475 26.5849 8.5975 26.6799 8.7775C26.7749 8.9575 26.8224 9.1625 26.8224 9.395V12.36H25.5149V11.7525H25.4799C25.4024 11.9 25.3024 12.025 25.1824 12.1275C25.0624 12.23 24.9199 12.3075 24.7599 12.3575C24.5974 12.4075 24.4149 12.435 24.2124 12.435L24.2074 12.43ZM24.6374 11.5225C24.7874 11.5225 24.9224 11.4925 25.0424 11.4325C25.1624 11.3725 25.2599 11.2875 25.3299 11.18C25.4024 11.0725 25.4374 10.9475 25.4374 10.8075V10.3925C25.3974 10.4125 25.3499 10.4325 25.2949 10.45C25.2399 10.4675 25.1774 10.4825 25.1124 10.4975C25.0449 10.5125 24.9774 10.525 24.9074 10.5375C24.8374 10.55 24.7699 10.56 24.7049 10.5675C24.5749 10.5875 24.4624 10.62 24.3724 10.665C24.2799 10.7075 24.2099 10.765 24.1624 10.835C24.1149 10.905 24.0899 10.985 24.0899 11.08C24.0899 11.225 24.1424 11.335 24.2449 11.41C24.3474 11.485 24.4799 11.5225 24.6374 11.5225Z" fill="white"/>
<path d="M29.0526 9.8675V12.355H27.6626V7.9925H28.9826V8.7925H29.0301C29.1276 8.525 29.2926 8.315 29.5251 8.1625C29.7576 8.01 30.0351 7.935 30.3576 7.935C30.6801 7.935 30.9301 8.0025 31.1576 8.14C31.3851 8.2775 31.5601 8.4675 31.6851 8.715C31.8101 8.9625 31.8726 9.2475 31.8701 9.575V12.355H30.4801V9.8475C30.4801 9.605 30.4201 9.415 30.2976 9.28C30.1751 9.145 30.0026 9.075 29.7826 9.075C29.6376 9.075 29.5076 9.1075 29.3976 9.17C29.2876 9.2325 29.2026 9.325 29.1426 9.44C29.0826 9.555 29.0526 9.7 29.0501 9.865L29.0526 9.8675Z" fill="white"/>
<path d="M34.7724 12.44C34.3124 12.44 33.9174 12.345 33.5899 12.155C33.2624 11.965 33.0099 11.7025 32.8324 11.3625C32.6574 11.025 32.5674 10.6325 32.5674 10.1875C32.5674 9.7425 32.6549 9.3475 32.8324 9.01C33.0099 8.6725 33.2624 8.4075 33.5899 8.22C33.9174 8.03 34.3099 7.935 34.7674 7.935C35.1699 7.935 35.5224 8.0075 35.8224 8.155C36.1224 8.3025 36.3574 8.5075 36.5274 8.7725C36.6974 9.0375 36.7874 9.35 36.7949 9.7075H35.4974C35.4699 9.485 35.3949 9.31 35.2724 9.1825C35.1474 9.055 34.9874 8.9925 34.7874 8.9925C34.6274 8.9925 34.4849 9.0375 34.3649 9.1275C34.2449 9.2175 34.1499 9.35 34.0824 9.525C34.0149 9.7 33.9824 9.9175 33.9824 10.175C33.9824 10.4325 34.0149 10.65 34.0824 10.8275C34.1499 11.005 34.2449 11.1375 34.3649 11.2275C34.4849 11.3175 34.6274 11.3625 34.7874 11.3625C34.9174 11.3625 35.0299 11.335 35.1299 11.28C35.2299 11.225 35.3124 11.145 35.3749 11.0375C35.4399 10.93 35.4799 10.8 35.4974 10.6475H36.7949C36.7824 11.0075 36.6924 11.3225 36.5274 11.59C36.3624 11.86 36.1299 12.0675 35.8324 12.2175C35.5349 12.365 35.1799 12.44 34.7724 12.44Z" fill="white"/>
<path d="M39.5527 12.44C39.0952 12.44 38.7027 12.35 38.3727 12.1675C38.0427 11.9875 37.7877 11.7275 37.6102 11.3925C37.4327 11.0575 37.3452 10.6575 37.3452 10.1925C37.3452 9.7275 37.4352 9.3475 37.6127 9.01C37.7902 8.6725 38.0427 8.4075 38.3652 8.22C38.6902 8.0325 39.0702 7.9375 39.5102 7.9375C39.8202 7.9375 40.1052 7.985 40.3627 8.0825C40.6202 8.18 40.8427 8.3225 41.0302 8.5125C41.2177 8.7025 41.3627 8.935 41.4677 9.2125C41.5727 9.49 41.6227 9.8075 41.6227 10.165V10.5125H37.8302V9.705H40.3302C40.3302 9.5575 40.2927 9.425 40.2252 9.31C40.1577 9.195 40.0627 9.105 39.9452 9.04C39.8277 8.975 39.6902 8.9425 39.5377 8.9425C39.3852 8.9425 39.2427 8.9775 39.1202 9.045C38.9977 9.115 38.9002 9.2075 38.8277 9.325C38.7552 9.4425 38.7177 9.5775 38.7152 9.7275V10.5475C38.7152 10.725 38.7502 10.8825 38.8202 11.015C38.8902 11.1475 38.9902 11.2525 39.1177 11.325C39.2452 11.3975 39.4002 11.435 39.5777 11.435C39.7002 11.435 39.8127 11.4175 39.9127 11.385C40.0127 11.35 40.1002 11.3 40.1702 11.235C40.2427 11.1675 40.2952 11.0875 40.3327 10.99L41.6077 11.0275C41.5552 11.3125 41.4377 11.5625 41.2602 11.7725C41.0802 11.985 40.8477 12.1475 40.5577 12.265C40.2677 12.3825 39.9327 12.44 39.5527 12.44Z" fill="white"/>
<path d="M43.725 6.5375V12.355H42.335V6.5375H43.725Z" fill="white"/>
</g>
<defs>
<clipPath id="clip0_6872_3410">
<rect width="60.62" height="21.1875" fill="white"/>
</clipPath>
</defs>
</svg>
