<svg width="72" height="90" viewBox="0 0 72 90" fill="none" xmlns="http://www.w3.org/2000/svg">
<path d="M63.6985 3.54041H8.30147C3.71669 3.54041 0 7.2571 0 11.8419V80.876C0 85.4608 3.71669 89.1775 8.30147 89.1775H63.6985C68.2833 89.1775 72 85.4608 72 80.876V11.8419C72 7.2571 68.2833 3.54041 63.6985 3.54041Z" fill="#1F3F5E"/>
<path d="M63.6985 0.817383H8.30147C3.71669 0.817383 0 4.53408 0 9.11885V78.153C0 82.7378 3.71669 86.4545 8.30147 86.4545H63.6985C68.2833 86.4545 72 82.7378 72 78.153V9.11885C72 4.53408 68.2833 0.817383 63.6985 0.817383Z" fill="url(#paint0_linear_6897_3395)"/>
<path d="M69.9517 8.71409V78.5578C69.9517 81.7861 67.3317 84.4061 64.1033 84.4061H7.89919C4.67084 84.4061 2.05087 81.7861 2.05087 78.5578V8.71654C2.05087 5.48819 4.67084 2.86823 7.89919 2.86823L64.1033 2.86823C67.3292 2.86823 69.9492 5.48819 69.9492 8.71409H69.9517Z" fill="url(#paint1_linear_6897_3395)" stroke="#031419" stroke-width="0.245315" stroke-miterlimit="10"/>
<g style="mix-blend-mode:soft-light" opacity="0.75">
<path d="M69.8485 52.1398V9.72727C69.8485 6.49892 67.2286 3.88141 64.0002 3.88141H7.79607C4.56527 3.88141 1.94775 6.49892 1.94775 9.72727V52.1398C8.63014 45.7493 19.5712 38.9566 35.8969 38.9566C52.2226 38.9566 63.1662 45.7493 69.8485 52.1398Z" fill="#78B9D6"/>
</g>
<g style="mix-blend-mode:multiply">
<path d="M69.9491 8.71654V9.3887C69.9491 6.16035 67.3292 3.54284 64.1008 3.54284H7.89665C4.66585 3.54284 2.04834 6.16035 2.04834 9.3887V8.71654C2.04834 5.48574 4.66585 2.86823 7.89665 2.86823H64.1008C67.3292 2.86823 69.9491 5.48574 69.9491 8.71654Z" fill="#BDCCD4"/>
</g>
<path d="M10.1903 14.56C12.4312 14.56 14.2478 12.7434 14.2478 10.5025C14.2478 8.26156 12.4312 6.44495 10.1903 6.44495C7.94942 6.44495 6.13281 8.26156 6.13281 10.5025C6.13281 12.7434 7.94942 14.56 10.1903 14.56Z" fill="#103F66"/>
<path d="M10.1906 13.4683C11.6769 13.4683 12.8817 12.2634 12.8817 10.7772C12.8817 9.29091 11.6769 8.08606 10.1906 8.08606C8.70436 8.08606 7.49951 9.29091 7.49951 10.7772C7.49951 12.2634 8.70436 13.4683 10.1906 13.4683Z" fill="#1268AF"/>
<path d="M10.1906 13.1494C11.6769 13.1494 12.8817 11.9446 12.8817 10.4583C12.8817 8.97206 11.6769 7.76721 10.1906 7.76721C8.70436 7.76721 7.49951 8.97206 7.49951 10.4583C7.49951 11.9446 8.70436 13.1494 10.1906 13.1494Z" fill="#DAE5EA"/>
<path d="M14.2478 10.5024C14.2478 10.5957 14.2429 10.6864 14.238 10.7772C14.0982 8.66258 12.3393 6.99199 10.1903 6.99199C8.04135 6.99199 6.2849 8.66258 6.14507 10.7772C6.13771 10.6864 6.13525 10.5957 6.13525 10.5024C6.13525 8.26272 7.95059 6.44739 10.1903 6.44739C12.43 6.44739 14.2478 8.26272 14.2478 10.5024Z" fill="#072030"/>
<path d="M61.8075 14.56C64.0484 14.56 65.865 12.7434 65.865 10.5025C65.865 8.26156 64.0484 6.44495 61.8075 6.44495C59.5666 6.44495 57.75 8.26156 57.75 10.5025C57.75 12.7434 59.5666 14.56 61.8075 14.56Z" fill="#103F66"/>
<path d="M61.8073 13.4683C63.2936 13.4683 64.4984 12.2634 64.4984 10.7772C64.4984 9.29091 63.2936 8.08606 61.8073 8.08606C60.3211 8.08606 59.1162 9.29091 59.1162 10.7772C59.1162 12.2634 60.3211 13.4683 61.8073 13.4683Z" fill="#1268AF"/>
<path d="M61.8073 13.1494C63.2936 13.1494 64.4984 11.9446 64.4984 10.4583C64.4984 8.97206 63.2936 7.76721 61.8073 7.76721C60.3211 7.76721 59.1162 8.97206 59.1162 10.4583C59.1162 11.9446 60.3211 13.1494 61.8073 13.1494Z" fill="#DAE5EA"/>
<path d="M65.8645 10.5024C65.8645 10.5957 65.8596 10.6864 65.8547 10.7772C65.7149 8.66258 63.956 6.99199 61.807 6.99199C59.6581 6.99199 57.9016 8.66258 57.7618 10.7772C57.7544 10.6864 57.752 10.5957 57.752 10.5024C57.752 8.26272 59.5673 6.44739 61.807 6.44739C64.0467 6.44739 65.8645 8.26272 65.8645 10.5024Z" fill="#072030"/>
<path d="M10.1903 80.1842C12.4312 80.1842 14.2478 78.3676 14.2478 76.1267C14.2478 73.8858 12.4312 72.0692 10.1903 72.0692C7.94942 72.0692 6.13281 73.8858 6.13281 76.1267C6.13281 78.3676 7.94942 80.1842 10.1903 80.1842Z" fill="#103F66"/>
<path d="M10.1906 79.0925C11.6769 79.0925 12.8817 77.8877 12.8817 76.4014C12.8817 74.9152 11.6769 73.7103 10.1906 73.7103C8.70436 73.7103 7.49951 74.9152 7.49951 76.4014C7.49951 77.8877 8.70436 79.0925 10.1906 79.0925Z" fill="#1268AF"/>
<path d="M10.1906 78.7736C11.6769 78.7736 12.8817 77.5688 12.8817 76.0825C12.8817 74.5963 11.6769 73.3914 10.1906 73.3914C8.70436 73.3914 7.49951 74.5963 7.49951 76.0825C7.49951 77.5688 8.70436 78.7736 10.1906 78.7736Z" fill="#DAE5EA"/>
<path d="M14.2478 76.1267C14.2478 76.2199 14.2429 76.3106 14.238 76.4014C14.0982 74.2868 12.3393 72.6162 10.1903 72.6162C8.04135 72.6162 6.2849 74.2868 6.14507 76.4014C6.13771 76.3106 6.13525 76.2199 6.13525 76.1267C6.13525 73.8869 7.95059 72.0716 10.1903 72.0716C12.43 72.0716 14.2478 73.8869 14.2478 76.1267Z" fill="#072030"/>
<path d="M61.8075 80.1842C64.0484 80.1842 65.865 78.3676 65.865 76.1267C65.865 73.8858 64.0484 72.0692 61.8075 72.0692C59.5666 72.0692 57.75 73.8858 57.75 76.1267C57.75 78.3676 59.5666 80.1842 61.8075 80.1842Z" fill="#103F66"/>
<path d="M61.8073 79.0925C63.2936 79.0925 64.4984 77.8877 64.4984 76.4014C64.4984 74.9152 63.2936 73.7103 61.8073 73.7103C60.3211 73.7103 59.1162 74.9152 59.1162 76.4014C59.1162 77.8877 60.3211 79.0925 61.8073 79.0925Z" fill="#1268AF"/>
<path d="M61.8073 78.7736C63.2936 78.7736 64.4984 77.5688 64.4984 76.0825C64.4984 74.5963 63.2936 73.3914 61.8073 73.3914C60.3211 73.3914 59.1162 74.5963 59.1162 76.0825C59.1162 77.5688 60.3211 78.7736 61.8073 78.7736Z" fill="#DAE5EA"/>
<path d="M65.8645 76.1267C65.8645 76.2199 65.8596 76.3106 65.8547 76.4014C65.7149 74.2868 63.956 72.6162 61.807 72.6162C59.6581 72.6162 57.9016 74.2868 57.7618 76.4014C57.7544 76.3106 57.752 76.2199 57.752 76.1267C57.752 73.8869 59.5673 72.0716 61.807 72.0716C64.0467 72.0716 65.8645 73.8869 65.8645 76.1267Z" fill="#072030"/>
<path d="M63.1541 38.0881C63.1541 29.4972 59.1628 21.8409 52.9367 16.8659C52.7846 16.7432 52.63 16.623 52.4755 16.5053C52.4632 16.4955 52.451 16.4857 52.4387 16.4759C52.2915 16.363 52.1443 16.2551 51.9947 16.1447C51.9726 16.13 51.9505 16.1128 51.9309 16.0981C51.7886 15.995 51.6439 15.892 51.4991 15.7914C51.4697 15.7718 51.4427 15.7522 51.4133 15.7325C51.2734 15.6344 51.1312 15.5387 50.9889 15.4455C50.9545 15.4234 50.9226 15.4014 50.8883 15.3793C50.7485 15.2885 50.6086 15.1978 50.4688 15.1094C50.432 15.0849 50.3952 15.0628 50.356 15.0408C50.2161 14.9549 50.0763 14.869 49.9365 14.7832C49.8972 14.7586 49.858 14.7366 49.8187 14.712C49.6789 14.6286 49.5391 14.5477 49.3968 14.4667C49.3575 14.4446 49.3158 14.4226 49.2766 14.4005C49.1343 14.3195 48.992 14.241 48.8473 14.1625C48.808 14.1429 48.7712 14.1233 48.732 14.1012C48.5848 14.0227 48.4376 13.9442 48.288 13.8682C48.2585 13.8534 48.2291 13.8387 48.2021 13.824C47.5201 13.4806 46.8234 13.1665 46.112 12.8795C46.0752 12.8648 46.0409 12.8501 46.0041 12.8354C45.8765 12.7839 45.749 12.7372 45.6189 12.6882C45.5453 12.6612 45.4717 12.6318 45.4006 12.6048C45.2853 12.5631 45.1676 12.5214 45.0498 12.4797C44.9615 12.4478 44.8756 12.4183 44.7873 12.3864C44.6769 12.3496 44.5665 12.3129 44.4537 12.2761C44.358 12.2442 44.2648 12.2123 44.1691 12.1828C44.0612 12.1485 43.9532 12.1166 43.8453 12.0847C43.7447 12.0553 43.6466 12.0234 43.546 11.9964C43.4405 11.967 43.3326 11.9375 43.2271 11.9081C43.1241 11.8786 43.0186 11.8517 42.9156 11.8247C42.8101 11.7977 42.707 11.7707 42.6016 11.7437C42.4936 11.7167 42.3857 11.6898 42.2777 11.6652C42.1747 11.6407 42.0692 11.6162 41.9662 11.5941C41.8558 11.5695 41.7454 11.545 41.635 11.5229C41.532 11.5009 41.429 11.4788 41.3259 11.4592C41.2131 11.4371 41.1002 11.415 40.9874 11.3954C40.8844 11.3757 40.7813 11.3586 40.6783 11.339C40.563 11.3193 40.4477 11.2997 40.3299 11.2825C40.2294 11.2654 40.1263 11.2506 40.0257 11.2359C39.908 11.2187 39.7878 11.2016 39.6676 11.1869C39.567 11.1721 39.4664 11.1599 39.3659 11.1476C39.2432 11.1329 39.1205 11.1182 38.9979 11.1059C38.8998 11.0961 38.8016 11.0838 38.701 11.074C38.5735 11.0617 38.4459 11.0519 38.3184 11.0397C38.2227 11.0323 38.1295 11.0225 38.0338 11.0151C37.8989 11.0053 37.7639 10.998 37.629 10.9906C37.5407 10.9857 37.4499 10.9783 37.3616 10.9734C37.212 10.9661 37.0599 10.9612 36.9102 10.9563C36.8342 10.9563 36.7606 10.9489 36.6846 10.9489C36.4589 10.944 36.2307 10.9391 36.0026 10.9391C30.0807 10.9391 24.6028 12.8354 20.1405 16.0539C19.9344 16.2011 19.7308 16.3532 19.5321 16.5077C18.4012 17.3713 17.339 18.3206 16.3577 19.3485C16.343 19.3632 16.3308 19.3779 16.316 19.3926C15.9015 19.8293 15.4991 20.2807 15.114 20.7443C15.0649 20.8032 15.0183 20.8621 14.9693 20.921C14.7534 21.1859 14.5424 21.4533 14.3363 21.728C14.1744 21.9415 14.015 22.1573 13.858 22.3757C13.5268 22.8418 13.2103 23.3201 12.9086 23.8059C12.7492 24.061 12.5946 24.3186 12.445 24.5786C12.337 24.7675 12.2291 24.9588 12.1236 25.1526C11.866 25.6261 11.6232 26.1118 11.3926 26.6025C11.0982 27.2305 10.8283 27.8707 10.583 28.5233C10.4751 28.8078 10.3696 29.0973 10.2715 29.3868C10.1292 29.8063 9.99672 30.2331 9.87406 30.6624C9.7514 31.0917 9.64101 31.5259 9.54043 31.9626C9.0866 33.9325 8.84619 35.9858 8.84619 38.0955C8.84619 38.3187 8.84864 38.5395 8.85355 38.7603C8.85355 38.8363 8.85846 38.9124 8.86091 38.9884C8.86582 39.1332 8.87072 39.2754 8.87808 39.4202C8.88299 39.5085 8.88789 39.5968 8.8928 39.6827C8.86336 40.2076 8.84619 40.7375 8.84619 41.2699C8.84619 56.266 21.004 68.4238 36.0001 68.4238C50.9962 68.4238 63.1541 56.266 63.1541 41.2699C63.1541 40.7375 63.1369 40.2076 63.1074 39.6827C63.1369 39.1577 63.1541 38.6278 63.1541 38.0955V38.0881Z" fill="#0F0F0F"/>
<path d="M36.0003 65.3279C49.3848 65.3279 60.235 54.4776 60.235 41.0932C60.235 27.7088 49.3848 16.8585 36.0003 16.8585C22.6159 16.8585 11.7656 27.7088 11.7656 41.0932C11.7656 54.4776 22.6159 65.3279 36.0003 65.3279Z" fill="#89101E"/>
<path d="M36.0003 62.4945C49.3848 62.4945 60.235 51.6443 60.235 38.2598C60.235 24.8754 49.3848 14.0251 36.0003 14.0251C22.6159 14.0251 11.7656 24.8754 11.7656 38.2598C11.7656 51.6443 22.6159 62.4945 36.0003 62.4945Z" fill="#F41631"/>
<path d="M31.1107 35.6472C39.4808 31.2487 48.2705 28.381 57.4747 27.0391C53.427 19.3068 45.3341 14.0251 36.0023 14.0251C22.6179 14.0251 11.7676 24.8754 11.7676 38.2598C11.7676 40.3646 12.0399 42.4032 12.5477 44.351C18.3003 40.7056 24.4896 37.8035 31.1131 35.6497L31.1107 35.6472Z" fill="#FF4060"/>
<path d="M22.8067 25.332C24.9786 23.1602 26.055 20.7154 25.2109 19.8714C24.3669 19.0274 21.9221 20.1038 19.7503 22.2756C17.5785 24.4474 16.5021 26.8922 17.3461 27.7362C18.1901 28.5802 20.6349 27.5038 22.8067 25.332Z" fill="white"/>
<path d="M35.9951 67.1285C35.9951 67.1285 36.0025 67.1212 36.0049 67.1138C36.0025 67.1163 36 67.1187 35.9951 67.1212C35.9951 67.1212 35.9951 67.1261 35.9951 67.1285Z" fill="white"/>
<path d="M27.8557 40.2076V48.2859H25.4761L24.0631 44.6135V48.2859H21.7939V40.2076H24.0631L25.5841 43.8457V40.2076H27.8532H27.8557Z" fill="white"/>
<path d="M35.1463 44.9398C35.1463 45.7518 35.1218 46.3258 35.0727 46.6643C35.0236 47.0029 34.8691 47.3095 34.609 47.5892C34.349 47.8688 33.9982 48.0823 33.5542 48.2319C33.1126 48.3815 32.595 48.4576 32.0063 48.4576C31.4175 48.4576 30.9465 48.3864 30.5 48.2466C30.056 48.1043 29.6978 47.8934 29.4255 47.6112C29.1557 47.3291 28.9938 47.02 28.9423 46.6889C28.8908 46.3577 28.8638 45.7738 28.8638 44.9422V43.5611C28.8638 42.7491 28.8883 42.1751 28.9374 41.8365C28.9864 41.498 29.141 41.1914 29.401 40.9117C29.661 40.632 30.0118 40.4186 30.4559 40.269C30.8974 40.1193 31.415 40.0433 32.0038 40.0433C32.5631 40.0433 33.0636 40.1144 33.51 40.2542C33.9541 40.3965 34.3122 40.6075 34.5845 40.8896C34.8544 41.1717 35.0163 41.4808 35.0678 41.812C35.1193 42.1456 35.1463 42.727 35.1463 43.5586V44.9398ZM32.4331 42.283C32.4331 41.9077 32.4061 41.6673 32.3522 41.5618C32.2982 41.4563 32.1878 41.4048 32.021 41.4048C31.8787 41.4048 31.7708 41.4465 31.6947 41.5323C31.6187 41.6182 31.5819 41.8684 31.5819 42.283V46.056C31.5819 46.5245 31.6064 46.814 31.6555 46.9244C31.7045 47.0348 31.8198 47.0887 32.0013 47.0887C32.1829 47.0887 32.3031 47.0249 32.3571 46.8998C32.4086 46.7747 32.4356 46.473 32.4356 45.9971V42.2855L32.4331 42.283Z" fill="white"/>
<path d="M46.3792 40.2076L45.1698 48.2859H41.7795C41.4704 47.0446 41.1957 45.6316 40.9577 44.0493C40.8498 44.7288 40.5971 46.1394 40.1997 48.2859H36.8291L35.6147 40.2076H38.2519L38.5389 43.0263L38.8161 45.7518C38.9167 44.3412 39.1669 42.494 39.5668 40.2076H42.3854C42.4222 40.4431 42.5204 41.3312 42.6823 42.8718L42.9816 45.9456C43.1361 43.9904 43.3888 42.0769 43.7396 40.2076H46.3767H46.3792Z" fill="white"/>
<path d="M49.7012 40.2076L49.2768 46.2915H47.2652L46.8408 40.2076H49.7036H49.7012ZM49.4878 46.6692V48.2859H47.0493V46.6692H49.4878Z" fill="white"/>
<path d="M21.6372 30.2724H23.7518C25.1158 30.2724 26.0406 30.3239 26.5214 30.4245C27.0023 30.5251 27.3678 30.6919 27.618 30.92C27.8682 31.1506 28.0252 31.4058 28.089 31.6903C28.1528 31.9724 28.1822 32.5268 28.1822 33.356V36.4175C28.1822 37.2026 28.1356 37.7275 28.0448 37.99C27.9541 38.255 27.7922 38.461 27.564 38.6107C27.3359 38.7603 27.0538 38.8633 26.7177 38.9247C26.3816 38.9835 25.8763 39.013 25.2016 39.013H21.6372V30.2724ZM24.4632 31.7664V37.5166C24.8705 37.5166 25.1207 37.4503 25.2139 37.3203C25.3071 37.1878 25.3537 36.8321 25.3537 36.2483V32.8531C25.3537 32.4582 25.339 32.203 25.3071 32.0926C25.2752 31.9822 25.2041 31.8988 25.0912 31.8473C24.9784 31.7958 24.7699 31.7688 24.4608 31.7688L24.4632 31.7664Z" fill="white"/>
<path d="M29.2339 30.2724H31.2332C32.5677 30.2724 33.4705 30.3141 33.9415 30.3975C34.4125 30.4809 34.7976 30.6919 35.0969 31.0329C35.3938 31.3739 35.5434 31.916 35.5434 32.6593C35.5434 33.3388 35.4379 33.7976 35.2269 34.0306C35.016 34.2637 34.6038 34.406 33.9856 34.4526C34.545 34.563 34.9203 34.7126 35.1141 34.9015C35.3054 35.0879 35.4256 35.2597 35.4723 35.4167C35.5189 35.5737 35.5434 36.0054 35.5434 36.7095V39.0154H32.9185V36.1109C32.9185 35.6423 32.8719 35.3529 32.7811 35.2425C32.6904 35.1321 32.45 35.0757 32.0599 35.0757V39.0154H29.2339V30.2749V30.2724ZM32.0599 31.7664V33.7093C32.3764 33.7093 32.5996 33.6749 32.7272 33.6038C32.8547 33.5326 32.9185 33.3069 32.9185 32.9218V32.441C32.9185 32.1638 32.8572 31.9822 32.7345 31.8964C32.6119 31.8105 32.3862 31.7664 32.0599 31.7664Z" fill="white"/>
<path d="M39.4662 30.2724V39.013H36.6401V30.2724H39.4662Z" fill="white"/>
<path d="M43.4256 30.2724V37.2639H45.1453V39.013H40.5996V30.2724H43.4256Z" fill="white"/>
<path d="M48.6561 30.2724V37.2639H50.3758V39.013H45.8301V30.2724H48.6561Z" fill="white"/>
<defs>
<linearGradient id="paint0_linear_6897_3395" x1="-5.63734" y1="-67.0343" x2="99.7304" y2="213.032" gradientUnits="userSpaceOnUse">
<stop stop-color="#CCE0F4"/>
<stop offset="0.06" stop-color="#C2DCF2"/>
<stop offset="0.17" stop-color="#A9D2EE"/>
<stop offset="0.31" stop-color="#7FC2E7"/>
<stop offset="0.46" stop-color="#46ABDD"/>
<stop offset="0.57" stop-color="#1E9CD7"/>
<stop offset="0.87" stop-color="#0075BE"/>
<stop offset="0.99" stop-color="#005B97"/>
</linearGradient>
<linearGradient id="paint1_linear_6897_3395" x1="-6.50572" y1="-56.9936" x2="69.0195" y2="121.809" gradientUnits="userSpaceOnUse">
<stop stop-color="#CCE0F4"/>
<stop offset="0.06" stop-color="#C2DCF2"/>
<stop offset="0.17" stop-color="#A9D2EE"/>
<stop offset="0.31" stop-color="#7FC2E7"/>
<stop offset="0.46" stop-color="#46ABDD"/>
<stop offset="0.57" stop-color="#1E9CD7"/>
<stop offset="0.87" stop-color="#0075BE"/>
<stop offset="0.99" stop-color="#005B97"/>
</linearGradient>
</defs>
</svg>
