<svg width="31" height="38" viewBox="0 0 31 38" fill="none" xmlns="http://www.w3.org/2000/svg">
<path d="M28.47 6.94H28.64V3.49H28.47V3.48H27.3V3.42H21.39V1.6V1.5H8.75V1.6V3.42H2.84V3.49H1.5V6.94H2.84V30.81H1.5V34.27H8.75V36.16V36.25H16.29H21.21H21.39V36.16V34.27H28.64V30.81H28.47H27.3V6.94H28.47Z" stroke="black" stroke-width="3" stroke-miterlimit="10"/>
<path d="M27.29 4.48H2.83997V33.18H27.29V4.48Z" fill="#BDCCD4" stroke="black" stroke-width="0.5" stroke-miterlimit="10"/>
<path opacity="0.23" d="M27.29 3.42H2.83997V32.12H27.29V3.42Z" fill="url(#paint0_linear_6494_134)" stroke="black" stroke-width="0.5" stroke-miterlimit="10"/>
<path d="M22.8101 9.95H7.34005C6.83747 9.95 6.43005 10.3574 6.43005 10.86V26.33C6.43005 26.8326 6.83747 27.24 7.34005 27.24H22.8101C23.3126 27.24 23.7201 26.8326 23.7201 26.33V10.86C23.7201 10.3574 23.3126 9.95 22.8101 9.95Z" fill="#3582A0" stroke="#3A3A3A" stroke-linecap="round" stroke-linejoin="round"/>
<path d="M28.64 30.81H1.5V34.26H28.64V30.81Z" fill="#F2F2F2" stroke="#3A3A3A" stroke-width="0.5" stroke-miterlimit="10"/>
<path d="M28.64 3.49001H1.5V6.94001H28.64V3.49001Z" fill="#F2F2F2" stroke="#3A3A3A" stroke-width="0.5" stroke-miterlimit="10"/>
<path d="M7.31006 14.5C7.31006 14.5 8.64006 16.55 12.7401 16.02C16.8401 15.49 19.2301 13.11 22.8301 15.3V25.05C22.8301 25.74 22.2701 26.3 21.5801 26.3H8.56006C7.87006 26.3 7.31006 25.74 7.31006 25.05V14.49V14.5Z" fill="#9BEAFF" stroke="#3A3A3A" stroke-width="0.27" stroke-linecap="round" stroke-linejoin="round"/>
<path d="M8.30995 18.96V16.59L6.25995 15.4L4.19995 16.59V18.96L6.25995 20.15L8.30995 18.96Z" fill="#F2F2F2" stroke="#3A3A3A" stroke-width="0.22" stroke-linecap="round" stroke-linejoin="round"/>
<path d="M5.01001 18.5V17.05L6.26001 16.33L7.51001 17.05V18.5L6.26001 19.22L5.01001 18.5Z" fill="#3A3A3A"/>
<path d="M25.77 18.96V16.59L23.72 15.4L21.66 16.59V18.96L23.72 20.15L25.77 18.96Z" fill="#F2F2F2" stroke="#3A3A3A" stroke-width="0.22" stroke-linecap="round" stroke-linejoin="round"/>
<path d="M22.47 18.5V17.05L23.72 16.33L24.97 17.05V18.5L23.72 19.22L22.47 18.5Z" fill="#3A3A3A"/>
<path d="M15.07 5.21001H8.75L12.63 9.02001H15.07H17.51L21.39 5.21001H15.07Z" fill="#BDCCD4" stroke="black" stroke-width="0.5" stroke-linecap="round" stroke-linejoin="round"/>
<path d="M21.39 1.60001H8.75V5.22001H21.39V1.60001Z" fill="#BDCCD4" stroke="black" stroke-width="0.5" stroke-linecap="round" stroke-linejoin="round"/>
<path style="mix-blend-mode:multiply" opacity="0.38" d="M8.75 1.5V5.12L12.63 8.93H15.07H17.51L21.39 5.12V1.5H8.75Z" fill="url(#paint1_linear_6494_134)"/>
<path d="M17.48 2.47H12.66V4.34H17.48V2.47Z" fill="black"/>
<path d="M15.07 32.54H8.75L12.63 28.73H15.07H17.51L21.39 32.54H15.07Z" fill="#BDCCD4" stroke="black" stroke-width="0.5" stroke-linecap="round" stroke-linejoin="round"/>
<path d="M21.39 32.54H8.75V36.16H21.39V32.54Z" fill="#BDCCD4" stroke="black" stroke-width="0.5" stroke-linecap="round" stroke-linejoin="round"/>
<path style="mix-blend-mode:multiply" opacity="0.38" d="M8.75 36.25V32.64L12.63 28.83H15.07H17.51L21.39 32.64V36.25H8.75Z" fill="url(#paint2_linear_6494_134)"/>
<path d="M17.48 33.41H12.66V35.28H17.48V33.41Z" fill="black"/>
<path d="M8.68005 6.69V30.39" stroke="url(#paint3_linear_6494_134)" stroke-width="0.5" stroke-miterlimit="10"/>
<path d="M21.35 6.69V30.39" stroke="url(#paint4_linear_6494_134)" stroke-width="0.5" stroke-miterlimit="10"/>
<path d="M13.6 20.41C14.1192 20.41 14.54 19.9891 14.54 19.47C14.54 18.9508 14.1192 18.53 13.6 18.53C13.0809 18.53 12.66 18.9508 12.66 19.47C12.66 19.9891 13.0809 20.41 13.6 20.41Z" fill="#FFFDEA"/>
<path d="M14.5099 23.7C15.0291 23.7 15.4499 23.2792 15.4499 22.76C15.4499 22.2409 15.0291 21.82 14.5099 21.82C13.9908 21.82 13.5699 22.2409 13.5699 22.76C13.5699 23.2792 13.9908 23.7 14.5099 23.7Z" fill="#FFFDEA"/>
<path d="M16.88 23.01C17.2059 23.01 17.47 22.7458 17.47 22.42C17.47 22.0942 17.2059 21.83 16.88 21.83C16.5542 21.83 16.29 22.0942 16.29 22.42C16.29 22.7458 16.5542 23.01 16.88 23.01Z" fill="#FFFDEA"/>
<g style="mix-blend-mode:multiply" opacity="0.16">
<path d="M27.12 6.94V30.81H28.47V34.26H21.21V36.25H16.29V1.5H21.21V3.42H27.12V3.48H28.47V6.94H27.12Z" fill="#333333"/>
</g>
<path d="M11.09 10.54H9.87V26.31H11.09V10.54Z" fill="white"/>
<defs>
<linearGradient id="paint0_linear_6494_134" x1="2.83997" y1="17.77" x2="27.3" y2="17.77" gradientUnits="userSpaceOnUse">
<stop stop-color="#BDCCD4"/>
<stop offset="1"/>
</linearGradient>
<linearGradient id="paint1_linear_6494_134" x1="8.75" y1="5.21" x2="21.39" y2="5.21" gradientUnits="userSpaceOnUse">
<stop stop-color="#BDCCD4"/>
<stop offset="1"/>
</linearGradient>
<linearGradient id="paint2_linear_6494_134" x1="8.75" y1="32.54" x2="21.39" y2="32.54" gradientUnits="userSpaceOnUse">
<stop stop-color="#BDCCD4"/>
<stop offset="1"/>
</linearGradient>
<linearGradient id="paint3_linear_6494_134" x1="-nan" y1="-nan" x2="-nan" y2="-nan" gradientUnits="userSpaceOnUse">
<stop stop-color="#BDCCD4"/>
<stop offset="1"/>
</linearGradient>
<linearGradient id="paint4_linear_6494_134" x1="-nan" y1="-nan" x2="-nan" y2="-nan" gradientUnits="userSpaceOnUse">
<stop stop-color="#BDCCD4"/>
<stop offset="1"/>
</linearGradient>
</defs>
</svg>
