<svg width="500" height="61" viewBox="0 0 500 61" fill="none" xmlns="http://www.w3.org/2000/svg">
<g clip-path="url(#clip0_8701_2485)">
<path d="M500 13.152H0V60.0739H500V13.152Z" fill="#BA8258"/>
<path d="M500 0H0V16.4848H500V0Z" fill="#62C669"/>
<path d="M500 6.57135H0V16.4848H500V6.57135Z" fill="#124C12"/>
<path d="M29.9355 4.25537H21.604V12.6531H29.9355V4.25537Z" fill="#124C12"/>
<path d="M59.8334 4.25537H51.502V12.6531H59.8334V4.25537Z" fill="#124C12"/>
<path d="M89.7314 4.25537H81.3999V12.6531H89.7314V4.25537Z" fill="#124C12"/>
<path d="M119.62 4.25537H111.289V12.6531H119.62V4.25537Z" fill="#124C12"/>
<path d="M149.518 4.25537H141.187V12.6531H149.518V4.25537Z" fill="#124C12"/>
<path d="M179.416 4.25537H171.084V12.6531H179.416V4.25537Z" fill="#124C12"/>
<path d="M209.314 4.25537H200.983V12.6531H209.314V4.25537Z" fill="#124C12"/>
<path d="M239.212 4.25537H230.881V12.6531H239.212V4.25537Z" fill="#124C12"/>
<path d="M269.11 4.25537H260.778V12.6531H269.11V4.25537Z" fill="#124C12"/>
<path d="M299.008 4.25537H290.677V12.6531H299.008V4.25537Z" fill="#124C12"/>
<path d="M328.906 4.25537H320.575V12.6531H328.906V4.25537Z" fill="#124C12"/>
<path d="M358.804 4.25537H350.473V12.6531H358.804V4.25537Z" fill="#124C12"/>
<path d="M388.702 4.25537H380.371V12.6531H388.702V4.25537Z" fill="#124C12"/>
<path d="M418.6 4.25537H410.269V12.6531H418.6V4.25537Z" fill="#124C12"/>
<path d="M448.498 4.25537H440.167V12.6531H448.498V4.25537Z" fill="#124C12"/>
<path d="M478.396 4.25537H470.065V12.6531H478.396V4.25537Z" fill="#124C12"/>
<path d="M500 0H0V2.12768H500V0Z" fill="#00FFFF"/>
<path d="M31.4302 37.8463H27.0496C25.7445 37.8463 24.6865 38.9127 24.6865 40.2281V44.6435C24.6865 45.959 25.7445 47.0254 27.0496 47.0254H31.4302C32.7352 47.0254 33.7932 45.959 33.7932 44.6435V40.2281C33.7932 38.9127 32.7352 37.8463 31.4302 37.8463Z" fill="#FFC28E"/>
<path d="M75.3286 37.8463H70.948C69.6429 37.8463 68.585 38.9127 68.585 40.2281V44.6435C68.585 45.959 69.6429 47.0254 70.948 47.0254H75.3286C76.6337 47.0254 77.6917 45.959 77.6917 44.6435V40.2281C77.6917 38.9127 76.6337 37.8463 75.3286 37.8463Z" fill="#FFC28E"/>
<path d="M43.2173 23.9788H38.8367C37.5316 23.9788 36.4736 25.0452 36.4736 26.3606V30.776C36.4736 32.0915 37.5316 33.1579 38.8367 33.1579H43.2173C44.5224 33.1579 45.5803 32.0915 45.5803 30.776V26.3606C45.5803 25.0452 44.5224 23.9788 43.2173 23.9788Z" fill="#DD9E6F"/>
<path d="M170.347 33.1485H174.727C176.032 33.1485 177.09 32.0821 177.09 30.7666V26.3512C177.09 25.0358 176.032 23.9694 174.727 23.9694H170.347C169.042 23.9694 167.984 25.0358 167.984 26.3512V30.7666C167.984 32.0821 169.042 33.1485 170.347 33.1485Z" fill="#FFC28E"/>
<path d="M126.448 33.1485H130.828C132.133 33.1485 133.191 32.0821 133.191 30.7666V26.3512C133.191 25.0358 132.133 23.9694 130.828 23.9694H126.448C125.143 23.9694 124.085 25.0358 124.085 26.3512V30.7666C124.085 32.0821 125.143 33.1485 126.448 33.1485Z" fill="#FFC28E"/>
<path d="M158.559 47.016H162.94C164.245 47.016 165.303 45.9496 165.303 44.6341V40.2187C165.303 38.9033 164.245 37.8369 162.94 37.8369H158.559C157.254 37.8369 156.196 38.9033 156.196 40.2187V44.6341C156.196 45.9496 157.254 47.016 158.559 47.016Z" fill="#DD9E6F"/>
<path d="M230.236 37.8463H225.855C224.55 37.8463 223.492 38.9127 223.492 40.2281V44.6435C223.492 45.959 224.55 47.0254 225.855 47.0254H230.236C231.541 47.0254 232.599 45.959 232.599 44.6435V40.2281C232.599 38.9127 231.541 37.8463 230.236 37.8463Z" fill="#FFC28E"/>
<path d="M274.135 37.8463H269.755C268.45 37.8463 267.392 38.9127 267.392 40.2281V44.6435C267.392 45.959 268.45 47.0254 269.755 47.0254H274.135C275.44 47.0254 276.498 45.959 276.498 44.6435V40.2281C276.498 38.9127 275.44 37.8463 274.135 37.8463Z" fill="#FFC28E"/>
<path d="M242.033 23.9788H237.652C236.347 23.9788 235.289 25.0452 235.289 26.3606V30.776C235.289 32.0915 236.347 33.1579 237.652 33.1579H242.033C243.338 33.1579 244.396 32.0915 244.396 30.776V26.3606C244.396 25.0452 243.338 23.9788 242.033 23.9788Z" fill="#DD9E6F"/>
<path d="M429.052 37.8463H424.671C423.366 37.8463 422.308 38.9127 422.308 40.2281V44.6435C422.308 45.959 423.366 47.0254 424.671 47.0254H429.052C430.357 47.0254 431.415 45.959 431.415 44.6435V40.2281C431.415 38.9127 430.357 37.8463 429.052 37.8463Z" fill="#FFC28E"/>
<path d="M472.951 37.8463H468.571C467.266 37.8463 466.208 38.9127 466.208 40.2281V44.6435C466.208 45.959 467.266 47.0254 468.571 47.0254H472.951C474.256 47.0254 475.314 45.959 475.314 44.6435V40.2281C475.314 38.9127 474.256 37.8463 472.951 37.8463Z" fill="#FFC28E"/>
<path d="M440.849 23.9788H436.468C435.163 23.9788 434.105 25.0452 434.105 26.3606V30.776C434.105 32.0915 435.163 33.1579 436.468 33.1579H440.849C442.154 33.1579 443.212 32.0915 443.212 30.776V26.3606C443.212 25.0452 442.154 23.9788 440.849 23.9788Z" fill="#DD9E6F"/>
<path d="M369.171 33.1485H373.552C374.857 33.1485 375.915 32.0821 375.915 30.7666V26.3512C375.915 25.0358 374.857 23.9694 373.552 23.9694H369.171C367.866 23.9694 366.808 25.0358 366.808 26.3512V30.7666C366.808 32.0821 367.866 33.1485 369.171 33.1485Z" fill="#FFC28E"/>
<path d="M325.273 33.1485H329.654C330.959 33.1485 332.017 32.0821 332.017 30.7666V26.3512C332.017 25.0358 330.959 23.9694 329.654 23.9694H325.273C323.968 23.9694 322.91 25.0358 322.91 26.3512V30.7666C322.91 32.0821 323.968 33.1485 325.273 33.1485Z" fill="#FFC28E"/>
<path d="M357.366 47.016H361.746C363.051 47.016 364.109 45.9496 364.109 44.6341V40.2187C364.109 38.9033 363.051 37.8369 361.746 37.8369H357.366C356.061 37.8369 355.003 38.9033 355.003 40.2187V44.6341C355.003 45.9496 356.061 47.016 357.366 47.016Z" fill="#DD9E6F"/>
</g>
<defs>
<clipPath id="clip0_8701_2485">
<rect width="500" height="60.0739" fill="white"/>
</clipPath>
</defs>
</svg>
