<svg width="187" height="210" viewBox="0 0 187 210" fill="none" xmlns="http://www.w3.org/2000/svg">
<rect x="0.335205" y="0.779419" width="186.415" height="208.532" rx="22.1171" fill="#181818"/>
<rect x="1.915" y="2.35921" width="183.256" height="205.373" rx="20.5373" stroke="black" stroke-opacity="0.21" stroke-width="3.15958"/>
<path d="M102.707 146.085V129.85V113.614L72.2197 103.805V129.85V155.894L102.707 146.085Z" fill="#333333" stroke="black" stroke-width="1.46009" stroke-linecap="round" stroke-linejoin="round"/>
<path d="M64.782 103.805V155.645L72.2197 155.894V103.805H64.782Z" fill="#B3B3B3" stroke="black" stroke-width="1.46009" stroke-linecap="round" stroke-linejoin="round"/>
<path d="M64.782 103.805L9.02393 129.85L64.782 155.645V103.805Z" fill="#BDCCD4" stroke="black" stroke-width="2.49589" stroke-linecap="round" stroke-linejoin="round"/>
<path d="M90.8014 109.783L83.7505 107.524V152.175L90.8014 149.904V109.783Z" fill="#BDCCD4" stroke="black" stroke-width="1.46009" stroke-linecap="round" stroke-linejoin="round"/>
<path d="M50.0562 110.681C50.0562 110.681 57.2942 123.597 57.2942 152.175" stroke="#1A1A1A" stroke-width="0.973395" stroke-miterlimit="10"/>
<path d="M37.6267 116.422C37.6267 116.422 44.8648 125.769 44.8648 146.435" stroke="#1A1A1A" stroke-width="0.823642" stroke-miterlimit="10"/>
<path d="M26.1082 121.364C26.1082 121.364 33.3462 127.628 33.3462 141.493" stroke="#1A1A1A" stroke-width="0.673889" stroke-miterlimit="10"/>
<g style="mix-blend-mode:multiply" opacity="0.41">
<path d="M90.8017 141.181L71.2339 145.324H64.7821L11.2578 129.875L64.7821 155.645H72.2198L90.8017 149.904V141.181Z" fill="#333333"/>
</g>
<g style="mix-blend-mode:overlay">
<path d="M71.2339 109.545L11.2578 129.8L71.2339 118.481V109.545Z" fill="#F2F2F2"/>
</g>
<path d="M104.117 175.362C138.096 175.362 165.641 147.817 165.641 113.838C165.641 79.8599 138.096 52.3148 104.117 52.3148C70.1385 52.3148 42.5935 79.8599 42.5935 113.838C42.5935 147.817 70.1385 175.362 104.117 175.362Z" fill="#5B2ECC" stroke="#0F0F0E" stroke-width="2.49589" stroke-miterlimit="10"/>
<path d="M104.117 153.81C126 153.81 143.739 136.071 143.739 114.188C143.739 92.3051 126 74.5657 104.117 74.5657C82.2343 74.5657 64.4949 92.3051 64.4949 114.188C64.4949 136.071 82.2343 153.81 104.117 153.81Z" fill="#9A7FCD"/>
<path d="M127.204 56.7949L106.151 123.011H43.2799C42.8306 120.016 42.5935 116.958 42.5935 113.838C42.5935 79.8694 70.1356 52.3148 104.117 52.3148C112.291 52.3148 120.078 53.8997 127.204 56.7949Z" fill="#00BAEB" stroke="#0F0F0E" stroke-width="2.49589" stroke-miterlimit="10"/>
<g style="mix-blend-mode:multiply">
<path d="M164.63 113.838C164.63 147.82 137.088 175.362 103.106 175.362C84.4121 175.362 67.6772 167.026 56.3958 153.872C66.9034 161.023 79.595 165.204 93.26 165.204C129.5 165.204 158.877 135.827 158.877 99.587C158.877 94.3331 158.265 89.229 157.092 84.3371C161.897 93.0977 164.63 103.144 164.63 113.838Z" fill="#B7B7B7"/>
</g>
<path d="M122.05 167.101C113.09 167.101 107.025 154.085 104.641 147.845H73.8918V140.357H109.982L110.831 142.928C113.614 151.289 119.017 160.2 122.412 159.588C125.008 159.126 126.929 157.953 129.163 156.593C133.331 154.047 138.535 150.877 148.319 153.361L148.407 153.386C147.92 152.026 147.171 150.291 146.572 148.881C144.226 143.44 141.318 136.663 141.318 129.75H148.806C148.806 135.116 151.377 141.106 153.448 145.923C155.969 151.788 157.791 156.031 155.083 159.201C152.55 162.171 148.144 161.048 146.472 160.624C139.746 158.914 136.938 160.624 133.057 162.995C130.548 164.53 127.703 166.265 123.71 166.976C123.148 167.076 122.587 167.126 122.037 167.126L122.05 167.101Z" fill="#7FCCA9" stroke="black" stroke-width="1.24794" stroke-miterlimit="10"/>
<path d="M102.707 132.67V155.694C102.707 155.694 119.954 152.026 119.954 144.326C119.954 136.626 102.707 132.67 102.707 132.67Z" fill="#FFD74E" stroke="black" stroke-width="1.46009" stroke-linecap="round" stroke-linejoin="round"/>
<g style="mix-blend-mode:multiply" opacity="0.41">
<path d="M119.954 144.126C119.954 151.813 102.707 155.482 102.707 155.482V151.938C106.189 151.052 116.222 148.144 119.841 143.078C119.916 143.427 119.954 143.764 119.954 144.126Z" fill="#333333"/>
</g>
<path d="M143.14 150.442L128.518 153.433C127.944 153.55 127.573 154.11 127.691 154.684L129.656 164.294C129.774 164.868 130.334 165.238 130.908 165.121L145.531 162.13C146.105 162.012 146.475 161.452 146.358 160.878L144.392 151.268C144.275 150.694 143.714 150.324 143.14 150.442Z" fill="#BDCCD4" stroke="black" stroke-width="1.46009" stroke-linecap="round" stroke-linejoin="round"/>
<g style="mix-blend-mode:multiply" opacity="0.41">
<path d="M146.36 158.977C146.472 159.551 146.11 160.112 145.536 160.224L130.911 163.22C130.336 163.332 129.775 162.97 129.663 162.396L129.126 159.788L145.823 156.356L146.36 158.977Z" fill="#333333"/>
</g>
<mask id="mask0_8815_1685" style="mask-type:luminance" maskUnits="userSpaceOnUse" x="46" y="57" width="76" height="65">
<path d="M121.813 57.8058H46.5371V121.376H121.813V57.8058Z" fill="white"/>
</mask>
<g mask="url(#mask0_8815_1685)">
<path d="M104.604 95.4188C104.754 95.2192 104.879 95.007 104.953 94.7449V94.7075C105.203 93.9587 105.003 93.1601 104.542 92.611L111.131 85.7847L100.411 83.0892L103.181 73.0557L92.2494 76.6498V66.1671C85.3608 67.3651 80.8931 72.1821 78.2225 76.4501C78.1352 76.3627 78.0354 76.2879 77.9355 76.238L74.641 74.4534C73.9671 74.0915 73.1434 74.366 72.794 75.0774L66.5792 87.8313C66.2298 88.5427 66.5044 89.4037 67.1783 89.7656L68.7382 90.6018C67.5027 94.121 66.6791 97.6526 65.1815 97.8523C64.8072 97.9022 64.4577 98.027 64.1333 98.2017C63.4594 97.3032 62.3113 96.7042 61.0009 96.7042C58.9294 96.7042 57.2446 98.1893 57.2446 100.036C57.2446 101.883 58.817 103.243 60.7888 103.343C60.7888 103.356 60.7888 103.381 60.7888 103.381H62.1615C61.238 104.08 61.0009 105.714 61.9868 106.638C62.6357 107.237 63.5967 107.773 64.7822 108.248L64.2206 111.555C62.6732 119.292 61.4128 132.146 69.5119 134.043C72.3822 134.717 75.6892 135.203 79.0961 135.49C78.3099 137.4 77.2991 138.972 76.0886 139.072C76.0761 139.072 76.0511 139.072 76.0386 139.072C74.2042 139.172 73.3057 140.332 73.2932 141.343C73.2682 142.129 73.7674 142.853 74.7907 142.928C75.0528 142.953 75.502 142.965 76.0886 142.978V142.94C79.1585 143.003 86.0097 142.965 90.2527 142.94C92.0997 142.916 93.4599 141.056 93.1105 139.059L92.9483 138.148C92.9483 138.148 92.9857 138.148 93.0107 138.148L92.5115 135.39C97.653 134.791 101.621 133.419 102.595 131.122C103.943 127.965 103.032 120.665 101.958 114.799V114.774C101.771 113.814 101.597 112.878 101.422 112.016C102.146 111.929 102.795 111.417 103.069 110.619L105.028 104.991C105.328 104.129 104.779 103.206 103.968 103.194H103.443L111.193 96.3423L104.679 95.3814L104.604 95.4188Z" fill="#7C7C7C" stroke="black" stroke-width="3.66895" stroke-linecap="round" stroke-linejoin="round"/>
<path d="M65.5933 105.714C65.5933 105.714 57.7687 131.322 69.4495 134.068C81.1302 136.813 100.199 136.613 102.52 131.147C104.941 125.444 100.049 106.288 100.049 106.288L65.5933 105.714Z" fill="#BDCCD4" stroke="black" stroke-width="0.511657" stroke-miterlimit="10"/>
<path d="M74.8782 83.5634C74.8782 83.5634 79.2585 68.4508 92.2371 66.2045V76.6872L103.169 73.0932L100.399 83.1266L111.118 85.8222L102.183 95.0819L111.118 96.3923L103.169 103.406H60.7515C60.7515 103.406 62.1492 98.2767 65.1567 97.9023C68.1642 97.5279 68.4388 83.5759 74.8782 83.5759V83.5634Z" fill="#824B22" stroke="black" stroke-width="0.536615" stroke-miterlimit="10"/>
<path d="M73.4317 97.6321C73.9633 95.6982 73.6185 93.9173 72.6615 93.6542C71.7045 93.3911 70.4978 94.7456 69.9662 96.6795C69.4346 98.6134 69.7794 100.394 70.7364 100.657C71.6934 100.921 72.9001 99.566 73.4317 97.6321Z" fill="black"/>
<path d="M72.1824 95.3738C72.2919 94.9607 72.1701 94.5701 71.9103 94.5012C71.6504 94.4323 71.351 94.7113 71.2415 95.1243C71.132 95.5374 71.2538 95.928 71.5137 95.9969C71.7735 96.0658 72.0729 95.7868 72.1824 95.3738Z" fill="white"/>
<path d="M60.976 103.393C63.0506 103.393 64.7323 101.901 64.7323 100.061C64.7323 98.2209 63.0506 96.7291 60.976 96.7291C58.9015 96.7291 57.2197 98.2209 57.2197 100.061C57.2197 101.901 58.9015 103.393 60.976 103.393Z" fill="#F45B6D" stroke="black" stroke-width="0.486698" stroke-miterlimit="10"/>
<g style="mix-blend-mode:multiply">
<path d="M64.7323 100.061C64.7323 101.896 63.0476 103.393 60.976 103.393C58.9045 103.393 57.2197 101.896 57.2197 100.061C57.2197 99.7242 57.2696 99.3998 57.3944 99.0878C57.8687 100.448 59.2913 101.434 60.9885 101.434C62.6857 101.434 64.0959 100.461 64.5701 99.0878C64.6824 99.3873 64.7448 99.7117 64.7448 100.061H64.7323Z" fill="#F45B6D"/>
</g>
<path d="M68.9751 115.411L71.5833 118.568L68.9751 123.123L72.2322 125.369L70.7597 128.751L79.7823 127.878C83.1892 127.541 85.8098 124.533 85.8098 120.927C85.8098 116.671 82.2282 113.414 78.2348 114.013L68.9751 115.411Z" fill="#824B22" stroke="black" stroke-width="0.536615" stroke-miterlimit="10"/>
<path d="M70.7597 128.751L72.2322 125.369L68.9751 123.111L71.5833 118.556L68.9751 115.411L72.8936 114.812L74.4411 128.389L70.7597 128.751Z" fill="white" stroke="black" stroke-width="0.536615" stroke-miterlimit="10"/>
<path d="M87.9067 111.58C87.9067 111.58 89.7662 123.747 89.4667 135.677" stroke="black" stroke-width="0.536615" stroke-miterlimit="10"/>
<g style="mix-blend-mode:multiply">
<path d="M64.7322 108.26L64.1707 111.58C64.1707 111.58 89.4665 115.848 101.896 114.824L100.773 109.333L64.7322 108.273V108.26Z" fill="#BDCCD4"/>
</g>
<path d="M63.1225 103.056L103.893 103.231C104.704 103.231 105.253 104.167 104.954 105.028L102.994 110.656C102.695 111.517 101.971 112.091 101.147 112.079C94.5707 112.066 67.353 111.704 61.937 106.663C60.6516 105.465 61.4503 103.056 63.1225 103.069V103.056Z" fill="#FFD74E" stroke="black" stroke-width="0.561574" stroke-miterlimit="10"/>
<path d="M68.4136 106.051C68.4136 106.051 102.969 104.866 102.582 106.6C101.347 112.041 68.4136 106.051 68.4136 106.051Z" fill="#DDAE2A"/>
<path d="M60.2146 98.8257C60.8142 98.8257 61.3003 98.5017 61.3003 98.1019C61.3003 97.7022 60.8142 97.3781 60.2146 97.3781C59.615 97.3781 59.1289 97.7022 59.1289 98.1019C59.1289 98.5017 59.615 98.8257 60.2146 98.8257Z" fill="white"/>
<path d="M98.2395 123.448L94.4957 123.797L94.2461 120.927L98.0024 120.577L98.2395 123.448Z" fill="#9DB1BA" stroke="black" stroke-width="0.536615" stroke-miterlimit="10"/>
<g style="mix-blend-mode:multiply">
<path d="M68.4136 91.5627L71.3462 92.9729C72.1574 93.2724 73.0559 92.9355 73.4927 92.1617L75.0776 88.7798L102.295 97.1036C102.844 97.2658 103.418 97.0412 103.743 96.5545L104.953 94.745L72.5318 83.0268C72.5318 83.0268 69.0875 89.566 68.4136 91.5627Z" fill="#BDCCD4"/>
</g>
<path d="M102.433 96.1301L71.3838 86.2339L74.4412 79.8195L103.668 92.0244C104.741 92.3863 105.315 93.5968 104.966 94.72V94.7574C104.616 95.8556 103.493 96.4671 102.445 96.1301H102.433Z" fill="#BDCCD4" stroke="black" stroke-width="0.536615" stroke-miterlimit="10"/>
<path d="M70.4479 91.5876L67.1533 89.8031C66.4795 89.4412 66.2174 88.5676 66.5543 87.8688L72.7691 75.1148C73.1185 74.4035 73.9422 74.1289 74.616 74.4908L77.9106 76.2754C78.5845 76.6373 78.8466 77.5108 78.5096 78.2097L72.2949 90.9637C71.9454 91.675 71.1218 91.9495 70.4479 91.5876Z" fill="#BDCCD4" stroke="black" stroke-width="0.586533" stroke-miterlimit="10"/>
<path d="M77.923 78.2097L77.5611 78.9585C77.4363 78.7837 77.2741 78.634 77.062 78.5217L73.5053 76.5998C73.3056 76.4875 73.0935 76.4376 72.8813 76.4251L73.2433 75.6764C73.5303 75.0898 74.2042 74.8652 74.7408 75.1647L77.4363 76.6248C77.9854 76.9118 78.1976 77.6356 77.923 78.2097Z" fill="#F9F9F9"/>
<g style="mix-blend-mode:multiply" opacity="0.28">
<path d="M67.1283 87.8688L67.4902 87.12C67.615 87.2947 67.7772 87.4445 67.9894 87.5568L71.546 89.4786C71.7457 89.5909 71.9578 89.6408 72.17 89.6533L71.8081 90.4021C71.5211 90.9886 70.8472 91.2132 70.3106 90.9137L67.615 89.4536C67.0659 89.1666 66.8538 88.4428 67.1283 87.8688Z" fill="#7C7C7C"/>
</g>
</g>
<g style="mix-blend-mode:screen">
<path d="M125.257 58.2176L105.178 121.376H45.2017C44.7774 118.518 44.5527 115.598 44.5527 112.628C44.5403 80.2313 70.8219 53.9496 103.231 53.9496C111.031 53.9496 118.456 55.4597 125.257 58.2176Z" fill="#0A3F93"/>
</g>
<g style="mix-blend-mode:screen">
<path d="M124.409 60.3641C118.643 58.4048 112.453 57.394 106.039 57.394C99.9865 57.394 94.1586 58.3174 88.6677 60.0271C90.9514 59.9023 92.6736 60.4389 93.2726 61.6869C94.4207 64.0829 90.9514 68.1263 85.5228 70.7345C80.0943 73.3427 74.7656 73.5049 73.6175 71.1213C72.9436 69.7112 73.8795 67.7394 75.8513 65.8176C59.054 76.0257 47.835 94.4953 47.835 115.586C47.835 117.482 47.9348 119.379 48.122 121.226H47.1611C46.7493 118.456 46.5371 115.635 46.5371 112.765C46.5371 81.3794 71.9702 55.9214 103.368 55.9214C110.844 55.9214 117.994 57.369 124.521 59.9897L124.409 60.3641Z" fill="white"/>
</g>
<path d="M102.707 160.412V144.188V127.953L72.2197 118.144V144.188V170.22L102.707 160.412Z" fill="#333333" stroke="black" stroke-width="2.49589" stroke-linecap="round" stroke-linejoin="round"/>
<path d="M64.782 118.144V169.971L72.2197 170.22V118.144H64.782Z" fill="#B3B3B3" stroke="black" stroke-width="2.49589" stroke-linecap="round" stroke-linejoin="round"/>
<path d="M64.782 118.144L9.02393 144.188L64.782 169.971V118.144Z" fill="#BDCCD4" stroke="black" stroke-width="2.49589" stroke-linecap="round" stroke-linejoin="round"/>
<path d="M90.8014 124.121L83.7505 121.85V166.514L90.8014 164.243V124.121Z" fill="#BDCCD4" stroke="black" stroke-width="1.46009" stroke-linecap="round" stroke-linejoin="round"/>
<path d="M50.0562 125.02C50.0562 125.02 57.2942 137.936 57.2942 166.514" stroke="#1A1A1A" stroke-width="0.973395" stroke-miterlimit="10"/>
<path d="M37.6267 130.76C37.6267 130.76 44.8648 140.108 44.8648 160.774" stroke="#1A1A1A" stroke-width="0.823642" stroke-miterlimit="10"/>
<path d="M26.1082 135.702C26.1082 135.702 33.3462 141.967 33.3462 155.832" stroke="#1A1A1A" stroke-width="0.673889" stroke-miterlimit="10"/>
<g style="mix-blend-mode:multiply" opacity="0.41">
<path d="M90.8017 155.52L71.2339 159.663H64.7821L11.2578 144.213L64.7821 169.971H72.2198L90.8017 164.243V155.52Z" fill="#333333"/>
</g>
<g style="mix-blend-mode:overlay">
<path d="M71.2339 123.884L11.2578 144.139L71.2339 132.82V123.884Z" fill="#F2F2F2"/>
</g>
<path d="M168.861 86.9327L177.347 91.4129V101.484H168.861V86.9327Z" fill="#F2F2F2" stroke="black" stroke-width="0.898519" stroke-linecap="round" stroke-linejoin="round"/>
<path d="M168.861 116.035L177.347 111.555V101.484H168.861V116.035Z" fill="#F2F2F2" stroke="black" stroke-width="0.898519" stroke-linecap="round" stroke-linejoin="round"/>
<path d="M177.347 95.5187L170.745 93.9338" stroke="#3A3A3A" stroke-width="0.898519" stroke-linecap="round" stroke-linejoin="round"/>
<path d="M177.347 107.449L170.745 109.034" stroke="#3A3A3A" stroke-width="0.898519" stroke-linecap="round" stroke-linejoin="round"/>
<path d="M158.902 120.453H170.745V82.5151H158.902V120.453Z" fill="#BDCCD4" stroke="black" stroke-width="1.77208" stroke-linecap="round" stroke-linejoin="round"/>
<path d="M160.911 124.471V78.4967H112.129V124.471H160.911Z" fill="#1B1464" stroke="black" stroke-width="1.06075" stroke-miterlimit="10"/>
<path d="M144.201 105.016C146.158 105.016 147.745 103.429 147.745 101.471C147.745 99.514 146.158 97.9272 144.201 97.9272H124.583C122.626 97.9272 121.039 99.514 121.039 101.471C121.039 103.429 122.626 105.016 124.583 105.016H144.201Z" fill="#F2F2F2" stroke="black" stroke-width="0.798683" stroke-linecap="round" stroke-linejoin="round"/>
<path d="M144.101 103.63C145.328 103.63 146.323 102.636 146.323 101.409C146.323 100.182 145.328 99.1876 144.101 99.1876H131.846C130.62 99.1876 129.625 100.182 129.625 101.409C129.625 102.636 130.62 103.63 131.846 103.63H144.101Z" fill="#00FFFF" stroke="black" stroke-width="1.06075" stroke-miterlimit="10"/>
<path d="M112.129 124.471H102.383V118.793L112.129 115.286V124.471Z" fill="#F2F2F2" stroke="black" stroke-width="1.31034" stroke-linecap="round" stroke-linejoin="round"/>
<path d="M121.039 101.484H114.363" stroke="black" stroke-width="0.935957" stroke-linecap="round" stroke-linejoin="round"/>
<path d="M114.363 78.4717V124.483" stroke="black" stroke-width="0.935957" stroke-linecap="round" stroke-linejoin="round"/>
<path d="M164.393 126.118V76.8494H159.913V126.118H164.393Z" fill="#F2F2F2" stroke="black" stroke-width="1.19802" stroke-linecap="round" stroke-linejoin="round"/>
<g style="mix-blend-mode:soft-light">
<path d="M112.553 79.2954V80.8429H159.913V79.2954H112.553Z" fill="white"/>
</g>
<path d="M157.404 114.138V88.8297H153.773V114.138H157.404Z" fill="black" stroke="black" stroke-width="0.786204" stroke-linecap="round" stroke-linejoin="round"/>
<path d="M156.83 94.7075V90.3272H154.297V94.7075H156.83Z" fill="#00FFFF" stroke="black" stroke-width="1.06075" stroke-miterlimit="10"/>
<path d="M156.83 99.1751V94.7949H154.297V99.1751H156.83Z" fill="#00FFFF" stroke="black" stroke-width="1.06075" stroke-miterlimit="10"/>
<path d="M156.83 103.643V99.2625H154.297V103.643H156.83Z" fill="#00FFFF" stroke="black" stroke-width="1.06075" stroke-miterlimit="10"/>
<path d="M156.83 108.11V103.73H154.297V108.11H156.83Z" fill="#00FFFF" stroke="black" stroke-width="1.06075" stroke-miterlimit="10"/>
<path d="M156.843 112.578V108.198H154.309V112.578H156.843Z" fill="#00FFFF" stroke="black" stroke-width="1.06075" stroke-miterlimit="10"/>
<path d="M119.991 126.493V133.693H128.677V126.493H119.991Z" fill="white" stroke="black" stroke-width="0.798683" stroke-miterlimit="10"/>
<path d="M144.526 123.423L135.453 135.44H124.384V123.423H144.526Z" fill="#0000FF" stroke="black" stroke-width="0.798683" stroke-linecap="round" stroke-linejoin="round"/>
<path d="M147.408 129.4V121.389H117.245V129.4H147.408Z" fill="#CCCCCC" stroke="black" stroke-width="0.798683" stroke-linecap="round" stroke-linejoin="round"/>
<path d="M152.175 126.717V77.4484H148.506V126.717H152.175Z" fill="#F2F2F2" stroke="black" stroke-width="0.723807" stroke-linecap="round" stroke-linejoin="round"/>
<path d="M122.836 123.76H120.415C120.181 123.76 119.991 123.95 119.991 124.184V126.605C119.991 126.839 120.181 127.029 120.415 127.029H122.836C123.071 127.029 123.261 126.839 123.261 126.605V124.184C123.261 123.95 123.071 123.76 122.836 123.76Z" fill="#0000FF" stroke="black" stroke-width="0.536615" stroke-linecap="round" stroke-linejoin="round"/>
<path d="M144.114 123.423H140.844V126.692H144.114V123.423Z" fill="black" stroke="black" stroke-width="0.935957" stroke-linecap="round" stroke-linejoin="round"/>
<path d="M157.903 131.983H141.169C140.669 131.983 140.183 131.821 139.796 131.522L126.555 121.401H157.916V131.983H157.903Z" fill="#F2F2F2" stroke="black" stroke-width="0.798683" stroke-linecap="round" stroke-linejoin="round"/>
<path d="M155.557 121.576H153.785V125.831C153.785 126.318 154.184 126.717 154.671 126.717C155.158 126.717 155.57 126.318 155.57 125.831V121.576H155.557Z" fill="#C6C6C6" stroke="black" stroke-width="0.262068" stroke-linecap="round" stroke-linejoin="round"/>
<path d="M152.475 121.576H150.703V125.831C150.703 126.318 151.102 126.717 151.589 126.717C152.076 126.717 152.487 126.318 152.487 125.831V121.576H152.475Z" fill="#C6C6C6" stroke="black" stroke-width="0.262068" stroke-linecap="round" stroke-linejoin="round"/>
<path d="M149.405 121.576H147.633V125.831C147.633 126.318 148.032 126.717 148.519 126.717C149.006 126.717 149.418 126.318 149.418 125.831V121.576H149.405Z" fill="#C6C6C6" stroke="black" stroke-width="0.262068" stroke-linecap="round" stroke-linejoin="round"/>
<path d="M146.335 121.576H144.563V125.831C144.563 126.318 144.962 126.717 145.449 126.717C145.936 126.717 146.348 126.318 146.348 125.831V121.576H146.335Z" fill="#C6C6C6" stroke="black" stroke-width="0.262068" stroke-linecap="round" stroke-linejoin="round"/>
<path d="M143.253 121.576H141.48V125.831C141.48 126.318 141.88 126.717 142.367 126.717C142.853 126.717 143.265 126.318 143.265 125.831V121.576H143.253Z" fill="#C6C6C6" stroke="black" stroke-width="0.262068" stroke-linecap="round" stroke-linejoin="round"/>
<path style="mix-blend-mode:multiply" d="M137.025 129.4H134.841L124.359 121.389H126.543L137.025 129.4Z" fill="url(#paint0_linear_8815_1685)"/>
<g style="mix-blend-mode:multiply" opacity="0.28">
<path d="M118.331 114.013C118.331 114.013 121.276 109.882 123.685 106.363V96.5544C121.276 93.0228 118.331 88.9045 118.331 88.9045H109.196L100.71 97.0286V105.889L109.196 114.013H118.331Z" fill="black"/>
</g>
<path d="M118.78 113.202H110.444L102.557 105.639V97.3905L110.444 89.828H118.78C118.78 89.828 121.513 93.6592 123.76 96.9538V106.076C121.513 109.358 118.78 113.202 118.78 113.202Z" fill="#CCCCCC" stroke="black" stroke-width="1.02331" stroke-linecap="round" stroke-linejoin="round"/>
<g style="mix-blend-mode:multiply">
<path d="M112.042 113.202H110.282L102.383 105.639V97.3905L110.282 89.828H112.042L104.142 97.3905V105.639L112.042 113.202Z" fill="#CCCCCC"/>
</g>
<path d="M118.381 94.5577H116.597C115.804 94.5577 115.162 95.2003 115.162 95.9929V96.8789C115.162 97.6715 115.804 98.314 116.597 98.314H118.381C119.174 98.314 119.816 97.6715 119.816 96.8789V95.9929C119.816 95.2003 119.174 94.5577 118.381 94.5577Z" fill="white" stroke="black" stroke-width="0.686368" stroke-linecap="round" stroke-linejoin="round"/>
<path d="M118.381 104.666H116.597C115.804 104.666 115.162 105.309 115.162 106.101V106.987C115.162 107.78 115.804 108.422 116.597 108.422H118.381C119.174 108.422 119.816 107.78 119.816 106.987V106.101C119.816 105.309 119.174 104.666 118.381 104.666Z" fill="white" stroke="black" stroke-width="0.686368" stroke-linecap="round" stroke-linejoin="round"/>
<path d="M123.523 101.521H102.557" stroke="black" stroke-width="1.19802" stroke-linecap="round" stroke-linejoin="round"/>
<path d="M157.903 128.826H141.593C140.632 128.826 139.846 128.04 139.846 127.079V126.293C139.846 125.332 139.059 124.546 138.098 124.546H130.611" stroke="black" stroke-width="0.262068" stroke-miterlimit="10"/>
<path d="M137.312 63.3716C138.523 61.1627 136.975 57.9805 133.83 56.2459C130.698 54.5112 127.166 54.8981 125.956 57.1069C125.831 57.344 125.744 57.5936 125.669 57.8557C125.482 58.0554 125.319 58.255 125.182 58.4922C123.972 60.701 125.519 63.8833 128.664 65.6179C131.796 67.3525 135.328 66.9657 136.538 64.7568C136.663 64.5197 136.751 64.2701 136.826 64.0081C137.013 63.8084 137.175 63.6087 137.312 63.3716Z" fill="#FFE69F" stroke="black" stroke-width="2.5458" stroke-linecap="round" stroke-linejoin="round"/>
<path d="M146.497 65.6928C143.752 63.3966 140.208 63.1096 138.598 65.0439C138.423 65.256 138.298 65.4807 138.173 65.7302C137.961 65.8925 137.749 66.0547 137.574 66.2669C135.965 68.2012 136.888 71.633 139.634 73.9167C142.379 76.213 145.923 76.5 147.533 74.5657C147.708 74.3535 147.833 74.1289 147.957 73.8793C148.169 73.7171 148.382 73.5548 148.556 73.3427C150.166 71.4084 149.243 67.9765 146.497 65.6928Z" fill="#FFE69F" stroke="black" stroke-width="2.5458" stroke-linecap="round" stroke-linejoin="round"/>
<path d="M136.556 64.7711C137.771 62.5684 136.212 59.3794 133.073 57.6485C129.935 55.9175 126.406 56.3 125.191 58.5028C123.976 60.7056 125.535 63.8945 128.673 65.6255C131.812 67.3564 135.341 66.9739 136.556 64.7711Z" fill="#FFD74E" stroke="black" stroke-width="0.611492" stroke-linecap="round" stroke-linejoin="round"/>
<path d="M137.315 63.3811C138.53 61.1783 136.971 57.9894 133.833 56.2584C130.695 54.5275 127.166 54.91 125.951 57.1128C124.736 59.3155 126.295 62.5045 129.433 64.2354C132.571 65.9664 136.1 65.5839 137.315 63.3811Z" fill="#FFD74E" stroke="black" stroke-width="0.611492" stroke-linecap="round" stroke-linejoin="round"/>
<path d="M135.64 61.6994C135.466 62.0114 135.204 62.2735 134.892 62.4606C133.893 63.0846 132.296 63.0222 130.848 62.2235C129.126 61.2751 128.165 59.5779 128.577 58.2676C128.614 58.1303 128.664 58.0055 128.727 57.8807C129.476 56.5454 131.61 56.3083 133.531 57.3566C135.441 58.4173 136.377 60.3516 135.64 61.6869V61.6994Z" fill="#2B6ED4" stroke="black" stroke-width="0.374383" stroke-linecap="round" stroke-linejoin="round"/>
<path d="M147.556 74.5614C149.167 72.6292 148.242 69.2024 145.489 66.9073C142.736 64.6122 139.199 64.318 137.588 66.2502C135.977 68.1824 136.902 71.6092 139.655 73.9043C142.408 76.1994 145.945 76.4936 147.556 74.5614Z" fill="#FFD74E" stroke="black" stroke-width="0.611492" stroke-linecap="round" stroke-linejoin="round"/>
<path d="M148.562 73.3388C150.173 71.4067 149.248 67.9798 146.495 65.6847C143.742 63.3896 140.205 63.0954 138.594 65.0276C136.983 66.9598 137.908 70.3867 140.661 72.6817C143.414 74.9768 146.951 75.271 148.562 73.3388Z" fill="#FFD74E" stroke="black" stroke-width="0.611492" stroke-linecap="round" stroke-linejoin="round"/>
<path d="M147.246 71.3834C147.096 71.5581 146.934 71.7079 146.722 71.8202C145.611 72.4941 143.864 72.1821 142.442 70.9966C141.056 69.836 140.432 68.2261 140.807 67.0281C140.894 66.7785 141.007 66.5289 141.194 66.3293C142.167 65.1562 144.339 65.3434 145.998 66.7286C147.671 68.1263 148.232 70.2104 147.259 71.3959L147.246 71.3834Z" fill="#2B6ED4" stroke="black" stroke-width="0.374383" stroke-linecap="round" stroke-linejoin="round"/>
<path d="M134.892 62.4606C133.893 63.0846 132.296 63.0222 130.848 62.2235C129.126 61.2751 128.165 59.5779 128.577 58.2675C129.575 57.6436 131.173 57.6935 132.633 58.4922C134.38 59.4531 135.316 61.1503 134.892 62.4606Z" fill="#00DBFF" stroke="black" stroke-width="0.374383" stroke-linecap="round" stroke-linejoin="round"/>
<path d="M146.722 71.8077C145.611 72.4816 143.864 72.1696 142.442 70.9841C141.056 69.8235 140.432 68.2136 140.807 67.0156C141.905 66.3542 143.677 66.6537 145.1 67.8517C146.473 68.9998 147.109 70.6097 146.722 71.8077Z" fill="#00DBFF" stroke="black" stroke-width="0.374383" stroke-linecap="round" stroke-linejoin="round"/>
<defs>
<linearGradient id="paint0_linear_8815_1685" x1="127.703" y1="125.394" x2="147.795" y2="125.394" gradientUnits="userSpaceOnUse">
<stop stop-color="#BDCCD4"/>
<stop offset="1"/>
</linearGradient>
</defs>
</svg>
