<svg width="120" height="120" viewBox="0 0 120 120" fill="none" xmlns="http://www.w3.org/2000/svg">
<g clip-path="url(#clip0_6559_983)">
<path d="M6.54004 120H119.68V7.62939e-06H6.54004" fill="#441C13"/>
<path d="M2.67 120L14.07 94.19L8.96 80.34L19.8 61.47L9.3 43.09L18.71 27.39L4.2 13.67H0L0 120H2.67Z" fill="#6D3529"/>
<g style="mix-blend-mode:multiply">
<path d="M12.26 60.93L18.75 61.4L15.22 55.78L12.26 60.93Z" fill="#BA8C7F"/>
</g>
<g style="mix-blend-mode:multiply">
<path d="M9.68994 95.1L12.2299 94.25L11.0399 89.47L9.68994 95.1Z" fill="#BA8C7F"/>
</g>
<g style="mix-blend-mode:multiply">
<path d="M12.26 28.43L17.34 27.45L14.07 24.76L12.26 28.43Z" fill="#BA8C7F"/>
</g>
<path d="M0 93.94L0 106.33L0 120H11.63L5.97 98.86L14.07 80.52L8.96 66.67L19.8 47.8L9.3 29.41L18.71 13.72L8.68 4.24001L11.63 7.62939e-06H4.2H0L0 93.94Z" fill="#955442"/>
<path d="M9.83004 85.55L11.99 81.19L9.29004 72.68L9.83004 85.55Z" fill="#BA8C7F"/>
<path d="M13.71 54.72C13.77 54.41 17.59 47.86 17.59 47.86L13 40.57L13.72 54.73L13.71 54.72Z" fill="#BA8C7F"/>
<path d="M11.2399 14.89L16.2099 13.67L9.8999 8.09L11.2399 14.89Z" fill="#BA8C7F"/>
<path d="M15.2899 7.62939e-06L12.2599 7.62001L8.67993 4.24001L11.6299 7.62939e-06H15.2899Z" fill="#6D3529"/>
<path d="M11.63 120H15.29V113.11L8.25 107.36L11.63 120Z" fill="#6D3529"/>
<path d="M117.33 120L105.93 94.19L111.04 80.34L100.2 61.47L110.7 43.09L101.29 27.39L115.8 13.67H120V120H117.33Z" fill="#6D3529"/>
<g style="mix-blend-mode:multiply">
<path d="M107.74 60.93L101.25 61.4L104.78 55.78L107.74 60.93Z" fill="#BA8C7F"/>
</g>
<g style="mix-blend-mode:multiply">
<path d="M110.31 95.1L107.77 94.25L108.96 89.47L110.31 95.1Z" fill="#BA8C7F"/>
</g>
<g style="mix-blend-mode:multiply">
<path d="M107.74 28.43L102.66 27.45L105.93 24.76L107.74 28.43Z" fill="#BA8C7F"/>
</g>
<path d="M120 93.94V106.33V120H108.37L114.03 98.86L105.93 80.52L111.04 66.67L100.2 47.8L110.7 29.41L101.29 13.72L111.32 4.24001L108.37 7.62939e-06H115.8H120V93.94Z" fill="#955442"/>
<path d="M110.17 85.55L108.01 81.19L110.71 72.68L110.17 85.55Z" fill="#BA8C7F"/>
<path d="M106.29 54.72C106.23 54.41 102.41 47.86 102.41 47.86L107 40.57L106.28 54.73L106.29 54.72Z" fill="#BA8C7F"/>
<path d="M108.76 14.89L103.79 13.67L110.1 8.09L108.76 14.89Z" fill="#BA8C7F"/>
<path d="M104.71 7.62939e-06L107.74 7.62001L111.32 4.24001L108.37 7.62939e-06H104.71Z" fill="#6D3529"/>
<path d="M108.37 120H104.71V113.11L111.75 107.36L108.37 120Z" fill="#6D3529"/>
<path d="M17.21 103.35V107.6L20.79 109.73L24.38 107.6V103.35L20.79 101.23L17.21 103.35Z" fill="#955442"/>
<path d="M32.6201 55.03V59.28L36.2001 61.4L39.7801 59.28V55.03L36.2001 52.9L32.6201 55.03Z" fill="#955442"/>
<path d="M94.8601 34.19V38.44L98.4401 40.57L102.02 38.44V34.19L98.4401 32.07L94.8601 34.19Z" fill="#955442"/>
<path d="M96.6201 103.35V107.6L100.2 109.73L103.78 107.6V103.35L100.2 101.23L96.6201 103.35Z" fill="#955442"/>
<path d="M21.3301 18.38V22.63L24.9101 24.76L28.4901 22.63V18.38L24.9101 16.26L21.3301 18.38Z" fill="#955442"/>
</g>
<defs>
<clipPath id="clip0_6559_983">
<rect width="120" height="120" fill="white" transform="matrix(0 -1 1 0 0 120)"/>
</clipPath>
</defs>
</svg>
