<svg width="42" height="44" viewBox="0 0 42 44" fill="none" xmlns="http://www.w3.org/2000/svg">
<g clip-path="url(#clip0_7701_340)">
<path d="M36.19 0H4.91C2.19828 0 0 2.19828 0 4.91V38.89C0 41.6017 2.19828 43.8 4.91 43.8H36.19C38.9017 43.8 41.1 41.6017 41.1 38.89V4.91C41.1 2.19828 38.9017 0 36.19 0Z" fill="#955442"/>
<path d="M37.9 7.48V36.32C37.9 37.28 37.57 38.17 37.03 38.87C36.27 39.86 35.07 40.49 33.73 40.49H7.17C5.83 40.49 4.63 39.86 3.87 38.87C3.33 38.17 3 37.28 3 36.32V7.48C3 6.62 3.26 5.82 3.71 5.15C4.46 4.04 5.73 3.31 7.17 3.31H33.72C35.16 3.31 36.43 4.04 37.18 5.15C37.63 5.82 37.89 6.62 37.89 7.48H37.9Z" fill="#6B3428"/>
<path d="M33.75 10.84V32.95C33.75 33.69 33.5 34.37 33.08 34.9C32.5 35.66 31.58 36.14 30.55 36.14H10.2C9.17 36.14 8.25 35.66 7.67 34.9C7.26 34.36 7 33.68 7 32.95V10.84C7 10.18 7.2 9.57001 7.54 9.05001C8.11 8.20001 9.09 7.64001 10.19 7.64001H30.54C31.64 7.64001 32.62 8.20001 33.19 9.05001C33.54 9.56001 33.73 10.18 33.73 10.84H33.75Z" fill="#4C1E12"/>
<path d="M37.16 38.89C36.4 39.88 35.2 40.51 33.86 40.51H7.3C5.96 40.51 4.76 39.88 4 38.89L8.11 35.21C8.69 35.81 9.5 36.17 10.4 36.17H30.75C31.65 36.17 32.46 35.81 33.04 35.21L37.15 38.89H37.16Z" fill="#7C4735"/>
<path d="M37.15 4.91999L33.02 8.61999C32.45 8.02999 31.64 7.66999 30.75 7.66999H10.4C9.51 7.66999 8.7 8.02999 8.13 8.61999L4 4.91999C4.76 3.92999 5.96 3.29999 7.3 3.29999H33.85C35.19 3.29999 36.39 3.92999 37.15 4.91999Z" fill="#60291E"/>
</g>
<defs>
<clipPath id="clip0_7701_340">
<rect width="41.1" height="43.8" fill="white"/>
</clipPath>
</defs>
</svg>
