<svg width="23" height="17" viewBox="0 0 23 17" fill="none" xmlns="http://www.w3.org/2000/svg">
<g clip-path="url(#clip0_6928_3176)">
<path d="M22.5903 3.37506C22.5979 3.11203 13.1456 0.429718 13.1456 0.429718L0.449707 4.67034L0.676037 6.47486L2.85675 7.50099C3.23295 7.67839 3.47763 8.04388 3.47763 8.43231V11.0137L0.676037 11.8991V13.4773L9.26128 16.3554L21.9556 12.1148V10.3393L19.1219 8.75651L19.0837 6.1369C21.0702 5.46709 22.5903 4.95326 22.5903 4.95326V3.37506Z" stroke="black" stroke-width="0.82121" stroke-miterlimit="10"/>
<path d="M13.1436 0.429718L22.5883 3.37506V4.95326C22.5883 4.95326 19.2071 3.9623 19.1199 4.74681C19.0328 5.53131 19.1199 8.75804 19.1199 8.75804L21.9537 10.3408V12.1163L13.3684 9.23823V7.66004L16.17 7.92613V4.19322C16.17 3.80479 15.9269 3.43929 15.5491 3.2619L13.3684 2.23577L13.1421 0.431247L13.1436 0.429718Z" fill="#1A1A1A"/>
<path d="M6.42725 12.9971L19.1216 8.75652L19.0834 6.1369L9.89407 9.19388L6.42725 8.16469V12.9971Z" fill="#808080"/>
<path d="M0.449707 4.67035L9.89439 7.6157V9.19389C9.89439 9.19389 6.51321 8.20293 6.42604 8.98744C6.33887 9.77195 6.42604 12.9987 6.42604 12.9987L9.25975 14.5815V16.3569L0.676037 13.4758V11.8976L3.47763 12.1637V8.43079C3.47763 8.04236 3.23448 7.67687 2.85676 7.49948L0.676037 6.47334L0.449707 4.66882V4.67035Z" fill="#E0E0E0"/>
<path d="M0.449707 4.67034L13.1441 0.429718C13.1441 0.429718 22.5964 3.11203 22.5887 3.37506C22.5811 3.6381 9.89439 7.61569 9.89439 7.61569L0.449707 4.67034Z" fill="#F2F2F2"/>
<path d="M9.89423 7.61572C9.89423 7.61572 9.58838 9.24132 9.89423 9.19391C10.2001 9.1465 22.5886 4.95328 22.5886 4.95328V3.37509L9.89423 7.61572Z" fill="#999999"/>
<path d="M0.675781 11.8991L3.47738 11.0137V12.1637L0.675781 11.8991Z" fill="#999999"/>
<path d="M6.42725 12.9972L19.1216 8.75653L21.9553 10.3393L9.26096 14.5799L6.42725 12.9972Z" fill="#E6E6E6"/>
<path d="M9.26123 14.5799V14.843V16.3554L21.9556 12.1148V10.3393L9.26123 14.5799Z" fill="#999999"/>
<path d="M4.76216 3.2298L19.7366 4.3278L15.0418 5.89682L1.49414 4.32169L4.76216 3.2298Z" fill="white"/>
<path d="M9.26123 1.72653L17.64 1.7357L13.144 0.429718L9.26123 1.72653Z" fill="white"/>
<path d="M9.89453 11.8395L15.984 12.3334L18.5104 11.4908L11.907 11.1666L9.89453 11.8395Z" fill="white"/>
<path d="M8.66528 5.00999C8.68591 4.71426 8.07358 4.43065 7.2976 4.37652C6.52162 4.3224 5.87585 4.51826 5.85522 4.81399C5.83459 5.10972 6.44692 5.39333 7.2229 5.44746C7.99888 5.50159 8.64465 5.30573 8.66528 5.00999Z" fill="#757575"/>
<path d="M16.5515 2.37776C16.5721 2.08203 15.9598 1.79842 15.1838 1.74429C14.4079 1.69017 13.7621 1.88603 13.7415 2.18176C13.7208 2.47749 14.3332 2.7611 15.1091 2.81523C15.8851 2.86935 16.5309 2.67349 16.5515 2.37776Z" fill="#757575"/>
<path d="M6.3877 10.1971L6.4091 9.04249C6.41675 8.60053 7.52699 8.63112 7.95059 8.75652L9.89428 9.19235L19.082 6.1369V7.01928L6.38922 11.1666V10.1971H6.3877Z" fill="#5B5B5B"/>
</g>
<defs>
<clipPath id="clip0_6928_3176">
<rect width="23" height="16.7882" fill="white"/>
</clipPath>
</defs>
</svg>
