<svg width="1518" height="384" viewBox="0 0 1518 384" fill="none" xmlns="http://www.w3.org/2000/svg">
<rect width="506" height="383.635" transform="translate(506)" fill="#5933B9"/>
<g clip-path="url(#clip0_8702_2780)">
<path d="M1012 0H506.239V383.635H1012V0Z" fill="#1B1464"/>
<path opacity="0.66" d="M1012 0H506.239V383.635H1012V0Z" fill="url(#paint0_linear_8702_2780)"/>
<path d="M506.239 340.836L575.993 294.822C575.993 294.822 571.955 309.927 581.377 313.85C590.798 317.773 596.185 317.827 596.185 317.827L619.069 300.307L716.226 206.911C716.226 206.911 693.464 255.221 693.282 261.597C693.1 267.972 710.6 274.081 710.6 274.081C710.6 274.081 719.114 326.729 749.182 327.637C779.251 328.544 834.439 278.112 834.439 278.112L919.757 226.242C919.757 226.242 845.206 303.191 869.436 313.847C893.665 324.503 920.587 307.526 924.624 308.612C928.662 309.698 960.967 281.053 960.967 281.053C960.967 281.053 927.316 335.621 944.813 340.832C962.31 346.044 989.686 325.977 989.686 325.977C989.686 325.977 967.376 347.542 989.686 352.176L1012 356.811V383.631H506.239V340.832V340.836Z" fill="#0C103F"/>
<path d="M760.594 198.326C761.941 198.326 763.033 197.234 763.033 195.887C763.033 194.54 761.941 193.448 760.594 193.448C759.247 193.448 758.155 194.54 758.155 195.887C758.155 197.234 759.247 198.326 760.594 198.326Z" fill="#FEFEFE"/>
<path d="M798.626 198.329C799.301 198.329 799.847 197.783 799.847 197.108C799.847 196.434 799.301 195.887 798.626 195.887C797.952 195.887 797.405 196.434 797.405 197.108C797.405 197.783 797.952 198.329 798.626 198.329Z" fill="#FEFEFE"/>
<path d="M744.935 223.473C745.61 223.473 746.157 222.926 746.157 222.252C746.157 221.577 745.61 221.031 744.935 221.031C744.261 221.031 743.714 221.577 743.714 222.252C743.714 222.926 744.261 223.473 744.935 223.473Z" fill="#FEFEFE"/>
<g opacity="0.44">
<path d="M823.285 309.125C824.631 309.125 825.723 308.033 825.723 306.686C825.723 305.339 824.631 304.247 823.285 304.247C821.938 304.247 820.846 305.339 820.846 306.686C820.846 308.033 821.938 309.125 823.285 309.125Z" fill="#00FFFF"/>
<path d="M861.317 309.125C861.991 309.125 862.538 308.578 862.538 307.904C862.538 307.229 861.991 306.682 861.317 306.682C860.642 306.682 860.096 307.229 860.096 307.904C860.096 308.578 860.642 309.125 861.317 309.125Z" fill="#00FFFF"/>
<path d="M807.626 334.272C808.3 334.272 808.847 333.725 808.847 333.051C808.847 332.376 808.3 331.829 807.626 331.829C806.951 331.829 806.405 332.376 806.405 333.051C806.405 333.725 806.951 334.272 807.626 334.272Z" fill="#00FFFF"/>
</g>
<path d="M715.987 294.111C717.334 294.111 718.426 293.019 718.426 291.672C718.426 290.325 717.334 289.233 715.987 289.233C714.64 289.233 713.548 290.325 713.548 291.672C713.548 293.019 714.64 294.111 715.987 294.111Z" fill="#00FFFF"/>
<path d="M754.016 294.114C754.691 294.114 755.238 293.567 755.238 292.893C755.238 292.218 754.691 291.672 754.016 291.672C753.342 291.672 752.795 292.218 752.795 292.893C752.795 293.567 753.342 294.114 754.016 294.114Z" fill="#00FFFF"/>
<path d="M700.325 319.258C701 319.258 701.546 318.711 701.546 318.037C701.546 317.362 701 316.815 700.325 316.815C699.651 316.815 699.104 317.362 699.104 318.037C699.104 318.711 699.651 319.258 700.325 319.258Z" fill="#00FFFF"/>
<path d="M945.403 337.786C946.374 337.786 947.161 337 947.161 336.029C947.161 335.058 946.374 334.272 945.403 334.272C944.433 334.272 943.646 335.058 943.646 336.029C943.646 337 944.433 337.786 945.403 337.786Z" fill="#FEFEFE"/>
<path d="M972.817 337.787C973.303 337.787 973.697 337.392 973.697 336.906C973.697 336.42 973.303 336.026 972.817 336.026C972.331 336.026 971.937 336.42 971.937 336.906C971.937 337.392 972.331 337.787 972.817 337.787Z" fill="#FEFEFE"/>
<path d="M934.117 355.911C934.603 355.911 934.997 355.516 934.997 355.03C934.997 354.544 934.603 354.15 934.117 354.15C933.631 354.15 933.236 354.544 933.236 355.03C933.236 355.516 933.631 355.911 934.117 355.911Z" fill="#FEFEFE"/>
<path d="M566.734 325.964C568.586 325.964 570.087 324.462 570.087 322.611C570.087 320.759 568.586 319.258 566.734 319.258C564.883 319.258 563.381 320.759 563.381 322.611C563.381 324.462 564.883 325.964 566.734 325.964Z" fill="#00FFFF"/>
<path d="M618.991 325.964C619.917 325.964 620.668 325.213 620.668 324.287C620.668 323.361 619.917 322.611 618.991 322.611C618.066 322.611 617.315 323.361 617.315 324.287C617.315 325.213 618.066 325.964 618.991 325.964Z" fill="#00FFFF"/>
<path d="M545.217 360.512C546.142 360.512 546.893 359.761 546.893 358.835C546.893 357.909 546.142 357.159 545.217 357.159C544.291 357.159 543.54 357.909 543.54 358.835C543.54 359.761 544.291 360.512 545.217 360.512Z" fill="#00FFFF"/>
<path d="M889.847 99.5998C891.025 99.5998 891.979 98.6453 891.979 97.4679C891.979 96.2906 891.025 95.3361 889.847 95.3361C888.67 95.3361 887.715 96.2906 887.715 97.4679C887.715 98.6453 888.67 99.5998 889.847 99.5998Z" fill="#FEFEFE"/>
<path d="M923.093 99.5998C923.682 99.5998 924.159 99.1225 924.159 98.5338C924.159 97.9451 923.682 97.4679 923.093 97.4679C922.505 97.4679 922.027 97.9451 922.027 98.5338C922.027 99.1225 922.505 99.5998 923.093 99.5998Z" fill="#FEFEFE"/>
<path d="M876.156 121.583C876.744 121.583 877.222 121.106 877.222 120.517C877.222 119.928 876.744 119.451 876.156 119.451C875.567 119.451 875.09 119.928 875.09 120.517C875.09 121.106 875.567 121.583 876.156 121.583Z" fill="#FEFEFE"/>
<path d="M747.56 99.5998C748.737 99.5998 749.692 98.6453 749.692 97.4679C749.692 96.2906 748.737 95.3361 747.56 95.3361C746.383 95.3361 745.428 96.2906 745.428 97.4679C745.428 98.6453 746.383 99.5998 747.56 99.5998Z" fill="#FEFEFE"/>
<path d="M780.809 99.5998C781.398 99.5998 781.875 99.1225 781.875 98.5338C781.875 97.9451 781.398 97.4679 780.809 97.4679C780.22 97.4679 779.743 97.9451 779.743 98.5338C779.743 99.1225 780.22 99.5998 780.809 99.5998Z" fill="#FEFEFE"/>
<path d="M733.872 121.583C734.46 121.583 734.938 121.106 734.938 120.517C734.938 119.928 734.46 119.451 733.872 119.451C733.283 119.451 732.806 119.928 732.806 120.517C732.806 121.106 733.283 121.583 733.872 121.583Z" fill="#FEFEFE"/>
<path d="M936.326 253.737C938.033 253.737 939.416 252.354 939.416 250.647C939.416 248.941 938.033 247.557 936.326 247.557C934.62 247.557 933.236 248.941 933.236 250.647C933.236 252.354 934.62 253.737 936.326 253.737Z" fill="#FEFEFE"/>
<path d="M984.495 253.737C985.348 253.737 986.04 253.045 986.04 252.192C986.04 251.339 985.348 250.647 984.495 250.647C983.642 250.647 982.95 251.339 982.95 252.192C982.95 253.045 983.642 253.737 984.495 253.737Z" fill="#FEFEFE"/>
<path d="M916.492 285.583C917.345 285.583 918.037 284.892 918.037 284.038C918.037 283.185 917.345 282.493 916.492 282.493C915.639 282.493 914.947 283.185 914.947 284.038C914.947 284.892 915.639 285.583 916.492 285.583Z" fill="#FEFEFE"/>
<path d="M561.83 211.549C563.536 211.549 564.919 210.165 564.919 208.459C564.919 206.752 563.536 205.369 561.83 205.369C560.123 205.369 558.74 206.752 558.74 208.459C558.74 210.165 560.123 211.549 561.83 211.549Z" fill="#FEFEFE"/>
<path d="M609.995 211.549C610.848 211.549 611.54 210.857 611.54 210.004C611.54 209.151 610.848 208.459 609.995 208.459C609.142 208.459 608.45 209.151 608.45 210.004C608.45 210.857 609.142 211.549 609.995 211.549Z" fill="#FEFEFE"/>
<path d="M541.995 243.395C542.848 243.395 543.54 242.703 543.54 241.85C543.54 240.997 542.848 240.305 541.995 240.305C541.142 240.305 540.45 240.997 540.45 241.85C540.45 242.703 541.142 243.395 541.995 243.395Z" fill="#FEFEFE"/>
<path d="M546.444 110.917C547.863 110.917 549.014 109.766 549.014 108.346C549.014 106.927 547.863 105.776 546.444 105.776C545.024 105.776 543.874 106.927 543.874 108.346C543.874 109.766 545.024 110.917 546.444 110.917Z" fill="#00FFFF"/>
<path d="M586.491 110.913C587.201 110.913 587.776 110.338 587.776 109.628C587.776 108.918 587.201 108.343 586.491 108.343C585.781 108.343 585.206 108.918 585.206 109.628C585.206 110.338 585.781 110.913 586.491 110.913Z" fill="#00FFFF"/>
<path d="M529.956 137.389C530.666 137.389 531.241 136.814 531.241 136.104C531.241 135.394 530.666 134.819 529.956 134.819C529.246 134.819 528.671 135.394 528.671 136.104C528.671 136.814 529.246 137.389 529.956 137.389Z" fill="#00FFFF"/>
<path opacity="0.44" d="M716.226 206.914C716.226 206.914 650.857 287.83 653.394 289.176L596.185 317.831L716.223 206.917L716.226 206.914Z" fill="#00FFFF"/>
<path opacity="0.44" d="M749.182 327.64C749.182 327.64 772.518 336.727 803.48 317.831C834.443 298.934 837.131 286.821 837.131 286.821L919.757 226.249L834.439 278.118C834.439 278.118 791.802 332.791 749.182 327.643V327.64Z" fill="#00FFFF"/>
<path opacity="0.44" d="M575.997 294.822L522.154 341.335C522.154 341.335 531.575 356.143 538.308 353.448C545.041 350.753 506.239 373.64 506.239 373.64V340.836L575.993 294.822H575.997Z" fill="#00FFFF"/>
<path opacity="0.44" d="M960.971 281.056L932.704 313.739L901.07 321.143L890.974 317.827C890.974 317.827 909.82 316.279 924.628 308.615C939.437 300.951 960.971 281.056 960.971 281.056Z" fill="#00FFFF"/>
<path d="M716.226 206.914C716.226 206.914 637.426 283.117 643.973 286.48L596.188 317.827L716.226 206.914Z" fill="#00FFFF"/>
<path d="M834.439 278.115C834.439 278.115 767.573 328.075 749.182 327.64C749.182 327.64 791.364 335.614 832.081 283.455L919.754 226.246L834.436 278.115H834.439Z" fill="#00FFFF"/>
<path d="M886.936 317.379C886.936 317.379 915.203 312.579 924.625 308.615L960.967 281.056L929 309.701C929 309.701 908.811 321.69 886.936 317.379Z" fill="#00FFFF"/>
<path d="M506 340.836L575.997 294.822L518.45 340.836L516.767 352.777L506 354.794V340.836Z" fill="#00FFFF"/>
<path d="M627.337 289.047L640.944 260.908L639.099 281.056L627.337 289.047Z" fill="#00FFFF"/>
<path d="M640.944 260.908L644.661 273.038L639.099 281.056L640.944 260.908Z" fill="#0C103F"/>
<path d="M596.185 317.831L615.803 266.572L613.142 303.276L596.185 317.831Z" fill="#00FFFF"/>
<path d="M615.804 266.572L622.368 293.635L613.143 303.276L615.804 266.572Z" fill="#0C103F"/>
<path d="M781.126 318.313L794.73 290.177L792.885 310.325L781.126 318.313Z" fill="#00FFFF"/>
<path d="M794.73 290.177L798.448 302.307L792.885 310.325L794.73 290.177Z" fill="#0C103F"/>
<path d="M899.626 317.831L918.519 298.89L911.375 314.667L899.626 317.831Z" fill="#00FFFF"/>
<path d="M918.519 298.89L918.124 309.745L911.375 314.667L918.519 298.89Z" fill="#0C103F"/>
<path d="M802.468 300.827L813.886 277.208L812.338 294.121L802.468 300.827Z" fill="#00FFFF"/>
<path d="M813.887 277.208L817.01 287.391L812.338 294.121L813.887 277.208Z" fill="#0C103F"/>
<path d="M609.995 188.763C624.163 188.763 635.648 177.278 635.648 163.11C635.648 148.942 624.163 137.457 609.995 137.457C595.827 137.457 584.342 148.942 584.342 163.11C584.342 177.278 595.827 188.763 609.995 188.763Z" fill="#259EE2"/>
<path d="M949.832 183.936C955.583 183.936 960.245 179.274 960.245 173.523C960.245 167.772 955.583 163.11 949.832 163.11C944.081 163.11 939.419 167.772 939.419 173.523C939.419 179.274 944.081 183.936 949.832 183.936Z" fill="#00FFFF"/>
<g clip-path="url(#clip1_8702_2780)">
<path d="M1012 367.317H505V414.895H1012V367.317Z" fill="#BA8258"/>
<path d="M1012 353.98H505V370.696H1012V353.98Z" fill="#62C669"/>
<path d="M1012 360.644H505V370.696H1012V360.644Z" fill="#124C12"/>
<path d="M535.354 358.295H526.906V366.811H535.354V358.295Z" fill="#124C12"/>
<path d="M565.671 358.295H557.223V366.811H565.671V358.295Z" fill="#124C12"/>
<path d="M595.988 358.295H587.54V366.811H595.988V358.295Z" fill="#124C12"/>
<path d="M626.295 358.295H617.847V366.811H626.295V358.295Z" fill="#124C12"/>
<path d="M656.611 358.295H648.163V366.811H656.611V358.295Z" fill="#124C12"/>
<path d="M686.928 358.295H678.479V366.811H686.928V358.295Z" fill="#124C12"/>
<path d="M717.245 358.295H708.796V366.811H717.245V358.295Z" fill="#124C12"/>
<path d="M747.561 358.295H739.113V366.811H747.561V358.295Z" fill="#124C12"/>
<path d="M777.878 358.295H769.43V366.811H777.878V358.295Z" fill="#124C12"/>
<path d="M808.194 358.295H799.746V366.811H808.194V358.295Z" fill="#124C12"/>
<path d="M838.511 358.295H830.062V366.811H838.511V358.295Z" fill="#124C12"/>
<path d="M868.828 358.295H860.379V366.811H868.828V358.295Z" fill="#124C12"/>
<path d="M899.144 358.295H890.696V366.811H899.144V358.295Z" fill="#124C12"/>
<path d="M929.46 358.295H921.012V366.811H929.46V358.295Z" fill="#124C12"/>
<path d="M959.777 358.295H951.329V366.811H959.777V358.295Z" fill="#124C12"/>
<path d="M990.094 358.295H981.646V366.811H990.094V358.295Z" fill="#124C12"/>
<path d="M1012 353.98H505V356.138H1012V353.98Z" fill="#00FFFF"/>
<path d="M548.822 378.295H544.381C543.057 378.295 541.984 379.376 541.984 380.71V385.187C541.984 386.521 543.057 387.602 544.381 387.602H548.822C550.146 387.602 551.219 386.521 551.219 385.187V380.71C551.219 379.376 550.146 378.295 548.822 378.295Z" fill="#DD9E6F"/>
<path d="M677.732 387.593H682.174C683.497 387.593 684.57 386.512 684.57 385.178V380.7C684.57 379.367 683.497 378.285 682.174 378.285H677.732C676.408 378.285 675.336 379.367 675.336 380.7V385.178C675.336 386.512 676.408 387.593 677.732 387.593Z" fill="#FFC28E"/>
<path d="M633.218 387.593H637.66C638.983 387.593 640.056 386.512 640.056 385.178V380.7C640.056 379.367 638.983 378.285 637.66 378.285H633.218C631.895 378.285 630.822 379.367 630.822 380.7V385.178C630.822 386.512 631.895 387.593 633.218 387.593Z" fill="#FFC28E"/>
<path d="M750.422 378.295H745.98C744.656 378.295 743.583 379.376 743.583 380.71V385.187C743.583 386.521 744.656 387.602 745.98 387.602H750.422C751.745 387.602 752.818 386.521 752.818 385.187V380.71C752.818 379.376 751.745 378.295 750.422 378.295Z" fill="#DD9E6F"/>
<path d="M952.02 378.295H947.578C946.255 378.295 945.182 379.376 945.182 380.71V385.187C945.182 386.521 946.255 387.602 947.578 387.602H952.02C953.344 387.602 954.416 386.521 954.416 385.187V380.71C954.416 379.376 953.344 378.295 952.02 378.295Z" fill="#DD9E6F"/>
<path d="M879.34 387.593H883.782C885.105 387.593 886.178 386.512 886.178 385.178V380.7C886.178 379.367 885.105 378.285 883.782 378.285H879.34C878.017 378.285 876.944 379.367 876.944 380.7V385.178C876.944 386.512 878.017 387.593 879.34 387.593Z" fill="#FFC28E"/>
<path d="M834.827 387.593H839.268C840.592 387.593 841.665 386.512 841.665 385.178V380.7C841.665 379.367 840.592 378.285 839.268 378.285H834.827C833.503 378.285 832.43 379.367 832.43 380.7V385.178C832.43 386.512 833.503 387.593 834.827 387.593Z" fill="#FFC28E"/>
</g>
<path d="M835.61 135.93V132.28L799.81 124.24V119.24C799.81 119.03 799.77 118.83 799.71 118.62C799.7 118.58 799.68 118.54 799.67 118.5C799.61 118.32 799.52 118.14 799.42 117.96C799.41 117.94 799.4 117.92 799.38 117.9C799.25 117.7 799.09 117.49 798.9 117.29C798.88 117.27 798.86 117.25 798.84 117.24C798.66 117.06 798.46 116.88 798.24 116.7C798.21 116.67 798.18 116.65 798.14 116.62C797.63 116.23 797.02 115.85 796.3 115.49C796.26 115.47 796.22 115.45 796.18 115.43C795.44 115.06 794.59 114.7 793.65 114.36C793.64 114.36 793.62 114.36 793.61 114.35C793.15 114.18 792.67 114.02 792.17 113.86C792.13 113.85 792.09 113.83 792.05 113.82C791.01 113.5 789.89 113.19 788.68 112.9C788.61 112.88 788.55 112.87 788.48 112.85C787.26 112.56 785.96 112.29 784.58 112.04C784.54 112.04 784.5 112.03 784.46 112.02C783.8 111.9 783.13 111.79 782.43 111.68C782.38 111.68 782.33 111.66 782.27 111.65C780.78 111.42 779.22 111.2 777.59 111.01C773.85 110.58 769.79 110.27 765.49 110.11C763.36 110.03 761.19 109.99 758.96 109.99C736.4 109.99 718.12 114.13 718.12 119.24V124.17L682 132.28V135.93V154.87L685.98 157.6V191.99H690.38V200.18H688.37V204.9H690.38V209.39H688.37V214.11H690.38V259.62H688.37V264.34H690.38V268.83H688.37V273.55H690.38V281.44H685.84V333.31H690.38V336.44H682.47V353.55H708.4V336.44H701.32V333.31H704.22V318.56L711.03 313.68V353.55H716.51V309.75L723.86 304.49V281.44H701.32V273.55H703.33V268.83H701.32V264.34H703.33V259.62H701.32V214.11H703.33V209.39H701.32V204.9H703.33V200.18H701.32V191.99H704.37V177.24L724.01 163.17V159.35C731.16 162.03 744.15 163.82 758.97 163.82C773.79 163.82 786.65 162.05 793.82 159.39V163.18L813.46 177.25V192H816.51V200.19H814.5V204.91H816.51V209.4H814.5V214.12H816.51V259.63H814.5V264.35H816.51V268.84H814.5V273.56H816.51V281.45H793.97V304.5L801.32 309.76V353.56H806.8V313.69L813.62 318.57V333.32H816.52V336.45H809.44V353.56H835.37V336.45H827.45V333.32H831.99V281.45H827.45V273.56H829.46V268.84H827.45V264.35H829.46V259.63H827.45V214.12H829.46V209.4H827.45V204.91H829.46V200.19H827.45V192H831.85V157.46L835.61 154.88V135.94V135.93Z" fill="#87A3AF" stroke="black" stroke-width="2" stroke-linecap="round" stroke-linejoin="round"/>
<path d="M701.32 352.41V187.68H690.38V352.41H701.32Z" fill="#EEF3FE" stroke="black" stroke-width="0.23" stroke-miterlimit="10"/>
<path d="M716.51 353.53V290.16H711.03V353.53H716.51Z" fill="#EEF3FE" stroke="black" stroke-width="0.1" stroke-miterlimit="10"/>
<path d="M703.33 200.18H688.37V204.9H703.33V200.18Z" fill="#87A3AF" stroke="black" stroke-width="0.18" stroke-miterlimit="10"/>
<path d="M703.33 209.39H688.37V214.11H703.33V209.39Z" fill="#87A3AF" stroke="black" stroke-width="0.18" stroke-miterlimit="10"/>
<path d="M703.33 259.61H688.37V264.33H703.33V259.61Z" fill="#87A3AF" stroke="black" stroke-width="0.18" stroke-miterlimit="10"/>
<path d="M703.33 268.81H688.37V273.53H703.33V268.81Z" fill="#87A3AF" stroke="black" stroke-width="0.18" stroke-miterlimit="10"/>
<g style="mix-blend-mode:multiply">
<path d="M701.32 191.99H690.38V195.06H701.32V191.99Z" fill="#BFBFBF"/>
</g>
<path d="M708.4 336.42H682.47V353.53H708.4V336.42Z" fill="#2C5C6D" stroke="black" stroke-width="0.1" stroke-miterlimit="10"/>
<path d="M723.86 281.41V304.47L704.22 318.54V333.29H685.84V281.41H723.86Z" fill="#BDCCD4" stroke="black" stroke-width="0.25" stroke-miterlimit="10"/>
<path d="M702.22 331.29V317.51L721.86 303.44V283.41H687.84V331.29H702.22Z" fill="#87A3AF" stroke="black" stroke-width="0.25" stroke-miterlimit="10"/>
<path d="M693.16 317.19H698.54L701.23 321.85L698.54 326.5H693.16L690.47 321.85L693.16 317.19Z" fill="black" stroke="#BDCCD4" stroke-width="0.23" stroke-miterlimit="10"/>
<path d="M694.36 319.27H697.34L698.83 321.85L697.34 324.42H694.36L692.87 321.85L694.36 319.27Z" fill="#BDCCD4" stroke="black" stroke-width="0.13" stroke-miterlimit="10"/>
<path d="M693.16 286.95H698.54L701.23 291.61L698.54 296.26H693.16L690.47 291.61L693.16 286.95Z" fill="black" stroke="#BDCCD4" stroke-width="0.23" stroke-miterlimit="10"/>
<path d="M694.36 289.03H697.34L698.83 291.61L697.34 294.18H694.36L692.87 291.61L694.36 289.03Z" fill="#BDCCD4" stroke="black" stroke-width="0.13" stroke-miterlimit="10"/>
<path d="M724.01 140.12V163.17L704.37 177.24V191.99H685.99V140.12H724.01Z" fill="#BDCCD4" stroke="black" stroke-width="0.25" stroke-miterlimit="10"/>
<path d="M702.37 189.99V176.21L722.01 162.14V142.12H687.99V189.99H702.37Z" fill="#2C5C6D" stroke="black" stroke-width="0.1" stroke-miterlimit="10"/>
<path d="M694.42 145.31H698.77L700.94 149.08L698.77 152.85H694.42L692.24 149.08L694.42 145.31Z" fill="black" stroke="#BDCCD4" stroke-width="0.19" stroke-miterlimit="10"/>
<path d="M695.39 146.99H697.8L699 149.08L697.8 151.17H695.39L694.18 149.08L695.39 146.99Z" fill="#BDCCD4" stroke="black" stroke-width="0.11" stroke-miterlimit="10"/>
<path d="M722.8 126.77V149.36L686.01 157.62L682 154.87V135.93L722.8 126.77Z" fill="#61818C" stroke="black" stroke-width="0.22" stroke-miterlimit="10"/>
<path d="M722.8 145.71L682 154.87V132.28L722.8 123.12V145.71Z" fill="#87A3AF" stroke="black" stroke-width="0.22" stroke-miterlimit="10"/>
<path d="M682 151.15L707.45 145.44C708.24 145.26 708.8 144.56 708.8 143.75V135.5C708.8 134.68 709.37 133.97 710.17 133.79L722.7 130.98L722.79 123.13L682 132.28V151.15Z" fill="#CFEFFF" stroke="black" stroke-width="0.2" stroke-miterlimit="10"/>
<path d="M827.44 352.4V187.67H816.5V352.4H827.44Z" fill="#EEF3FE" stroke="black" stroke-width="0.23" stroke-miterlimit="10"/>
<path d="M806.79 353.53V290.16H801.31V353.53H806.79Z" fill="#EEF3FE" stroke="black" stroke-width="0.1" stroke-miterlimit="10"/>
<path d="M809.43 353.53H835.36V336.42H809.43V353.53Z" fill="#2C5C6D" stroke="black" stroke-width="0.1" stroke-miterlimit="10"/>
<path d="M793.97 281.41V304.47L813.61 318.54V333.29H831.99V281.41H793.97Z" fill="#BDCCD4" stroke="black" stroke-width="0.25" stroke-miterlimit="10"/>
<path d="M815.61 331.29V317.51L795.97 303.44V283.41H829.98V331.29H815.61Z" fill="#87A3AF" stroke="black" stroke-width="0.25" stroke-miterlimit="10"/>
<path d="M824.67 317.19H819.29L816.6 321.85L819.29 326.5H824.67L827.35 321.85L824.67 317.19Z" fill="black" stroke="#BDCCD4" stroke-width="0.23" stroke-miterlimit="10"/>
<path d="M823.47 319.27H820.49L819 321.85L820.49 324.42H823.47L824.95 321.85L823.47 319.27Z" fill="#BDCCD4" stroke="black" stroke-width="0.13" stroke-miterlimit="10"/>
<path d="M824.67 286.95H819.29L816.6 291.61L819.29 296.26H824.67L827.35 291.61L824.67 286.95Z" fill="black" stroke="#BDCCD4" stroke-width="0.23" stroke-miterlimit="10"/>
<path d="M823.47 289.03H820.49L819 291.61L820.49 294.18H823.47L824.95 291.61L823.47 289.03Z" fill="#BDCCD4" stroke="black" stroke-width="0.13" stroke-miterlimit="10"/>
<path d="M793.82 140.12V163.17L813.46 177.24V191.99H831.84V140.12H793.82Z" fill="#BDCCD4" stroke="black" stroke-width="0.25" stroke-miterlimit="10"/>
<path d="M815.46 189.99V176.21L795.82 162.14V142.12H829.84V189.99H815.46Z" fill="#2C5C6D" stroke="black" stroke-width="0.1" stroke-miterlimit="10"/>
<path d="M823.41 145.31H819.06L816.88 149.08L819.06 152.85H823.41L825.59 149.08L823.41 145.31Z" fill="black" stroke="#BDCCD4" stroke-width="0.19" stroke-miterlimit="10"/>
<path d="M822.44 146.99H820.03L818.83 149.08L820.03 151.17H822.44L823.65 149.08L822.44 146.99Z" fill="#BDCCD4" stroke="black" stroke-width="0.11" stroke-miterlimit="10"/>
<path d="M794.81 126.77V149.36L831.6 157.62L835.61 154.87V135.93L794.81 126.77Z" fill="#61818C" stroke="black" stroke-width="0.22" stroke-miterlimit="10"/>
<path d="M794.8 145.71L835.6 154.87V132.28L794.8 123.12V145.71Z" fill="#87A3AF" stroke="black" stroke-width="0.22" stroke-miterlimit="10"/>
<path d="M835.6 151.15L810.15 145.44C809.36 145.26 808.8 144.56 808.8 143.75V135.5C808.8 134.68 808.23 133.97 807.43 133.79L794.9 130.98L794.81 123.13L835.61 132.29V151.16L835.6 151.15Z" fill="#CFEFFF" stroke="black" stroke-width="0.2" stroke-miterlimit="10"/>
<path d="M829.46 200.18H814.5V204.9H829.46V200.18Z" fill="#87A3AF" stroke="black" stroke-width="0.18" stroke-miterlimit="10"/>
<path d="M829.46 209.39H814.5V214.11H829.46V209.39Z" fill="#87A3AF" stroke="black" stroke-width="0.18" stroke-miterlimit="10"/>
<path d="M829.46 259.61H814.5V264.33H829.46V259.61Z" fill="#87A3AF" stroke="black" stroke-width="0.18" stroke-miterlimit="10"/>
<path d="M829.46 268.81H814.5V273.53H829.46V268.81Z" fill="#87A3AF" stroke="black" stroke-width="0.18" stroke-miterlimit="10"/>
<g style="mix-blend-mode:multiply">
<path d="M827.45 191.99H816.51V195.06H827.45V191.99Z" fill="#BFBFBF"/>
</g>
<path d="M823.96 159.8H819.99C818.875 159.8 817.97 160.705 817.97 161.82V165.79C817.97 166.906 818.875 167.81 819.99 167.81H823.96C825.076 167.81 825.98 166.906 825.98 165.79V161.82C825.98 160.705 825.076 159.8 823.96 159.8Z" fill="#00FF00" stroke="black" stroke-width="0.25" stroke-miterlimit="10"/>
<path d="M697.84 159.8H693.87C692.754 159.8 691.85 160.705 691.85 161.82V165.79C691.85 166.906 692.754 167.81 693.87 167.81H697.84C698.956 167.81 699.86 166.906 699.86 165.79V161.82C699.86 160.705 698.956 159.8 697.84 159.8Z" fill="#00FF00" stroke="black" stroke-width="0.25" stroke-miterlimit="10"/>
<path d="M823.96 158.97H819.99C818.875 158.97 817.97 159.875 817.97 160.99V164.96C817.97 166.076 818.875 166.98 819.99 166.98H823.96C825.076 166.98 825.98 166.076 825.98 164.96V160.99C825.98 159.875 825.076 158.97 823.96 158.97Z" fill="#00FF00" stroke="black" stroke-width="0.25" stroke-miterlimit="10"/>
<path d="M697.84 158.97H693.87C692.754 158.97 691.85 159.875 691.85 160.99V164.96C691.85 166.076 692.754 166.98 693.87 166.98H697.84C698.956 166.98 699.86 166.076 699.86 164.96V160.99C699.86 159.875 698.956 158.97 697.84 158.97Z" fill="#00FF00" stroke="black" stroke-width="0.25" stroke-miterlimit="10"/>
<path d="M758.81 109.98C736.25 109.98 717.97 114.12 717.97 119.23V137.73H799.65V119.23C799.65 114.12 781.37 109.98 758.81 109.98Z" fill="#BDCCD4" stroke="black" stroke-width="0.24" stroke-miterlimit="10"/>
<path d="M799.64 126.49V128.48C799.64 123.38 781.36 119.23 758.8 119.23C736.24 119.23 717.96 123.38 717.96 128.48V126.49C717.96 121.38 736.25 117.24 758.8 117.24C781.35 117.24 799.64 121.38 799.64 126.49Z" fill="#BDCCD4" stroke="black" stroke-width="0.24" stroke-miterlimit="10"/>
<path d="M758.8 146.98C781.355 146.98 799.64 142.839 799.64 137.73C799.64 132.622 781.355 128.48 758.8 128.48C736.245 128.48 717.96 132.622 717.96 137.73C717.96 142.839 736.245 146.98 758.8 146.98Z" fill="#808080" stroke="black" stroke-width="0.24" stroke-miterlimit="10"/>
<path d="M758.8 144.77C774.087 144.77 786.48 141.963 786.48 138.5C786.48 135.038 774.087 132.23 758.8 132.23C743.513 132.23 731.12 135.038 731.12 138.5C731.12 141.963 743.513 144.77 758.8 144.77Z" fill="#333333"/>
<path d="M758.8 141.22C765.438 141.22 770.82 140.003 770.82 138.5C770.82 136.998 765.438 135.78 758.8 135.78C752.161 135.78 746.78 136.998 746.78 138.5C746.78 140.003 752.161 141.22 758.8 141.22Z" fill="#00FF00"/>
<g style="mix-blend-mode:multiply">
<path d="M765.33 110.1C768.31 110.21 771.17 110.39 773.9 110.64V129.03C771.17 128.78 768.31 128.6 765.33 128.49V110.1Z" fill="#E6E6E6"/>
</g>
<g style="mix-blend-mode:multiply">
<path d="M799.64 119.23V137.62C799.64 134.03 790.62 130.92 777.43 129.39V111C790.62 112.53 799.64 115.65 799.64 119.23Z" fill="#E6E6E6"/>
</g>
<path d="M777.43 129.39C776.29 129.26 775.11 129.13 773.9 129.03L777.43 129.39Z" fill="#E6E6E6"/>
<path d="M758.81 126.8C736.25 126.8 717.97 130.94 717.97 136.05V154.55H799.65V136.05C799.65 130.94 781.37 126.8 758.81 126.8Z" fill="#BDCCD4" stroke="black" stroke-width="0.24" stroke-miterlimit="10"/>
<path d="M799.64 143.31V145.3C799.64 140.2 781.36 136.05 758.8 136.05C736.24 136.05 717.96 140.2 717.96 145.3V143.31C717.96 138.2 736.25 134.06 758.8 134.06C781.35 134.06 799.64 138.2 799.64 143.31Z" fill="#BDCCD4" stroke="black" stroke-width="0.24" stroke-miterlimit="10"/>
<path d="M758.8 163.8C781.355 163.8 799.64 159.659 799.64 154.55C799.64 149.442 781.355 145.3 758.8 145.3C736.245 145.3 717.96 149.442 717.96 154.55C717.96 159.659 736.245 163.8 758.8 163.8Z" fill="#808080" stroke="black" stroke-width="0.24" stroke-miterlimit="10"/>
<path d="M758.8 161.59C774.087 161.59 786.48 158.783 786.48 155.32C786.48 151.858 774.087 149.05 758.8 149.05C743.513 149.05 731.12 151.858 731.12 155.32C731.12 158.783 743.513 161.59 758.8 161.59Z" fill="#333333"/>
<path d="M758.8 158.04C765.438 158.04 770.82 156.823 770.82 155.32C770.82 153.818 765.438 152.6 758.8 152.6C752.161 152.6 746.78 153.818 746.78 155.32C746.78 156.823 752.161 158.04 758.8 158.04Z" fill="#00FF00"/>
<g style="mix-blend-mode:multiply">
<path d="M765.33 126.92C768.31 127.03 771.17 127.21 773.9 127.46V145.85C771.17 145.6 768.31 145.42 765.33 145.31V126.92Z" fill="#E6E6E6"/>
</g>
<g style="mix-blend-mode:multiply">
<path d="M799.64 136.05V154.44C799.64 150.85 790.62 147.74 777.43 146.21V127.82C790.62 129.35 799.64 132.47 799.64 136.05Z" fill="#E6E6E6"/>
</g>
<path d="M777.43 146.21C776.29 146.08 775.11 145.95 773.9 145.85L777.43 146.21Z" fill="#E6E6E6"/>
<path d="M799.64 138.22V119.72C799.64 119.51 799.6 119.31 799.54 119.1C799.53 119.06 799.51 119.02 799.5 118.98C799.44 118.8 799.35 118.62 799.24 118.44C799.23 118.42 799.22 118.4 799.2 118.38C799.07 118.18 798.91 117.97 798.72 117.78C798.7 117.76 798.68 117.74 798.66 117.73C798.48 117.55 798.28 117.37 798.06 117.19C798.03 117.16 798 117.14 797.96 117.11C797.45 116.72 796.84 116.34 796.12 115.98C796.08 115.96 796.04 115.94 796.01 115.92C795.27 115.55 794.42 115.19 793.48 114.85C793.47 114.85 793.46 114.85 793.44 114.84C792.98 114.67 792.5 114.51 792 114.35C791.96 114.34 791.92 114.32 791.88 114.31C790.84 113.99 789.72 113.68 788.51 113.39C788.44 113.37 788.38 113.36 788.31 113.34C787.09 113.05 785.79 112.78 784.41 112.53C784.37 112.53 784.33 112.52 784.29 112.51C783.63 112.39 782.95 112.27 782.25 112.16C782.2 112.16 782.15 112.14 782.1 112.14C775.49 111.1 767.46 110.48 758.79 110.48C736.23 110.48 717.95 114.62 717.95 119.73V126.96C717.95 126.96 717.95 126.98 717.95 126.99V128.98C717.95 128.98 717.95 128.96 717.95 128.95V143.78C717.95 143.78 717.95 143.8 717.95 143.81V145.8C717.95 145.8 717.95 145.78 717.95 145.77V155.05C717.95 160.16 736.23 164.3 758.79 164.3C781.35 164.3 799.63 160.16 799.63 155.05V138.23L799.64 138.22Z" stroke="black" stroke-linecap="round" stroke-linejoin="round"/>
</g>
<rect width="506" height="383.635" fill="#5933B9"/>
<g clip-path="url(#clip2_8702_2780)">
<path d="M506 0H0.239258V383.635H506V0Z" fill="#1B1464"/>
<path opacity="0.66" d="M506 0H0.239258V383.635H506V0Z" fill="url(#paint1_linear_8702_2780)"/>
<path d="M0.239258 340.836L69.9932 294.822C69.9932 294.822 65.9555 309.927 75.3768 313.85C84.798 317.773 90.185 317.827 90.185 317.827L113.069 300.307L210.226 206.911C210.226 206.911 187.464 255.221 187.282 261.597C187.1 267.972 204.6 274.081 204.6 274.081C204.6 274.081 213.114 326.729 243.182 327.637C273.251 328.544 328.439 278.112 328.439 278.112L413.757 226.242C413.757 226.242 339.206 303.191 363.436 313.847C387.665 324.503 414.587 307.526 418.624 308.612C422.662 309.698 454.967 281.053 454.967 281.053C454.967 281.053 421.316 335.621 438.813 340.832C456.31 346.044 483.686 325.977 483.686 325.977C483.686 325.977 461.376 347.542 483.686 352.176L505.996 356.811V383.631H0.239258V340.832V340.836Z" fill="#0C103F"/>
<path d="M254.594 198.326C255.941 198.326 257.033 197.234 257.033 195.887C257.033 194.54 255.941 193.448 254.594 193.448C253.247 193.448 252.155 194.54 252.155 195.887C252.155 197.234 253.247 198.326 254.594 198.326Z" fill="#FEFEFE"/>
<path d="M292.626 198.329C293.301 198.329 293.847 197.783 293.847 197.108C293.847 196.434 293.301 195.887 292.626 195.887C291.952 195.887 291.405 196.434 291.405 197.108C291.405 197.783 291.952 198.329 292.626 198.329Z" fill="#FEFEFE"/>
<path d="M238.935 223.473C239.61 223.473 240.157 222.926 240.157 222.252C240.157 221.577 239.61 221.031 238.935 221.031C238.261 221.031 237.714 221.577 237.714 222.252C237.714 222.926 238.261 223.473 238.935 223.473Z" fill="#FEFEFE"/>
<g opacity="0.44">
<path d="M317.285 309.125C318.631 309.125 319.723 308.033 319.723 306.686C319.723 305.339 318.631 304.247 317.285 304.247C315.938 304.247 314.846 305.339 314.846 306.686C314.846 308.033 315.938 309.125 317.285 309.125Z" fill="#00FFFF"/>
<path d="M355.317 309.125C355.991 309.125 356.538 308.578 356.538 307.904C356.538 307.229 355.991 306.682 355.317 306.682C354.642 306.682 354.096 307.229 354.096 307.904C354.096 308.578 354.642 309.125 355.317 309.125Z" fill="#00FFFF"/>
<path d="M301.626 334.272C302.3 334.272 302.847 333.725 302.847 333.051C302.847 332.376 302.3 331.829 301.626 331.829C300.951 331.829 300.405 332.376 300.405 333.051C300.405 333.725 300.951 334.272 301.626 334.272Z" fill="#00FFFF"/>
</g>
<path d="M209.987 294.111C211.334 294.111 212.426 293.019 212.426 291.672C212.426 290.325 211.334 289.233 209.987 289.233C208.64 289.233 207.548 290.325 207.548 291.672C207.548 293.019 208.64 294.111 209.987 294.111Z" fill="#00FFFF"/>
<path d="M248.016 294.114C248.691 294.114 249.238 293.567 249.238 292.893C249.238 292.218 248.691 291.672 248.016 291.672C247.342 291.672 246.795 292.218 246.795 292.893C246.795 293.567 247.342 294.114 248.016 294.114Z" fill="#00FFFF"/>
<path d="M194.325 319.258C195 319.258 195.546 318.711 195.546 318.037C195.546 317.362 195 316.815 194.325 316.815C193.651 316.815 193.104 317.362 193.104 318.037C193.104 318.711 193.651 319.258 194.325 319.258Z" fill="#00FFFF"/>
<path d="M439.403 337.786C440.374 337.786 441.161 337 441.161 336.029C441.161 335.058 440.374 334.272 439.403 334.272C438.433 334.272 437.646 335.058 437.646 336.029C437.646 337 438.433 337.786 439.403 337.786Z" fill="#FEFEFE"/>
<path d="M466.817 337.787C467.303 337.787 467.697 337.392 467.697 336.906C467.697 336.42 467.303 336.026 466.817 336.026C466.331 336.026 465.937 336.42 465.937 336.906C465.937 337.392 466.331 337.787 466.817 337.787Z" fill="#FEFEFE"/>
<path d="M428.117 355.911C428.603 355.911 428.997 355.516 428.997 355.03C428.997 354.544 428.603 354.15 428.117 354.15C427.631 354.15 427.236 354.544 427.236 355.03C427.236 355.516 427.631 355.911 428.117 355.911Z" fill="#FEFEFE"/>
<path d="M60.7343 325.964C62.5861 325.964 64.0872 324.462 64.0872 322.611C64.0872 320.759 62.5861 319.258 60.7343 319.258C58.8825 319.258 57.3813 320.759 57.3813 322.611C57.3813 324.462 58.8825 325.964 60.7343 325.964Z" fill="#00FFFF"/>
<path d="M112.991 325.964C113.917 325.964 114.668 325.213 114.668 324.287C114.668 323.361 113.917 322.611 112.991 322.611C112.066 322.611 111.315 323.361 111.315 324.287C111.315 325.213 112.066 325.964 112.991 325.964Z" fill="#00FFFF"/>
<path d="M39.2165 360.512C40.1424 360.512 40.893 359.761 40.893 358.835C40.893 357.909 40.1424 357.159 39.2165 357.159C38.2906 357.159 37.54 357.909 37.54 358.835C37.54 359.761 38.2906 360.512 39.2165 360.512Z" fill="#00FFFF"/>
<path d="M383.847 99.5998C385.025 99.5998 385.979 98.6453 385.979 97.4679C385.979 96.2906 385.025 95.3361 383.847 95.3361C382.67 95.3361 381.715 96.2906 381.715 97.4679C381.715 98.6453 382.67 99.5998 383.847 99.5998Z" fill="#FEFEFE"/>
<path d="M417.093 99.5998C417.682 99.5998 418.159 99.1225 418.159 98.5338C418.159 97.9451 417.682 97.4679 417.093 97.4679C416.505 97.4679 416.027 97.9451 416.027 98.5338C416.027 99.1225 416.505 99.5998 417.093 99.5998Z" fill="#FEFEFE"/>
<path d="M370.156 121.583C370.744 121.583 371.222 121.106 371.222 120.517C371.222 119.928 370.744 119.451 370.156 119.451C369.567 119.451 369.09 119.928 369.09 120.517C369.09 121.106 369.567 121.583 370.156 121.583Z" fill="#FEFEFE"/>
<path d="M241.56 99.5998C242.737 99.5998 243.692 98.6453 243.692 97.4679C243.692 96.2906 242.737 95.3361 241.56 95.3361C240.383 95.3361 239.428 96.2906 239.428 97.4679C239.428 98.6453 240.383 99.5998 241.56 99.5998Z" fill="#FEFEFE"/>
<path d="M274.809 99.5998C275.398 99.5998 275.875 99.1225 275.875 98.5338C275.875 97.9451 275.398 97.4679 274.809 97.4679C274.22 97.4679 273.743 97.9451 273.743 98.5338C273.743 99.1225 274.22 99.5998 274.809 99.5998Z" fill="#FEFEFE"/>
<path d="M227.872 121.583C228.46 121.583 228.938 121.106 228.938 120.517C228.938 119.928 228.46 119.451 227.872 119.451C227.283 119.451 226.806 119.928 226.806 120.517C226.806 121.106 227.283 121.583 227.872 121.583Z" fill="#FEFEFE"/>
<path d="M430.326 253.737C432.033 253.737 433.416 252.354 433.416 250.647C433.416 248.941 432.033 247.557 430.326 247.557C428.62 247.557 427.236 248.941 427.236 250.647C427.236 252.354 428.62 253.737 430.326 253.737Z" fill="#FEFEFE"/>
<path d="M478.495 253.737C479.348 253.737 480.04 253.045 480.04 252.192C480.04 251.339 479.348 250.647 478.495 250.647C477.642 250.647 476.95 251.339 476.95 252.192C476.95 253.045 477.642 253.737 478.495 253.737Z" fill="#FEFEFE"/>
<path d="M410.492 285.583C411.345 285.583 412.037 284.892 412.037 284.038C412.037 283.185 411.345 282.493 410.492 282.493C409.639 282.493 408.947 283.185 408.947 284.038C408.947 284.892 409.639 285.583 410.492 285.583Z" fill="#FEFEFE"/>
<path d="M55.8296 211.549C57.536 211.549 58.9194 210.165 58.9194 208.459C58.9194 206.752 57.536 205.369 55.8296 205.369C54.1231 205.369 52.7397 206.752 52.7397 208.459C52.7397 210.165 54.1231 211.549 55.8296 211.549Z" fill="#FEFEFE"/>
<path d="M103.995 211.549C104.848 211.549 105.54 210.857 105.54 210.004C105.54 209.151 104.848 208.459 103.995 208.459C103.142 208.459 102.45 209.151 102.45 210.004C102.45 210.857 103.142 211.549 103.995 211.549Z" fill="#FEFEFE"/>
<path d="M35.9951 243.395C36.8483 243.395 37.54 242.703 37.54 241.85C37.54 240.997 36.8483 240.305 35.9951 240.305C35.1419 240.305 34.4502 240.997 34.4502 241.85C34.4502 242.703 35.1419 243.395 35.9951 243.395Z" fill="#FEFEFE"/>
<path d="M40.4439 110.917C41.8635 110.917 43.0143 109.766 43.0143 108.346C43.0143 106.927 41.8635 105.776 40.4439 105.776C39.0243 105.776 37.8735 106.927 37.8735 108.346C37.8735 109.766 39.0243 110.917 40.4439 110.917Z" fill="#00FFFF"/>
<path d="M80.4907 110.913C81.2005 110.913 81.7759 110.338 81.7759 109.628C81.7759 108.918 81.2005 108.343 80.4907 108.343C79.781 108.343 79.2056 108.918 79.2056 109.628C79.2056 110.338 79.781 110.913 80.4907 110.913Z" fill="#00FFFF"/>
<path d="M23.9561 137.389C24.6659 137.389 25.2413 136.814 25.2413 136.104C25.2413 135.394 24.6659 134.819 23.9561 134.819C23.2463 134.819 22.6709 135.394 22.6709 136.104C22.6709 136.814 23.2463 137.389 23.9561 137.389Z" fill="#00FFFF"/>
<path opacity="0.44" d="M210.226 206.914C210.226 206.914 144.857 287.83 147.394 289.176L90.1851 317.831L210.223 206.917L210.226 206.914Z" fill="#00FFFF"/>
<path opacity="0.44" d="M243.182 327.64C243.182 327.64 266.518 336.727 297.48 317.831C328.443 298.934 331.131 286.821 331.131 286.821L413.757 226.249L328.439 278.118C328.439 278.118 285.802 332.791 243.182 327.643V327.64Z" fill="#00FFFF"/>
<path opacity="0.44" d="M69.9965 294.822L16.1539 341.335C16.1539 341.335 25.5752 356.143 32.308 353.448C39.0409 350.753 0.239258 373.64 0.239258 373.64V340.836L69.9932 294.822H69.9965Z" fill="#00FFFF"/>
<path opacity="0.44" d="M454.971 281.056L426.704 313.739L395.07 321.143L384.974 317.827C384.974 317.827 403.82 316.279 418.628 308.615C433.437 300.951 454.971 281.056 454.971 281.056Z" fill="#00FFFF"/>
<path d="M210.226 206.914C210.226 206.914 131.426 283.117 137.973 286.48L90.1885 317.827L210.226 206.914Z" fill="#00FFFF"/>
<path d="M328.439 278.115C328.439 278.115 261.573 328.075 243.182 327.64C243.182 327.64 285.364 335.614 326.081 283.455L413.754 226.246L328.436 278.115H328.439Z" fill="#00FFFF"/>
<path d="M380.936 317.379C380.936 317.379 409.203 312.579 418.625 308.615L454.967 281.056L423 309.701C423 309.701 402.811 321.69 380.936 317.379Z" fill="#00FFFF"/>
<path d="M0 340.836L69.9968 294.822L12.4504 340.836L10.7672 352.777L0 354.794V340.836Z" fill="#00FFFF"/>
<path d="M121.337 289.047L134.944 260.908L133.099 281.056L121.337 289.047Z" fill="#00FFFF"/>
<path d="M134.944 260.908L138.661 273.038L133.099 281.056L134.944 260.908Z" fill="#0C103F"/>
<path d="M90.1851 317.831L109.803 266.572L107.142 303.276L90.1851 317.831Z" fill="#00FFFF"/>
<path d="M109.804 266.572L116.368 293.635L107.143 303.276L109.804 266.572Z" fill="#0C103F"/>
<path d="M275.126 318.313L288.73 290.177L286.885 310.325L275.126 318.313Z" fill="#00FFFF"/>
<path d="M288.73 290.177L292.448 302.307L286.885 310.325L288.73 290.177Z" fill="#0C103F"/>
<path d="M393.626 317.831L412.519 298.89L405.375 314.667L393.626 317.831Z" fill="#00FFFF"/>
<path d="M412.519 298.89L412.124 309.745L405.375 314.667L412.519 298.89Z" fill="#0C103F"/>
<path d="M296.468 300.827L307.886 277.208L306.338 294.121L296.468 300.827Z" fill="#00FFFF"/>
<path d="M307.887 277.208L311.01 287.391L306.338 294.121L307.887 277.208Z" fill="#0C103F"/>
<path d="M103.995 188.763C118.163 188.763 129.648 177.278 129.648 163.11C129.648 148.942 118.163 137.457 103.995 137.457C89.827 137.457 78.3418 148.942 78.3418 163.11C78.3418 177.278 89.827 188.763 103.995 188.763Z" fill="#259EE2"/>
<path d="M443.832 183.936C449.583 183.936 454.245 179.274 454.245 173.523C454.245 167.772 449.583 163.11 443.832 163.11C438.081 163.11 433.419 167.772 433.419 173.523C433.419 179.274 438.081 183.936 443.832 183.936Z" fill="#00FFFF"/>
<g clip-path="url(#clip3_8702_2780)">
<path d="M506 367.317H-1V414.895H506V367.317Z" fill="#BA8258"/>
<path d="M506 353.98H-1V370.696H506V353.98Z" fill="#62C669"/>
<path d="M506 360.644H-1V370.696H506V360.644Z" fill="#124C12"/>
<path d="M29.3544 358.295H20.9062V366.811H29.3544V358.295Z" fill="#124C12"/>
<path d="M59.6712 358.295H51.2231V366.811H59.6712V358.295Z" fill="#124C12"/>
<path d="M89.9877 358.295H81.5396V366.811H89.9877V358.295Z" fill="#124C12"/>
<path d="M120.295 358.295H111.847V366.811H120.295V358.295Z" fill="#124C12"/>
<path d="M150.611 358.295H142.163V366.811H150.611V358.295Z" fill="#124C12"/>
<path d="M180.928 358.295H172.479V366.811H180.928V358.295Z" fill="#124C12"/>
<path d="M211.245 358.295H202.796V366.811H211.245V358.295Z" fill="#124C12"/>
<path d="M241.561 358.295H233.113V366.811H241.561V358.295Z" fill="#124C12"/>
<path d="M271.878 358.295H263.43V366.811H271.878V358.295Z" fill="#124C12"/>
<path d="M302.194 358.295H293.746V366.811H302.194V358.295Z" fill="#124C12"/>
<path d="M332.511 358.295H324.062V366.811H332.511V358.295Z" fill="#124C12"/>
<path d="M362.828 358.295H354.379V366.811H362.828V358.295Z" fill="#124C12"/>
<path d="M393.144 358.295H384.696V366.811H393.144V358.295Z" fill="#124C12"/>
<path d="M423.46 358.295H415.012V366.811H423.46V358.295Z" fill="#124C12"/>
<path d="M453.777 358.295H445.329V366.811H453.777V358.295Z" fill="#124C12"/>
<path d="M484.094 358.295H475.646V366.811H484.094V358.295Z" fill="#124C12"/>
<path d="M506 353.98H-1V356.138H506V353.98Z" fill="#00FFFF"/>
<path d="M42.8224 378.295H38.3805C37.0572 378.295 35.9844 379.376 35.9844 380.71V385.187C35.9844 386.521 37.0572 387.602 38.3805 387.602H42.8224C44.1458 387.602 45.2186 386.521 45.2186 385.187V380.71C45.2186 379.376 44.1458 378.295 42.8224 378.295Z" fill="#DD9E6F"/>
<path d="M171.732 387.593H176.174C177.497 387.593 178.57 386.512 178.57 385.178V380.7C178.57 379.367 177.497 378.285 176.174 378.285H171.732C170.408 378.285 169.336 379.367 169.336 380.7V385.178C169.336 386.512 170.408 387.593 171.732 387.593Z" fill="#FFC28E"/>
<path d="M127.218 387.593H131.66C132.983 387.593 134.056 386.512 134.056 385.178V380.7C134.056 379.367 132.983 378.285 131.66 378.285H127.218C125.895 378.285 124.822 379.367 124.822 380.7V385.178C124.822 386.512 125.895 387.593 127.218 387.593Z" fill="#FFC28E"/>
<path d="M244.422 378.295H239.98C238.656 378.295 237.583 379.376 237.583 380.71V385.187C237.583 386.521 238.656 387.602 239.98 387.602H244.422C245.745 387.602 246.818 386.521 246.818 385.187V380.71C246.818 379.376 245.745 378.295 244.422 378.295Z" fill="#DD9E6F"/>
<path d="M446.02 378.295H441.578C440.255 378.295 439.182 379.376 439.182 380.71V385.187C439.182 386.521 440.255 387.602 441.578 387.602H446.02C447.344 387.602 448.416 386.521 448.416 385.187V380.71C448.416 379.376 447.344 378.295 446.02 378.295Z" fill="#DD9E6F"/>
<path d="M373.34 387.593H377.782C379.105 387.593 380.178 386.512 380.178 385.178V380.7C380.178 379.367 379.105 378.285 377.782 378.285H373.34C372.017 378.285 370.944 379.367 370.944 380.7V385.178C370.944 386.512 372.017 387.593 373.34 387.593Z" fill="#FFC28E"/>
<path d="M328.827 387.593H333.268C334.592 387.593 335.665 386.512 335.665 385.178V380.7C335.665 379.367 334.592 378.285 333.268 378.285H328.827C327.503 378.285 326.43 379.367 326.43 380.7V385.178C326.43 386.512 327.503 387.593 328.827 387.593Z" fill="#FFC28E"/>
</g>
</g>
<rect width="506" height="383.635" transform="translate(1012)" fill="#5933B9"/>
<g clip-path="url(#clip4_8702_2780)">
<path d="M1518 0H1012.24V383.635H1518V0Z" fill="#1B1464"/>
<path opacity="0.66" d="M1518 0H1012.24V383.635H1518V0Z" fill="url(#paint2_linear_8702_2780)"/>
<path d="M1012.24 340.836L1081.99 294.822C1081.99 294.822 1077.96 309.927 1087.38 313.85C1096.8 317.773 1102.18 317.827 1102.18 317.827L1125.07 300.307L1222.23 206.911C1222.23 206.911 1199.46 255.221 1199.28 261.597C1199.1 267.972 1216.6 274.081 1216.6 274.081C1216.6 274.081 1225.11 326.729 1255.18 327.637C1285.25 328.544 1340.44 278.112 1340.44 278.112L1425.76 226.242C1425.76 226.242 1351.21 303.191 1375.44 313.847C1399.67 324.503 1426.59 307.526 1430.62 308.612C1434.66 309.698 1466.97 281.053 1466.97 281.053C1466.97 281.053 1433.32 335.621 1450.81 340.832C1468.31 346.044 1495.69 325.977 1495.69 325.977C1495.69 325.977 1473.38 347.542 1495.69 352.176L1518 356.811V383.631H1012.24V340.832V340.836Z" fill="#0C103F"/>
<path d="M1266.59 198.326C1267.94 198.326 1269.03 197.234 1269.03 195.887C1269.03 194.54 1267.94 193.448 1266.59 193.448C1265.25 193.448 1264.16 194.54 1264.16 195.887C1264.16 197.234 1265.25 198.326 1266.59 198.326Z" fill="#FEFEFE"/>
<path d="M1304.63 198.329C1305.3 198.329 1305.85 197.783 1305.85 197.108C1305.85 196.434 1305.3 195.887 1304.63 195.887C1303.95 195.887 1303.41 196.434 1303.41 197.108C1303.41 197.783 1303.95 198.329 1304.63 198.329Z" fill="#FEFEFE"/>
<path d="M1250.94 223.473C1251.61 223.473 1252.16 222.926 1252.16 222.252C1252.16 221.577 1251.61 221.031 1250.94 221.031C1250.26 221.031 1249.71 221.577 1249.71 222.252C1249.71 222.926 1250.26 223.473 1250.94 223.473Z" fill="#FEFEFE"/>
<g opacity="0.44">
<path d="M1329.28 309.125C1330.63 309.125 1331.72 308.033 1331.72 306.686C1331.72 305.339 1330.63 304.247 1329.28 304.247C1327.94 304.247 1326.85 305.339 1326.85 306.686C1326.85 308.033 1327.94 309.125 1329.28 309.125Z" fill="#00FFFF"/>
<path d="M1367.32 309.125C1367.99 309.125 1368.54 308.578 1368.54 307.904C1368.54 307.229 1367.99 306.682 1367.32 306.682C1366.64 306.682 1366.1 307.229 1366.1 307.904C1366.1 308.578 1366.64 309.125 1367.32 309.125Z" fill="#00FFFF"/>
<path d="M1313.63 334.272C1314.3 334.272 1314.85 333.725 1314.85 333.051C1314.85 332.376 1314.3 331.829 1313.63 331.829C1312.95 331.829 1312.4 332.376 1312.4 333.051C1312.4 333.725 1312.95 334.272 1313.63 334.272Z" fill="#00FFFF"/>
</g>
<path d="M1221.99 294.111C1223.33 294.111 1224.43 293.019 1224.43 291.672C1224.43 290.325 1223.33 289.233 1221.99 289.233C1220.64 289.233 1219.55 290.325 1219.55 291.672C1219.55 293.019 1220.64 294.111 1221.99 294.111Z" fill="#00FFFF"/>
<path d="M1260.02 294.114C1260.69 294.114 1261.24 293.567 1261.24 292.893C1261.24 292.218 1260.69 291.672 1260.02 291.672C1259.34 291.672 1258.8 292.218 1258.8 292.893C1258.8 293.567 1259.34 294.114 1260.02 294.114Z" fill="#00FFFF"/>
<path d="M1206.33 319.258C1207 319.258 1207.55 318.711 1207.55 318.037C1207.55 317.362 1207 316.815 1206.33 316.815C1205.65 316.815 1205.1 317.362 1205.1 318.037C1205.1 318.711 1205.65 319.258 1206.33 319.258Z" fill="#00FFFF"/>
<path d="M1451.4 337.786C1452.37 337.786 1453.16 337 1453.16 336.029C1453.16 335.058 1452.37 334.272 1451.4 334.272C1450.43 334.272 1449.65 335.058 1449.65 336.029C1449.65 337 1450.43 337.786 1451.4 337.786Z" fill="#FEFEFE"/>
<path d="M1478.82 337.787C1479.3 337.787 1479.7 337.392 1479.7 336.906C1479.7 336.42 1479.3 336.026 1478.82 336.026C1478.33 336.026 1477.94 336.42 1477.94 336.906C1477.94 337.392 1478.33 337.787 1478.82 337.787Z" fill="#FEFEFE"/>
<path d="M1440.12 355.911C1440.6 355.911 1441 355.516 1441 355.03C1441 354.544 1440.6 354.15 1440.12 354.15C1439.63 354.15 1439.24 354.544 1439.24 355.03C1439.24 355.516 1439.63 355.911 1440.12 355.911Z" fill="#FEFEFE"/>
<path d="M1072.73 325.964C1074.59 325.964 1076.09 324.462 1076.09 322.611C1076.09 320.759 1074.59 319.258 1072.73 319.258C1070.88 319.258 1069.38 320.759 1069.38 322.611C1069.38 324.462 1070.88 325.964 1072.73 325.964Z" fill="#00FFFF"/>
<path d="M1124.99 325.964C1125.92 325.964 1126.67 325.213 1126.67 324.287C1126.67 323.361 1125.92 322.611 1124.99 322.611C1124.07 322.611 1123.31 323.361 1123.31 324.287C1123.31 325.213 1124.07 325.964 1124.99 325.964Z" fill="#00FFFF"/>
<path d="M1051.22 360.512C1052.14 360.512 1052.89 359.761 1052.89 358.835C1052.89 357.909 1052.14 357.159 1051.22 357.159C1050.29 357.159 1049.54 357.909 1049.54 358.835C1049.54 359.761 1050.29 360.512 1051.22 360.512Z" fill="#00FFFF"/>
<path d="M1395.85 99.5998C1397.02 99.5998 1397.98 98.6453 1397.98 97.4679C1397.98 96.2906 1397.02 95.3361 1395.85 95.3361C1394.67 95.3361 1393.72 96.2906 1393.72 97.4679C1393.72 98.6453 1394.67 99.5998 1395.85 99.5998Z" fill="#FEFEFE"/>
<path d="M1429.09 99.5998C1429.68 99.5998 1430.16 99.1225 1430.16 98.5338C1430.16 97.9451 1429.68 97.4679 1429.09 97.4679C1428.5 97.4679 1428.03 97.9451 1428.03 98.5338C1428.03 99.1225 1428.5 99.5998 1429.09 99.5998Z" fill="#FEFEFE"/>
<path d="M1382.16 121.583C1382.74 121.583 1383.22 121.106 1383.22 120.517C1383.22 119.928 1382.74 119.451 1382.16 119.451C1381.57 119.451 1381.09 119.928 1381.09 120.517C1381.09 121.106 1381.57 121.583 1382.16 121.583Z" fill="#FEFEFE"/>
<path d="M1253.56 99.5998C1254.74 99.5998 1255.69 98.6453 1255.69 97.4679C1255.69 96.2906 1254.74 95.3361 1253.56 95.3361C1252.38 95.3361 1251.43 96.2906 1251.43 97.4679C1251.43 98.6453 1252.38 99.5998 1253.56 99.5998Z" fill="#FEFEFE"/>
<path d="M1286.81 99.5998C1287.4 99.5998 1287.87 99.1225 1287.87 98.5338C1287.87 97.9451 1287.4 97.4679 1286.81 97.4679C1286.22 97.4679 1285.74 97.9451 1285.74 98.5338C1285.74 99.1225 1286.22 99.5998 1286.81 99.5998Z" fill="#FEFEFE"/>
<path d="M1239.87 121.583C1240.46 121.583 1240.94 121.106 1240.94 120.517C1240.94 119.928 1240.46 119.451 1239.87 119.451C1239.28 119.451 1238.81 119.928 1238.81 120.517C1238.81 121.106 1239.28 121.583 1239.87 121.583Z" fill="#FEFEFE"/>
<path d="M1442.33 253.737C1444.03 253.737 1445.42 252.354 1445.42 250.647C1445.42 248.941 1444.03 247.557 1442.33 247.557C1440.62 247.557 1439.24 248.941 1439.24 250.647C1439.24 252.354 1440.62 253.737 1442.33 253.737Z" fill="#FEFEFE"/>
<path d="M1490.5 253.737C1491.35 253.737 1492.04 253.045 1492.04 252.192C1492.04 251.339 1491.35 250.647 1490.5 250.647C1489.64 250.647 1488.95 251.339 1488.95 252.192C1488.95 253.045 1489.64 253.737 1490.5 253.737Z" fill="#FEFEFE"/>
<path d="M1422.49 285.583C1423.35 285.583 1424.04 284.892 1424.04 284.038C1424.04 283.185 1423.35 282.493 1422.49 282.493C1421.64 282.493 1420.95 283.185 1420.95 284.038C1420.95 284.892 1421.64 285.583 1422.49 285.583Z" fill="#FEFEFE"/>
<path d="M1067.83 211.549C1069.54 211.549 1070.92 210.165 1070.92 208.459C1070.92 206.752 1069.54 205.369 1067.83 205.369C1066.12 205.369 1064.74 206.752 1064.74 208.459C1064.74 210.165 1066.12 211.549 1067.83 211.549Z" fill="#FEFEFE"/>
<path d="M1116 211.549C1116.85 211.549 1117.54 210.857 1117.54 210.004C1117.54 209.151 1116.85 208.459 1116 208.459C1115.14 208.459 1114.45 209.151 1114.45 210.004C1114.45 210.857 1115.14 211.549 1116 211.549Z" fill="#FEFEFE"/>
<path d="M1048 243.395C1048.85 243.395 1049.54 242.703 1049.54 241.85C1049.54 240.997 1048.85 240.305 1048 240.305C1047.14 240.305 1046.45 240.997 1046.45 241.85C1046.45 242.703 1047.14 243.395 1048 243.395Z" fill="#FEFEFE"/>
<path d="M1052.44 110.917C1053.86 110.917 1055.01 109.766 1055.01 108.346C1055.01 106.927 1053.86 105.776 1052.44 105.776C1051.02 105.776 1049.87 106.927 1049.87 108.346C1049.87 109.766 1051.02 110.917 1052.44 110.917Z" fill="#00FFFF"/>
<path d="M1092.49 110.913C1093.2 110.913 1093.78 110.338 1093.78 109.628C1093.78 108.918 1093.2 108.343 1092.49 108.343C1091.78 108.343 1091.21 108.918 1091.21 109.628C1091.21 110.338 1091.78 110.913 1092.49 110.913Z" fill="#00FFFF"/>
<path d="M1035.96 137.389C1036.67 137.389 1037.24 136.814 1037.24 136.104C1037.24 135.394 1036.67 134.819 1035.96 134.819C1035.25 134.819 1034.67 135.394 1034.67 136.104C1034.67 136.814 1035.25 137.389 1035.96 137.389Z" fill="#00FFFF"/>
<path opacity="0.44" d="M1222.23 206.914C1222.23 206.914 1156.86 287.83 1159.39 289.176L1102.19 317.831L1222.22 206.917L1222.23 206.914Z" fill="#00FFFF"/>
<path opacity="0.44" d="M1255.18 327.64C1255.18 327.64 1278.52 336.727 1309.48 317.831C1340.44 298.934 1343.13 286.821 1343.13 286.821L1425.76 226.249L1340.44 278.118C1340.44 278.118 1297.8 332.791 1255.18 327.643V327.64Z" fill="#00FFFF"/>
<path opacity="0.44" d="M1082 294.822L1028.15 341.335C1028.15 341.335 1037.58 356.143 1044.31 353.448C1051.04 350.753 1012.24 373.64 1012.24 373.64V340.836L1081.99 294.822H1082Z" fill="#00FFFF"/>
<path opacity="0.44" d="M1466.97 281.056L1438.7 313.739L1407.07 321.143L1396.97 317.827C1396.97 317.827 1415.82 316.279 1430.63 308.615C1445.44 300.951 1466.97 281.056 1466.97 281.056Z" fill="#00FFFF"/>
<path d="M1222.23 206.914C1222.23 206.914 1143.43 283.117 1149.97 286.48L1102.19 317.827L1222.23 206.914Z" fill="#00FFFF"/>
<path d="M1340.44 278.115C1340.44 278.115 1273.57 328.075 1255.18 327.64C1255.18 327.64 1297.36 335.614 1338.08 283.455L1425.75 226.246L1340.44 278.115H1340.44Z" fill="#00FFFF"/>
<path d="M1392.94 317.379C1392.94 317.379 1421.2 312.579 1430.62 308.615L1466.97 281.056L1435 309.701C1435 309.701 1414.81 321.69 1392.94 317.379Z" fill="#00FFFF"/>
<path d="M1012 340.836L1082 294.822L1024.45 340.836L1022.77 352.777L1012 354.794V340.836Z" fill="#00FFFF"/>
<path d="M1133.34 289.047L1146.94 260.908L1145.1 281.056L1133.34 289.047Z" fill="#00FFFF"/>
<path d="M1146.94 260.908L1150.66 273.038L1145.1 281.056L1146.94 260.908Z" fill="#0C103F"/>
<path d="M1102.19 317.831L1121.8 266.572L1119.14 303.276L1102.19 317.831Z" fill="#00FFFF"/>
<path d="M1121.8 266.572L1128.37 293.635L1119.14 303.276L1121.8 266.572Z" fill="#0C103F"/>
<path d="M1287.13 318.313L1300.73 290.177L1298.89 310.325L1287.13 318.313Z" fill="#00FFFF"/>
<path d="M1300.73 290.177L1304.45 302.307L1298.89 310.325L1300.73 290.177Z" fill="#0C103F"/>
<path d="M1405.63 317.831L1424.52 298.89L1417.37 314.667L1405.63 317.831Z" fill="#00FFFF"/>
<path d="M1424.52 298.89L1424.12 309.745L1417.37 314.667L1424.52 298.89Z" fill="#0C103F"/>
<path d="M1308.47 300.827L1319.89 277.208L1318.34 294.121L1308.47 300.827Z" fill="#00FFFF"/>
<path d="M1319.89 277.208L1323.01 287.391L1318.34 294.121L1319.89 277.208Z" fill="#0C103F"/>
<path d="M1115.99 188.763C1130.16 188.763 1141.65 177.278 1141.65 163.11C1141.65 148.942 1130.16 137.457 1115.99 137.457C1101.83 137.457 1090.34 148.942 1090.34 163.11C1090.34 177.278 1101.83 188.763 1115.99 188.763Z" fill="#259EE2"/>
<path d="M1455.83 183.936C1461.58 183.936 1466.25 179.274 1466.25 173.523C1466.25 167.772 1461.58 163.11 1455.83 163.11C1450.08 163.11 1445.42 167.772 1445.42 173.523C1445.42 179.274 1450.08 183.936 1455.83 183.936Z" fill="#00FFFF"/>
<g clip-path="url(#clip5_8702_2780)">
<path d="M1518 367.317H1011V414.895H1518V367.317Z" fill="#BA8258"/>
<path d="M1518 353.98H1011V370.696H1518V353.98Z" fill="#62C669"/>
<path d="M1518 360.644H1011V370.696H1518V360.644Z" fill="#124C12"/>
<path d="M1041.35 358.295H1032.91V366.811H1041.35V358.295Z" fill="#124C12"/>
<path d="M1071.67 358.295H1063.22V366.811H1071.67V358.295Z" fill="#124C12"/>
<path d="M1101.99 358.295H1093.54V366.811H1101.99V358.295Z" fill="#124C12"/>
<path d="M1132.29 358.295H1123.85V366.811H1132.29V358.295Z" fill="#124C12"/>
<path d="M1162.61 358.295H1154.16V366.811H1162.61V358.295Z" fill="#124C12"/>
<path d="M1192.93 358.295H1184.48V366.811H1192.93V358.295Z" fill="#124C12"/>
<path d="M1223.24 358.295H1214.8V366.811H1223.24V358.295Z" fill="#124C12"/>
<path d="M1253.56 358.295H1245.11V366.811H1253.56V358.295Z" fill="#124C12"/>
<path d="M1283.88 358.295H1275.43V366.811H1283.88V358.295Z" fill="#124C12"/>
<path d="M1314.19 358.295H1305.75V366.811H1314.19V358.295Z" fill="#124C12"/>
<path d="M1344.51 358.295H1336.06V366.811H1344.51V358.295Z" fill="#124C12"/>
<path d="M1374.83 358.295H1366.38V366.811H1374.83V358.295Z" fill="#124C12"/>
<path d="M1405.14 358.295H1396.7V366.811H1405.14V358.295Z" fill="#124C12"/>
<path d="M1435.46 358.295H1427.01V366.811H1435.46V358.295Z" fill="#124C12"/>
<path d="M1465.78 358.295H1457.33V366.811H1465.78V358.295Z" fill="#124C12"/>
<path d="M1496.09 358.295H1487.65V366.811H1496.09V358.295Z" fill="#124C12"/>
<path d="M1518 353.98H1011V356.138H1518V353.98Z" fill="#00FFFF"/>
<path d="M1054.82 378.295H1050.38C1049.06 378.295 1047.98 379.376 1047.98 380.71V385.187C1047.98 386.521 1049.06 387.602 1050.38 387.602H1054.82C1056.15 387.602 1057.22 386.521 1057.22 385.187V380.71C1057.22 379.376 1056.15 378.295 1054.82 378.295Z" fill="#DD9E6F"/>
<path d="M1183.73 387.593H1188.17C1189.5 387.593 1190.57 386.512 1190.57 385.178V380.7C1190.57 379.367 1189.5 378.285 1188.17 378.285H1183.73C1182.41 378.285 1181.34 379.367 1181.34 380.7V385.178C1181.34 386.512 1182.41 387.593 1183.73 387.593Z" fill="#FFC28E"/>
<path d="M1139.22 387.593H1143.66C1144.98 387.593 1146.06 386.512 1146.06 385.178V380.7C1146.06 379.367 1144.98 378.285 1143.66 378.285H1139.22C1137.89 378.285 1136.82 379.367 1136.82 380.7V385.178C1136.82 386.512 1137.89 387.593 1139.22 387.593Z" fill="#FFC28E"/>
<path d="M1256.42 378.295H1251.98C1250.66 378.295 1249.58 379.376 1249.58 380.71V385.187C1249.58 386.521 1250.66 387.602 1251.98 387.602H1256.42C1257.74 387.602 1258.82 386.521 1258.82 385.187V380.71C1258.82 379.376 1257.74 378.295 1256.42 378.295Z" fill="#DD9E6F"/>
<path d="M1458.02 378.295H1453.58C1452.25 378.295 1451.18 379.376 1451.18 380.71V385.187C1451.18 386.521 1452.25 387.602 1453.58 387.602H1458.02C1459.34 387.602 1460.42 386.521 1460.42 385.187V380.71C1460.42 379.376 1459.34 378.295 1458.02 378.295Z" fill="#DD9E6F"/>
<path d="M1385.34 387.593H1389.78C1391.11 387.593 1392.18 386.512 1392.18 385.178V380.7C1392.18 379.367 1391.11 378.285 1389.78 378.285H1385.34C1384.02 378.285 1382.94 379.367 1382.94 380.7V385.178C1382.94 386.512 1384.02 387.593 1385.34 387.593Z" fill="#FFC28E"/>
<path d="M1340.83 387.593H1345.27C1346.59 387.593 1347.66 386.512 1347.66 385.178V380.7C1347.66 379.367 1346.59 378.285 1345.27 378.285H1340.83C1339.5 378.285 1338.43 379.367 1338.43 380.7V385.178C1338.43 386.512 1339.5 387.593 1340.83 387.593Z" fill="#FFC28E"/>
</g>
</g>
<defs>
<linearGradient id="paint0_linear_8702_2780" x1="744.598" y1="-117.235" x2="772.251" y2="471.273" gradientUnits="userSpaceOnUse">
<stop stop-color="#7F47DD"/>
<stop offset="0.91" stop-color="#5A2EFF"/>
</linearGradient>
<linearGradient id="paint1_linear_8702_2780" x1="238.598" y1="-117.235" x2="266.251" y2="471.273" gradientUnits="userSpaceOnUse">
<stop stop-color="#7F47DD"/>
<stop offset="0.91" stop-color="#5A2EFF"/>
</linearGradient>
<linearGradient id="paint2_linear_8702_2780" x1="1250.6" y1="-117.235" x2="1278.25" y2="471.273" gradientUnits="userSpaceOnUse">
<stop stop-color="#7F47DD"/>
<stop offset="0.91" stop-color="#5A2EFF"/>
</linearGradient>
<clipPath id="clip0_8702_2780">
<rect width="506" height="383.635" fill="white" transform="translate(506)"/>
</clipPath>
<clipPath id="clip1_8702_2780">
<rect width="507" height="60.915" fill="white" transform="translate(505 353.98)"/>
</clipPath>
<clipPath id="clip2_8702_2780">
<rect width="506" height="383.635" fill="white"/>
</clipPath>
<clipPath id="clip3_8702_2780">
<rect width="507" height="60.915" fill="white" transform="translate(-1 353.98)"/>
</clipPath>
<clipPath id="clip4_8702_2780">
<rect width="506" height="383.635" fill="white" transform="translate(1012)"/>
</clipPath>
<clipPath id="clip5_8702_2780">
<rect width="507" height="60.915" fill="white" transform="translate(1011 353.98)"/>
</clipPath>
</defs>
</svg>
