<svg width="200" height="55" viewBox="0 0 200 55" fill="none" xmlns="http://www.w3.org/2000/svg">
<path d="M174.001 21.8927C171.691 21.9152 169.978 23.6749 169.996 26.0047C170.013 28.3344 171.776 30.0071 174.125 29.9722C175.184 29.9572 176.195 29.527 176.94 28.7743C177.684 28.0215 178.104 27.0064 178.108 25.9474C178.099 24.8656 177.662 23.8314 176.892 23.0713C176.122 22.3113 175.083 21.8874 174.001 21.8927Z" fill="white"/>
<path d="M188.336 0.0137704C183.682 0.00381422 179.026 -0.000334957 174.37 0.00132441C169.498 0.00132441 164.628 0.00132441 159.76 0.00132441C158.212 -0.0220777 156.676 0.264867 155.242 0.845206C153.807 1.42554 152.504 2.2875 151.408 3.38015C150.312 4.4728 149.447 5.77398 148.863 7.2068C148.278 8.63962 147.987 10.175 148.006 11.7223C148.006 11.9289 148.006 12.1355 148.006 12.342C147.529 12.2824 147.048 12.2558 146.568 12.2624H143.17C142.132 12.2624 140.198 12.2624 138.655 13.7981C137.719 14.7645 137.17 16.0407 137.112 17.3849C137.054 16.3643 136.793 14.9107 135.581 13.7309C134.087 12.2798 132.251 12.2699 131.262 12.2624H129.396H127.484C124.248 12.2823 122.182 13.8703 121.647 16.678C121.398 16.4116 121.129 16.1553 120.856 15.9014C117.978 13.2456 114.708 11.899 111.148 11.899C110.275 11.9036 109.403 11.9869 108.545 12.1479C108.545 11.787 108.545 11.4286 108.545 11.0701C108.522 7.53071 106.223 5.19349 102.688 5.11882C102.205 5.11882 101.72 5.11882 101.234 5.11882H100.104H99.2357C95.0491 5.11882 92.8339 7.33158 92.8339 11.5007V12.2051H92.4356C91.9378 12.2051 91.44 12.2051 90.9422 12.2051H89.6728H88.8887C87.6442 12.2051 86.0836 12.2051 84.6275 13.2331C83.1714 14.2611 82.6362 15.7471 82.228 16.9294C81.9128 17.8553 81.595 18.782 81.2747 19.7096C80.8898 18.631 80.5015 17.5566 80.1099 16.4863C79.5872 15.0601 77.9693 12.5785 75.2238 12.3246C74.4099 12.2499 73.5487 12.2126 72.5879 12.2126C71.4903 12.2126 70.4026 12.2624 69.4443 12.3047C68.6023 12.3368 67.7788 12.5616 67.0374 12.9618C66.4981 12.6307 65.8966 12.4139 65.2701 12.3246C64.3776 12.1906 63.477 12.1174 62.5745 12.1056C61.5292 12.0917 60.4882 12.2437 59.4906 12.5561C59.0533 12.6941 58.6389 12.8963 58.261 13.156C56.4671 12.2813 54.4945 11.8356 52.4988 11.8542C51.5137 11.8553 50.5305 11.9385 49.5592 12.1031C46.1781 12.6959 43.0746 14.3527 40.7007 16.8323L40.6883 16.8447L40.7007 16.561C40.7007 16.0333 40.7007 15.5081 40.7007 14.9804C40.7007 13.7359 40.7007 12.459 40.7007 11.1846C40.6659 7.47595 38.351 5.15366 34.6623 5.12379H33.2161H31.2672C30.2566 5.12379 28.1509 5.12379 26.5504 6.77155C25.2512 8.10319 25.0346 9.77583 24.9998 10.8785C22.7587 9.1403 20.0126 8.17919 17.1767 8.14052C15.8152 8.11812 14.3815 8.10817 12.7885 8.10817C10.9541 8.10817 9.15447 8.1231 7.63615 8.13555H7.35986C7.01388 8.13555 6.71022 8.13555 6.4414 8.13555C6.17258 8.13555 5.95853 8.13555 5.75442 8.13555C4.93801 8.13555 3.01647 8.13555 1.52304 9.6464C-0.0226659 11.1996 -0.0102208 13.0265 0.00222449 14.963C0.00222449 15.2119 0.00222449 15.5056 0.00222449 15.8192C0.00222449 22.8508 0.00222449 30.3976 0.00222449 38.8903C0.00222449 39.9008 0.00222432 41.7825 1.51308 43.271C3.02393 44.7595 4.84592 44.7346 5.84403 44.737H6.1228H7.36733H8.54216C9.1246 44.737 9.59752 44.737 10.0356 44.7619H10.3716C12.3977 44.7619 13.6596 43.9082 14.3541 43.1913C15.392 42.131 15.8973 40.7147 15.8475 38.9849C15.8177 37.6582 15.8127 36.334 15.8152 34.97H15.8749C16.9565 34.982 18.0376 34.9196 19.1107 34.7833C21.2444 34.4933 23.266 33.6535 24.9774 32.3465C24.9774 34.4075 24.9774 36.4692 24.9774 38.5318C24.9774 39.5001 24.9774 41.5187 26.5081 43.0968C28.0787 44.7196 30.1173 44.7346 31.0955 44.742H32.7756C33.3149 44.742 33.8542 44.742 34.3935 44.742C35.3891 44.742 37.4649 44.7171 39.0679 43.1167C39.8797 42.2908 40.4079 41.2283 40.5762 40.0825C41.4006 40.9492 42.3189 41.7214 43.3142 42.3849C46.0671 44.2243 48.9295 45.1552 51.8218 45.1552C53.8713 45.1421 55.8943 44.6914 57.7557 43.8335C58.2908 44.1717 58.8802 44.415 59.498 44.5529C60.3323 44.7307 61.1839 44.8142 62.0368 44.8018C62.5919 44.8018 63.1295 44.7719 63.6025 44.747C63.8663 44.7346 64.1301 44.7196 64.3915 44.7122C67.6273 44.6151 69.957 42.2231 69.957 38.9873V35.3757C69.957 34.4249 69.957 33.4691 69.957 32.5083C71.0323 35.1393 72.1175 37.7802 73.1928 40.4061C72.5904 41.8846 72.0254 43.373 71.4778 44.8167L70.9103 46.3101C69.9147 48.9311 70.5519 50.7382 71.2688 51.786C71.9856 52.8339 73.4317 54.1108 76.2469 54.1482C76.4485 54.1482 76.6526 54.1482 76.8542 54.1482H77.8274H78.7259C79.174 54.1482 79.5324 54.1482 79.856 54.1681H80.1596C82.7831 54.1681 84.849 52.7145 85.8272 50.1856C87.6019 45.5883 89.4986 40.7546 91.4649 35.8188C91.9096 34.7037 92.3577 33.5853 92.809 32.4635C92.809 34.035 92.809 35.6055 92.809 37.1753C92.809 37.5039 92.809 37.7951 92.809 38.0539C92.7791 39.4752 92.7393 41.4191 94.3024 43.0321C95.985 44.752 98.2028 44.757 100.348 44.7619H100.764C101.981 44.7619 103.4 44.6997 104.826 43.9704L104.921 43.9206C106.626 44.7501 108.5 45.1759 110.397 45.1652C111.36 45.162 112.321 45.0611 113.264 44.864C117.672 43.963 121.132 41.6755 123.372 38.2804C124.24 39.9023 125.425 41.3329 126.857 42.4869C128.935 44.1695 131.748 45.098 134.779 45.0955C136.913 45.0992 139.021 44.6273 140.95 43.7141C142.396 44.7271 143.991 44.7296 145.002 44.7296H146.304C147.116 44.7514 147.927 44.6677 148.718 44.4807C150.338 48.961 154.54 52.0076 159.727 52.015C161.604 52.015 163.481 52.015 165.36 52.015H188.301C194.967 52.015 200 46.9847 200 40.3165C200 30.7934 200 21.2711 200 11.7497C200 5.0765 194.98 0.0237266 188.336 0.0137704Z" fill="white"/>
<path d="M188.32 4.24501C178.8 4.22676 169.279 4.22676 159.758 4.24501C155.464 4.24501 152.236 7.45589 152.229 11.7445C152.229 12.921 152.229 14.0975 152.229 15.274C152.214 23.6173 152.214 31.9614 152.229 40.3064C152.228 40.6894 152.255 41.072 152.308 41.4514C152.821 45.1849 155.793 47.781 159.733 47.7885C164.462 47.7885 169.211 47.7885 173.953 47.7885C178.695 47.7885 183.513 47.7885 188.295 47.7885C192.671 47.7885 195.762 44.6971 195.762 40.3213C195.762 30.8015 195.762 21.2809 195.762 11.7595C195.767 7.42851 192.641 4.25248 188.32 4.24501ZM174.132 29.9719C171.783 30.0067 170.023 28.3141 170.003 26.0043C169.983 23.6945 171.698 21.9148 174.008 21.8924C174.545 21.8878 175.077 21.9891 175.575 22.1904C176.073 22.3917 176.526 22.6891 176.909 23.0656C177.292 23.4422 177.597 23.8905 177.806 24.3849C178.015 24.8793 178.125 25.4101 178.13 25.9471C178.126 27.0099 177.703 28.0283 176.954 28.7817C176.204 29.5351 175.188 29.9627 174.125 29.9719H174.132Z" fill="black"/>
<path d="M121.468 24.3419C120.794 22.2927 119.592 20.4572 117.984 19.0203C114.058 15.4012 109.429 15.2269 104.294 18.3109C104.294 15.8617 104.294 13.4796 104.294 11.0926C104.294 9.84811 103.826 9.3727 102.579 9.3503C101.461 9.32541 100.339 9.3503 99.2236 9.3503C97.3817 9.3503 97.0456 9.67885 97.0456 11.5008V13.9202C97.0456 16.6067 97.0456 19.2932 97.0456 21.9797C97.0456 27.0458 97.0456 32.1069 97.0456 37.163C97.0456 40.2419 96.5329 40.5082 100.356 40.5157C102.098 40.5157 103.746 40.5979 104.04 38.2158C104.443 38.5245 104.709 38.7136 104.961 38.9227C107.164 40.7273 109.68 41.2898 112.418 40.7273C117.284 39.7192 120.346 36.7 121.53 31.9733C121.545 31.916 121.558 31.8613 121.57 31.804C122.207 29.1681 122.207 26.6517 121.468 24.3419ZM109.68 34.4051C108.903 34.4012 108.135 34.2441 107.419 33.9429C106.703 33.6417 106.054 33.2022 105.508 32.6496C104.962 32.097 104.53 31.4422 104.238 30.7227C103.946 30.0031 103.798 29.233 103.803 28.4563C103.823 25.1956 106.497 22.5 109.707 22.5024C112.799 22.5024 115.121 25.0985 115.114 28.5409C115.109 31.9111 112.791 34.4126 109.68 34.4051Z" fill="black"/>
<path d="M65.707 22.0963C65.707 20.7041 65.697 19.3119 65.6771 17.9197C65.6771 17.4219 65.0797 16.5582 64.6815 16.5009L64.46 16.4711C63.2304 16.3093 61.9062 16.2047 60.7786 16.5656C60.1614 16.7648 59.9199 18.1088 59.4968 18.9302C59.4151 19.0428 59.3198 19.1448 59.213 19.2339C56.8534 16.3466 53.7794 15.6895 50.2724 16.2819C45.7921 17.041 42.0211 20.4834 40.7094 24.9761C40.6248 25.2549 40.5526 25.5387 40.4904 25.8274C40.0524 27.8605 40.1269 29.9707 40.7069 31.9679C41.5028 34.7752 43.2662 37.2105 45.685 38.8426C49.9413 41.6851 54.1229 41.5557 58.3668 38.6286C59.1433 39.3255 59.7084 40.2365 60.4451 40.4033C61.6647 40.6796 62.9939 40.5078 64.2758 40.468C65.1967 40.4406 65.7368 39.9478 65.7368 38.9746C65.7219 33.3568 65.7343 27.7265 65.707 22.0963ZM52.6021 34.3997C49.4385 34.4345 47.1262 31.938 47.1262 28.5006C47.1262 25.0633 49.4535 22.502 52.5498 22.502C55.818 22.502 58.4638 25.225 58.4389 28.5604C58.4343 30.1072 57.818 31.5894 56.7244 32.6834C55.6309 33.7775 54.1489 34.3944 52.6021 34.3997Z" fill="black"/>
<path d="M25.9592 21.029C25.8798 19.7563 25.549 18.5119 24.986 17.3676C24.2666 15.8857 23.1483 14.6337 21.7567 13.7522C20.3651 12.8706 18.7554 12.3945 17.1082 12.3771C13.962 12.3273 10.8159 12.3447 7.6697 12.3771C3.90874 12.4094 4.2373 11.7922 4.23232 15.817C4.23232 23.5031 4.23232 31.191 4.23232 38.8805C4.23232 40.3739 4.35677 40.4934 5.86016 40.4984C7.31128 40.4984 8.7624 40.4536 10.2085 40.5158C11.2938 40.5606 11.6497 40.1499 11.6248 39.0697C11.5601 36.3467 11.6024 33.6236 11.6024 30.7612C12.0355 30.7338 12.3168 30.704 12.598 30.699C14.5893 30.6691 16.5979 30.8409 18.5518 30.5795C21.3943 30.1962 23.7315 28.3394 24.9835 25.8379C25.7316 24.3506 26.0685 22.6903 25.9592 21.029ZM16.0553 24.6257C14.6291 24.7551 13.1854 24.6531 11.6796 24.6531V18.535C13.2327 18.535 14.7585 18.4255 16.2594 18.5674C17.5263 18.6843 18.4996 20.1803 18.4846 21.6214C18.4697 23.1397 17.4716 24.4963 16.0553 24.6257Z" fill="black"/>
<path d="M81.326 32.5132C83.021 27.5873 84.619 22.9452 86.212 18.3007C86.8318 16.5011 86.9139 16.4389 88.8802 16.4339C90.0401 16.4339 91.2 16.4189 92.3649 16.4339C94.1919 16.4613 94.5229 16.9317 93.8583 18.6317C91.7626 23.8338 89.6294 29.0285 87.5486 34.2555C85.6387 39.0478 83.7536 43.8508 81.8935 48.6646C81.545 49.5682 81.0248 49.9838 80.0441 49.944C78.7996 49.8917 77.5551 49.944 76.3105 49.9291C74.7101 49.9067 74.2994 49.3018 74.8669 47.8233C75.6783 45.7027 76.4648 43.5695 77.3335 41.4713C77.4878 41.1194 77.5641 40.7384 77.5572 40.3543C77.5503 39.9702 77.4604 39.5921 77.2937 39.2461C74.5557 32.6053 71.8427 25.9495 69.1271 19.2988C68.9447 18.8833 68.7885 18.4568 68.6592 18.0219C68.4327 17.1955 68.704 16.5608 69.605 16.5285C71.3387 16.4102 73.0784 16.4102 74.8121 16.5285C75.2925 16.5733 75.8998 17.3598 76.1114 17.9323C77.7168 22.313 79.2352 26.7236 80.7858 31.1243C80.9302 31.5026 81.087 31.8809 81.326 32.5132Z" fill="black"/>
<path d="M142.275 37.5137C138.636 41.6978 132.495 41.6082 129.521 39.1988C126.783 36.9761 125.832 33.9718 125.755 30.639C125.655 26.5047 125.72 22.3679 125.735 18.2311C125.735 16.7974 126.061 16.5111 127.507 16.5037C128.752 16.5037 129.996 16.5037 131.241 16.5037C132.734 16.5037 132.899 16.663 132.901 18.129C132.901 22.0169 132.901 25.9048 132.901 29.7927C132.901 31.5624 133.598 32.9438 135.198 33.7329C136.799 34.5219 138.362 34.0938 139.756 33.1231C140.943 32.2967 141.326 31.0621 141.321 29.6558C141.304 25.8924 141.321 22.1289 141.321 18.363C141.321 16.7177 141.54 16.5111 143.201 16.5037C144.318 16.5037 145.441 16.5037 146.556 16.5037C148.356 16.5037 148.604 16.7526 148.612 18.6119C148.619 20.4712 148.612 22.2509 148.612 24.0704C148.612 28.7863 148.612 33.5022 148.612 38.2181C148.612 40.2094 148.331 40.4956 146.29 40.4931C142.882 40.4782 143.203 40.7819 142.275 37.5137Z" fill="black"/>
<path d="M29.2168 24.8593C29.2168 20.3923 29.2168 15.9244 29.2168 11.4558C29.2168 9.62631 29.4906 9.35002 31.2678 9.34753C32.3853 9.34753 33.5079 9.34753 34.623 9.34753C36.0243 9.34753 36.45 9.78063 36.4624 11.2168C36.4798 12.9965 36.4624 14.7737 36.4624 16.5533C36.4624 23.8346 36.4624 31.1151 36.4624 38.3948C36.4624 40.172 36.1513 40.4781 34.3641 40.493C33.2864 40.493 32.2086 40.493 31.1284 40.493C29.4756 40.4806 29.2118 40.2143 29.2118 38.5018C29.2118 33.9568 29.2135 29.4093 29.2168 24.8593Z" fill="black"/>
<path d="M160.11 12.3322L160.108 12.334C158.502 13.9407 158.502 16.5458 160.108 18.1526L164.394 22.4383C166.001 24.045 168.606 24.045 170.213 22.4383L170.214 22.4365C171.821 20.8297 171.821 18.2246 170.214 16.6179L165.929 12.3322C164.322 10.7254 161.717 10.7254 160.11 12.3322Z" fill="#1ED6FF"/>
<path d="M160.326 39.8463L160.327 39.8481C161.934 41.4548 164.539 41.4548 166.146 39.8481L170.432 35.5624C172.038 33.9556 172.038 31.3505 170.432 29.7438L170.43 29.742C168.823 28.1352 166.218 28.1352 164.611 29.742L160.326 34.0277C158.719 35.6344 158.719 38.2395 160.326 39.8463Z" fill="#FFC007"/>
<path d="M187.843 39.631L187.845 39.6293C189.451 38.0225 189.451 35.4174 187.845 33.8106L183.559 29.525C181.952 27.9182 179.347 27.9182 177.74 29.525L177.739 29.5267C176.132 31.1335 176.132 33.7386 177.739 35.3454L182.024 39.6311C183.631 41.2378 186.236 41.2378 187.843 39.631Z" fill="#FF0F65"/>
<path d="M187.609 12.1335L187.608 12.1317C186.001 10.525 183.396 10.525 181.789 12.1317L177.503 16.4174C175.896 18.0242 175.896 20.6293 177.503 22.236L177.505 22.2378C179.112 23.8446 181.717 23.8446 183.324 22.2378L187.609 17.9521C189.216 16.3454 189.216 13.7403 187.609 12.1335Z" fill="#00F719"/>
</svg>
