<svg width="500" height="176" viewBox="0 0 500 176" fill="none" xmlns="http://www.w3.org/2000/svg">
<path d="M6.41028 133.593L70.013 88.2181C70.013 88.2181 66.0311 103.115 75.3223 106.983C84.6135 110.852 89.926 110.906 89.926 110.906L112.494 93.6272L208.31 1.5202C208.31 1.5202 185.862 49.1638 185.682 55.4511C185.503 61.7384 202.761 67.7629 202.761 67.7629C202.761 67.7629 211.157 119.684 240.811 120.579C270.464 121.474 324.891 71.7381 324.891 71.7381L409.03 20.585C409.03 20.585 335.509 96.4714 359.404 106.98C383.299 117.489 409.849 100.746 413.831 101.817C417.813 102.888 449.672 74.6389 449.672 74.6389C449.672 74.6389 416.485 128.453 433.741 133.593C450.996 138.733 477.994 118.943 477.994 118.943C477.994 118.943 455.992 140.21 477.994 144.78L499.996 146.5V175.801H1.22217L6.90337 134.122L6.41028 133.593Z" fill="#0C103F"/>
<path d="M236.623 17.8539C237.288 17.8539 237.827 17.3147 237.827 16.6497C237.827 15.9846 237.288 15.4454 236.623 15.4454C235.958 15.4454 235.418 15.9846 235.418 16.6497C235.418 17.3147 235.958 17.8539 236.623 17.8539Z" fill="#FEFEFE"/>
<g opacity="0.44">
<path d="M313.89 102.323C315.218 102.323 316.295 101.246 316.295 99.9179C316.295 98.5896 315.218 97.5128 313.89 97.5128C312.562 97.5128 311.485 98.5896 311.485 99.9179C311.485 101.246 312.562 102.323 313.89 102.323Z" fill="#00FFFF"/>
<path d="M351.397 102.323C352.062 102.323 352.601 101.784 352.601 101.119C352.601 100.454 352.062 99.9146 351.397 99.9146C350.732 99.9146 350.193 100.454 350.193 101.119C350.193 101.784 350.732 102.323 351.397 102.323Z" fill="#00FFFF"/>
<path d="M298.447 127.123C299.112 127.123 299.652 126.584 299.652 125.919C299.652 125.254 299.112 124.714 298.447 124.714C297.782 124.714 297.243 125.254 297.243 125.919C297.243 126.584 297.782 127.123 298.447 127.123Z" fill="#00FFFF"/>
</g>
<path d="M208.074 87.5162C209.402 87.5162 210.479 86.4394 210.479 85.1111C210.479 83.7828 209.402 82.706 208.074 82.706C206.746 82.706 205.669 83.7828 205.669 85.1111C205.669 86.4394 206.746 87.5162 208.074 87.5162Z" fill="#00FFFF"/>
<path d="M245.578 87.5196C246.243 87.5196 246.782 86.9805 246.782 86.3154C246.782 85.6503 246.243 85.1111 245.578 85.1111C244.913 85.1111 244.374 85.6503 244.374 86.3154C244.374 86.9805 244.913 87.5196 245.578 87.5196Z" fill="#00FFFF"/>
<path d="M192.628 112.316C193.293 112.316 193.832 111.777 193.832 111.112C193.832 110.447 193.293 109.908 192.628 109.908C191.963 109.908 191.424 110.447 191.424 111.112C191.424 111.777 191.963 112.316 192.628 112.316Z" fill="#00FFFF"/>
<path d="M434.323 130.589C435.28 130.589 436.056 129.813 436.056 128.856C436.056 127.899 435.28 127.123 434.323 127.123C433.366 127.123 432.59 127.899 432.59 128.856C432.59 129.813 433.366 130.589 434.323 130.589Z" fill="#FEFEFE"/>
<path d="M461.358 130.589C461.838 130.589 462.226 130.2 462.226 129.721C462.226 129.241 461.838 128.853 461.358 128.853C460.878 128.853 460.49 129.241 460.49 129.721C460.49 130.2 460.878 130.589 461.358 130.589Z" fill="#FEFEFE"/>
<path d="M423.192 148.463C423.672 148.463 424.06 148.074 424.06 147.595C424.06 147.115 423.672 146.727 423.192 146.727C422.712 146.727 422.324 147.115 422.324 147.595C422.324 148.074 422.712 148.463 423.192 148.463Z" fill="#FEFEFE"/>
<path d="M60.8818 118.929C62.708 118.929 64.1885 117.449 64.1885 115.623C64.1885 113.797 62.708 112.316 60.8818 112.316C59.0556 112.316 57.5752 113.797 57.5752 115.623C57.5752 117.449 59.0556 118.929 60.8818 118.929Z" fill="#00FFFF"/>
<path d="M112.417 118.929C113.331 118.929 114.071 118.189 114.071 117.276C114.071 116.363 113.331 115.623 112.417 115.623C111.504 115.623 110.764 116.363 110.764 117.276C110.764 118.189 111.504 118.929 112.417 118.929Z" fill="#00FFFF"/>
<path d="M39.6611 153C40.5742 153 41.3145 152.26 41.3145 151.347C41.3145 150.434 40.5742 149.694 39.6611 149.694C38.748 149.694 38.0078 150.434 38.0078 151.347C38.0078 152.26 38.748 153 39.6611 153Z" fill="#00FFFF"/>
<path d="M425.371 47.7002C427.054 47.7002 428.418 46.336 428.418 44.6531C428.418 42.9702 427.054 41.6059 425.371 41.6059C423.688 41.6059 422.324 42.9702 422.324 44.6531C422.324 46.336 423.688 47.7002 425.371 47.7002Z" fill="#FEFEFE"/>
<path d="M472.875 47.7002C473.716 47.7002 474.398 47.0181 474.398 46.1766C474.398 45.3352 473.716 44.653 472.875 44.653C472.033 44.653 471.351 45.3352 471.351 46.1766C471.351 47.0181 472.033 47.7002 472.875 47.7002Z" fill="#FEFEFE"/>
<path d="M405.811 79.1066C406.652 79.1066 407.334 78.4245 407.334 77.583C407.334 76.7416 406.652 76.0594 405.811 76.0594C404.969 76.0594 404.287 76.7416 404.287 77.583C404.287 78.4245 404.969 79.1066 405.811 79.1066Z" fill="#FEFEFE"/>
<path d="M56.0447 6.09434C57.7276 6.09434 59.0919 4.73006 59.0919 3.04716C59.0919 1.36425 57.7276 0 56.0447 0C54.3618 0 52.9976 1.36425 52.9976 3.04716C52.9976 4.73006 54.3618 6.09434 56.0447 6.09434Z" fill="#FEFEFE"/>
<path d="M103.546 6.09436C104.387 6.09436 105.069 5.41222 105.069 4.57077C105.069 3.72932 104.387 3.04718 103.546 3.04718C102.704 3.04718 102.022 3.72932 102.022 4.57077C102.022 5.41222 102.704 6.09436 103.546 6.09436Z" fill="#FEFEFE"/>
<path d="M36.4845 37.5008C37.326 37.5008 38.0081 36.8186 38.0081 35.9772C38.0081 35.1357 37.326 34.4536 36.4845 34.4536C35.6431 34.4536 34.9609 35.1357 34.9609 35.9772C34.9609 36.8186 35.6431 37.5008 36.4845 37.5008Z" fill="#FEFEFE"/>
<path opacity="0.44" d="M208.31 1.52362C208.31 1.52362 143.844 81.3222 146.345 82.6495L89.9263 110.909L208.307 1.52695L208.31 1.52362Z" fill="#00FFFF"/>
<path opacity="0.44" d="M240.811 120.583C240.811 120.583 263.824 129.545 294.359 110.909C324.894 92.2733 327.545 80.3275 327.545 80.3275L409.03 20.5917L324.89 71.7449C324.89 71.7449 282.842 125.662 240.811 120.586V120.583Z" fill="#00FFFF"/>
<path opacity="0.44" d="M70.0163 88.2182L16.9171 134.089C16.9171 134.089 19.7239 143.984 30.572 146.45C37.2119 143.792 1.22217 165.948 1.22217 165.948L6.41028 133.629L70.013 88.2182H70.0163Z" fill="#00FFFF"/>
<path opacity="0.44" d="M449.675 74.6423L421.798 106.874L390.602 114.176L380.645 110.906C380.645 110.906 399.231 109.379 413.835 101.821C428.438 94.2626 449.675 74.6423 449.675 74.6423Z" fill="#00FFFF"/>
<path d="M208.31 1.52362C208.31 1.52362 130.597 76.6749 137.054 79.9915L89.9297 110.906L208.31 1.52362Z" fill="#00FFFF"/>
<path d="M324.89 71.7416C324.89 71.7416 258.947 121.012 240.811 120.583C240.811 120.583 282.41 128.447 322.565 77.0076L409.027 20.5884L324.887 71.7416H324.89Z" fill="#00FFFF"/>
<path d="M376.663 110.463C376.663 110.463 404.54 105.729 413.831 101.821L449.672 74.6423L418.145 102.892C418.145 102.892 398.236 114.715 376.663 110.463Z" fill="#00FFFF"/>
<path d="M6.41026 133.596L69.0303 88.2182L12.2785 133.596L11.3412 147.362H0L6.41026 133.596Z" fill="#00FFFF"/>
<path d="M120.648 82.523L134.067 54.7725L132.248 74.6423L120.648 82.523Z" fill="#00FFFF"/>
<path d="M134.067 54.7725L137.733 66.7349L132.248 74.6423L134.067 54.7725Z" fill="#0C103F"/>
<path d="M89.9263 110.909L109.274 60.3578L106.649 96.5546L89.9263 110.909Z" fill="#00FFFF"/>
<path d="M109.274 60.3578L115.748 87.0472L106.649 96.5546L109.274 60.3578Z" fill="#0C103F"/>
<path d="M272.314 111.385L285.73 83.6375L283.91 103.507L272.314 111.385Z" fill="#00FFFF"/>
<path d="M285.73 83.6375L289.396 95.5999L283.911 103.507L285.73 83.6375Z" fill="#0C103F"/>
<path d="M389.177 110.909L407.81 92.2301L400.764 107.789L389.177 110.909Z" fill="#00FFFF"/>
<path d="M407.809 92.2301L407.42 102.935L400.764 107.789L407.809 92.2301Z" fill="#0C103F"/>
<path d="M293.361 94.1395L304.622 70.8466L303.095 87.5262L293.361 94.1395Z" fill="#00FFFF"/>
<path d="M304.622 70.8466L307.703 80.8896L303.095 87.5262L304.622 70.8466Z" fill="#0C103F"/>
</svg>
