<svg width="320" height="320" viewBox="0 0 320 320" fill="none" xmlns="http://www.w3.org/2000/svg">
<g clip-path="url(#clip0_6510_2310)">
<path d="M80 0H0V80H80V0Z" fill="#BA8258"/>
<path d="M23.93 27H20.37C19.3096 27 18.45 27.8596 18.45 28.92V32.48C18.45 33.5404 19.3096 34.4 20.37 34.4H23.93C24.9903 34.4 25.85 33.5404 25.85 32.48V28.92C25.85 27.8596 24.9903 27 23.93 27Z" fill="#FFC28E"/>
<path d="M59.6199 27H56.0599C54.9995 27 54.1399 27.8596 54.1399 28.92V32.48C54.1399 33.5404 54.9995 34.4 56.0599 34.4H59.6199C60.6803 34.4 61.5399 33.5404 61.5399 32.48V28.92C61.5399 27.8596 60.6803 27 59.6199 27Z" fill="#FFC28E"/>
<path d="M160 0H80V80H160V0Z" fill="#BA8258"/>
<path d="M147.05 60.48H143.49C142.43 60.48 141.57 61.3396 141.57 62.4V65.96C141.57 67.0204 142.43 67.88 143.49 67.88H147.05C148.11 67.88 148.97 67.0204 148.97 65.96V62.4C148.97 61.3396 148.11 60.48 147.05 60.48Z" fill="#FFC28E"/>
<path d="M128.36 32.6H124.8C123.74 32.6 122.88 33.4596 122.88 34.52V38.08C122.88 39.1404 123.74 40 124.8 40H128.36C129.42 40 130.28 39.1404 130.28 38.08V34.52C130.28 33.4596 129.42 32.6 128.36 32.6Z" fill="#DD9E6F"/>
<path d="M80 80H0V160H80V80Z" fill="#A5704C"/>
<path d="M33.52 15.82H29.96C28.8997 15.82 28.04 16.6796 28.04 17.74V21.3C28.04 22.3604 28.8997 23.22 29.96 23.22H33.52C34.5804 23.22 35.44 22.3604 35.44 21.3V17.74C35.44 16.6796 34.5804 15.82 33.52 15.82Z" fill="#DD9E6F"/>
<path d="M69.1081 140H61.8919C59.7425 140 58 141.742 58 143.892V151.108C58 153.258 59.7425 155 61.8919 155H69.1081C71.2575 155 73 153.258 73 151.108V143.892C73 141.742 71.2575 140 69.1081 140Z" fill="#875634"/>
<path d="M160 80H80V160H160V80Z" fill="#A5704C"/>
<path d="M111.37 140.48H107.81C106.75 140.48 105.89 141.34 105.89 142.4V145.96C105.89 147.02 106.75 147.88 107.81 147.88H111.37C112.43 147.88 113.29 147.02 113.29 145.96V142.4C113.29 141.34 112.43 140.48 111.37 140.48Z" fill="#FFC28E"/>
<path d="M147.05 126.48H143.49C142.43 126.48 141.57 127.34 141.57 128.4V131.96C141.57 133.02 142.43 133.88 143.49 133.88H147.05C148.11 133.88 148.97 133.02 148.97 131.96V128.4C148.97 127.34 148.11 126.48 147.05 126.48Z" fill="#FFC28E"/>
<path d="M240 0H160V80H240V0Z" fill="#BA8258"/>
<path d="M183.93 27H180.37C179.31 27 178.45 27.8596 178.45 28.92V32.48C178.45 33.5404 179.31 34.4 180.37 34.4H183.93C184.99 34.4 185.85 33.5404 185.85 32.48V28.92C185.85 27.8596 184.99 27 183.93 27Z" fill="#FFC28E"/>
<path d="M219.62 27H216.06C215 27 214.14 27.8596 214.14 28.92V32.48C214.14 33.5404 215 34.4 216.06 34.4H219.62C220.68 34.4 221.54 33.5404 221.54 32.48V28.92C221.54 27.8596 220.68 27 219.62 27Z" fill="#FFC28E"/>
<path d="M193.52 15.82H189.96C188.9 15.82 188.04 16.6796 188.04 17.74V21.3C188.04 22.3604 188.9 23.22 189.96 23.22H193.52C194.58 23.22 195.44 22.3604 195.44 21.3V17.74C195.44 16.6796 194.58 15.82 193.52 15.82Z" fill="#DD9E6F"/>
<path d="M320 0H240V80H320V0Z" fill="#BA8258"/>
<path d="M304.407 59.6144L297.732 60.5099C295.743 60.7766 294.348 62.6047 294.614 64.593L295.51 71.2684C295.776 73.2567 297.605 74.6523 299.593 74.3856L306.268 73.4901C308.257 73.2234 309.652 71.3953 309.385 69.407L308.49 62.7317C308.223 60.7433 306.395 59.3477 304.407 59.6144Z" fill="#FFC28E"/>
<path d="M288.36 32.6H284.8C283.739 32.6 282.88 33.4596 282.88 34.52V38.08C282.88 39.1404 283.739 40 284.8 40H288.36C289.42 40 290.28 39.1404 290.28 38.08V34.52C290.28 33.4596 289.42 32.6 288.36 32.6Z" fill="#DD9E6F"/>
<path d="M240 80H160V160H240V80Z" fill="#A5704C"/>
<path d="M183.93 107H180.37C179.31 107 178.45 107.86 178.45 108.92V112.48C178.45 113.54 179.31 114.4 180.37 114.4H183.93C184.99 114.4 185.85 113.54 185.85 112.48V108.92C185.85 107.86 184.99 107 183.93 107Z" fill="#FFC28E"/>
<path d="M219.62 107H216.06C215 107 214.14 107.86 214.14 108.92V112.48C214.14 113.54 215 114.4 216.06 114.4H219.62C220.68 114.4 221.54 113.54 221.54 112.48V108.92C221.54 107.86 220.68 107 219.62 107Z" fill="#FFC28E"/>
<path d="M193.52 95.82H189.96C188.9 95.82 188.04 96.6796 188.04 97.74V101.3C188.04 102.36 188.9 103.22 189.96 103.22H193.52C194.58 103.22 195.44 102.36 195.44 101.3V97.74C195.44 96.6796 194.58 95.82 193.52 95.82Z" fill="#DD9E6F"/>
<path d="M320 80H240V160H320V80Z" fill="#A5704C"/>
<path d="M271.37 140.48H267.81C266.75 140.48 265.89 141.34 265.89 142.4V145.96C265.89 147.02 266.75 147.88 267.81 147.88H271.37C272.431 147.88 273.29 147.02 273.29 145.96V142.4C273.29 141.34 272.431 140.48 271.37 140.48Z" fill="#FFC28E"/>
<path d="M307.05 126.48H303.49C302.43 126.48 301.57 127.34 301.57 128.4V131.96C301.57 133.02 302.43 133.88 303.49 133.88H307.05C308.11 133.88 308.97 133.02 308.97 131.96V128.4C308.97 127.34 308.11 126.48 307.05 126.48Z" fill="#FFC28E"/>
<path d="M80 160H0V240H80V160Z" fill="#BA8258"/>
<path d="M160 160H80V240H160V160Z" fill="#BA8258"/>
<path d="M128.36 192.6H124.8C123.74 192.6 122.88 193.46 122.88 194.52V198.08C122.88 199.14 123.74 200 124.8 200H128.36C129.42 200 130.28 199.14 130.28 198.08V194.52C130.28 193.46 129.42 192.6 128.36 192.6Z" fill="#DD9E6F"/>
<path d="M80 240H0V320H80V240Z" fill="#A5704C"/>
<path d="M160 240H80V320H160V240Z" fill="#A5704C"/>
<path d="M23.93 107H20.37C19.3096 107 18.45 107.86 18.45 108.92V112.48C18.45 113.54 19.3096 114.4 20.37 114.4H23.93C24.9903 114.4 25.85 113.54 25.85 112.48V108.92C25.85 107.86 24.9903 107 23.93 107Z" fill="#FFC28E"/>
<path d="M33.52 95.82H29.96C28.8997 95.82 28.04 96.6796 28.04 97.74V101.3C28.04 102.36 28.8997 103.22 29.96 103.22H33.52C34.5804 103.22 35.44 102.36 35.44 101.3V97.74C35.44 96.6796 34.5804 95.82 33.52 95.82Z" fill="#DD9E6F"/>
<path d="M240 160H160V240H240V160Z" fill="#BA8258"/>
<path d="M183.93 187H180.37C179.31 187 178.45 187.86 178.45 188.92V192.48C178.45 193.54 179.31 194.4 180.37 194.4H183.93C184.99 194.4 185.85 193.54 185.85 192.48V188.92C185.85 187.86 184.99 187 183.93 187Z" fill="#FFC28E"/>
<path d="M223.614 56.2657L216.655 57.6672C214.311 58.1392 212.794 60.4217 213.266 62.7653L214.667 69.7245C215.139 72.0681 217.422 73.5854 219.765 73.1134L226.725 71.7119C229.068 71.2399 230.585 68.9574 230.113 66.6138L228.712 59.6546C228.24 57.311 225.957 55.7937 223.614 56.2657Z" fill="#7EA4B0" stroke="#925933"/>
<path d="M217.465 58.6924L223.264 57.5244C224.964 57.182 226.62 58.2828 226.963 59.9831L228.131 65.7825C228.473 67.4829 227.372 69.1388 225.672 69.4813L219.873 70.6492C218.172 70.9916 216.516 69.8908 216.174 68.1905L215.006 62.3911C214.663 60.6908 215.764 59.0348 217.465 58.6924Z" fill="#ACC4CC" stroke="#333333" stroke-width="0.1"/>
<path d="M193.52 175.82H189.96C188.9 175.82 188.04 176.68 188.04 177.74V181.3C188.04 182.36 188.9 183.22 189.96 183.22H193.52C194.58 183.22 195.44 182.36 195.44 181.3V177.74C195.44 176.68 194.58 175.82 193.52 175.82Z" fill="#DD9E6F"/>
<path d="M320 160H240V240H320V160Z" fill="#BA8258"/>
<path d="M288.36 192.6H284.8C283.739 192.6 282.88 193.46 282.88 194.52V198.08C282.88 199.14 283.739 200 284.8 200H288.36C289.42 200 290.28 199.14 290.28 198.08V194.52C290.28 193.46 289.42 192.6 288.36 192.6Z" fill="#DD9E6F"/>
<path d="M240 240H160V320H240V240Z" fill="#A5704C"/>
<path d="M125.48 263H121.92C120.86 263 120 263.86 120 264.92V268.48C120 269.54 120.86 270.4 121.92 270.4H125.48C126.54 270.4 127.4 269.54 127.4 268.48V264.92C127.4 263.86 126.54 263 125.48 263Z" fill="#FFC28E"/>
<path d="M219.62 267H216.06C215 267 214.14 267.86 214.14 268.92V272.48C214.14 273.54 215 274.4 216.06 274.4H219.62C220.68 274.4 221.54 273.54 221.54 272.48V268.92C221.54 267.86 220.68 267 219.62 267Z" fill="#FFC28E"/>
<path d="M184.48 296H180.92C179.86 296 179 296.86 179 297.92V301.48C179 302.54 179.86 303.4 180.92 303.4H184.48C185.54 303.4 186.4 302.54 186.4 301.48V297.92C186.4 296.86 185.54 296 184.48 296Z" fill="#DD9E6F"/>
<path d="M320 240H240V320H320V240Z" fill="#A5704C"/>
<path d="M271.37 300.48H267.81C266.75 300.48 265.89 301.34 265.89 302.4V305.96C265.89 307.02 266.75 307.88 267.81 307.88H271.37C272.431 307.88 273.29 307.02 273.29 305.96V302.4C273.29 301.34 272.431 300.48 271.37 300.48Z" fill="#FFC28E"/>
<path d="M307.05 300.48H303.49C302.43 300.48 301.57 301.34 301.57 302.4V305.96C301.57 307.02 302.43 307.88 303.49 307.88H307.05C308.11 307.88 308.97 307.02 308.97 305.96V302.4C308.97 301.34 308.11 300.48 307.05 300.48Z" fill="#FFC28E"/>
<path d="M281.887 285H276.114C274.394 285 273 286.394 273 288.113V293.886C273 295.606 274.394 297 276.114 297H281.887C283.606 297 285 295.606 285 293.886V288.113C285 286.394 283.606 285 281.887 285Z" fill="#875634"/>
<path d="M23.93 187H20.37C19.3096 187 18.45 187.86 18.45 188.92V192.48C18.45 193.54 19.3096 194.4 20.37 194.4H23.93C24.9903 194.4 25.85 193.54 25.85 192.48V188.92C25.85 187.86 24.9903 187 23.93 187Z" fill="#FFC28E"/>
<path d="M59.6199 187H56.0599C54.9995 187 54.1399 187.86 54.1399 188.92V192.48C54.1399 193.54 54.9995 194.4 56.0599 194.4H59.6199C60.6803 194.4 61.5399 193.54 61.5399 192.48V188.92C61.5399 187.86 60.6803 187 59.6199 187Z" fill="#FFC28E"/>
<path d="M33.52 175.82H29.96C28.8997 175.82 28.04 176.68 28.04 177.74V181.3C28.04 182.36 28.8997 183.22 29.96 183.22H33.52C34.5804 183.22 35.44 182.36 35.44 181.3V177.74C35.44 176.68 34.5804 175.82 33.52 175.82Z" fill="#DD9E6F"/>
<path d="M23.48 285.19H19.92C18.8596 285.19 18 286.05 18 287.11V290.67C18 291.73 18.8596 292.59 19.92 292.59H23.48C24.5404 292.59 25.4 291.73 25.4 290.67V287.11C25.4 286.05 24.5404 285.19 23.48 285.19Z" fill="#FFC28E"/>
<path d="M67.48 259H63.92C62.8596 259 62 259.86 62 260.92V264.48C62 265.54 62.8596 266.4 63.92 266.4H67.48C68.5404 266.4 69.4 265.54 69.4 264.48V260.92C69.4 259.86 68.5404 259 67.48 259Z" fill="#FFC28E"/>
<path d="M33.0601 274H29.5001C28.4397 274 27.5801 274.86 27.5801 275.92V279.48C27.5801 280.54 28.4397 281.4 29.5001 281.4H33.0601C34.1205 281.4 34.9801 280.54 34.9801 279.48V275.92C34.9801 274.86 34.1205 274 33.0601 274Z" fill="#DD9E6F"/>
<path d="M65.0584 280.018L53.6285 278.385C49.9506 277.86 46.5432 280.416 46.0179 284.094L44.3855 295.524C43.8602 299.202 46.4159 302.609 50.0938 303.134L61.5238 304.767C65.2017 305.292 68.6091 302.736 69.1344 299.058L70.7668 287.628C71.2921 283.951 68.7364 280.543 65.0584 280.018Z" fill="#7EA4B0" stroke="#925933"/>
<path d="M54.3619 280.056L63.8869 281.416C66.6967 281.818 68.6491 284.421 68.2479 287.23L66.8875 296.755C66.4862 299.565 63.8831 301.518 61.0733 301.116L51.5483 299.756C48.7386 299.355 46.7861 296.752 47.1874 293.942L48.5478 284.417C48.949 281.607 51.5521 279.655 54.3619 280.056Z" fill="#ACC4CC" stroke="#333333" stroke-width="0.1"/>
<path d="M107.592 104.847L99.6477 101.4C97.0282 100.264 93.9833 101.466 92.8468 104.085L89.4002 112.029C88.2637 114.649 89.4659 117.694 92.0854 118.83L100.029 122.277C102.649 123.413 105.694 122.211 106.83 119.592L110.277 111.648C111.413 109.028 110.211 105.983 107.592 104.847Z" fill="#7EA4B0" stroke="#925933"/>
<path d="M99.7924 102.88L106.412 105.752C108.359 106.597 109.252 108.859 108.408 110.806L105.536 117.426C104.691 119.372 102.428 120.266 100.482 119.421L93.8619 116.549C91.9154 115.704 91.0221 113.442 91.8666 111.495L94.7388 104.875C95.5833 102.929 97.8459 102.035 99.7924 102.88Z" fill="#ACC4CC" stroke="#333333" stroke-width="0.1"/>
<path d="M252.703 224.548L241.327 222.573C237.666 221.937 234.184 224.389 233.548 228.05L231.573 239.425C230.937 243.086 233.389 246.568 237.05 247.204L248.425 249.18C252.086 249.815 255.568 247.363 256.204 243.703L258.18 232.327C258.815 228.667 256.363 225.184 252.703 224.548Z" fill="#7EA4B0" stroke="#925933"/>
<path d="M242.01 224.265L251.489 225.911C254.286 226.396 256.159 229.057 255.674 231.853L254.027 241.333C253.542 244.13 250.881 246.003 248.085 245.517L238.605 243.871C235.808 243.386 233.935 240.725 234.421 237.928L236.067 228.449C236.553 225.652 239.213 223.779 242.01 224.265Z" fill="#ACC4CC" stroke="#333333" stroke-width="0.1"/>
</g>
<defs>
<clipPath id="clip0_6510_2310">
<rect width="320" height="320" fill="white"/>
</clipPath>
</defs>
</svg>
