<svg width="17" height="28" viewBox="0 0 17 28" fill="none" xmlns="http://www.w3.org/2000/svg">
<g clip-path="url(#clip0_6928_3192)">
<path d="M8.5614 1.24911C8.54779 1.24911 8.53419 1.24911 8.52058 1.24911C8.49337 1.24911 8.46616 1.24911 8.43743 1.24911C4.06989 1.24911 0.529297 2.54471 0.529297 4.14267V24.4973C0.529297 26.0953 4.06989 27.3909 8.43743 27.3909C9.408 27.3909 10.3377 27.3274 11.1964 27.2095V27.2261C14.2684 26.8285 16.471 25.7566 16.471 24.4973V4.14267C16.471 2.54471 12.9305 1.24911 8.56291 1.24911H8.5614Z" fill="#4169A5" stroke="black" stroke-width="1.05825" stroke-miterlimit="10"/>
<path d="M0.529297 4.14267V24.4973C0.529297 26.0953 4.06989 27.3909 8.43743 27.3909C12.805 27.3909 16.3456 26.0953 16.3456 24.4973V4.14267H0.529297Z" fill="#8FADEF"/>
<path d="M8.43743 7.03622C12.805 7.03622 16.3456 5.74073 16.3456 4.14267C16.3456 2.5446 12.805 1.24911 8.43743 1.24911C4.06989 1.24911 0.529297 2.5446 0.529297 4.14267C0.529297 5.74073 4.06989 7.03622 8.43743 7.03622Z" fill="#A4C2F7"/>
<path d="M16.1279 4.22734C16.1279 4.2863 16.1219 4.34677 16.1128 4.40573C15.8618 2.93476 12.5223 1.77069 8.43898 1.77069C4.35565 1.77069 1.0131 2.93476 0.763653 4.40422C0.753071 4.34526 0.748535 4.2863 0.748535 4.22583C0.748535 2.67323 4.19087 1.41391 8.43746 1.41391C12.6841 1.41391 16.1279 2.67323 16.1279 4.22734Z" fill="#8CB0E5"/>
<path d="M16.3471 4.9182C16.3471 6.51615 12.8065 7.81175 8.43743 7.81175C4.06838 7.81175 0.529297 6.51615 0.529297 4.9182C0.529297 4.85773 0.533832 4.79877 0.544415 4.73981C0.795371 6.25461 4.23317 7.45497 8.43743 7.45497C12.6417 7.45497 16.0795 6.25461 16.3305 4.73981C16.341 4.79877 16.3456 4.85773 16.3456 4.9182H16.3471Z" fill="#4169A5"/>
<path d="M16.3471 10.1188C16.3471 11.7167 12.8065 13.0123 8.43743 13.0123C4.06838 13.0123 0.529297 11.7152 0.529297 10.1188C0.529297 10.0583 0.533832 9.99933 0.544415 9.94037C0.795371 11.4552 4.23317 12.6555 8.43743 12.6555C12.6417 12.6555 16.0795 11.4552 16.3305 9.94037C16.341 9.99933 16.3456 10.0583 16.3456 10.1188H16.3471Z" fill="#4169A5"/>
<path d="M16.3471 16.0933C16.3471 17.6913 12.8065 18.9869 8.43743 18.9869C4.06838 18.9869 0.529297 17.6913 0.529297 16.0933C0.529297 16.0328 0.533832 15.9739 0.544415 15.9149C0.795371 17.4297 4.23317 18.6301 8.43743 18.6301C12.6417 18.6301 16.0795 17.4297 16.3305 15.9149C16.341 15.9739 16.3456 16.0328 16.3456 16.0933H16.3471Z" fill="#4169A5"/>
<path d="M16.3471 23.8397C16.3471 25.4377 12.8065 26.7333 8.43743 26.7333C4.06838 26.7333 0.529297 25.4377 0.529297 23.8397C0.529297 23.7792 0.533832 23.7203 0.544415 23.6613C0.795371 25.1761 4.23317 26.3765 8.43743 26.3765C12.6417 26.3765 16.0795 25.1761 16.3305 23.6613C16.341 23.7203 16.3456 23.7792 16.3456 23.8397H16.3471Z" fill="#4169A5"/>
<g style="mix-blend-mode:soft-light">
<path d="M16.3469 20.9597C14.6053 20.6876 12.1577 19.5432 12.1577 15.2573C12.1577 12.1491 14.6068 10.4967 16.3469 9.71359V20.9597Z" fill="white"/>
</g>
<g style="mix-blend-mode:multiply" opacity="0.23">
<path d="M16.4711 4.14267V24.4973C16.4711 25.7566 14.2699 26.8285 11.1965 27.2261V6.82003C10.8609 4.82599 6.77149 2.7745 4.23926 1.71928C5.48194 1.42146 6.96651 1.24911 8.56145 1.24911C12.929 1.24911 16.4696 2.54471 16.4696 4.14267H16.4711Z" fill="#4A73AF"/>
</g>
<path d="M8.43733 6.75201C12.551 6.75201 15.8859 5.64401 15.8859 4.27722C15.8859 2.91043 12.551 1.80243 8.43733 1.80243C4.3236 1.80243 0.98877 2.91043 0.98877 4.27722C0.98877 5.64401 4.3236 6.75201 8.43733 6.75201Z" fill="#6D93E0"/>
<path d="M12.9695 4.74133C13.6784 4.74133 14.253 4.44893 14.253 4.08824C14.253 3.72755 13.6784 3.43515 12.9695 3.43515C12.2607 3.43515 11.686 3.72755 11.686 4.08824C11.686 4.44893 12.2607 4.74133 12.9695 4.74133Z" fill="#4169A5"/>
</g>
<defs>
<clipPath id="clip0_6928_3192">
<rect width="17" height="27.2" fill="white" transform="translate(0 0.720001)"/>
</clipPath>
</defs>
</svg>
