<svg width="46" height="49" viewBox="0 0 46 49" fill="none" xmlns="http://www.w3.org/2000/svg">
<path d="M44.9923 22.9961C44.9923 10.848 35.1443 1 22.9961 1C10.848 1 1 10.848 1 22.9961C1 35.1443 10.848 44.9923 22.9961 44.9923C35.1443 44.9923 44.9923 35.1443 44.9923 22.9961Z" fill="#93CD5B" stroke="#006837" stroke-width="0.390309" stroke-miterlimit="10"/>
<path d="M22.9923 44.9923C11.4618 44.9923 2.00669 36.1102 1.07744 24.8198C1.03098 25.4238 1 26.0278 1 26.6396C1 38.7895 10.8501 48.6396 23 48.6396C35.15 48.6396 45 38.7895 45 26.6396C45 26.0278 44.969 25.416 44.9226 24.8198C43.9933 36.1179 34.5382 44.9923 23.0078 44.9923H22.9923Z" fill="#006837"/>
<g style="mix-blend-mode:screen">
<path d="M41.3602 17.1612C41.3602 28.4283 32.0987 28.3741 23.2553 28.3741C14.4119 28.3741 5.15039 28.0566 5.15039 17.1612C5.15039 9.82784 14.1486 3.88063 22.992 3.88063C31.8354 3.88063 41.3602 9.82784 41.3602 17.1612Z" fill="#93CD5B"/>
</g>
<g style="mix-blend-mode:screen">
<path d="M33.9784 10.9892C34.6158 9.68704 33.5257 7.84491 31.5436 6.87474C29.5615 5.90457 27.4379 6.17374 26.8006 7.47595C26.1632 8.77815 27.2533 10.6203 29.2354 11.5904C31.2175 12.5606 33.3411 12.2914 33.9784 10.9892Z" fill="#93CD5B"/>
</g>
<path d="M31.5267 27.0887C33.3101 27.0887 34.7559 25.6447 34.7559 23.8634C34.7559 22.0822 33.3101 20.6382 31.5267 20.6382H14.4595C12.6761 20.6382 11.2303 22.0822 11.2303 23.8634C11.2303 25.6447 12.6761 27.0887 14.4595 27.0887H31.5267Z" fill="#289D48"/>
<path d="M26.2205 15.3259C26.2205 13.5425 24.7765 12.0968 22.9953 12.0968C21.214 12.0968 19.77 13.5425 19.77 15.3259V32.3932C19.77 34.1766 21.214 35.6223 22.9953 35.6223C24.7765 35.6223 26.2205 34.1766 26.2205 32.3932V15.3259Z" fill="#289D48"/>
<path d="M14.4576 20.6381H19.7699V21.1105H14.4576C12.754 21.1105 11.3524 22.4347 11.2363 24.0996C11.2285 24.0221 11.2285 23.937 11.2285 23.8595C11.2285 22.094 12.6766 20.6381 14.4576 20.6381Z" fill="#165926"/>
<path d="M26.2133 15.7983C26.2133 14.0172 24.7651 12.5691 22.9918 12.5691C21.2185 12.5691 19.7627 14.0172 19.7627 15.7983V15.3259C19.7627 13.5449 21.2108 12.0968 22.9918 12.0968C24.7729 12.0968 26.2133 13.5449 26.2133 15.3259V15.7983Z" fill="#165926"/>
<path d="M34.7611 23.8596C34.7611 23.937 34.7611 24.0222 34.7534 24.0996C34.6372 22.4347 33.2356 21.1105 31.532 21.1105H26.2197V20.6382H31.532C33.313 20.6382 34.7611 22.0863 34.7611 23.8596Z" fill="#165926"/>
</svg>
