<svg width="80" height="80" viewBox="0 0 80 80" fill="none" xmlns="http://www.w3.org/2000/svg">
<g clip-path="url(#clip0_6506_59)">
<path d="M80 0H0V80H80V0Z" fill="#BA8258"/>
<path d="M21.6649 43H17.3351C16.0455 43 15 44.0455 15 45.3351V49.6649C15 50.9545 16.0455 52 17.3351 52H21.6649C22.9545 52 24 50.9545 24 49.6649V45.3351C24 44.0455 22.9545 43 21.6649 43Z" fill="#FFC28E"/>
<path d="M59.6199 33H56.0599C54.9995 33 54.1399 33.8596 54.1399 34.92V38.48C54.1399 39.5404 54.9995 40.4 56.0599 40.4H59.6199C60.6803 40.4 61.5399 39.5404 61.5399 38.48V34.92C61.5399 33.8596 60.6803 33 59.6199 33Z" fill="#FFC28E"/>
<path d="M50.48 56H46.92C45.8596 56 45 56.8596 45 57.92V61.48C45 62.5404 45.8596 63.4 46.92 63.4H50.48C51.5404 63.4 52.4 62.5404 52.4 61.48V57.92C52.4 56.8596 51.5404 56 50.48 56Z" fill="#F9AD6C"/>
<path d="M33.52 15.82H29.96C28.8997 15.82 28.04 16.6796 28.04 17.74V21.3C28.04 22.3604 28.8997 23.22 29.96 23.22H33.52C34.5804 23.22 35.44 22.3604 35.44 21.3V17.74C35.44 16.6796 34.5804 15.82 33.52 15.82Z" fill="#DD9E6F"/>
</g>
<defs>
<clipPath id="clip0_6506_59">
<rect width="80" height="80" fill="white"/>
</clipPath>
</defs>
</svg>
