<svg width="121" height="34" viewBox="0 0 121 34" fill="none" xmlns="http://www.w3.org/2000/svg">
<g clip-path="url(#clip0_6834_4103)">
<path d="M10.2785 33.0472C4.61069 33.0472 0 28.4365 0 22.7687V10.2785C0 4.61069 4.61069 0 10.2785 0H110.361C112.214 0 114.031 0.499296 115.617 1.44588C115.643 1.46018 115.668 1.47448 115.691 1.48879C115.714 1.50309 115.739 1.51869 115.763 1.5343C118.164 3.01918 119.866 5.45325 120.429 8.20848C120.568 8.88591 120.639 9.58285 120.639 10.2785V22.7687C120.639 28.4365 116.028 33.0472 110.36 33.0472H10.2785Z" fill="#052821"/>
<path d="M109.562 2.06739H11.0768C6.20943 2.06739 2.26367 6.01315 2.26367 10.8805V22.1654C2.26367 27.0327 6.20943 30.9785 11.0768 30.9785H109.562C114.429 30.9785 118.375 27.0327 118.375 22.1654V10.8805C118.375 6.01315 114.429 2.06739 109.562 2.06739Z" fill="#406658"/>
<path d="M109.562 1.06099H11.0768C6.20943 1.06099 2.26367 5.00675 2.26367 9.87409V21.159C2.26367 26.0263 6.20943 29.9721 11.0768 29.9721H109.562C114.429 29.9721 118.375 26.0263 118.375 21.159V9.87409C118.375 5.00675 114.429 1.06099 109.562 1.06099Z" fill="#80B6A4"/>
<path d="M118.376 9.87539V10.0912C118.376 5.2231 114.43 1.27684 109.563 1.27684H11.0782C6.2114 1.27684 2.26514 5.2231 2.26514 10.0912V9.87539C2.26514 5.00725 6.2114 1.06099 11.0782 1.06099H109.563C114.43 1.06099 118.376 5.00725 118.376 9.87539Z" fill="white"/>
<path d="M115.795 12.3446V18.6885C115.795 23.2732 112.079 26.9893 107.496 26.9893H13.1455C8.56084 26.9893 4.84473 23.2732 4.84473 18.6885V12.3446C4.84473 7.76119 8.56084 4.04507 13.1455 4.04507H107.496C112.079 4.04507 115.795 7.76119 115.795 12.3446Z" fill="#356E60"/>
<path d="M115.795 14.3587V18.6885C115.795 23.2732 112.079 26.9893 107.496 26.9893H13.1455C8.56084 26.9893 4.84473 23.2732 4.84473 18.6885V14.3587C4.84473 9.77527 8.56084 6.05916 13.1455 6.05916H107.496C112.079 6.05916 115.795 9.77527 115.795 14.3587Z" fill="#438D7F"/>
<path d="M115.794 14.3574V18.6872C115.794 23.2719 112.078 26.988 107.494 26.988H39.334L45.9172 6.05786H107.494C112.078 6.05786 115.794 9.77397 115.794 14.3574Z" fill="#052821"/>
</g>
<defs>
<clipPath id="clip0_6834_4103">
<rect width="120.64" height="33.0472" fill="white"/>
</clipPath>
</defs>
</svg>
