<svg width="500" height="382" viewBox="0 0 500 382" fill="none" xmlns="http://www.w3.org/2000/svg">
<path d="M500 0H0V382H500V0Z" fill="url(#paint0_linear_6835_2670)"/>
<path d="M184.788 215.99C186.135 215.99 187.227 214.898 187.227 213.551C187.227 212.204 186.135 211.112 184.788 211.112C183.441 211.112 182.35 212.204 182.35 213.551C182.35 214.898 183.441 215.99 184.788 215.99Z" fill="#00FFFF"/>
<path d="M222.821 215.993C223.495 215.993 224.042 215.446 224.042 214.772C224.042 214.098 223.495 213.551 222.821 213.551C222.146 213.551 221.6 214.098 221.6 214.772C221.6 215.446 222.146 215.993 222.821 215.993Z" fill="#00FFFF"/>
<path d="M308.952 149.908C310.129 149.908 311.084 148.953 311.084 147.776C311.084 146.599 310.129 145.644 308.952 145.644C307.774 145.644 306.82 146.599 306.82 147.776C306.82 148.953 307.774 149.908 308.952 149.908Z" fill="#00FFFF"/>
<path d="M342.198 149.908C342.786 149.908 343.264 149.431 343.264 148.842C343.264 148.253 342.786 147.776 342.198 147.776C341.609 147.776 341.132 148.253 341.132 148.842C341.132 149.431 341.609 149.908 342.198 149.908Z" fill="#00FFFF"/>
<path d="M295.26 171.891C295.849 171.891 296.326 171.414 296.326 170.825C296.326 170.236 295.849 169.759 295.26 169.759C294.672 169.759 294.194 170.236 294.194 170.825C294.194 171.414 294.672 171.891 295.26 171.891Z" fill="#00FFFF"/>
<path d="M171.754 117.264C172.932 117.264 173.886 116.309 173.886 115.132C173.886 113.954 172.932 113 171.754 113C170.577 113 169.623 113.954 169.623 115.132C169.623 116.309 170.577 117.264 171.754 117.264Z" fill="#00FFFF"/>
<path d="M205.003 117.264C205.592 117.264 206.069 116.786 206.069 116.198C206.069 115.609 205.592 115.132 205.003 115.132C204.415 115.132 203.938 115.609 203.938 116.198C203.938 116.786 204.415 117.264 205.003 117.264Z" fill="#00FFFF"/>
<path d="M158.066 139.247C158.655 139.247 159.132 138.769 159.132 138.181C159.132 137.592 158.655 137.115 158.066 137.115C157.477 137.115 157 137.592 157 138.181C157 138.769 157.477 139.247 158.066 139.247Z" fill="#00FFFF"/>
<g opacity="0.29">
<path d="M500 0H0V382H500V0Z" fill="url(#paint1_linear_6835_2670)" style="mix-blend-mode:multiply"/>
</g>
<defs>
<linearGradient id="paint0_linear_6835_2670" x1="235.644" y1="-116.735" x2="263.377" y2="469.246" gradientUnits="userSpaceOnUse">
<stop stop-color="#7F47DD"/>
<stop offset="0.91" stop-color="#5A2EFF"/>
</linearGradient>
<linearGradient id="paint1_linear_6835_2670" x1="235.644" y1="-116.735" x2="236.14" y2="619" gradientUnits="userSpaceOnUse">
<stop stop-color="#7F47DD"/>
<stop offset="0.91" stop-color="#5A2EFF"/>
</linearGradient>
</defs>
</svg>
