<svg width="91" height="355" viewBox="0 0 91 355" fill="none" xmlns="http://www.w3.org/2000/svg">
<rect width="91" height="355" fill="#797979"/>
<path d="M0 0H535V302H0V0Z" fill="url(#paint0_linear_5820_2934)"/>
<path d="M535.32 304.97H0V354.81H535.32V304.97Z" fill="#BA8258"/>
<path d="M535.32 291H0V308.51H535.32V291Z" fill="#62C669"/>
<path d="M535.32 297.98H0V308.51H535.32V297.98Z" fill="#124C12"/>
<path d="M32.05 295.52H23.13V304.44H32.05V295.52Z" fill="#124C12"/>
<path d="M64.06 295.52H55.14V304.44H64.06V295.52Z" fill="#124C12"/>
<path d="M96.07 295.52H87.15V304.44H96.07V295.52Z" fill="#124C12"/>
<path d="M128.07 295.52H119.15V304.44H128.07V295.52Z" fill="#124C12"/>
<path d="M160.08 295.52H151.16V304.44H160.08V295.52Z" fill="#124C12"/>
<path d="M192.09 295.52H183.17V304.44H192.09V295.52Z" fill="#124C12"/>
<path d="M224.1 295.52H215.18V304.44H224.1V295.52Z" fill="#124C12"/>
<path d="M256.11 295.52H247.19V304.44H256.11V295.52Z" fill="#124C12"/>
<path d="M288.12 295.52H279.2V304.44H288.12V295.52Z" fill="#124C12"/>
<path d="M320.13 295.52H311.21V304.44H320.13V295.52Z" fill="#124C12"/>
<path d="M352.14 295.52H343.22V304.44H352.14V295.52Z" fill="#124C12"/>
<path d="M384.15 295.52H375.23V304.44H384.15V295.52Z" fill="#124C12"/>
<path d="M416.16 295.52H407.24V304.44H416.16V295.52Z" fill="#124C12"/>
<path d="M448.17 295.52H439.25V304.44H448.17V295.52Z" fill="#124C12"/>
<path d="M480.18 295.52H471.26V304.44H480.18V295.52Z" fill="#124C12"/>
<path d="M512.19 295.52H503.27V304.44H512.19V295.52Z" fill="#124C12"/>
<path d="M535.32 291H0V293.26H535.32V291Z" fill="#C1E153"/>
<path d="M33.65 331.2H28.96C27.5627 331.2 26.43 332.333 26.43 333.73V338.42C26.43 339.817 27.5627 340.95 28.96 340.95H33.65C35.0473 340.95 36.18 339.817 36.18 338.42V333.73C36.18 332.333 35.0473 331.2 33.65 331.2Z" fill="#FFC28E"/>
<path d="M80.65 331.2H75.96C74.5627 331.2 73.43 332.333 73.43 333.73V338.42C73.43 339.817 74.5627 340.95 75.96 340.95H80.65C82.0473 340.95 83.18 339.817 83.18 338.42V333.73C83.18 332.333 82.0473 331.2 80.65 331.2Z" fill="#FFC28E"/>
<path d="M46.27 316.47H41.58C40.1827 316.47 39.05 317.603 39.05 319V323.69C39.05 325.087 40.1827 326.22 41.58 326.22H46.27C47.6673 326.22 48.8 325.087 48.8 323.69V319C48.8 317.603 47.6673 316.47 46.27 316.47Z" fill="#DD9E6F"/>
<path d="M182.38 326.21H187.07C188.467 326.21 189.6 325.077 189.6 323.68V318.99C189.6 317.593 188.467 316.46 187.07 316.46H182.38C180.983 316.46 179.85 317.593 179.85 318.99V323.68C179.85 325.077 180.983 326.21 182.38 326.21Z" fill="#FFC28E"/>
<path d="M135.38 326.21H140.07C141.467 326.21 142.6 325.077 142.6 323.68V318.99C142.6 317.593 141.467 316.46 140.07 316.46H135.38C133.983 316.46 132.85 317.593 132.85 318.99V323.68C132.85 325.077 133.983 326.21 135.38 326.21Z" fill="#FFC28E"/>
<path d="M169.76 340.94H174.45C175.847 340.94 176.98 339.807 176.98 338.41V333.72C176.98 332.323 175.847 331.19 174.45 331.19H169.76C168.363 331.19 167.23 332.323 167.23 333.72V338.41C167.23 339.807 168.363 340.94 169.76 340.94Z" fill="#DD9E6F"/>
<path d="M246.5 331.2H241.81C240.413 331.2 239.28 332.333 239.28 333.73V338.42C239.28 339.817 240.413 340.95 241.81 340.95H246.5C247.897 340.95 249.03 339.817 249.03 338.42V333.73C249.03 332.333 247.897 331.2 246.5 331.2Z" fill="#FFC28E"/>
<path d="M293.5 331.2H288.81C287.413 331.2 286.28 332.333 286.28 333.73V338.42C286.28 339.817 287.413 340.95 288.81 340.95H293.5C294.897 340.95 296.03 339.817 296.03 338.42V333.73C296.03 332.333 294.897 331.2 293.5 331.2Z" fill="#FFC28E"/>
<path d="M259.13 316.47H254.44C253.043 316.47 251.91 317.603 251.91 319V323.69C251.91 325.087 253.043 326.22 254.44 326.22H259.13C260.527 326.22 261.66 325.087 261.66 323.69V319C261.66 317.603 260.527 316.47 259.13 316.47Z" fill="#DD9E6F"/>
<path d="M459.36 331.2H454.67C453.273 331.2 452.14 332.333 452.14 333.73V338.42C452.14 339.817 453.273 340.95 454.67 340.95H459.36C460.757 340.95 461.89 339.817 461.89 338.42V333.73C461.89 332.333 460.757 331.2 459.36 331.2Z" fill="#FFC28E"/>
<path d="M506.36 331.2H501.67C500.273 331.2 499.14 332.333 499.14 333.73V338.42C499.14 339.817 500.273 340.95 501.67 340.95H506.36C507.757 340.95 508.89 339.817 508.89 338.42V333.73C508.89 332.333 507.757 331.2 506.36 331.2Z" fill="#FFC28E"/>
<path d="M471.99 316.47H467.3C465.903 316.47 464.77 317.603 464.77 319V323.69C464.77 325.087 465.903 326.22 467.3 326.22H471.99C473.387 326.22 474.52 325.087 474.52 323.69V319C474.52 317.603 473.387 316.47 471.99 316.47Z" fill="#DD9E6F"/>
<path d="M395.25 326.21H399.94C401.337 326.21 402.47 325.077 402.47 323.68V318.99C402.47 317.593 401.337 316.46 399.94 316.46H395.25C393.853 316.46 392.72 317.593 392.72 318.99V323.68C392.72 325.077 393.853 326.21 395.25 326.21Z" fill="#FFC28E"/>
<path d="M348.25 326.21H352.94C354.337 326.21 355.47 325.077 355.47 323.68V318.99C355.47 317.593 354.337 316.46 352.94 316.46H348.25C346.853 316.46 345.72 317.593 345.72 318.99V323.68C345.72 325.077 346.853 326.21 348.25 326.21Z" fill="#FFC28E"/>
<path d="M382.61 340.94H387.3C388.697 340.94 389.83 339.807 389.83 338.41V333.72C389.83 332.323 388.697 331.19 387.3 331.19H382.61C381.213 331.19 380.08 332.323 380.08 333.72V338.41C380.08 339.807 381.213 340.94 382.61 340.94Z" fill="#DD9E6F"/>
<defs>
<linearGradient id="paint0_linear_5820_2934" x1="267.66" y1="0" x2="267.66" y2="354.81" gradientUnits="userSpaceOnUse">
<stop stop-color="#0DD6DA"/>
<stop offset="0.548587" stop-color="#039EF2"/>
<stop offset="0.965007" stop-color="#055ADC"/>
</linearGradient>
</defs>
</svg>
