<svg width="86" height="37" viewBox="0 0 86 37" fill="none" xmlns="http://www.w3.org/2000/svg">
<g filter="url(#filter0_d_8759_1775)">
<rect x="3" y="2.56358" width="80.1035" height="28.4843" rx="14.2421" fill="#B74D0F"/>
</g>
<rect x="3" width="80.1035" height="28.4843" rx="14.2421" fill="url(#paint0_linear_8759_1775)"/>
<rect x="4.44647" y="1.16501" width="77.2101" height="26.1543" rx="13.0771" stroke="white" stroke-width="0.620958" style="mix-blend-mode:soft-light"/>
<path d="M31.2282 18.8305V9.93739H34.5631C35.2463 9.93739 35.8195 10.0648 36.2827 10.3195C36.7488 10.5743 37.1005 10.9246 37.3379 11.3704C37.5782 11.8133 37.6983 12.317 37.6983 12.8815C37.6983 13.4518 37.5782 13.9584 37.3379 14.4013C37.0976 14.8443 36.743 15.1931 36.274 15.4478C35.805 15.6997 35.2275 15.8256 34.5414 15.8256H32.3311V14.5012H34.3243C34.7238 14.5012 35.0509 14.4317 35.3057 14.2928C35.5604 14.1538 35.7486 13.9628 35.8702 13.7196C35.9946 13.4764 36.0569 13.1971 36.0569 12.8815C36.0569 12.566 35.9946 12.2881 35.8702 12.0478C35.7486 11.8075 35.559 11.6208 35.3013 11.4876C35.0466 11.3516 34.718 11.2835 34.3156 11.2835H32.8392V18.8305H31.2282ZM40.6001 9.93739V18.8305H39.0281V9.93739H40.6001ZM44.1358 18.9652C43.7132 18.9652 43.3325 18.8899 42.9938 18.7394C42.658 18.5859 42.3917 18.3601 42.1948 18.0619C42.0009 17.7638 41.9039 17.3961 41.9039 16.959C41.9039 16.5827 41.9734 16.2714 42.1123 16.0254C42.2513 15.7793 42.4409 15.5825 42.6812 15.4348C42.9214 15.2872 43.1921 15.1757 43.4932 15.1005C43.7971 15.0223 44.1112 14.9658 44.4355 14.9311C44.8263 14.8906 45.1433 14.8544 45.3864 14.8225C45.6296 14.7878 45.8062 14.7357 45.9162 14.6662C46.0291 14.5938 46.0856 14.4824 46.0856 14.3319V14.3058C46.0856 13.9787 45.9886 13.7254 45.7946 13.5459C45.6007 13.3664 45.3213 13.2767 44.9566 13.2767C44.5715 13.2767 44.2661 13.3606 44.0403 13.5285C43.8174 13.6964 43.6669 13.8947 43.5887 14.1234L42.121 13.915C42.2368 13.5097 42.4279 13.171 42.6942 12.8989C42.9605 12.6239 43.2862 12.4183 43.6712 12.2823C44.0562 12.1433 44.4818 12.0738 44.9479 12.0738C45.2692 12.0738 45.5891 12.1115 45.9075 12.1867C46.226 12.262 46.5169 12.3865 46.7803 12.5602C47.0438 12.731 47.2551 12.964 47.4143 13.2593C47.5764 13.5546 47.6575 13.9237 47.6575 14.3666V18.8305H46.1464V17.9143H46.0943C45.9987 18.0996 45.8641 18.2733 45.6904 18.4354C45.5196 18.5946 45.3039 18.7234 45.0434 18.8219C44.7858 18.9174 44.4832 18.9652 44.1358 18.9652ZM44.544 17.8101C44.8596 17.8101 45.1331 17.7479 45.3647 17.6234C45.5963 17.496 45.7744 17.3281 45.8988 17.1197C46.0262 16.9112 46.0899 16.684 46.0899 16.4379V15.6519C46.0407 15.6925 45.9567 15.7301 45.8381 15.7648C45.7223 15.7996 45.592 15.83 45.4472 15.856C45.3025 15.8821 45.1592 15.9052 45.0173 15.9255C44.8755 15.9458 44.7525 15.9631 44.6482 15.9776C44.4138 16.0095 44.2039 16.0616 44.0186 16.1339C43.8333 16.2063 43.6871 16.3076 43.58 16.4379C43.4729 16.5653 43.4194 16.7303 43.4194 16.9329C43.4194 17.2224 43.525 17.441 43.7363 17.5886C43.9477 17.7363 44.2169 17.8101 44.544 17.8101ZM49.9763 21.3317C49.7621 21.3317 49.5638 21.3144 49.3814 21.2796C49.2019 21.2478 49.0586 21.2102 48.9515 21.1667L49.3163 19.9422C49.545 20.0088 49.7491 20.0406 49.9286 20.0377C50.108 20.0348 50.2658 19.9784 50.4019 19.8684C50.5408 19.7613 50.6581 19.5818 50.7536 19.3299L50.8882 18.9695L48.4695 12.1607H50.137L51.6742 17.1978H51.7437L53.2852 12.1607H54.957L52.2865 19.6382C52.162 19.9914 51.997 20.2939 51.7914 20.5458C51.5859 20.8005 51.334 20.9945 51.0359 21.1277C50.7406 21.2637 50.3874 21.3317 49.9763 21.3317Z" fill="#871E09"/>
<defs>
<filter id="filter0_d_8759_1775" x="0.51617" y="2.56358" width="85.0712" height="33.452" filterUnits="userSpaceOnUse" color-interpolation-filters="sRGB">
<feFlood flood-opacity="0" result="BackgroundImageFix"/>
<feColorMatrix in="SourceAlpha" type="matrix" values="0 0 0 0 0 0 0 0 0 0 0 0 0 0 0 0 0 0 127 0" result="hardAlpha"/>
<feOffset dy="2.48383"/>
<feGaussianBlur stdDeviation="1.24192"/>
<feComposite in2="hardAlpha" operator="out"/>
<feColorMatrix type="matrix" values="0 0 0 0 0 0 0 0 0 0 0 0 0 0 0 0 0 0 0.25 0"/>
<feBlend mode="normal" in2="BackgroundImageFix" result="effect1_dropShadow_8759_1775"/>
<feBlend mode="normal" in="SourceGraphic" in2="effect1_dropShadow_8759_1775" result="shape"/>
</filter>
<linearGradient id="paint0_linear_8759_1775" x1="43.0518" y1="0" x2="43.0518" y2="28.4843" gradientUnits="userSpaceOnUse">
<stop stop-color="#FFFF50"/>
<stop offset="0.703587" stop-color="#F28A22"/>
<stop offset="1" stop-color="#F28A22"/>
</linearGradient>
</defs>
</svg>
