<svg width="61" height="22" viewBox="0 0 61 22" fill="none" xmlns="http://www.w3.org/2000/svg">
<g clip-path="url(#clip0_6867_3317)">
<path d="M56.995 0.625H3.625C1.975 0.625 0.625 1.975 0.625 3.625V17.5625C0.625 19.2125 1.975 20.5625 3.625 20.5625H56.995C58.645 20.5625 59.995 19.2125 59.995 17.5625V3.625C59.995 1.975 58.645 0.625 56.995 0.625Z" stroke="#2D1B07" stroke-width="1.25" stroke-miterlimit="10"/>
<path d="M56.995 2.4675H3.625C1.96815 2.4675 0.625 3.81064 0.625 5.4675V17.5625C0.625 19.2194 1.96815 20.5625 3.625 20.5625H56.995C58.6519 20.5625 59.995 19.2194 59.995 17.5625V5.4675C59.995 3.81064 58.6519 2.4675 56.995 2.4675Z" fill="#953E24"/>
<path d="M56.995 0.625H3.625C1.96815 0.625 0.625 1.96815 0.625 3.625V15.72C0.625 17.3769 1.96815 18.72 3.625 18.72H56.995C58.6519 18.72 59.995 17.3769 59.995 15.72V3.625C59.995 1.96815 58.6519 0.625 56.995 0.625Z" fill="#FCBF33"/>
<path d="M58.9976 4.4225V10.4925H1.62256V4.4225C1.62256 2.8625 2.91006 1.5875 4.48506 1.5875H56.1326C57.7076 1.5875 58.9951 2.8625 58.9951 4.4225H58.9976Z" fill="#FFD452"/>
<path d="M58.0191 4.05878C58.2725 3.61994 57.9457 2.95695 57.2892 2.57795C56.6328 2.19894 55.8952 2.24744 55.6419 2.68628C55.3885 3.12511 55.7153 3.7881 56.3717 4.16711C57.0282 4.54611 57.7657 4.49761 58.0191 4.05878Z" fill="#FDEE97"/>
<path d="M2.77492 3.385C3.28164 3.385 3.69242 2.97422 3.69242 2.4675C3.69242 1.96078 3.28164 1.55 2.77492 1.55C2.2682 1.55 1.85742 1.96078 1.85742 2.4675C1.85742 2.97422 2.2682 3.385 2.77492 3.385Z" fill="#FDEE97"/>
<path d="M58.9976 15.5575V15.9175C58.9976 16.94 58.1701 17.77 57.1476 17.77H3.47256C2.45256 17.77 1.62256 16.94 1.62256 15.9175V15.5575C1.62256 16.58 2.45256 17.41 3.47256 17.41H57.1476C58.1701 17.41 58.9976 16.58 58.9976 15.5575Z" fill="#D38E3C"/>
<path d="M22.3623 12.35V6.5325H24.7648C25.1998 6.5325 25.5773 6.6175 25.8948 6.7875C26.2123 6.9575 26.4573 7.1925 26.6298 7.495C26.8023 7.7975 26.8873 8.1475 26.8873 8.5475C26.8873 8.9475 26.7998 9.3 26.6248 9.6C26.4498 9.9 26.1998 10.1325 25.8773 10.2975C25.5548 10.4625 25.1698 10.545 24.7248 10.545H23.2423V9.4375H24.4648C24.6773 9.4375 24.8548 9.4 24.9973 9.3275C25.1398 9.2525 25.2498 9.15 25.3223 9.0175C25.3948 8.885 25.4323 8.7275 25.4323 8.55C25.4323 8.3725 25.3948 8.215 25.3223 8.0825C25.2473 7.95 25.1398 7.85 24.9948 7.7775C24.8498 7.705 24.6748 7.67 24.4648 7.67H23.7723V12.355H22.3673L22.3623 12.35Z" stroke="#42210B" stroke-width="1.75" stroke-linecap="round" stroke-linejoin="round"/>
<path d="M28.9676 6.53V12.3475H27.5776V6.53H28.9676Z" stroke="#42210B" stroke-width="1.75" stroke-linecap="round" stroke-linejoin="round"/>
<path d="M31.0775 12.4225C30.8 12.4225 30.5525 12.375 30.3375 12.2825C30.1225 12.19 29.9525 12.0475 29.83 11.8575C29.7075 11.6675 29.645 11.4275 29.645 11.14C29.645 10.8975 29.6875 10.6925 29.7725 10.5275C29.8575 10.3625 29.975 10.225 30.125 10.1225C30.275 10.0175 30.4475 9.94 30.6425 9.885C30.8375 9.83 31.045 9.795 31.2675 9.775C31.515 9.7525 31.715 9.7275 31.8675 9.7025C32.02 9.6775 32.13 9.64 32.1975 9.5925C32.2675 9.545 32.3025 9.475 32.3025 9.3875V9.3725C32.3025 9.2275 32.2525 9.115 32.1525 9.035C32.0525 8.955 31.9175 8.915 31.7475 8.915C31.565 8.915 31.415 8.955 31.305 9.035C31.1925 9.115 31.1225 9.225 31.0925 9.365L29.8125 9.32C29.85 9.055 29.9475 8.8175 30.1075 8.6075C30.265 8.3975 30.4825 8.2325 30.76 8.1125C31.0375 7.9925 31.37 7.9325 31.7625 7.9325C32.04 7.9325 32.2975 7.965 32.5325 8.03C32.7675 8.095 32.9725 8.19 33.145 8.315C33.32 8.44 33.455 8.59 33.55 8.77C33.645 8.95 33.6925 9.155 33.6925 9.3875V12.3525H32.385V11.745H32.35C32.2725 11.8925 32.1725 12.0175 32.0525 12.12C31.9325 12.2225 31.79 12.3 31.63 12.35C31.4675 12.4 31.285 12.4275 31.0825 12.4275L31.0775 12.4225ZM31.5075 11.515C31.6575 11.515 31.7925 11.485 31.9125 11.425C32.0325 11.365 32.13 11.28 32.2 11.1725C32.2725 11.065 32.3075 10.94 32.3075 10.8V10.385C32.2675 10.405 32.22 10.425 32.165 10.4425C32.11 10.46 32.0475 10.475 31.9825 10.49C31.915 10.505 31.8475 10.5175 31.7775 10.53C31.7075 10.5425 31.64 10.5525 31.575 10.56C31.445 10.58 31.3325 10.6125 31.2425 10.6575C31.15 10.7 31.08 10.7575 31.0325 10.8275C30.985 10.8975 30.96 10.9775 30.96 11.0725C30.96 11.2175 31.0125 11.3275 31.115 11.4025C31.2175 11.4775 31.35 11.515 31.5075 11.515Z" stroke="#42210B" stroke-width="1.75" stroke-linecap="round" stroke-linejoin="round"/>
<path d="M35.2224 13.985C35.0549 13.985 34.8974 13.9725 34.7499 13.9475C34.6024 13.9225 34.4749 13.8875 34.3699 13.8475L34.6774 12.84C34.8149 12.885 34.9374 12.9125 35.0474 12.92C35.1574 12.9275 35.2549 12.91 35.3349 12.8675C35.4149 12.825 35.4774 12.75 35.5199 12.6425L35.5749 12.5125L34.0249 7.99H35.4799L36.2849 11.1025H36.3299L37.1449 7.99H38.6074L36.9624 12.77C36.8824 13.0075 36.7699 13.22 36.6249 13.4025C36.4799 13.585 36.2924 13.73 36.0649 13.8325C35.8374 13.935 35.5549 13.9875 35.2224 13.9875V13.985Z" stroke="#42210B" stroke-width="1.75" stroke-linecap="round" stroke-linejoin="round"/>
<path d="M22.3623 12.35V6.5325H24.7648C25.1998 6.5325 25.5773 6.6175 25.8948 6.7875C26.2123 6.9575 26.4573 7.1925 26.6298 7.495C26.8023 7.7975 26.8873 8.1475 26.8873 8.5475C26.8873 8.9475 26.7998 9.3 26.6248 9.6C26.4498 9.9 26.1998 10.1325 25.8773 10.2975C25.5548 10.4625 25.1698 10.545 24.7248 10.545H23.2423V9.4375H24.4648C24.6773 9.4375 24.8548 9.4 24.9973 9.3275C25.1398 9.2525 25.2498 9.15 25.3223 9.0175C25.3948 8.885 25.4323 8.7275 25.4323 8.55C25.4323 8.3725 25.3948 8.215 25.3223 8.0825C25.2473 7.95 25.1398 7.85 24.9948 7.7775C24.8498 7.705 24.6748 7.67 24.4648 7.67H23.7723V12.355H22.3673L22.3623 12.35Z" fill="white"/>
<path d="M28.9676 6.53V12.3475H27.5776V6.53H28.9676Z" fill="white"/>
<path d="M31.0775 12.4225C30.8 12.4225 30.5525 12.375 30.3375 12.2825C30.1225 12.19 29.9525 12.0475 29.83 11.8575C29.7075 11.6675 29.645 11.4275 29.645 11.14C29.645 10.8975 29.6875 10.6925 29.7725 10.5275C29.8575 10.3625 29.975 10.225 30.125 10.1225C30.275 10.0175 30.4475 9.94 30.6425 9.885C30.8375 9.83 31.045 9.795 31.2675 9.775C31.515 9.7525 31.715 9.7275 31.8675 9.7025C32.02 9.6775 32.13 9.64 32.1975 9.5925C32.2675 9.545 32.3025 9.475 32.3025 9.3875V9.3725C32.3025 9.2275 32.2525 9.115 32.1525 9.035C32.0525 8.955 31.9175 8.915 31.7475 8.915C31.565 8.915 31.415 8.955 31.305 9.035C31.1925 9.115 31.1225 9.225 31.0925 9.365L29.8125 9.32C29.85 9.055 29.9475 8.8175 30.1075 8.6075C30.265 8.3975 30.4825 8.2325 30.76 8.1125C31.0375 7.9925 31.37 7.9325 31.7625 7.9325C32.04 7.9325 32.2975 7.965 32.5325 8.03C32.7675 8.095 32.9725 8.19 33.145 8.315C33.32 8.44 33.455 8.59 33.55 8.77C33.645 8.95 33.6925 9.155 33.6925 9.3875V12.3525H32.385V11.745H32.35C32.2725 11.8925 32.1725 12.0175 32.0525 12.12C31.9325 12.2225 31.79 12.3 31.63 12.35C31.4675 12.4 31.285 12.4275 31.0825 12.4275L31.0775 12.4225ZM31.5075 11.515C31.6575 11.515 31.7925 11.485 31.9125 11.425C32.0325 11.365 32.13 11.28 32.2 11.1725C32.2725 11.065 32.3075 10.94 32.3075 10.8V10.385C32.2675 10.405 32.22 10.425 32.165 10.4425C32.11 10.46 32.0475 10.475 31.9825 10.49C31.915 10.505 31.8475 10.5175 31.7775 10.53C31.7075 10.5425 31.64 10.5525 31.575 10.56C31.445 10.58 31.3325 10.6125 31.2425 10.6575C31.15 10.7 31.08 10.7575 31.0325 10.8275C30.985 10.8975 30.96 10.9775 30.96 11.0725C30.96 11.2175 31.0125 11.3275 31.115 11.4025C31.2175 11.4775 31.35 11.515 31.5075 11.515Z" fill="white"/>
<path d="M35.2224 13.985C35.0549 13.985 34.8974 13.9725 34.7499 13.9475C34.6024 13.9225 34.4749 13.8875 34.3699 13.8475L34.6774 12.84C34.8149 12.885 34.9374 12.9125 35.0474 12.92C35.1574 12.9275 35.2549 12.91 35.3349 12.8675C35.4149 12.825 35.4774 12.75 35.5199 12.6425L35.5749 12.5125L34.0249 7.99H35.4799L36.2849 11.1025H36.3299L37.1449 7.99H38.6074L36.9624 12.77C36.8824 13.0075 36.7699 13.22 36.6249 13.4025C36.4799 13.585 36.2924 13.73 36.0649 13.8325C35.8374 13.935 35.5549 13.9875 35.2224 13.9875V13.985Z" fill="white"/>
</g>
<defs>
<clipPath id="clip0_6867_3317">
<rect width="60.62" height="21.1875" fill="white"/>
</clipPath>
</defs>
</svg>
