<svg width="23" height="17" viewBox="0 0 23 17" fill="none" xmlns="http://www.w3.org/2000/svg">
<g clip-path="url(#clip0_6928_3159)">
<path d="M22.5014 4.46537L20.2629 1.28791L17.6804 0.498535C16.2695 0.611541 14.8602 0.73618 13.4543 0.902365C12.0019 1.12007 10.5577 1.37599 9.11356 1.63358L0.855833 7.07115L0.498535 11.4302L6.57426 16.095H15.2475L22.4998 10.581V4.46537H22.5014Z" fill="#A3A3A3" stroke="black" stroke-width="0.99711" stroke-linecap="round" stroke-linejoin="round"/>
<path d="M22.5014 4.46538V10.581L15.2491 16.095H6.57592L0.498535 11.4302L0.855833 7.07116L9.11024 1.63193C10.5544 1.37434 12.0002 1.12008 13.451 0.900717C14.8569 0.734532 16.2678 0.611555 17.6771 0.496887L20.2596 1.28627L21.3614 2.85007L22.4981 4.46372L22.5014 4.46538Z" fill="#828282"/>
<path d="M21.3648 2.85173L14.1624 8.43222H7.69447L0.855957 7.07116L9.11036 1.63193C10.5545 1.37434 12.0003 1.12008 13.4511 0.900717C14.857 0.734532 16.268 0.611555 17.6772 0.496887L20.2597 1.28627L21.3615 2.85007L21.3648 2.85173Z" fill="#E2E2E2"/>
<path d="M7.69431 8.43054L6.57422 16.095H15.2491L14.1622 8.43054H7.69431Z" fill="#AAAAAA"/>
<path d="M0.855833 7.07117L0.498535 11.4302L6.57426 16.095L7.69434 8.43056L0.855833 7.07117Z" fill="#C4C4C4"/>
<path d="M4.81592 7.85889L11.4999 8.43056L7.47488 9.93288L4.81592 7.85889Z" fill="#CECECE"/>
<path d="M20.2614 1.28625L19.4321 4.34738L22.5016 4.46537L20.2614 1.28625Z" fill="#A3A3A3"/>
<path d="M9.11035 1.63192L12.5288 5.43091L11.5001 8.43054H14.1624L19.4321 4.34738L20.263 1.28625L17.6805 0.498535C17.6805 0.498535 11.0381 0.998752 9.11368 1.63192H9.11035Z" fill="#F2F2F2"/>
<path d="M12.5287 5.43091L15.9604 7.03792L14.1623 8.43055H11.5L12.5287 5.43091Z" fill="#CCCCCC"/>
</g>
<defs>
<clipPath id="clip0_6928_3159">
<rect width="23" height="16.5936" fill="white"/>
</clipPath>
</defs>
</svg>
