<svg width="211" height="234" viewBox="0 0 211 234" fill="none" xmlns="http://www.w3.org/2000/svg">
<path d="M84.9229 76.9668C86.1189 76.9668 87.0884 75.9973 87.0884 74.8013C87.0884 73.6053 86.1189 72.6357 84.9229 72.6357C83.7269 72.6357 82.7573 73.6053 82.7573 74.8013C82.7573 75.9973 83.7269 76.9668 84.9229 76.9668Z" fill="#FEFEFE"/>
<path d="M118.698 76.9669C119.296 76.9669 119.781 76.4821 119.781 75.8841C119.781 75.2861 119.296 74.8013 118.698 74.8013C118.1 74.8013 117.615 75.2861 117.615 75.8841C117.615 76.4821 118.1 76.9669 118.698 76.9669Z" fill="#FEFEFE"/>
<path d="M71.0183 99.2974C71.6163 99.2974 72.1011 98.8126 72.1011 98.2146C72.1011 97.6166 71.6163 97.1318 71.0183 97.1318C70.4203 97.1318 69.9355 97.6166 69.9355 98.2146C69.9355 98.8126 70.4203 99.2974 71.0183 99.2974Z" fill="#FEFEFE"/>
<path d="M87.1641 108.086L86.03 108.299L85.9512 108.032L87.1641 108.086Z" fill="url(#paint0_linear_8701_2523)"/>
<path d="M25.3397 56.0309L38.2268 51.0796L34.6324 81.6441L38.035 85.0809C29.7428 87.3903 21.0052 89.8026 17.8357 90.6147L5 156.311L49.2225 169.243L69.3635 165.429L67.0883 158.021L67.5474 158.041L73.7357 164.607L99.4996 159.727L99.4174 159.46L102.285 151.966L103.06 159.621L122.687 159.803L124.311 136.862L131.284 149.324L131.178 149.318L141.656 167.865L159.135 171.922L175.304 162.828L173.629 160.485L191.823 165.974L206.345 151.716L201.541 131.438L190.381 129.214L197.258 123.167L194.955 109.519L176.524 105.9L175.808 103.505L186.636 105.736L193.513 101.014L191.844 89.8883L182.496 87.7056L185.741 84.3408L180.293 61.3352L159.895 57.2713L158.494 52.9025L171.655 56.401L175.431 51.95L172.817 36.4656L151.908 32.3606L150.366 27.1935L167.053 30.8598L171.179 26.8165L169.287 14.1967L129.375 8.24488L124.753 20.2342L121.583 6.45967L108.645 5.06508L106.579 9.80051V27.5567L109.43 27.1147L95.3501 29.2939L97.9783 28.8862L98.3723 10.5338L96.4398 5.01025L76.871 9.1015L75.7711 16.4856L71.7244 9.00214L23.5237 26.4122L19.6586 46.8308L25.3192 56.0447L25.3397 56.0309ZM133.905 104.845L146.57 83.7788L149.818 84.4538L143.911 96.4843L154.392 133.528L133.905 104.848V104.845ZM96.0628 74.3388L97.012 56.3873L107.411 55.2326L107.24 73.4273L105.136 73.0778L104.242 84.6046L96.0594 74.3422L96.0628 74.3388ZM67.4207 72.6906L71.4023 76.9909L65.0187 78.2381L67.4173 42.0748L72.2658 40.1217L67.4173 72.6906H67.4207Z" fill="#111154" stroke="#020026" stroke-width="8.09341"/>
<path d="M119.158 13.1277L115.8 43.8772L86.9826 38.8093L78.7316 21.9098L71.745 8.99188L19.6792 46.8205L25.3398 56.0344L38.3639 51.0317L34.6359 81.651L41.6294 88.7096L62.0822 91.7386L92.4788 77.0971L96.0663 74.3388L97.0154 56.3873L107.415 55.2326L107.233 74.5135L110.526 78.1388L135.228 81.8805L141.677 73.7597L119.161 13.1311L119.158 13.1277ZM73.1053 78.8275L68.8085 80.1159L65.0187 78.2382L67.4173 42.0748L78.7282 37.521L67.4173 72.6907L73.1019 78.8275H73.1053Z" fill="#292166"/>
<path d="M57.9463 31.4183L67.4206 42.0713L78.7315 37.5209L70.573 26.2751L57.9463 31.4183Z" fill="#111154"/>
<path d="M129.396 8.23114L124.006 22.2044L132.98 68.3184L137.174 80.27L139.853 82.3808L179.652 90.6558L185.755 84.3304L180.307 61.3249L159.909 57.261L158.507 52.8888L171.672 56.3907L175.448 51.9397L164.637 39.1862L151.925 32.3503L150.383 27.1831L167.074 30.8461L171.199 26.8062L150.027 18.2948L129.396 8.23114Z" fill="#292166"/>
<path d="M99.506 159.724L73.7421 164.603L66.8822 157.325L69.3699 165.429L49.2289 169.243L5.00293 156.314C6.0069 155.8 7.03827 155.297 8.08679 154.814C48.1255 136.043 118.324 132.552 118.324 132.552L119.157 156.003L103.07 159.618L102.295 151.963L99.4272 159.457" fill="#292166"/>
<path d="M175.318 162.825L137.924 161.163L124.324 136.859L122.697 159.799L103.07 159.614L102.295 151.959L99.4239 159.453L7.87793 155.386L8.08695 154.81L14.3061 137.476L22.1528 100.517L55.7839 80.1192L62.1435 95.3329L69.2227 83.6348L94.5686 72.4644L109.817 91.5878L114.96 79.6704L139.85 82.3807L133.905 104.848L175.318 162.825Z" fill="#292166"/>
<path d="M175.321 162.825L159.151 171.919L141.673 167.865L131.191 149.318L155.543 150.719L175.321 162.825Z" fill="#292166"/>
<path d="M206.358 151.709L191.837 165.97L160.933 156.643L143.91 96.4843L151.757 80.5065L193.526 101.004L186.652 105.726L175.825 103.495L167.961 100.562L169.612 110.344L197.271 123.16L188.283 131.068L198.834 139.213L206.358 151.709Z" fill="#292166"/>
<path d="M23.5443 26.3985L71.745 8.9884L70.5731 26.2751L57.9464 31.4183L52.5565 74.7465L34.6325 81.6475L39.6557 38.9155L19.6792 46.8205L23.5443 26.3985Z" fill="url(#paint1_linear_8701_2523)"/>
<path d="M180.307 61.3249L159.909 57.261L156.736 47.3618L175.448 51.9397L172.833 36.4553L151.925 32.3503L148.7 21.5431L171.199 26.8062L169.307 14.183L129.396 8.23114L146.761 75.2639L185.755 84.3304L180.307 61.3249Z" fill="url(#paint2_linear_8701_2523)"/>
<path d="M201.554 131.431L183.575 127.847L180.779 119.123L197.271 123.16L194.969 109.508L176.537 105.89L173.697 96.3643L193.526 101.004L191.857 89.878L151.757 80.5065L171.987 143.722L206.358 151.709L201.554 131.431Z" fill="url(#paint3_linear_8701_2523)"/>
<path d="M110.869 67.0403L136.451 70.9877L121.604 6.44599L108.665 5.0514L109.45 27.101L95.3704 29.2802L96.4601 5L76.8913 9.08782L67.4204 72.6906L92.2352 67.2391L93.6024 47.0844L110.108 45.611L110.869 67.0403Z" fill="url(#paint4_linear_8701_2523)"/>
<path d="M49.9861 119.966L43.3593 143.986L5.00293 156.311L17.8386 90.6147C24.5066 88.9083 55.7872 80.1193 55.7872 80.1193L53.2721 94.401L31.5241 101.604L24.5923 129.009L49.993 119.966H49.9861Z" fill="url(#paint5_linear_8701_2523)"/>
<path d="M133.901 104.848L148.642 80.3283L105.136 73.0744L100.441 133.686L118.321 132.552L120.699 109.55L153.59 159.015L175.321 162.828L133.905 104.852L133.901 104.848ZM121.604 98.7561L122.659 83.2134L135.224 85.379L121.604 98.7561Z" fill="url(#paint6_linear_8701_2523)"/>
<path d="M62.3769 78.7521L51.6382 141.156L90.3543 134.546L94.5689 72.4644L62.3769 78.7521ZM80.0508 117.962L65.5018 120.237L69.9392 88.6307C70.998 88.2298 83.8748 85.1493 83.8748 85.1493L80.0508 117.962Z" fill="url(#paint7_linear_8701_2523)"/>
<path d="M96.4597 5L98.3923 10.5235L97.9983 28.8725L95.3701 29.2802L96.4597 5Z" fill="#292166"/>
<path d="M108.665 5.05139L106.599 9.7834V27.543L109.45 27.101L108.665 5.05139Z" fill="#292166"/>
<path d="M93.6025 47.0843L97.0119 56.3838L107.411 55.2291L110.108 45.6109L93.6025 47.0843Z" fill="#11113D"/>
<path d="M31.521 101.603L42.0678 112.301L57.1581 109.097L53.269 94.4009L31.521 101.603Z" fill="#111154"/>
<path d="M43.3592 143.989L69.3699 165.429L49.2289 169.243L5.00293 156.311L43.3592 143.989Z" fill="#111154"/>
<path d="M51.6411 141.156L73.7421 164.603L99.4238 159.453L90.3572 134.546L51.6411 141.156Z" fill="#111154"/>
<path d="M100.441 133.686L103.07 159.614L122.697 159.799L118.321 132.552L100.441 133.686Z" fill="#111154"/>
<path d="M153.59 159.011L141.673 167.865L159.151 171.919L175.321 162.825L153.59 159.011Z" fill="#111154"/>
<path d="M171.987 143.722L166.943 151.099L173.646 160.481L191.837 165.97L206.358 151.709L171.987 143.722Z" fill="#111154"/>
<path d="M19.6792 46.8205L25.3398 56.0309L38.3605 51.0282L39.6557 38.9155L19.6792 46.8205Z" fill="#111154"/>
<path d="M52.5564 74.7465L61.7189 82.5898L60.9959 86.7838L55.7842 80.1193L38.0383 85.0843L34.6323 81.6475L52.5564 74.7465Z" fill="#111154"/>
<path d="M67.4204 72.6906L71.4054 76.9908L94.5686 72.4644L92.2352 67.239L67.4204 72.6906Z" fill="#111154"/>
<path d="M110.868 67.0403L107.24 73.4239L132.164 77.5802L136.451 70.9876L110.868 67.0403Z" fill="#111154"/>
<path d="M146.761 75.2639L143.067 79.3963L148.646 80.3283L146.569 83.7788L149.818 84.4538L151.757 80.5065L182.513 87.6919L185.755 84.3305L146.761 75.2639Z" fill="#111154"/>
<path d="M23.5439 26.3985C23.328 27.5395 23.1807 27.5395 23.1807 27.5395L50.7503 18.5381L71.6144 10.8935L71.7445 8.98499L23.5439 26.3951V26.3985Z" fill="#00FFFF"/>
<path d="M17.8353 90.6181L55.7839 80.1193L55.3042 81.6475L17.4995 92.3451L17.8353 90.6181Z" fill="#00FFFF"/>
<path d="M62.3764 78.7521C62.3764 78.7521 62.0303 80.76 62.0783 80.479C62.1263 80.198 94.5684 74.2496 94.5684 74.2496V72.4644L62.3764 78.7521Z" fill="#00FFFF"/>
<path d="M105.136 73.0744L148.646 80.3283L147.559 82.1341L105.091 74.1092L105.136 73.0744Z" fill="#00FFFF"/>
<path d="M151.757 80.5065L152.363 82.4082L191.981 90.7003L191.857 89.878L151.757 80.5065Z" fill="#00FFFF"/>
<path d="M76.8914 9.08782L96.4602 5L96.4122 6.04851L76.7646 9.9513L76.8914 9.08782Z" fill="#00FFFF"/>
<path d="M108.665 5.05139L108.699 6.00054L121.775 7.05932L121.604 6.44598L108.665 5.05139Z" fill="#00FFFF"/>
<path d="M129.396 8.23114L129.629 9.12546L169.349 15.3137L169.307 14.183L129.396 8.23114Z" fill="#00FFFF"/>
<path d="M95.3701 29.2802L109.45 27.101V28.1906L95.3701 30.4555V29.2802Z" fill="#00FFFF"/>
<path d="M151.925 32.3503L172.833 36.4553L173.049 37.5895L151.925 32.3503Z" fill="#00FFFF"/>
<path d="M159.908 57.261L180.306 61.3249L180.532 62.2809L159.908 57.261Z" fill="#00FFFF"/>
<path d="M65.5014 120.237L80.0504 117.962L79.766 118.767L65.3164 121.097L65.5014 120.237Z" fill="#00FFFF"/>
<path d="M176.538 105.89C177.624 106.092 194.969 109.509 194.969 109.509L195.123 110.42L176.791 106.531L176.541 105.89H176.538Z" fill="#00FFFF"/>
<path d="M183.576 127.847L201.555 131.431L201.774 132.346L183.781 128.635L183.576 127.847Z" fill="#00FFFF"/>
<path d="M24.5889 129.009L49.9861 119.966L49.5167 120.806L24.5889 130.047V129.009Z" fill="#00FFFF"/>
<defs>
<linearGradient id="paint0_linear_8701_2523" x1="77.4866" y1="107.65" x2="77.4815" y2="108.037" gradientUnits="userSpaceOnUse">
<stop stop-color="#7F47DD"/>
<stop offset="0.91" stop-color="#5A2EFF"/>
</linearGradient>
<linearGradient id="paint1_linear_8701_2523" x1="47.0135" y1="-10.2805" x2="45.7507" y2="95.9512" gradientUnits="userSpaceOnUse">
<stop stop-color="#7F47DD"/>
<stop offset="0.91" stop-color="#5A2EFF"/>
</linearGradient>
<linearGradient id="paint2_linear_8701_2523" x1="159.487" y1="-11.0062" x2="158.186" y2="98.6041" gradientUnits="userSpaceOnUse">
<stop stop-color="#7F47DD"/>
<stop offset="0.91" stop-color="#5A2EFF"/>
</linearGradient>
<linearGradient id="paint3_linear_8701_2523" x1="181.533" y1="62.8189" x2="180.316" y2="165.346" gradientUnits="userSpaceOnUse">
<stop stop-color="#7F47DD"/>
<stop offset="0.91" stop-color="#5A2EFF"/>
</linearGradient>
<linearGradient id="paint4_linear_8701_2523" x1="104.148" y1="-12.704" x2="102.971" y2="86.3069" gradientUnits="userSpaceOnUse">
<stop stop-color="#7F47DD"/>
<stop offset="0.91" stop-color="#5A2EFF"/>
</linearGradient>
<linearGradient id="paint5_linear_8701_2523" x1="32.5354" y1="60.1805" x2="31.2116" y2="171.788" gradientUnits="userSpaceOnUse">
<stop stop-color="#7F47DD"/>
<stop offset="0.91" stop-color="#5A2EFF"/>
</linearGradient>
<linearGradient id="paint6_linear_8701_2523" x1="140.899" y1="50.6348" x2="139.366" y2="179.847" gradientUnits="userSpaceOnUse">
<stop stop-color="#7F47DD"/>
<stop offset="0.91" stop-color="#5A2EFF"/>
</linearGradient>
<linearGradient id="paint7_linear_8701_2523" x1="75.2216" y1="54.5213" x2="74.0265" y2="155.089" gradientUnits="userSpaceOnUse">
<stop stop-color="#7F47DD"/>
<stop offset="0.91" stop-color="#5A2EFF"/>
</linearGradient>
</defs>
</svg>
