<svg width="506" height="384" viewBox="0 0 506 384" fill="none" xmlns="http://www.w3.org/2000/svg">
<rect x="0.5" y="0.5" width="505" height="382.635" stroke="#1D0068"/>
<g clip-path="url(#clip0_8701_2521)">
<path d="M506 0H0.239258V383.635H506V0Z" fill="#1B1464"/>
<path opacity="0.66" d="M506 0H0V384H506V0Z" fill="url(#paint0_linear_8701_2521)"/>
<path d="M505.767 315.615V334.231C388.091 278.243 0.00683594 273.16 0.00683594 273.16V240.305C114.904 243.25 366.627 282.493 366.627 282.493C269.298 252.128 60.8387 212.621 0.00683594 207.191V156.701C302.179 217.722 505.767 315.615 505.767 315.615Z" fill="url(#paint1_linear_8701_2521)" fill-opacity="0.66"/>
<path d="M0.239258 340.836L69.9932 294.822C69.9932 294.822 65.9555 309.927 75.3768 313.85C84.798 317.773 90.185 317.827 90.185 317.827L113.069 300.307L210.226 206.911C210.226 206.911 187.464 255.221 187.282 261.597C187.1 267.972 204.6 274.081 204.6 274.081C204.6 274.081 213.114 326.729 243.182 327.637C273.251 328.544 328.439 278.112 328.439 278.112L413.757 226.242C413.757 226.242 339.206 303.191 363.436 313.847C387.665 324.503 414.587 307.526 418.624 308.612C422.662 309.698 454.967 281.053 454.967 281.053C454.967 281.053 421.316 335.621 438.813 340.832C456.31 346.044 483.686 325.977 483.686 325.977C483.686 325.977 461.376 347.542 483.686 352.176L505.996 356.811V383.631H0.239258V340.832V340.836Z" fill="#0C103F"/>
<path d="M254.594 198.326C255.941 198.326 257.033 197.234 257.033 195.887C257.033 194.54 255.941 193.448 254.594 193.448C253.247 193.448 252.155 194.54 252.155 195.887C252.155 197.234 253.247 198.326 254.594 198.326Z" fill="#FEFEFE"/>
<path d="M292.626 198.329C293.301 198.329 293.847 197.783 293.847 197.108C293.847 196.434 293.301 195.887 292.626 195.887C291.952 195.887 291.405 196.434 291.405 197.108C291.405 197.783 291.952 198.329 292.626 198.329Z" fill="#FEFEFE"/>
<path d="M238.935 223.473C239.61 223.473 240.157 222.926 240.157 222.252C240.157 221.577 239.61 221.031 238.935 221.031C238.261 221.031 237.714 221.577 237.714 222.252C237.714 222.926 238.261 223.473 238.935 223.473Z" fill="#FEFEFE"/>
<g opacity="0.44">
<path d="M317.285 309.125C318.631 309.125 319.723 308.033 319.723 306.686C319.723 305.339 318.631 304.247 317.285 304.247C315.938 304.247 314.846 305.339 314.846 306.686C314.846 308.033 315.938 309.125 317.285 309.125Z" fill="#00FFFF"/>
<path d="M355.317 309.125C355.991 309.125 356.538 308.578 356.538 307.904C356.538 307.229 355.991 306.682 355.317 306.682C354.642 306.682 354.096 307.229 354.096 307.904C354.096 308.578 354.642 309.125 355.317 309.125Z" fill="#00FFFF"/>
<path d="M301.626 334.272C302.3 334.272 302.847 333.725 302.847 333.051C302.847 332.376 302.3 331.829 301.626 331.829C300.951 331.829 300.405 332.376 300.405 333.051C300.405 333.725 300.951 334.272 301.626 334.272Z" fill="#00FFFF"/>
</g>
<path d="M209.987 294.111C211.334 294.111 212.426 293.019 212.426 291.672C212.426 290.325 211.334 289.233 209.987 289.233C208.64 289.233 207.548 290.325 207.548 291.672C207.548 293.019 208.64 294.111 209.987 294.111Z" fill="#00FFFF"/>
<path d="M248.016 294.114C248.691 294.114 249.238 293.567 249.238 292.893C249.238 292.218 248.691 291.672 248.016 291.672C247.342 291.672 246.795 292.218 246.795 292.893C246.795 293.567 247.342 294.114 248.016 294.114Z" fill="#00FFFF"/>
<path d="M194.325 319.258C195 319.258 195.546 318.711 195.546 318.037C195.546 317.362 195 316.815 194.325 316.815C193.651 316.815 193.104 317.362 193.104 318.037C193.104 318.711 193.651 319.258 194.325 319.258Z" fill="#00FFFF"/>
<path d="M439.403 337.786C440.374 337.786 441.161 337 441.161 336.029C441.161 335.058 440.374 334.272 439.403 334.272C438.433 334.272 437.646 335.058 437.646 336.029C437.646 337 438.433 337.786 439.403 337.786Z" fill="#FEFEFE"/>
<path d="M466.817 337.786C467.303 337.786 467.697 337.392 467.697 336.906C467.697 336.42 467.303 336.026 466.817 336.026C466.331 336.026 465.937 336.42 465.937 336.906C465.937 337.392 466.331 337.786 466.817 337.786Z" fill="#FEFEFE"/>
<path d="M428.117 355.911C428.603 355.911 428.997 355.516 428.997 355.03C428.997 354.544 428.603 354.15 428.117 354.15C427.631 354.15 427.236 354.544 427.236 355.03C427.236 355.516 427.631 355.911 428.117 355.911Z" fill="#FEFEFE"/>
<path d="M60.7343 325.964C62.5861 325.964 64.0872 324.462 64.0872 322.611C64.0872 320.759 62.5861 319.258 60.7343 319.258C58.8825 319.258 57.3813 320.759 57.3813 322.611C57.3813 324.462 58.8825 325.964 60.7343 325.964Z" fill="#00FFFF"/>
<path d="M112.991 325.964C113.917 325.964 114.668 325.213 114.668 324.287C114.668 323.361 113.917 322.611 112.991 322.611C112.066 322.611 111.315 323.361 111.315 324.287C111.315 325.213 112.066 325.964 112.991 325.964Z" fill="#00FFFF"/>
<path d="M39.2165 360.512C40.1424 360.512 40.893 359.761 40.893 358.835C40.893 357.909 40.1424 357.159 39.2165 357.159C38.2906 357.159 37.54 357.909 37.54 358.835C37.54 359.761 38.2906 360.512 39.2165 360.512Z" fill="#00FFFF"/>
<path d="M383.847 99.5997C385.025 99.5997 385.979 98.6453 385.979 97.4679C385.979 96.2905 385.025 95.3361 383.847 95.3361C382.67 95.3361 381.715 96.2905 381.715 97.4679C381.715 98.6453 382.67 99.5997 383.847 99.5997Z" fill="#FEFEFE"/>
<path d="M417.093 99.5997C417.682 99.5997 418.159 99.1225 418.159 98.5338C418.159 97.9451 417.682 97.4679 417.093 97.4679C416.505 97.4679 416.027 97.9451 416.027 98.5338C416.027 99.1225 416.505 99.5997 417.093 99.5997Z" fill="#FEFEFE"/>
<path d="M370.156 121.583C370.744 121.583 371.222 121.106 371.222 120.517C371.222 119.928 370.744 119.451 370.156 119.451C369.567 119.451 369.09 119.928 369.09 120.517C369.09 121.106 369.567 121.583 370.156 121.583Z" fill="#FEFEFE"/>
<path d="M241.56 99.5997C242.737 99.5997 243.692 98.6453 243.692 97.4679C243.692 96.2905 242.737 95.3361 241.56 95.3361C240.383 95.3361 239.428 96.2905 239.428 97.4679C239.428 98.6453 240.383 99.5997 241.56 99.5997Z" fill="#FEFEFE"/>
<path d="M274.809 99.5997C275.398 99.5997 275.875 99.1225 275.875 98.5338C275.875 97.9451 275.398 97.4679 274.809 97.4679C274.22 97.4679 273.743 97.9451 273.743 98.5338C273.743 99.1225 274.22 99.5997 274.809 99.5997Z" fill="#FEFEFE"/>
<path d="M227.872 121.583C228.46 121.583 228.938 121.106 228.938 120.517C228.938 119.928 228.46 119.451 227.872 119.451C227.283 119.451 226.806 119.928 226.806 120.517C226.806 121.106 227.283 121.583 227.872 121.583Z" fill="#FEFEFE"/>
<path d="M430.326 253.737C432.033 253.737 433.416 252.354 433.416 250.647C433.416 248.941 432.033 247.557 430.326 247.557C428.62 247.557 427.236 248.941 427.236 250.647C427.236 252.354 428.62 253.737 430.326 253.737Z" fill="#FEFEFE"/>
<path d="M478.495 253.737C479.348 253.737 480.04 253.045 480.04 252.192C480.04 251.339 479.348 250.647 478.495 250.647C477.642 250.647 476.95 251.339 476.95 252.192C476.95 253.045 477.642 253.737 478.495 253.737Z" fill="#FEFEFE"/>
<path d="M410.492 285.583C411.345 285.583 412.037 284.892 412.037 284.038C412.037 283.185 411.345 282.493 410.492 282.493C409.639 282.493 408.947 283.185 408.947 284.038C408.947 284.892 409.639 285.583 410.492 285.583Z" fill="#FEFEFE"/>
<path d="M55.8296 211.549C57.536 211.549 58.9194 210.165 58.9194 208.459C58.9194 206.752 57.536 205.369 55.8296 205.369C54.1231 205.369 52.7397 206.752 52.7397 208.459C52.7397 210.165 54.1231 211.549 55.8296 211.549Z" fill="#FEFEFE"/>
<path d="M103.995 211.549C104.848 211.549 105.54 210.857 105.54 210.004C105.54 209.151 104.848 208.459 103.995 208.459C103.142 208.459 102.45 209.151 102.45 210.004C102.45 210.857 103.142 211.549 103.995 211.549Z" fill="#FEFEFE"/>
<path d="M35.9951 243.395C36.8483 243.395 37.54 242.703 37.54 241.85C37.54 240.997 36.8483 240.305 35.9951 240.305C35.1419 240.305 34.4502 240.997 34.4502 241.85C34.4502 242.703 35.1419 243.395 35.9951 243.395Z" fill="#FEFEFE"/>
<path d="M40.4439 110.917C41.8635 110.917 43.0143 109.766 43.0143 108.346C43.0143 106.927 41.8635 105.776 40.4439 105.776C39.0243 105.776 37.8735 106.927 37.8735 108.346C37.8735 109.766 39.0243 110.917 40.4439 110.917Z" fill="#00FFFF"/>
<path d="M80.4907 110.913C81.2005 110.913 81.7759 110.338 81.7759 109.628C81.7759 108.918 81.2005 108.343 80.4907 108.343C79.781 108.343 79.2056 108.918 79.2056 109.628C79.2056 110.338 79.781 110.913 80.4907 110.913Z" fill="#00FFFF"/>
<path d="M23.9561 137.389C24.6659 137.389 25.2413 136.814 25.2413 136.104C25.2413 135.394 24.6659 134.819 23.9561 134.819C23.2463 134.819 22.6709 135.394 22.6709 136.104C22.6709 136.814 23.2463 137.389 23.9561 137.389Z" fill="#00FFFF"/>
<path opacity="0.44" d="M210.226 206.914C210.226 206.914 144.857 287.83 147.394 289.176L90.1851 317.831L210.223 206.917L210.226 206.914Z" fill="#00FFFF"/>
<path opacity="0.44" d="M243.182 327.64C243.182 327.64 266.518 336.727 297.48 317.831C328.443 298.934 331.131 286.821 331.131 286.821L413.757 226.249L328.439 278.118C328.439 278.118 285.802 332.791 243.182 327.643V327.64Z" fill="#00FFFF"/>
<path opacity="0.44" d="M69.9965 294.822L16.1539 341.335C16.1539 341.335 25.5752 356.143 32.308 353.448C39.0409 350.753 0.239258 373.64 0.239258 373.64V340.836L69.9932 294.822H69.9965Z" fill="#00FFFF"/>
<path opacity="0.44" d="M454.971 281.056L426.704 313.739L395.07 321.143L384.974 317.827C384.974 317.827 403.82 316.279 418.628 308.615C433.437 300.951 454.971 281.056 454.971 281.056Z" fill="#00FFFF"/>
<path d="M210.226 206.914C210.226 206.914 131.426 283.117 137.973 286.48L90.1885 317.827L210.226 206.914Z" fill="#00FFFF"/>
<path d="M328.439 278.115C328.439 278.115 261.573 328.075 243.182 327.64C243.182 327.64 285.364 335.614 326.081 283.455L413.754 226.246L328.436 278.115H328.439Z" fill="#00FFFF"/>
<path d="M380.936 317.379C380.936 317.379 409.203 312.579 418.625 308.615L454.967 281.056L423 309.701C423 309.701 402.811 321.69 380.936 317.379Z" fill="#00FFFF"/>
<path d="M0.239495 340.836L69.9968 294.822L12.4504 340.836L10.7672 352.777L0 354.794L0.239495 340.836Z" fill="#00FFFF"/>
<path d="M121.337 289.047L134.944 260.908L133.099 281.056L121.337 289.047Z" fill="#00FFFF"/>
<path d="M134.944 260.908L138.661 273.038L133.099 281.056L134.944 260.908Z" fill="#0C103F"/>
<path d="M90.1851 317.831L109.803 266.572L107.142 303.276L90.1851 317.831Z" fill="#00FFFF"/>
<path d="M109.804 266.572L116.368 293.635L107.143 303.276L109.804 266.572Z" fill="#0C103F"/>
<path d="M275.126 318.313L288.73 290.177L286.885 310.325L275.126 318.313Z" fill="#00FFFF"/>
<path d="M288.73 290.177L292.448 302.307L286.885 310.325L288.73 290.177Z" fill="#0C103F"/>
<path d="M393.626 317.831L412.519 298.89L405.375 314.667L393.626 317.831Z" fill="#00FFFF"/>
<path d="M412.519 298.89L412.124 309.745L405.375 314.667L412.519 298.89Z" fill="#0C103F"/>
<path d="M296.468 300.827L307.886 277.208L306.338 294.121L296.468 300.827Z" fill="#00FFFF"/>
<path d="M307.887 277.208L311.01 287.391L306.338 294.121L307.887 277.208Z" fill="#0C103F"/>
<path d="M103.995 188.763C118.163 188.763 129.648 177.278 129.648 163.11C129.648 148.942 118.163 137.457 103.995 137.457C89.827 137.457 78.3418 148.942 78.3418 163.11C78.3418 177.278 89.827 188.763 103.995 188.763Z" fill="#259EE2"/>
<path d="M443.832 183.936C449.583 183.936 454.245 179.274 454.245 173.523C454.245 167.772 449.583 163.11 443.832 163.11C438.081 163.11 433.419 167.772 433.419 173.523C433.419 179.274 438.081 183.936 443.832 183.936Z" fill="#00FFFF"/>
<path d="M505.768 253.737C505.768 253.737 256.426 156.249 227.487 153.557C227.487 153.557 476.475 210.766 505.768 226.246V253.737Z" fill="url(#paint2_linear_8701_2521)"/>
<g clip-path="url(#clip1_8701_2521)">
<path d="M506 367.317H-1V414.895H506V367.317Z" fill="#BA8258"/>
<path d="M506 353.98H-1V370.696H506V353.98Z" fill="#62C669"/>
<path d="M506 360.644H-1V370.696H506V360.644Z" fill="#124C12"/>
<path d="M29.3544 358.295H20.9062V366.811H29.3544V358.295Z" fill="#124C12"/>
<path d="M59.6712 358.295H51.2231V366.811H59.6712V358.295Z" fill="#124C12"/>
<path d="M89.9877 358.295H81.5396V366.811H89.9877V358.295Z" fill="#124C12"/>
<path d="M120.295 358.295H111.847V366.811H120.295V358.295Z" fill="#124C12"/>
<path d="M150.611 358.295H142.163V366.811H150.611V358.295Z" fill="#124C12"/>
<path d="M180.928 358.295H172.479V366.811H180.928V358.295Z" fill="#124C12"/>
<path d="M211.245 358.295H202.796V366.811H211.245V358.295Z" fill="#124C12"/>
<path d="M241.561 358.295H233.113V366.811H241.561V358.295Z" fill="#124C12"/>
<path d="M271.878 358.295H263.43V366.811H271.878V358.295Z" fill="#124C12"/>
<path d="M302.194 358.295H293.746V366.811H302.194V358.295Z" fill="#124C12"/>
<path d="M332.511 358.295H324.062V366.811H332.511V358.295Z" fill="#124C12"/>
<path d="M362.828 358.295H354.379V366.811H362.828V358.295Z" fill="#124C12"/>
<path d="M393.144 358.295H384.696V366.811H393.144V358.295Z" fill="#124C12"/>
<path d="M423.46 358.295H415.012V366.811H423.46V358.295Z" fill="#124C12"/>
<path d="M453.777 358.295H445.329V366.811H453.777V358.295Z" fill="#124C12"/>
<path d="M484.094 358.295H475.646V366.811H484.094V358.295Z" fill="#124C12"/>
<path d="M506 353.98H-1V356.138H506V353.98Z" fill="#00FFFF"/>
<path d="M42.8224 378.295H38.3805C37.0572 378.295 35.9844 379.376 35.9844 380.71V385.187C35.9844 386.521 37.0572 387.602 38.3805 387.602H42.8224C44.1458 387.602 45.2186 386.521 45.2186 385.187V380.71C45.2186 379.376 44.1458 378.295 42.8224 378.295Z" fill="#DD9E6F"/>
<path d="M171.732 387.593H176.174C177.497 387.593 178.57 386.511 178.57 385.178V380.7C178.57 379.366 177.497 378.285 176.174 378.285H171.732C170.408 378.285 169.336 379.366 169.336 380.7V385.178C169.336 386.511 170.408 387.593 171.732 387.593Z" fill="#FFC28E"/>
<path d="M127.218 387.593H131.66C132.983 387.593 134.056 386.511 134.056 385.178V380.7C134.056 379.366 132.983 378.285 131.66 378.285H127.218C125.895 378.285 124.822 379.366 124.822 380.7V385.178C124.822 386.511 125.895 387.593 127.218 387.593Z" fill="#FFC28E"/>
<path d="M244.422 378.295H239.98C238.656 378.295 237.583 379.376 237.583 380.71V385.187C237.583 386.521 238.656 387.602 239.98 387.602H244.422C245.745 387.602 246.818 386.521 246.818 385.187V380.71C246.818 379.376 245.745 378.295 244.422 378.295Z" fill="#DD9E6F"/>
<path d="M446.02 378.295H441.578C440.255 378.295 439.182 379.376 439.182 380.71V385.187C439.182 386.521 440.255 387.602 441.578 387.602H446.02C447.344 387.602 448.416 386.521 448.416 385.187V380.71C448.416 379.376 447.344 378.295 446.02 378.295Z" fill="#DD9E6F"/>
<path d="M373.34 387.593H377.782C379.105 387.593 380.178 386.511 380.178 385.178V380.7C380.178 379.366 379.105 378.285 377.782 378.285H373.34C372.017 378.285 370.944 379.366 370.944 380.7V385.178C370.944 386.511 372.017 387.593 373.34 387.593Z" fill="#FFC28E"/>
<path d="M328.827 387.593H333.268C334.592 387.593 335.665 386.511 335.665 385.178V380.7C335.665 379.366 334.592 378.285 333.268 378.285H328.827C327.503 378.285 326.43 379.366 326.43 380.7V385.178C326.43 386.511 327.503 387.593 328.827 387.593Z" fill="#FFC28E"/>
</g>
</g>
<defs>
<linearGradient id="paint0_linear_8701_2521" x1="238.472" y1="-117.346" x2="266.164" y2="471.721" gradientUnits="userSpaceOnUse">
<stop stop-color="#7F47DD"/>
<stop offset="0.91" stop-color="#5A2EFF"/>
</linearGradient>
<linearGradient id="paint1_linear_8701_2521" x1="0.00683594" y1="245.466" x2="505.767" y2="245.466" gradientUnits="userSpaceOnUse">
<stop stop-color="#7F47DD"/>
<stop offset="0.91" stop-color="#5A2EFF"/>
</linearGradient>
<linearGradient id="paint2_linear_8701_2521" x1="227.484" y1="203.649" x2="505.768" y2="203.649" gradientUnits="userSpaceOnUse">
<stop stop-color="#7F47DD"/>
<stop offset="0.91" stop-color="#5A2EFF"/>
</linearGradient>
<clipPath id="clip0_8701_2521">
<rect width="506" height="383.635" fill="white"/>
</clipPath>
<clipPath id="clip1_8701_2521">
<rect width="507" height="60.915" fill="white" transform="translate(-1 353.98)"/>
</clipPath>
</defs>
</svg>
