<svg width="536" height="355" viewBox="0 0 536 355" fill="none" xmlns="http://www.w3.org/2000/svg">
<rect width="536" height="302" fill="url(#paint0_linear_8754_1694)"/>
<path d="M1.00187 291.312H371.721C358.615 247.172 317.801 214.984 269.488 214.984C265.702 214.984 261.96 215.181 258.268 215.57C258.268 215.372 258.276 215.181 258.276 214.984C258.276 155.962 210.525 108.116 151.621 108.116C92.7168 108.116 44.9663 155.962 44.9663 214.984C44.9663 223.487 45.9603 231.755 47.8314 239.687C27.0224 251.119 10.4306 269.311 1.00187 291.312Z" fill="#3685D2" fill-opacity="0.3"/>
<g clip-path="url(#clip0_8754_1694)">
<path d="M536 305.133H0V355H536V305.133Z" fill="#BA8258"/>
<path d="M536 291.156H0V308.675H536V291.156Z" fill="#62C669"/>
<path d="M536 298.14H0V308.675H536V298.14Z" fill="#124C12"/>
<path d="M32.0905 295.678H23.1592V304.603H32.0905V295.678Z" fill="#124C12"/>
<path d="M64.1413 295.678H55.21V304.603H64.1413V295.678Z" fill="#124C12"/>
<path d="M96.1921 295.678H87.2607V304.603H96.1921V295.678Z" fill="#124C12"/>
<path d="M128.233 295.678H119.301V304.603H128.233V295.678Z" fill="#124C12"/>
<path d="M160.283 295.678H151.352V304.603H160.283V295.678Z" fill="#124C12"/>
<path d="M192.334 295.678H183.403V304.603H192.334V295.678Z" fill="#124C12"/>
<path d="M224.384 295.678H215.453V304.603H224.384V295.678Z" fill="#124C12"/>
<path d="M256.435 295.678H247.504V304.603H256.435V295.678Z" fill="#124C12"/>
<path d="M288.486 295.678H279.555V304.603H288.486V295.678Z" fill="#124C12"/>
<path d="M320.537 295.678H311.605V304.603H320.537V295.678Z" fill="#124C12"/>
<path d="M352.587 295.678H343.656V304.603H352.587V295.678Z" fill="#124C12"/>
<path d="M384.638 295.678H375.707V304.603H384.638V295.678Z" fill="#124C12"/>
<path d="M416.689 295.678H407.757V304.603H416.689V295.678Z" fill="#124C12"/>
<path d="M448.739 295.678H439.808V304.603H448.739V295.678Z" fill="#124C12"/>
<path d="M480.79 295.678H471.858V304.603H480.79V295.678Z" fill="#124C12"/>
<path d="M512.841 295.678H503.909V304.603H512.841V295.678Z" fill="#124C12"/>
<path d="M536 291.156H0V293.417H536V291.156Z" fill="#C1E153"/>
<path d="M33.6926 331.377H28.9966C27.5975 331.377 26.4634 332.511 26.4634 333.909V338.601C26.4634 339.999 27.5975 341.133 28.9966 341.133H33.6926C35.0916 341.133 36.2258 339.999 36.2258 338.601V333.909C36.2258 332.511 35.0916 331.377 33.6926 331.377Z" fill="#FFC28E"/>
<path d="M80.7526 331.377H76.0566C74.6576 331.377 73.5234 332.511 73.5234 333.909V338.601C73.5234 339.999 74.6576 341.133 76.0566 341.133H80.7526C82.1517 341.133 83.2858 339.999 83.2858 338.601V333.909C83.2858 332.511 82.1517 331.377 80.7526 331.377Z" fill="#FFC28E"/>
<path d="M46.3288 316.639H41.6328C40.2338 316.639 39.0996 317.773 39.0996 319.171V323.863C39.0996 325.261 40.2338 326.395 41.6328 326.395H46.3288C47.7278 326.395 48.862 325.261 48.862 323.863V319.171C48.862 317.773 47.7278 316.639 46.3288 316.639Z" fill="#DD9E6F"/>
<path d="M182.612 326.385H187.308C188.707 326.385 189.841 325.251 189.841 323.853V319.161C189.841 317.763 188.707 316.629 187.308 316.629H182.612C181.213 316.629 180.078 317.763 180.078 319.161V323.853C180.078 325.251 181.213 326.385 182.612 326.385Z" fill="#FFC28E"/>
<path d="M135.552 326.385H140.248C141.647 326.385 142.781 325.251 142.781 323.853V319.161C142.781 317.763 141.647 316.629 140.248 316.629H135.552C134.153 316.629 133.019 317.763 133.019 319.161V323.853C133.019 325.251 134.153 326.385 135.552 326.385Z" fill="#FFC28E"/>
<path d="M169.975 341.123H174.671C176.07 341.123 177.205 339.989 177.205 338.591V333.899C177.205 332.501 176.07 331.367 174.671 331.367H169.975C168.576 331.367 167.442 332.501 167.442 333.899V338.591C167.442 339.989 168.576 341.123 169.975 341.123Z" fill="#DD9E6F"/>
<path d="M246.813 331.377H242.117C240.718 331.377 239.584 332.511 239.584 333.909V338.601C239.584 339.999 240.718 341.133 242.117 341.133H246.813C248.212 341.133 249.346 339.999 249.346 338.601V333.909C249.346 332.511 248.212 331.377 246.813 331.377Z" fill="#FFC28E"/>
<path d="M293.873 331.377H289.177C287.778 331.377 286.644 332.511 286.644 333.909V338.601C286.644 339.999 287.778 341.133 289.177 341.133H293.873C295.272 341.133 296.406 339.999 296.406 338.601V333.909C296.406 332.511 295.272 331.377 293.873 331.377Z" fill="#FFC28E"/>
<path d="M259.459 316.639H254.763C253.364 316.639 252.23 317.773 252.23 319.171V323.863C252.23 325.261 253.364 326.395 254.763 326.395H259.459C260.858 326.395 261.992 325.261 261.992 323.863V319.171C261.992 317.773 260.858 316.639 259.459 316.639Z" fill="#DD9E6F"/>
<path d="M459.944 331.377H455.248C453.849 331.377 452.714 332.511 452.714 333.909V338.601C452.714 339.999 453.849 341.133 455.248 341.133H459.944C461.343 341.133 462.477 339.999 462.477 338.601V333.909C462.477 332.511 461.343 331.377 459.944 331.377Z" fill="#FFC28E"/>
<path d="M507.003 331.377H502.307C500.908 331.377 499.774 332.511 499.774 333.909V338.601C499.774 339.999 500.908 341.133 502.307 341.133H507.003C508.402 341.133 509.536 339.999 509.536 338.601V333.909C509.536 332.511 508.402 331.377 507.003 331.377Z" fill="#FFC28E"/>
<path d="M472.59 316.639H467.894C466.495 316.639 465.36 317.773 465.36 319.171V323.863C465.36 325.261 466.495 326.395 467.894 326.395H472.59C473.989 326.395 475.123 325.261 475.123 323.863V319.171C475.123 317.773 473.989 316.639 472.59 316.639Z" fill="#DD9E6F"/>
<path d="M395.752 326.385H400.448C401.847 326.385 402.981 325.251 402.981 323.853V319.161C402.981 317.763 401.847 316.629 400.448 316.629H395.752C394.353 316.629 393.219 317.763 393.219 319.161V323.853C393.219 325.251 394.353 326.385 395.752 326.385Z" fill="#FFC28E"/>
<path d="M348.692 326.385H353.388C354.787 326.385 355.921 325.251 355.921 323.853V319.161C355.921 317.763 354.787 316.629 353.388 316.629H348.692C347.293 316.629 346.159 317.763 346.159 319.161V323.853C346.159 325.251 347.293 326.385 348.692 326.385Z" fill="#FFC28E"/>
<path d="M383.096 341.123H387.792C389.191 341.123 390.325 339.989 390.325 338.591V333.899C390.325 332.501 389.191 331.367 387.792 331.367H383.096C381.697 331.367 380.563 332.501 380.563 333.899V338.591C380.563 339.989 381.697 341.123 383.096 341.123Z" fill="#DD9E6F"/>
</g>
<g clip-path="url(#clip1_8754_1694)">
<path d="M206.138 292.156H1.00146C8.25324 267.562 30.8377 249.627 57.5717 249.627C59.6668 249.627 61.7376 249.737 63.78 249.953C63.78 249.843 63.776 249.737 63.776 249.627C63.776 216.74 90.1986 190.081 122.793 190.081C155.388 190.081 181.81 216.74 181.81 249.627C181.81 254.365 181.26 258.972 180.225 263.391C191.74 269.761 200.921 279.898 206.138 292.156Z" fill="white"/>
</g>
<g clip-path="url(#clip2_8754_1694)">
<path d="M382.485 292.156H523.665C518.674 275.281 503.131 262.975 484.732 262.975C483.29 262.975 481.865 263.051 480.459 263.199C480.459 263.124 480.462 263.051 480.462 262.975C480.462 240.411 462.277 222.119 439.845 222.119C417.413 222.119 399.228 240.411 399.228 262.975C399.228 266.226 399.607 269.387 400.319 272.42C392.395 276.79 386.076 283.745 382.485 292.156Z" fill="white"/>
</g>
<defs>
<linearGradient id="paint0_linear_8754_1694" x1="268" y1="0" x2="268" y2="302" gradientUnits="userSpaceOnUse">
<stop stop-color="#0DD6DA"/>
<stop offset="0.548587" stop-color="#039EF2"/>
<stop offset="0.965007" stop-color="#055ADC"/>
</linearGradient>
<clipPath id="clip0_8754_1694">
<rect width="536" height="63.8442" fill="white" transform="translate(0 291.156)"/>
</clipPath>
<clipPath id="clip1_8754_1694">
<rect width="238.302" height="118.063" fill="white" transform="translate(1.00146 174.093)"/>
</clipPath>
<clipPath id="clip2_8754_1694">
<rect width="141.179" height="70.0375" fill="white" transform="matrix(-1 0 0 1 523.665 222.119)"/>
</clipPath>
</defs>
</svg>
