<svg width="211" height="234" viewBox="0 0 211 234" fill="none" xmlns="http://www.w3.org/2000/svg">
<path d="M112.911 209.248V196.631V184.014L89.1836 176.391V196.631V216.871L112.911 209.248Z" fill="#333333" stroke="black" stroke-width="1.46009" stroke-linecap="round" stroke-linejoin="round"/>
<path d="M83.3945 176.391V216.677L89.1831 216.871V176.391H83.3945Z" fill="#B3B3B3" stroke="black" stroke-width="1.46009" stroke-linecap="round" stroke-linejoin="round"/>
<path d="M83.3947 176.391L40 196.631L83.3947 216.677V176.391Z" fill="#BDCCD4" stroke="black" stroke-width="2.49589" stroke-linecap="round" stroke-linejoin="round"/>
<path d="M103.645 181.037L98.1572 179.281V213.981L103.645 212.216V181.037Z" fill="#BDCCD4" stroke="black" stroke-width="1.46009" stroke-linecap="round" stroke-linejoin="round"/>
<path d="M71.9341 181.735C71.9341 181.735 77.5672 191.772 77.5672 213.981" stroke="#1A1A1A" stroke-width="0.973395" stroke-miterlimit="10"/>
<path d="M62.2607 186.196C62.2607 186.196 67.8939 193.46 67.8939 209.52" stroke="#1A1A1A" stroke-width="0.823642" stroke-miterlimit="10"/>
<path d="M53.2959 190.036C53.2959 190.036 58.9291 194.905 58.9291 205.679" stroke="#1A1A1A" stroke-width="0.673889" stroke-miterlimit="10"/>
<g style="mix-blend-mode:multiply" opacity="0.41">
<path d="M103.645 205.437L88.4158 208.657H83.3945L41.7383 196.651L83.3945 216.677H89.183L103.645 212.216V205.437Z" fill="#333333"/>
</g>
<g style="mix-blend-mode:overlay">
<path d="M88.4158 180.852L41.7383 196.592L88.4158 187.796V180.852Z" fill="#F2F2F2"/>
</g>
<path d="M114.008 232C140.453 232 161.89 210.594 161.89 184.189C161.89 157.783 140.453 136.377 114.008 136.377C87.5639 136.377 66.1265 157.783 66.1265 184.189C66.1265 210.594 87.5639 232 114.008 232Z" fill="#5B2ECC" stroke="#0F0F0E" stroke-width="2.49589" stroke-miterlimit="10"/>
<path d="M114.008 215.251C131.039 215.251 144.845 201.466 144.845 184.46C144.845 167.454 131.039 153.669 114.008 153.669C96.9774 153.669 83.1714 167.454 83.1714 184.46C83.1714 201.466 96.9774 215.251 114.008 215.251Z" fill="#9A7FCD"/>
<path d="M131.976 139.859L115.591 191.317H66.6606C66.311 188.989 66.1265 186.613 66.1265 184.189C66.1265 157.79 87.5616 136.377 114.008 136.377C120.37 136.377 126.43 137.609 131.976 139.859Z" fill="#00BAEB" stroke="#0F0F0E" stroke-width="2.49589" stroke-miterlimit="10"/>
<g style="mix-blend-mode:multiply">
<path d="M161.103 184.189C161.103 210.596 139.668 232 113.221 232C98.6724 232 85.6481 225.522 76.8682 215.3C85.046 220.857 94.9234 224.106 105.558 224.106C133.763 224.106 156.626 201.277 156.626 173.113C156.626 169.031 156.15 165.064 155.237 161.262C158.976 168.07 161.103 175.877 161.103 184.189Z" fill="#B7B7B7"/>
</g>
<path d="M127.965 225.58C120.991 225.58 116.271 215.465 114.416 210.616H90.4849V204.797H118.573L119.233 206.795C121.399 213.292 125.605 220.217 128.246 219.742C130.267 219.383 131.762 218.471 133.501 217.414C136.745 215.436 140.795 212.972 148.409 214.902L148.477 214.922C148.098 213.865 147.516 212.517 147.05 211.421C145.224 207.192 142.961 201.926 142.961 196.554H148.788C148.788 200.724 150.789 205.379 152.401 209.122C154.363 213.68 155.781 216.978 153.673 219.441C151.702 221.749 148.273 220.876 146.972 220.547C141.737 219.218 139.552 220.547 136.531 222.389C134.579 223.582 132.364 224.93 129.257 225.483C128.819 225.56 128.382 225.599 127.955 225.599L127.965 225.58Z" fill="#7FCCA9" stroke="black" stroke-width="1.24794" stroke-miterlimit="10"/>
<path d="M112.911 198.823V216.716C112.911 216.716 126.333 213.865 126.333 207.881C126.333 201.897 112.911 198.823 112.911 198.823Z" fill="#FFD74E" stroke="black" stroke-width="1.46009" stroke-linecap="round" stroke-linejoin="round"/>
<g style="mix-blend-mode:multiply" opacity="0.41">
<path d="M126.333 207.726C126.333 213.7 112.911 216.551 112.911 216.551V213.797C115.62 213.108 123.429 210.849 126.246 206.911C126.304 207.183 126.333 207.445 126.333 207.726Z" fill="#333333"/>
</g>
<path d="M144.379 212.634L132.998 214.958C132.552 215.049 132.264 215.485 132.355 215.931L133.885 223.399C133.976 223.845 134.412 224.132 134.859 224.041L146.239 221.717C146.686 221.626 146.974 221.19 146.883 220.744L145.353 213.276C145.261 212.83 144.825 212.542 144.379 212.634Z" fill="#BDCCD4" stroke="black" stroke-width="1.46009" stroke-linecap="round" stroke-linejoin="round"/>
<g style="mix-blend-mode:multiply" opacity="0.41">
<path d="M146.884 219.266C146.971 219.713 146.69 220.149 146.243 220.236L134.86 222.564C134.413 222.651 133.976 222.37 133.889 221.924L133.471 219.897L146.466 217.23L146.884 219.266Z" fill="#333333"/>
</g>
<mask id="mask0_8701_2523" style="mask-type:luminance" maskUnits="userSpaceOnUse" x="69" y="140" width="59" height="51">
<path d="M127.78 140.644H69.1948V190.046H127.78V140.644Z" fill="white"/>
</mask>
<g mask="url(#mask0_8701_2523)">
<path d="M114.387 169.874C114.503 169.719 114.6 169.554 114.659 169.351V169.321C114.853 168.74 114.697 168.119 114.338 167.692L119.466 162.387L111.123 160.293L113.279 152.495L104.771 155.288V147.142C99.4102 148.073 95.9332 151.816 93.8548 155.133C93.7868 155.065 93.7091 155.007 93.6314 154.968L91.0673 153.581C90.5429 153.3 89.9018 153.514 89.6299 154.066L84.7931 163.978C84.5212 164.531 84.7349 165.2 85.2593 165.481L86.4734 166.131C85.5119 168.866 84.8708 171.61 83.7054 171.765C83.414 171.804 83.1421 171.901 82.8895 172.037C82.3651 171.339 81.4715 170.873 80.4517 170.873C78.8395 170.873 77.5283 172.027 77.5283 173.463C77.5283 174.898 78.7521 175.955 80.2866 176.032C80.2866 176.042 80.2866 176.062 80.2866 176.062H81.355C80.6363 176.605 80.4517 177.875 81.219 178.593C81.724 179.058 82.4719 179.475 83.3946 179.844L82.9575 182.414C81.7532 188.427 80.7722 198.416 87.0755 199.89C89.3094 200.413 91.8832 200.792 94.5346 201.015C93.9227 202.498 93.136 203.72 92.1939 203.798C92.1842 203.798 92.1648 203.798 92.1551 203.798C90.7274 203.876 90.0281 204.778 90.0184 205.563C89.999 206.174 90.3875 206.737 91.1839 206.795C91.3878 206.814 91.7375 206.824 92.1939 206.834V206.804C94.5832 206.853 99.9153 206.824 103.217 206.804C104.655 206.785 105.714 205.34 105.442 203.788L105.315 203.08C105.315 203.08 105.344 203.08 105.364 203.08L104.975 200.937C108.977 200.472 112.065 199.405 112.823 197.62C113.872 195.167 113.163 189.493 112.328 184.935V184.916C112.182 184.169 112.046 183.442 111.91 182.773C112.473 182.705 112.978 182.307 113.192 181.686L114.717 177.313C114.95 176.643 114.523 175.926 113.891 175.916H113.483L119.515 170.592L114.445 169.845L114.387 169.874Z" fill="#7C7C7C" stroke="black" stroke-width="3.66895" stroke-linecap="round" stroke-linejoin="round"/>
<path d="M84.0259 177.875C84.0259 177.875 77.9363 197.776 87.027 199.909C96.1178 202.043 110.958 201.888 112.765 197.64C114.649 193.208 110.842 178.321 110.842 178.321L84.0259 177.875Z" fill="#BDCCD4" stroke="black" stroke-width="0.511657" stroke-miterlimit="10"/>
<path d="M91.2522 160.661C91.2522 160.661 94.6612 148.917 104.762 147.171V155.318L113.27 152.524L111.114 160.322L119.457 162.416L112.503 169.612L119.457 170.631L113.27 176.081H80.2578C80.2578 176.081 81.3456 172.095 83.6863 171.804C86.0269 171.513 86.2406 160.671 91.2522 160.671V160.661Z" fill="#824B22" stroke="black" stroke-width="0.536615" stroke-miterlimit="10"/>
<path d="M90.1264 171.594C90.5401 170.091 90.2717 168.707 89.527 168.503C88.7822 168.299 87.843 169.351 87.4293 170.854C87.0156 172.357 87.2839 173.741 88.0287 173.945C88.7735 174.15 89.7127 173.097 90.1264 171.594Z" fill="black"/>
<path d="M89.1542 169.839C89.2394 169.518 89.1446 169.215 88.9424 169.161C88.7402 169.108 88.5071 169.324 88.4219 169.645C88.3367 169.966 88.4315 170.27 88.6337 170.323C88.8359 170.377 89.0689 170.16 89.1542 169.839Z" fill="white"/>
<path d="M80.4322 176.071C82.0468 176.071 83.3556 174.912 83.3556 173.482C83.3556 172.052 82.0468 170.893 80.4322 170.893C78.8176 170.893 77.5088 172.052 77.5088 173.482C77.5088 174.912 78.8176 176.071 80.4322 176.071Z" fill="#F45B6D" stroke="black" stroke-width="0.486698" stroke-miterlimit="10"/>
<g style="mix-blend-mode:multiply">
<path d="M83.3556 173.482C83.3556 174.908 82.0445 176.071 80.4322 176.071C78.82 176.071 77.5088 174.908 77.5088 173.482C77.5088 173.22 77.5476 172.968 77.6448 172.725C78.0138 173.783 79.121 174.549 80.4419 174.549C81.7628 174.549 82.8603 173.792 83.2294 172.725C83.3168 172.958 83.3653 173.21 83.3653 173.482H83.3556Z" fill="#F45B6D"/>
</g>
<path d="M86.6577 185.411L88.6876 187.864L86.6577 191.404L89.1926 193.15L88.0466 195.778L95.0686 195.099C97.7201 194.837 99.7597 192.5 99.7597 189.697C99.7597 186.39 96.9722 183.859 93.8643 184.324L86.6577 185.411Z" fill="#824B22" stroke="black" stroke-width="0.536615" stroke-miterlimit="10"/>
<path d="M88.0466 195.778L89.1926 193.15L86.6577 191.394L88.6876 187.854L86.6577 185.41L89.7074 184.945L90.9117 195.496L88.0466 195.778Z" fill="white" stroke="black" stroke-width="0.536615" stroke-miterlimit="10"/>
<path d="M101.392 182.433C101.392 182.433 102.839 191.889 102.606 201.16" stroke="black" stroke-width="0.536615" stroke-miterlimit="10"/>
<g style="mix-blend-mode:multiply">
<path d="M83.356 179.854L82.9189 182.433C82.9189 182.433 102.606 185.75 112.279 184.955L111.405 180.688L83.356 179.863V179.854Z" fill="#BDCCD4"/>
</g>
<path d="M82.1032 175.809L113.833 175.945C114.465 175.945 114.892 176.673 114.659 177.342L113.134 181.716C112.901 182.385 112.338 182.831 111.697 182.821C106.578 182.811 85.3956 182.53 81.1805 178.612C80.1801 177.681 80.8017 175.809 82.1032 175.819V175.809Z" fill="#FFD74E" stroke="black" stroke-width="0.561574" stroke-miterlimit="10"/>
<path d="M86.2207 178.137C86.2207 178.137 113.114 177.216 112.813 178.564C111.852 182.792 86.2207 178.137 86.2207 178.137Z" fill="#DDAE2A"/>
<path d="M79.8401 172.522C80.3068 172.522 80.6851 172.27 80.6851 171.959C80.6851 171.649 80.3068 171.397 79.8401 171.397C79.3734 171.397 78.9951 171.649 78.9951 171.959C78.9951 172.27 79.3734 172.522 79.8401 172.522Z" fill="white"/>
<path d="M109.434 191.656L106.52 191.928L106.326 189.697L109.249 189.426L109.434 191.656Z" fill="#9DB1BA" stroke="black" stroke-width="0.536615" stroke-miterlimit="10"/>
<g style="mix-blend-mode:multiply">
<path d="M86.2207 166.877L88.5031 167.973C89.1344 168.206 89.8337 167.944 90.1736 167.343L91.4071 164.715L112.59 171.183C113.017 171.31 113.464 171.135 113.716 170.757L114.658 169.35L89.4258 160.244C89.4258 160.244 86.7452 165.326 86.2207 166.877Z" fill="#BDCCD4"/>
</g>
<path d="M112.697 170.427L88.5327 162.736L90.9122 157.752L113.659 167.236C114.494 167.518 114.941 168.458 114.669 169.331V169.36C114.397 170.214 113.523 170.689 112.707 170.427H112.697Z" fill="#BDCCD4" stroke="black" stroke-width="0.536615" stroke-miterlimit="10"/>
<path d="M87.804 166.897L85.24 165.51C84.7155 165.229 84.5115 164.55 84.7738 164.007L89.6105 154.095C89.8825 153.543 90.5235 153.329 91.0479 153.611L93.612 154.997C94.1365 155.279 94.3404 155.958 94.0782 156.501L89.2414 166.412C88.9695 166.965 88.3285 167.178 87.804 166.897Z" fill="#BDCCD4" stroke="black" stroke-width="0.586533" stroke-miterlimit="10"/>
<path d="M93.6215 156.501L93.3399 157.082C93.2428 156.947 93.1165 156.83 92.9514 156.743L90.1834 155.25C90.028 155.162 89.8629 155.123 89.6978 155.114L89.9794 154.532C90.2028 154.076 90.7273 153.902 91.1449 154.134L93.2428 155.269C93.6701 155.492 93.8352 156.054 93.6215 156.501Z" fill="#F9F9F9"/>
<g style="mix-blend-mode:multiply" opacity="0.28">
<path d="M85.2206 164.007L85.5023 163.425C85.5994 163.561 85.7257 163.677 85.8908 163.764L88.6588 165.258C88.8142 165.345 88.9793 165.384 89.1444 165.394L88.8628 165.976C88.6394 166.431 88.1149 166.606 87.6973 166.373L85.5994 165.238C85.1721 165.015 85.007 164.453 85.2206 164.007Z" fill="#7C7C7C"/>
</g>
</g>
<g style="mix-blend-mode:screen">
<path d="M130.461 140.964L114.833 190.046H68.1559C67.8257 187.825 67.6509 185.556 67.6509 183.248C67.6412 158.072 88.0953 137.648 113.318 137.648C119.388 137.648 125.167 138.821 130.461 140.964Z" fill="#0A3F93"/>
</g>
<g style="mix-blend-mode:screen">
<path d="M129.8 142.632C125.313 141.11 120.495 140.324 115.503 140.324C110.793 140.324 106.257 141.042 101.984 142.37C103.761 142.273 105.101 142.691 105.568 143.66C106.461 145.522 103.761 148.665 99.5362 150.691C95.3113 152.718 91.1641 152.844 90.2706 150.992C89.7461 149.896 90.4746 148.364 92.0091 146.87C78.9363 154.803 70.2049 169.157 70.2049 185.546C70.2049 187.02 70.2826 188.494 70.4283 189.93H69.6804C69.3599 187.777 69.1948 185.585 69.1948 183.354C69.1948 158.964 88.9886 139.18 113.425 139.18C119.242 139.18 124.808 140.305 129.887 142.341L129.8 142.632Z" fill="white"/>
</g>
<path d="M112.911 220.382V207.774V195.157L89.1836 187.534V207.774V228.004L112.911 220.382Z" fill="#333333" stroke="black" stroke-width="2.49589" stroke-linecap="round" stroke-linejoin="round"/>
<path d="M83.3945 187.534V227.81L89.1831 228.004V187.534H83.3945Z" fill="#B3B3B3" stroke="black" stroke-width="2.49589" stroke-linecap="round" stroke-linejoin="round"/>
<path d="M83.3947 187.534L40 207.774L83.3947 227.81V187.534Z" fill="#BDCCD4" stroke="black" stroke-width="2.49589" stroke-linecap="round" stroke-linejoin="round"/>
<path d="M103.645 192.18L98.1572 190.415V225.124L103.645 223.359V192.18Z" fill="#BDCCD4" stroke="black" stroke-width="1.46009" stroke-linecap="round" stroke-linejoin="round"/>
<path d="M71.9341 192.878C71.9341 192.878 77.5672 202.916 77.5672 225.124" stroke="#1A1A1A" stroke-width="0.973395" stroke-miterlimit="10"/>
<path d="M62.2607 197.339C62.2607 197.339 67.8939 204.603 67.8939 220.663" stroke="#1A1A1A" stroke-width="0.823642" stroke-miterlimit="10"/>
<path d="M53.2959 201.179C53.2959 201.179 58.9291 206.048 58.9291 216.822" stroke="#1A1A1A" stroke-width="0.673889" stroke-miterlimit="10"/>
<g style="mix-blend-mode:multiply" opacity="0.41">
<path d="M103.645 216.58L88.4158 219.8H83.3945L41.7383 207.794L83.3945 227.81H89.183L103.645 223.359V216.58Z" fill="#333333"/>
</g>
<g style="mix-blend-mode:overlay">
<path d="M88.4158 191.996L41.7383 207.736L88.4158 198.939V191.996Z" fill="#F2F2F2"/>
</g>
<path d="M164.396 163.28L171 166.761V174.587H164.396V163.28Z" fill="#F2F2F2" stroke="black" stroke-width="0.898519" stroke-linecap="round" stroke-linejoin="round"/>
<path d="M164.396 185.895L171 182.414V174.587H164.396V185.895Z" fill="#F2F2F2" stroke="black" stroke-width="0.898519" stroke-linecap="round" stroke-linejoin="round"/>
<path d="M171 169.952L165.862 168.72" stroke="#3A3A3A" stroke-width="0.898519" stroke-linecap="round" stroke-linejoin="round"/>
<path d="M171 179.223L165.862 180.455" stroke="#3A3A3A" stroke-width="0.898519" stroke-linecap="round" stroke-linejoin="round"/>
<path d="M156.645 189.328H165.862V159.846H156.645V189.328Z" fill="#BDCCD4" stroke="black" stroke-width="1.77208" stroke-linecap="round" stroke-linejoin="round"/>
<path d="M158.209 192.451V156.724H120.243V192.451H158.209Z" fill="#1B1464" stroke="black" stroke-width="1.06075" stroke-miterlimit="10"/>
<path d="M145.204 177.332C146.727 177.332 147.962 176.099 147.962 174.578C147.962 173.057 146.727 171.824 145.204 171.824H129.936C128.413 171.824 127.178 173.057 127.178 174.578C127.178 176.099 128.413 177.332 129.936 177.332H145.204Z" fill="#F2F2F2" stroke="black" stroke-width="0.798683" stroke-linecap="round" stroke-linejoin="round"/>
<path d="M145.126 176.255C146.081 176.255 146.855 175.483 146.855 174.529C146.855 173.576 146.081 172.803 145.126 172.803H135.589C134.634 172.803 133.86 173.576 133.86 174.529C133.86 175.483 134.634 176.255 135.589 176.255H145.126Z" fill="#00FFFF" stroke="black" stroke-width="1.06075" stroke-miterlimit="10"/>
<path d="M120.243 192.451H112.658V188.039L120.243 185.313V192.451Z" fill="#F2F2F2" stroke="black" stroke-width="1.31034" stroke-linecap="round" stroke-linejoin="round"/>
<path d="M127.178 174.587H121.981" stroke="black" stroke-width="0.935957" stroke-linecap="round" stroke-linejoin="round"/>
<path d="M121.981 156.704V192.461" stroke="black" stroke-width="0.935957" stroke-linecap="round" stroke-linejoin="round"/>
<path d="M160.919 193.731V155.443H157.432V193.731H160.919Z" fill="#F2F2F2" stroke="black" stroke-width="1.19802" stroke-linecap="round" stroke-linejoin="round"/>
<g style="mix-blend-mode:soft-light">
<path d="M120.573 157.344V158.547H157.432V157.344H120.573Z" fill="white"/>
</g>
<path d="M155.48 184.421V164.754H152.654V184.421H155.48Z" fill="black" stroke="black" stroke-width="0.786204" stroke-linecap="round" stroke-linejoin="round"/>
<path d="M155.033 169.321V165.917H153.062V169.321H155.033Z" fill="#00FFFF" stroke="black" stroke-width="1.06075" stroke-miterlimit="10"/>
<path d="M155.033 172.793V169.389H153.062V172.793H155.033Z" fill="#00FFFF" stroke="black" stroke-width="1.06075" stroke-miterlimit="10"/>
<path d="M155.033 176.265V172.861H153.062V176.265H155.033Z" fill="#00FFFF" stroke="black" stroke-width="1.06075" stroke-miterlimit="10"/>
<path d="M155.033 179.737V176.333H153.062V179.737H155.033Z" fill="#00FFFF" stroke="black" stroke-width="1.06075" stroke-miterlimit="10"/>
<path d="M155.043 183.209V179.805H153.071V183.209H155.043Z" fill="#00FFFF" stroke="black" stroke-width="1.06075" stroke-miterlimit="10"/>
<path d="M126.362 194.022V199.618H133.122V194.022H126.362Z" fill="white" stroke="black" stroke-width="0.798683" stroke-miterlimit="10"/>
<path d="M145.456 191.637L138.396 200.976H129.781V191.637H145.456Z" fill="#0000FF" stroke="black" stroke-width="0.798683" stroke-linecap="round" stroke-linejoin="round"/>
<path d="M147.7 196.282V190.056H124.225V196.282H147.7Z" fill="#CCCCCC" stroke="black" stroke-width="0.798683" stroke-linecap="round" stroke-linejoin="round"/>
<path d="M151.41 194.197V155.909H148.555V194.197H151.41Z" fill="#F2F2F2" stroke="black" stroke-width="0.723807" stroke-linecap="round" stroke-linejoin="round"/>
<path d="M128.577 191.899H126.693C126.51 191.899 126.362 192.046 126.362 192.228V194.11C126.362 194.292 126.51 194.439 126.693 194.439H128.577C128.759 194.439 128.907 194.292 128.907 194.11V192.228C128.907 192.046 128.759 191.899 128.577 191.899Z" fill="#0000FF" stroke="black" stroke-width="0.536615" stroke-linecap="round" stroke-linejoin="round"/>
<path d="M145.136 191.637H142.591V194.178H145.136V191.637Z" fill="black" stroke="black" stroke-width="0.935957" stroke-linecap="round" stroke-linejoin="round"/>
<path d="M155.868 198.29H142.844C142.455 198.29 142.077 198.164 141.775 197.931L131.471 190.066H155.878V198.29H155.868Z" fill="#F2F2F2" stroke="black" stroke-width="0.798683" stroke-linecap="round" stroke-linejoin="round"/>
<path d="M154.043 190.201H152.664V193.508C152.664 193.887 152.974 194.197 153.353 194.197C153.732 194.197 154.052 193.887 154.052 193.508V190.201H154.043Z" fill="#C6C6C6" stroke="black" stroke-width="0.262068" stroke-linecap="round" stroke-linejoin="round"/>
<path d="M151.643 190.201H150.264V193.508C150.264 193.887 150.575 194.197 150.954 194.197C151.333 194.197 151.653 193.887 151.653 193.508V190.201H151.643Z" fill="#C6C6C6" stroke="black" stroke-width="0.262068" stroke-linecap="round" stroke-linejoin="round"/>
<path d="M149.254 190.201H147.875V193.508C147.875 193.887 148.186 194.197 148.565 194.197C148.943 194.197 149.264 193.887 149.264 193.508V190.201H149.254Z" fill="#C6C6C6" stroke="black" stroke-width="0.262068" stroke-linecap="round" stroke-linejoin="round"/>
<path d="M146.865 190.201H145.486V193.508C145.486 193.887 145.797 194.197 146.175 194.197C146.554 194.197 146.875 193.887 146.875 193.508V190.201H146.865Z" fill="#C6C6C6" stroke="black" stroke-width="0.262068" stroke-linecap="round" stroke-linejoin="round"/>
<path d="M144.466 190.201H143.087V193.508C143.087 193.887 143.398 194.197 143.776 194.197C144.155 194.197 144.476 193.887 144.476 193.508V190.201H144.466Z" fill="#C6C6C6" stroke="black" stroke-width="0.262068" stroke-linecap="round" stroke-linejoin="round"/>
<path style="mix-blend-mode:multiply" d="M139.62 196.282H137.92L129.762 190.056H131.461L139.62 196.282Z" fill="url(#paint0_linear_8701_2523)"/>
<g style="mix-blend-mode:multiply" opacity="0.28">
<path d="M125.07 184.324C125.07 184.324 127.362 181.114 129.237 178.379V170.757C127.362 168.012 125.07 164.812 125.07 164.812H117.961L111.356 171.125V178.011L117.961 184.324H125.07Z" fill="black"/>
</g>
<path d="M125.42 183.694H118.932L112.794 177.817V171.407L118.932 165.53H125.42C125.42 165.53 127.547 168.507 129.295 171.067V178.156C127.547 180.707 125.42 183.694 125.42 183.694Z" fill="#CCCCCC" stroke="black" stroke-width="1.02331" stroke-linecap="round" stroke-linejoin="round"/>
<g style="mix-blend-mode:multiply">
<path d="M120.175 183.694H118.806L112.658 177.817V171.407L118.806 165.53H120.175L114.027 171.407V177.817L120.175 183.694Z" fill="#CCCCCC"/>
</g>
<path d="M125.109 169.205H123.72C123.104 169.205 122.604 169.704 122.604 170.32V171.009C122.604 171.625 123.104 172.124 123.72 172.124H125.109C125.726 172.124 126.226 171.625 126.226 171.009V170.32C126.226 169.704 125.726 169.205 125.109 169.205Z" fill="white" stroke="black" stroke-width="0.686368" stroke-linecap="round" stroke-linejoin="round"/>
<path d="M125.109 177.06H123.72C123.104 177.06 122.604 177.56 122.604 178.176V178.864C122.604 179.48 123.104 179.98 123.72 179.98H125.109C125.726 179.98 126.226 179.48 126.226 178.864V178.176C126.226 177.56 125.726 177.06 125.109 177.06Z" fill="white" stroke="black" stroke-width="0.686368" stroke-linecap="round" stroke-linejoin="round"/>
<path d="M129.111 174.617H112.794" stroke="black" stroke-width="1.19802" stroke-linecap="round" stroke-linejoin="round"/>
<path d="M155.868 195.836H143.174C142.426 195.836 141.815 195.225 141.815 194.478V193.867C141.815 193.121 141.203 192.51 140.455 192.51H134.627" stroke="black" stroke-width="0.262068" stroke-miterlimit="10"/>
<path d="M139.843 144.97C140.785 143.253 139.581 140.78 137.133 139.432C134.695 138.084 131.947 138.385 131.005 140.101C130.907 140.285 130.839 140.479 130.781 140.683C130.636 140.838 130.509 140.993 130.402 141.178C129.46 142.894 130.665 145.367 133.112 146.715C135.55 148.063 138.299 147.763 139.241 146.046C139.338 145.862 139.406 145.668 139.464 145.464C139.61 145.309 139.736 145.154 139.843 144.97Z" fill="#FFE69F" stroke="black" stroke-width="2.5458" stroke-linecap="round" stroke-linejoin="round"/>
<path d="M146.991 146.774C144.854 144.989 142.096 144.766 140.843 146.269C140.707 146.434 140.61 146.609 140.513 146.803C140.348 146.929 140.183 147.055 140.047 147.22C138.794 148.723 139.513 151.39 141.649 153.165C143.786 154.949 146.544 155.172 147.797 153.669C147.933 153.504 148.03 153.329 148.128 153.135C148.293 153.009 148.458 152.883 148.594 152.718C149.847 151.215 149.128 148.548 146.991 146.774Z" fill="#FFE69F" stroke="black" stroke-width="2.5458" stroke-linecap="round" stroke-linejoin="round"/>
<path d="M139.254 146.057C140.2 144.345 138.986 141.867 136.544 140.522C134.102 139.177 131.355 139.474 130.409 141.186C129.464 142.898 130.677 145.376 133.12 146.721C135.562 148.066 138.308 147.769 139.254 146.057Z" fill="#FFD74E" stroke="black" stroke-width="0.611492" stroke-linecap="round" stroke-linejoin="round"/>
<path d="M139.845 144.977C140.79 143.265 139.577 140.787 137.135 139.442C134.692 138.097 131.946 138.394 131 140.106C130.055 141.818 131.268 144.296 133.71 145.641C136.153 146.986 138.899 146.689 139.845 144.977Z" fill="#FFD74E" stroke="black" stroke-width="0.611492" stroke-linecap="round" stroke-linejoin="round"/>
<path d="M138.542 143.67C138.406 143.913 138.202 144.116 137.959 144.262C137.182 144.747 135.939 144.698 134.812 144.077C133.472 143.34 132.724 142.021 133.045 141.003C133.074 140.897 133.112 140.8 133.161 140.703C133.744 139.665 135.405 139.481 136.9 140.295C138.386 141.12 139.115 142.623 138.542 143.66V143.67Z" fill="#2B6ED4" stroke="black" stroke-width="0.374383" stroke-linecap="round" stroke-linejoin="round"/>
<path d="M147.816 153.665C149.07 152.164 148.349 149.501 146.207 147.717C144.065 145.934 141.312 145.705 140.058 147.207C138.804 148.708 139.524 151.371 141.667 153.155C143.809 154.938 146.562 155.167 147.816 153.665Z" fill="#FFD74E" stroke="black" stroke-width="0.611492" stroke-linecap="round" stroke-linejoin="round"/>
<path d="M148.598 152.715C149.852 151.214 149.131 148.551 146.989 146.767C144.847 144.984 142.094 144.755 140.84 146.257C139.586 147.758 140.307 150.421 142.449 152.205C144.591 153.988 147.344 154.217 148.598 152.715Z" fill="#FFD74E" stroke="black" stroke-width="0.611492" stroke-linecap="round" stroke-linejoin="round"/>
<path d="M147.573 151.196C147.457 151.332 147.33 151.448 147.165 151.535C146.301 152.059 144.941 151.817 143.834 150.895C142.756 149.993 142.27 148.742 142.562 147.811C142.63 147.617 142.717 147.423 142.863 147.268C143.62 146.356 145.31 146.502 146.602 147.578C147.904 148.665 148.341 150.284 147.583 151.206L147.573 151.196Z" fill="#2B6ED4" stroke="black" stroke-width="0.374383" stroke-linecap="round" stroke-linejoin="round"/>
<path d="M137.959 144.262C137.182 144.747 135.939 144.698 134.812 144.077C133.472 143.34 132.724 142.021 133.045 141.003C133.821 140.518 135.065 140.557 136.201 141.178C137.561 141.924 138.289 143.243 137.959 144.262Z" fill="#00DBFF" stroke="black" stroke-width="0.374383" stroke-linecap="round" stroke-linejoin="round"/>
<path d="M147.165 151.525C146.301 152.049 144.941 151.807 143.834 150.885C142.756 149.983 142.27 148.732 142.562 147.801C143.416 147.287 144.796 147.52 145.903 148.451C146.971 149.343 147.466 150.594 147.165 151.525Z" fill="#00DBFF" stroke="black" stroke-width="0.374383" stroke-linecap="round" stroke-linejoin="round"/>
<defs>
<linearGradient id="paint0_linear_8701_2523" x1="132.365" y1="193.169" x2="148.001" y2="193.169" gradientUnits="userSpaceOnUse">
<stop stop-color="#BDCCD4"/>
<stop offset="1"/>
</linearGradient>
</defs>
</svg>
