<svg width="236" height="23" viewBox="0 0 236 23" fill="none" xmlns="http://www.w3.org/2000/svg">
<g clip-path="url(#clip0_6835_3853)">
<path d="M225.2 0.467957H10.2104C4.57137 0.467957 0 5.03932 0 10.6784V12.3546C0 17.9937 4.57137 22.565 10.2104 22.565H225.2C230.839 22.565 235.41 17.9937 235.41 12.3546V10.6784C235.41 5.03932 230.839 0.467957 225.2 0.467957Z" fill="#2C695D"/>
<path d="M235.41 10.2104V11.8866C235.41 12.1759 235.401 12.4652 235.367 12.746C234.934 7.53019 230.526 3.39497 225.2 3.39497H10.2104C4.88399 3.39497 0.476487 7.53019 0.0425435 12.746C0.00850869 12.4652 0 12.1759 0 11.8866V10.2104C0 4.59469 4.59469 0 10.2104 0H225.2C230.815 0 235.41 4.59469 235.41 10.2104Z" fill="#2D524B"/>
</g>
<defs>
<clipPath id="clip0_6835_3853">
<rect width="235.41" height="22.5651" fill="white"/>
</clipPath>
</defs>
</svg>
