<svg width="571" height="755" viewBox="0 0 571 755" fill="none" xmlns="http://www.w3.org/2000/svg">
<path d="M504.937 15.0684H66.0638C34.269 15.0684 8.49414 40.8445 8.49414 72.6409V688.925C8.49414 720.721 34.269 746.497 66.0638 746.497H504.937C536.732 746.497 562.507 720.721 562.507 688.925V72.6409C562.507 40.8445 536.732 15.0684 504.937 15.0684Z" stroke="#231F20" stroke-width="4.78951"/>
<path d="M504.937 8.49402H66.0638C34.269 8.49402 8.49414 34.2701 8.49414 66.0665V682.351C8.49414 714.147 34.269 739.923 66.0638 739.923H504.937C536.732 739.923 562.507 714.147 562.507 682.351V66.0665C562.507 34.2701 536.732 8.49402 504.937 8.49402Z" stroke="#231F20" stroke-width="4.78951"/>
<path d="M562.507 66.075V67.485C562.507 35.6834 536.729 9.90403 504.937 9.90403H66.0638C34.2723 9.90403 8.49414 35.6834 8.49414 67.485V66.075C8.49414 34.2734 34.2723 8.49402 66.0638 8.49402H504.937C536.729 8.49402 562.507 34.2734 562.507 66.075Z" stroke="#231F20" stroke-width="4.78951"/>
<path d="M545.646 82.2052V666.212C545.646 696.162 521.371 720.438 491.431 720.438H79.5674C49.619 720.438 25.3442 696.162 25.3442 666.212V82.2052C25.3442 52.2638 49.619 27.9879 79.5674 27.9879H491.431C521.371 27.9879 545.646 52.2638 545.646 82.2052Z" stroke="#231F20" stroke-width="4.78951"/>
<path d="M545.646 95.3624V666.212C545.646 696.162 521.371 720.438 491.431 720.438H79.5674C49.619 720.438 25.3442 696.162 25.3442 666.212V95.3624C25.3442 65.421 49.619 41.1451 79.5674 41.1451H491.431C521.371 41.1451 545.646 65.421 545.646 95.3624Z" stroke="#231F20" stroke-width="4.78951"/>
<path d="M504.937 15.0684H66.0638C34.269 15.0684 8.49414 40.8445 8.49414 72.6409V688.925C8.49414 720.721 34.269 746.497 66.0638 746.497H504.937C536.732 746.497 562.507 720.721 562.507 688.925V72.6409C562.507 40.8445 536.732 15.0684 504.937 15.0684Z" fill="#406658"/>
<path d="M504.937 8.49402H66.0638C34.269 8.49402 8.49414 34.2701 8.49414 66.0665V682.351C8.49414 714.147 34.269 739.923 66.0638 739.923H504.937C536.732 739.923 562.507 714.147 562.507 682.351V66.0665C562.507 34.2701 536.732 8.49402 504.937 8.49402Z" fill="#80B6A4"/>
<path d="M562.507 66.075V67.485C562.507 35.6834 536.729 9.90403 504.937 9.90403H66.0638C34.2723 9.90403 8.49414 35.6834 8.49414 67.485V66.075C8.49414 34.2734 34.2723 8.49402 66.0638 8.49402H504.937C536.729 8.49402 562.507 34.2734 562.507 66.075Z" fill="white"/>
<path d="M545.646 82.2052V666.212C545.646 696.162 521.371 720.438 491.431 720.438H79.5674C49.619 720.438 25.3442 696.162 25.3442 666.212V82.2052C25.3442 52.2638 49.619 27.9879 79.5674 27.9879H491.431C521.371 27.9879 545.646 52.2638 545.646 82.2052Z" fill="#356E60"/>
<path d="M545.646 95.3624V666.212C545.646 696.162 521.371 720.438 491.431 720.438H79.5674C49.619 720.438 25.3442 696.162 25.3442 666.212V95.3624C25.3442 65.421 49.619 41.1451 79.5674 41.1451H491.431C521.371 41.1451 545.646 65.421 545.646 95.3624Z" fill="#438D7F"/>
</svg>
