<svg width="61" height="22" viewBox="0 0 61 22" fill="none" xmlns="http://www.w3.org/2000/svg">
<g clip-path="url(#clip0_6867_3318)">
<path d="M56.995 0.625H3.625C1.975 0.625 0.625 1.975 0.625 3.625V17.5625C0.625 19.2125 1.975 20.5625 3.625 20.5625H56.995C58.645 20.5625 59.995 19.2125 59.995 17.5625V3.625C59.995 1.975 58.645 0.625 56.995 0.625Z" stroke="#2D1B07" stroke-width="1.25" stroke-miterlimit="10"/>
<path d="M56.995 2.4675H3.625C1.96815 2.4675 0.625 3.81064 0.625 5.4675V17.5625C0.625 19.2194 1.96815 20.5625 3.625 20.5625H56.995C58.6519 20.5625 59.995 19.2194 59.995 17.5625V5.4675C59.995 3.81064 58.6519 2.4675 56.995 2.4675Z" fill="#953E24"/>
<path d="M56.995 0.625H3.625C1.96815 0.625 0.625 1.96815 0.625 3.625V15.72C0.625 17.3769 1.96815 18.72 3.625 18.72H56.995C58.6519 18.72 59.995 17.3769 59.995 15.72V3.625C59.995 1.96815 58.6519 0.625 56.995 0.625Z" fill="#FCBF33"/>
<path d="M58.9976 4.4225V10.4925H1.62256V4.4225C1.62256 2.8625 2.91006 1.5875 4.48506 1.5875H56.1326C57.7076 1.5875 58.9951 2.8625 58.9951 4.4225H58.9976Z" fill="#FFD452"/>
<path d="M58.0191 4.05878C58.2725 3.61994 57.9457 2.95695 57.2892 2.57795C56.6328 2.19894 55.8952 2.24744 55.6419 2.68628C55.3885 3.12511 55.7153 3.7881 56.3717 4.16711C57.0282 4.54611 57.7657 4.49761 58.0191 4.05878Z" fill="#FDEE97"/>
<path d="M2.77492 3.385C3.28164 3.385 3.69242 2.97422 3.69242 2.4675C3.69242 1.96078 3.28164 1.55 2.77492 1.55C2.2682 1.55 1.85742 1.96078 1.85742 2.4675C1.85742 2.97422 2.2682 3.385 2.77492 3.385Z" fill="#FDEE97"/>
<path d="M58.9976 15.5575V15.9175C58.9976 16.94 58.1701 17.77 57.1476 17.77H3.47256C2.45256 17.77 1.62256 16.94 1.62256 15.9175V15.5575C1.62256 16.58 2.45256 17.41 3.47256 17.41H57.1476C58.1701 17.41 58.9976 16.58 58.9976 15.5575Z" fill="#D38E3C"/>
<path d="M17.3276 6.53H18.7301V10.2825C18.7301 10.715 18.6276 11.0925 18.4201 11.415C18.2126 11.7375 17.9251 11.985 17.5576 12.16C17.1876 12.335 16.7601 12.4225 16.2701 12.4225C15.7801 12.4225 15.3451 12.335 14.9751 12.16C14.6051 11.985 14.3201 11.7375 14.1151 11.415C13.9101 11.095 13.8076 10.7175 13.8076 10.2825V6.53H15.2126V10.16C15.2126 10.36 15.2576 10.54 15.3451 10.6975C15.4326 10.855 15.5576 10.9775 15.7151 11.0675C15.8751 11.1575 16.0601 11.2 16.2701 11.2C16.4801 11.2 16.6651 11.155 16.8226 11.0675C16.9801 10.9775 17.1051 10.855 17.1926 10.6975C17.2801 10.54 17.3251 10.3625 17.3251 10.16V6.53H17.3276Z" stroke="#42210B" stroke-width="1.75" stroke-linecap="round" stroke-linejoin="round"/>
<path d="M19.6099 13.985V7.985H20.9849V8.7325H21.0274C21.0849 8.6 21.1649 8.4725 21.2699 8.35C21.3749 8.2275 21.5099 8.125 21.6724 8.0475C21.8374 7.97 22.0324 7.93 22.2624 7.93C22.5649 7.93 22.8499 8.01 23.1124 8.1675C23.3774 8.3275 23.5899 8.5725 23.7524 8.9025C23.9149 9.2325 23.9974 9.6575 23.9974 10.17C23.9974 10.6825 23.9199 11.0775 23.7624 11.4125C23.6049 11.7475 23.3949 11.995 23.1324 12.1625C22.8699 12.33 22.5749 12.4125 22.2524 12.4125C22.0324 12.4125 21.8424 12.3775 21.6824 12.305C21.5224 12.2325 21.3874 12.1375 21.2774 12.02C21.1674 11.9025 21.0849 11.7775 21.0249 11.6425H20.9974V13.9875H19.6074L19.6099 13.985ZM20.9724 10.1675C20.9724 10.4025 21.0049 10.6075 21.0674 10.78C21.1299 10.955 21.2224 11.09 21.3424 11.185C21.4624 11.28 21.6074 11.3275 21.7749 11.3275C21.9424 11.3275 22.0899 11.28 22.2099 11.185C22.3299 11.09 22.4199 10.955 22.4799 10.78C22.5424 10.605 22.5724 10.4025 22.5724 10.1675C22.5724 9.9325 22.5424 9.73 22.4799 9.5575C22.4174 9.385 22.3274 9.2525 22.2099 9.1575C22.0924 9.0625 21.9474 9.015 21.7749 9.015C21.6024 9.015 21.4599 9.0625 21.3399 9.155C21.2199 9.2475 21.1299 9.38 21.0649 9.5525C21.0024 9.725 20.9699 9.93 20.9699 10.17L20.9724 10.1675Z" stroke="#42210B" stroke-width="1.75" stroke-linecap="round" stroke-linejoin="round"/>
<path d="M26.765 14.0775C26.35 14.0775 25.995 14.02 25.7 13.905C25.405 13.79 25.1725 13.6325 25.005 13.43C24.8375 13.23 24.735 13.0025 24.7 12.7475L26.015 12.6725C26.04 12.7625 26.085 12.84 26.1525 12.905C26.22 12.97 26.3075 13.0225 26.4175 13.0575C26.5275 13.0925 26.655 13.1125 26.8025 13.1125C27.035 13.1125 27.2275 13.055 27.38 12.9425C27.5325 12.83 27.61 12.6325 27.61 12.3525V11.585H27.5625C27.5075 11.72 27.425 11.84 27.3125 11.945C27.2 12.05 27.0625 12.135 26.895 12.195C26.73 12.255 26.54 12.285 26.325 12.285C26.0075 12.285 25.715 12.21 25.4525 12.0625C25.1875 11.915 24.9775 11.6825 24.82 11.37C24.6625 11.0575 24.5825 10.6525 24.5825 10.1575C24.5825 9.6625 24.665 9.2275 24.8275 8.8975C24.99 8.5675 25.205 8.3225 25.4675 8.1625C25.7325 8.0025 26.0175 7.925 26.3225 7.925C26.5525 7.925 26.7475 7.965 26.9125 8.0425C27.0775 8.12 27.21 8.2225 27.3175 8.345C27.4225 8.4675 27.505 8.595 27.56 8.7275H27.6V7.98H28.9825V12.36C28.9825 12.73 28.89 13.04 28.705 13.295C28.52 13.55 28.26 13.7425 27.9275 13.8725C27.595 14.005 27.2075 14.07 26.7725 14.07L26.765 14.0775ZM26.8075 11.2775C26.975 11.2775 27.12 11.2325 27.24 11.145C27.36 11.055 27.45 10.9275 27.515 10.7625C27.58 10.595 27.6125 10.395 27.6125 10.1625C27.6125 9.93 27.58 9.7225 27.5175 9.55C27.455 9.3775 27.3625 9.2475 27.2425 9.1525C27.1225 9.06 26.9775 9.0125 26.81 9.0125C26.6425 9.0125 26.4925 9.06 26.3725 9.155C26.2525 9.25 26.1625 9.3825 26.1 9.555C26.0375 9.7275 26.0075 9.9275 26.0075 10.1625C26.0075 10.3975 26.0375 10.595 26.1025 10.7625C26.165 10.93 26.255 11.0575 26.3725 11.145C26.49 11.235 26.6375 11.2775 26.8075 11.2775Z" stroke="#42210B" stroke-width="1.75" stroke-linecap="round" stroke-linejoin="round"/>
<path d="M29.8599 12.35V7.9875H31.2099V8.7825H31.2549C31.3349 8.495 31.4649 8.28 31.6449 8.14C31.8249 8 32.0349 7.9275 32.2724 7.9275C32.3374 7.9275 32.4024 7.9325 32.4724 7.94C32.5399 7.9475 32.6049 7.9625 32.6624 7.9775V9.185C32.5949 9.1625 32.5099 9.145 32.4024 9.13C32.2949 9.1175 32.1999 9.11 32.1174 9.11C31.9524 9.11 31.8049 9.1475 31.6724 9.22C31.5399 9.2925 31.4374 9.395 31.3624 9.525C31.2874 9.655 31.2499 9.8075 31.2499 9.98V12.35H29.8599Z" stroke="#42210B" stroke-width="1.75" stroke-linecap="round" stroke-linejoin="round"/>
<path d="M34.2948 12.4225C34.0173 12.4225 33.7698 12.375 33.5548 12.2825C33.3398 12.19 33.1698 12.0475 33.0473 11.8575C32.9248 11.6675 32.8623 11.4275 32.8623 11.14C32.8623 10.8975 32.9048 10.6925 32.9898 10.5275C33.0748 10.3625 33.1923 10.225 33.3423 10.1225C33.4923 10.0175 33.6648 9.94 33.8598 9.885C34.0548 9.83 34.2623 9.795 34.4848 9.775C34.7323 9.7525 34.9323 9.7275 35.0848 9.7025C35.2373 9.6775 35.3473 9.64 35.4148 9.5925C35.4848 9.545 35.5198 9.475 35.5198 9.3875V9.3725C35.5198 9.2275 35.4698 9.115 35.3698 9.035C35.2698 8.955 35.1348 8.915 34.9648 8.915C34.7823 8.915 34.6323 8.955 34.5223 9.035C34.4098 9.115 34.3398 9.225 34.3098 9.365L33.0298 9.32C33.0673 9.055 33.1648 8.8175 33.3248 8.6075C33.4823 8.3975 33.6998 8.2325 33.9773 8.1125C34.2548 7.9925 34.5873 7.9325 34.9798 7.9325C35.2573 7.9325 35.5148 7.965 35.7498 8.03C35.9848 8.095 36.1898 8.19 36.3623 8.315C36.5373 8.44 36.6723 8.59 36.7673 8.77C36.8623 8.95 36.9098 9.155 36.9098 9.3875V12.3525H35.6023V11.745H35.5673C35.4898 11.8925 35.3898 12.0175 35.2698 12.12C35.1498 12.2225 35.0073 12.3 34.8473 12.35C34.6848 12.4 34.5023 12.4275 34.2998 12.4275L34.2948 12.4225ZM34.7248 11.515C34.8748 11.515 35.0098 11.485 35.1298 11.425C35.2498 11.365 35.3473 11.28 35.4173 11.1725C35.4898 11.065 35.5248 10.94 35.5248 10.8V10.385C35.4848 10.405 35.4373 10.425 35.3823 10.4425C35.3273 10.46 35.2648 10.475 35.1998 10.49C35.1323 10.505 35.0648 10.5175 34.9948 10.53C34.9248 10.5425 34.8573 10.5525 34.7923 10.56C34.6623 10.58 34.5498 10.6125 34.4598 10.6575C34.3673 10.7 34.2973 10.7575 34.2498 10.8275C34.2023 10.8975 34.1773 10.9775 34.1773 11.0725C34.1773 11.2175 34.2298 11.3275 34.3323 11.4025C34.4348 11.4775 34.5673 11.515 34.7248 11.515Z" stroke="#42210B" stroke-width="1.75" stroke-linecap="round" stroke-linejoin="round"/>
<path d="M39.345 12.4125C39.0225 12.4125 38.73 12.33 38.4675 12.1625C38.205 11.995 37.995 11.745 37.8375 11.4125C37.68 11.08 37.6025 10.665 37.6025 10.17C37.6025 9.675 37.685 9.235 37.8475 8.9025C38.01 8.57 38.225 8.325 38.4875 8.1675C38.7525 8.0075 39.0375 7.93 39.3425 7.93C39.5725 7.93 39.7675 7.97 39.93 8.0475C40.0925 8.125 40.2275 8.2275 40.3325 8.35C40.4375 8.4725 40.52 8.6 40.575 8.7325H40.6025V6.53H41.9925V12.3475H40.6175V11.64H40.575C40.5175 11.775 40.4325 11.9 40.325 12.0175C40.2175 12.135 40.0825 12.23 39.92 12.3025C39.7575 12.375 39.5675 12.41 39.3475 12.41L39.345 12.4125ZM39.8275 11.33C39.995 11.33 40.14 11.2825 40.26 11.1875C40.38 11.0925 40.47 10.9575 40.535 10.7825C40.6 10.6075 40.6325 10.405 40.6325 10.17C40.6325 9.935 40.6 9.725 40.5375 9.5525C40.475 9.38 40.3825 9.2475 40.2625 9.155C40.1425 9.0625 39.9975 9.015 39.83 9.015C39.6625 9.015 39.5125 9.0625 39.3925 9.1575C39.2725 9.2525 39.1825 9.385 39.12 9.5575C39.0575 9.73 39.0275 9.9325 39.0275 10.1675C39.0275 10.4025 39.0575 10.6075 39.1225 10.78C39.185 10.955 39.275 11.09 39.3925 11.185C39.51 11.28 39.6575 11.3275 39.8275 11.3275V11.33Z" stroke="#42210B" stroke-width="1.75" stroke-linecap="round" stroke-linejoin="round"/>
<path d="M44.9101 12.4325C44.4526 12.4325 44.0601 12.3425 43.7301 12.16C43.4001 11.98 43.1451 11.72 42.9676 11.385C42.7901 11.05 42.7026 10.65 42.7026 10.185C42.7026 9.72 42.7926 9.34 42.9701 9.0025C43.1476 8.665 43.4001 8.4 43.7226 8.2125C44.0476 8.025 44.4276 7.93 44.8676 7.93C45.1776 7.93 45.4626 7.9775 45.7201 8.075C45.9776 8.1725 46.2001 8.315 46.3876 8.505C46.5751 8.695 46.7201 8.9275 46.8251 9.205C46.9301 9.4825 46.9801 9.8 46.9801 10.1575V10.505H43.1876V9.6975H45.6876C45.6876 9.55 45.6501 9.4175 45.5826 9.3025C45.5151 9.1875 45.4201 9.0975 45.3026 9.0325C45.1851 8.9675 45.0476 8.935 44.8951 8.935C44.7426 8.935 44.6001 8.97 44.4776 9.0375C44.3551 9.1075 44.2576 9.2 44.1851 9.3175C44.1126 9.435 44.0751 9.57 44.0726 9.72V10.54C44.0726 10.7175 44.1076 10.875 44.1776 11.0075C44.2476 11.14 44.3476 11.245 44.4751 11.3175C44.6026 11.39 44.7576 11.4275 44.9351 11.4275C45.0576 11.4275 45.1701 11.41 45.2701 11.3775C45.3701 11.3425 45.4576 11.2925 45.5276 11.2275C45.6001 11.16 45.6526 11.08 45.6901 10.9825L46.9651 11.02C46.9126 11.305 46.7951 11.555 46.6176 11.765C46.4376 11.9775 46.2051 12.14 45.9151 12.2575C45.6251 12.375 45.2901 12.4325 44.9101 12.4325Z" stroke="#42210B" stroke-width="1.75" stroke-linecap="round" stroke-linejoin="round"/>
<path d="M17.3276 6.53H18.7301V10.2825C18.7301 10.715 18.6276 11.0925 18.4201 11.415C18.2126 11.7375 17.9251 11.985 17.5576 12.16C17.1876 12.335 16.7601 12.4225 16.2701 12.4225C15.7801 12.4225 15.3451 12.335 14.9751 12.16C14.6051 11.985 14.3201 11.7375 14.1151 11.415C13.9101 11.095 13.8076 10.7175 13.8076 10.2825V6.53H15.2126V10.16C15.2126 10.36 15.2576 10.54 15.3451 10.6975C15.4326 10.855 15.5576 10.9775 15.7151 11.0675C15.8751 11.1575 16.0601 11.2 16.2701 11.2C16.4801 11.2 16.6651 11.155 16.8226 11.0675C16.9801 10.9775 17.1051 10.855 17.1926 10.6975C17.2801 10.54 17.3251 10.3625 17.3251 10.16V6.53H17.3276Z" fill="white"/>
<path d="M19.6099 13.985V7.985H20.9849V8.7325H21.0274C21.0849 8.6 21.1649 8.4725 21.2699 8.35C21.3749 8.2275 21.5099 8.125 21.6724 8.0475C21.8374 7.97 22.0324 7.93 22.2624 7.93C22.5649 7.93 22.8499 8.01 23.1124 8.1675C23.3774 8.3275 23.5899 8.5725 23.7524 8.9025C23.9149 9.2325 23.9974 9.6575 23.9974 10.17C23.9974 10.6825 23.9199 11.0775 23.7624 11.4125C23.6049 11.7475 23.3949 11.995 23.1324 12.1625C22.8699 12.33 22.5749 12.4125 22.2524 12.4125C22.0324 12.4125 21.8424 12.3775 21.6824 12.305C21.5224 12.2325 21.3874 12.1375 21.2774 12.02C21.1674 11.9025 21.0849 11.7775 21.0249 11.6425H20.9974V13.9875H19.6074L19.6099 13.985ZM20.9724 10.1675C20.9724 10.4025 21.0049 10.6075 21.0674 10.78C21.1299 10.955 21.2224 11.09 21.3424 11.185C21.4624 11.28 21.6074 11.3275 21.7749 11.3275C21.9424 11.3275 22.0899 11.28 22.2099 11.185C22.3299 11.09 22.4199 10.955 22.4799 10.78C22.5424 10.605 22.5724 10.4025 22.5724 10.1675C22.5724 9.9325 22.5424 9.73 22.4799 9.5575C22.4174 9.385 22.3274 9.2525 22.2099 9.1575C22.0924 9.0625 21.9474 9.015 21.7749 9.015C21.6024 9.015 21.4599 9.0625 21.3399 9.155C21.2199 9.2475 21.1299 9.38 21.0649 9.5525C21.0024 9.725 20.9699 9.93 20.9699 10.17L20.9724 10.1675Z" fill="white"/>
<path d="M26.765 14.0775C26.35 14.0775 25.995 14.02 25.7 13.905C25.405 13.79 25.1725 13.6325 25.005 13.43C24.8375 13.23 24.735 13.0025 24.7 12.7475L26.015 12.6725C26.04 12.7625 26.085 12.84 26.1525 12.905C26.22 12.97 26.3075 13.0225 26.4175 13.0575C26.5275 13.0925 26.655 13.1125 26.8025 13.1125C27.035 13.1125 27.2275 13.055 27.38 12.9425C27.5325 12.83 27.61 12.6325 27.61 12.3525V11.585H27.5625C27.5075 11.72 27.425 11.84 27.3125 11.945C27.2 12.05 27.0625 12.135 26.895 12.195C26.73 12.255 26.54 12.285 26.325 12.285C26.0075 12.285 25.715 12.21 25.4525 12.0625C25.1875 11.915 24.9775 11.6825 24.82 11.37C24.6625 11.0575 24.5825 10.6525 24.5825 10.1575C24.5825 9.6625 24.665 9.2275 24.8275 8.8975C24.99 8.5675 25.205 8.3225 25.4675 8.1625C25.7325 8.0025 26.0175 7.925 26.3225 7.925C26.5525 7.925 26.7475 7.965 26.9125 8.0425C27.0775 8.12 27.21 8.2225 27.3175 8.345C27.4225 8.4675 27.505 8.595 27.56 8.7275H27.6V7.98H28.9825V12.36C28.9825 12.73 28.89 13.04 28.705 13.295C28.52 13.55 28.26 13.7425 27.9275 13.8725C27.595 14.005 27.2075 14.07 26.7725 14.07L26.765 14.0775ZM26.8075 11.2775C26.975 11.2775 27.12 11.2325 27.24 11.145C27.36 11.055 27.45 10.9275 27.515 10.7625C27.58 10.595 27.6125 10.395 27.6125 10.1625C27.6125 9.93 27.58 9.7225 27.5175 9.55C27.455 9.3775 27.3625 9.2475 27.2425 9.1525C27.1225 9.06 26.9775 9.0125 26.81 9.0125C26.6425 9.0125 26.4925 9.06 26.3725 9.155C26.2525 9.25 26.1625 9.3825 26.1 9.555C26.0375 9.7275 26.0075 9.9275 26.0075 10.1625C26.0075 10.3975 26.0375 10.595 26.1025 10.7625C26.165 10.93 26.255 11.0575 26.3725 11.145C26.49 11.235 26.6375 11.2775 26.8075 11.2775Z" fill="white"/>
<path d="M29.8599 12.35V7.9875H31.2099V8.7825H31.2549C31.3349 8.495 31.4649 8.28 31.6449 8.14C31.8249 8 32.0349 7.9275 32.2724 7.9275C32.3374 7.9275 32.4024 7.9325 32.4724 7.94C32.5399 7.9475 32.6049 7.9625 32.6624 7.9775V9.185C32.5949 9.1625 32.5099 9.145 32.4024 9.13C32.2949 9.1175 32.1999 9.11 32.1174 9.11C31.9524 9.11 31.8049 9.1475 31.6724 9.22C31.5399 9.2925 31.4374 9.395 31.3624 9.525C31.2874 9.655 31.2499 9.8075 31.2499 9.98V12.35H29.8599Z" fill="white"/>
<path d="M34.2948 12.4225C34.0173 12.4225 33.7698 12.375 33.5548 12.2825C33.3398 12.19 33.1698 12.0475 33.0473 11.8575C32.9248 11.6675 32.8623 11.4275 32.8623 11.14C32.8623 10.8975 32.9048 10.6925 32.9898 10.5275C33.0748 10.3625 33.1923 10.225 33.3423 10.1225C33.4923 10.0175 33.6648 9.94 33.8598 9.885C34.0548 9.83 34.2623 9.795 34.4848 9.775C34.7323 9.7525 34.9323 9.7275 35.0848 9.7025C35.2373 9.6775 35.3473 9.64 35.4148 9.5925C35.4848 9.545 35.5198 9.475 35.5198 9.3875V9.3725C35.5198 9.2275 35.4698 9.115 35.3698 9.035C35.2698 8.955 35.1348 8.915 34.9648 8.915C34.7823 8.915 34.6323 8.955 34.5223 9.035C34.4098 9.115 34.3398 9.225 34.3098 9.365L33.0298 9.32C33.0673 9.055 33.1648 8.8175 33.3248 8.6075C33.4823 8.3975 33.6998 8.2325 33.9773 8.1125C34.2548 7.9925 34.5873 7.9325 34.9798 7.9325C35.2573 7.9325 35.5148 7.965 35.7498 8.03C35.9848 8.095 36.1898 8.19 36.3623 8.315C36.5373 8.44 36.6723 8.59 36.7673 8.77C36.8623 8.95 36.9098 9.155 36.9098 9.3875V12.3525H35.6023V11.745H35.5673C35.4898 11.8925 35.3898 12.0175 35.2698 12.12C35.1498 12.2225 35.0073 12.3 34.8473 12.35C34.6848 12.4 34.5023 12.4275 34.2998 12.4275L34.2948 12.4225ZM34.7248 11.515C34.8748 11.515 35.0098 11.485 35.1298 11.425C35.2498 11.365 35.3473 11.28 35.4173 11.1725C35.4898 11.065 35.5248 10.94 35.5248 10.8V10.385C35.4848 10.405 35.4373 10.425 35.3823 10.4425C35.3273 10.46 35.2648 10.475 35.1998 10.49C35.1323 10.505 35.0648 10.5175 34.9948 10.53C34.9248 10.5425 34.8573 10.5525 34.7923 10.56C34.6623 10.58 34.5498 10.6125 34.4598 10.6575C34.3673 10.7 34.2973 10.7575 34.2498 10.8275C34.2023 10.8975 34.1773 10.9775 34.1773 11.0725C34.1773 11.2175 34.2298 11.3275 34.3323 11.4025C34.4348 11.4775 34.5673 11.515 34.7248 11.515Z" fill="white"/>
<path d="M39.345 12.4125C39.0225 12.4125 38.73 12.33 38.4675 12.1625C38.205 11.995 37.995 11.745 37.8375 11.4125C37.68 11.08 37.6025 10.665 37.6025 10.17C37.6025 9.675 37.685 9.235 37.8475 8.9025C38.01 8.57 38.225 8.325 38.4875 8.1675C38.7525 8.0075 39.0375 7.93 39.3425 7.93C39.5725 7.93 39.7675 7.97 39.93 8.0475C40.0925 8.125 40.2275 8.2275 40.3325 8.35C40.4375 8.4725 40.52 8.6 40.575 8.7325H40.6025V6.53H41.9925V12.3475H40.6175V11.64H40.575C40.5175 11.775 40.4325 11.9 40.325 12.0175C40.2175 12.135 40.0825 12.23 39.92 12.3025C39.7575 12.375 39.5675 12.41 39.3475 12.41L39.345 12.4125ZM39.8275 11.33C39.995 11.33 40.14 11.2825 40.26 11.1875C40.38 11.0925 40.47 10.9575 40.535 10.7825C40.6 10.6075 40.6325 10.405 40.6325 10.17C40.6325 9.935 40.6 9.725 40.5375 9.5525C40.475 9.38 40.3825 9.2475 40.2625 9.155C40.1425 9.0625 39.9975 9.015 39.83 9.015C39.6625 9.015 39.5125 9.0625 39.3925 9.1575C39.2725 9.2525 39.1825 9.385 39.12 9.5575C39.0575 9.73 39.0275 9.9325 39.0275 10.1675C39.0275 10.4025 39.0575 10.6075 39.1225 10.78C39.185 10.955 39.275 11.09 39.3925 11.185C39.51 11.28 39.6575 11.3275 39.8275 11.3275V11.33Z" fill="white"/>
<path d="M44.9101 12.4325C44.4526 12.4325 44.0601 12.3425 43.7301 12.16C43.4001 11.98 43.1451 11.72 42.9676 11.385C42.7901 11.05 42.7026 10.65 42.7026 10.185C42.7026 9.72 42.7926 9.34 42.9701 9.0025C43.1476 8.665 43.4001 8.4 43.7226 8.2125C44.0476 8.025 44.4276 7.93 44.8676 7.93C45.1776 7.93 45.4626 7.9775 45.7201 8.075C45.9776 8.1725 46.2001 8.315 46.3876 8.505C46.5751 8.695 46.7201 8.9275 46.8251 9.205C46.9301 9.4825 46.9801 9.8 46.9801 10.1575V10.505H43.1876V9.6975H45.6876C45.6876 9.55 45.6501 9.4175 45.5826 9.3025C45.5151 9.1875 45.4201 9.0975 45.3026 9.0325C45.1851 8.9675 45.0476 8.935 44.8951 8.935C44.7426 8.935 44.6001 8.97 44.4776 9.0375C44.3551 9.1075 44.2576 9.2 44.1851 9.3175C44.1126 9.435 44.0751 9.57 44.0726 9.72V10.54C44.0726 10.7175 44.1076 10.875 44.1776 11.0075C44.2476 11.14 44.3476 11.245 44.4751 11.3175C44.6026 11.39 44.7576 11.4275 44.9351 11.4275C45.0576 11.4275 45.1701 11.41 45.2701 11.3775C45.3701 11.3425 45.4576 11.2925 45.5276 11.2275C45.6001 11.16 45.6526 11.08 45.6901 10.9825L46.9651 11.02C46.9126 11.305 46.7951 11.555 46.6176 11.765C46.4376 11.9775 46.2051 12.14 45.9151 12.2575C45.6251 12.375 45.2901 12.4325 44.9101 12.4325Z" fill="white"/>
</g>
<defs>
<clipPath id="clip0_6867_3318">
<rect width="60.62" height="21.1875" fill="white"/>
</clipPath>
</defs>
</svg>
